<?xml version="1.0" encoding="utf-8"?>
<!-- Generator: Adobe Illustrator 25.0.0, SVG Export Plug-In . SVG Version: 6.00 Build 0)  -->
<svg version="1.1" id="Ebene_1" xmlns="http://www.w3.org/2000/svg" xmlns:xlink="http://www.w3.org/1999/xlink" x="0px" y="0px"
	 viewBox="0 0 100 100" style="enable-background:new 0 0 100 100;" xml:space="preserve" fill="currentColor" class="text-white">
<g id="XMLID_1_">
	<g>
		<path d="M54.86,34.37c0.05,0.8,0.9,1.09,1.48,0.85c2.21,0.65,4.73,0.73,7.03,0.7c1.65,0,3.47-0.05,5.14-0.24
			c-0.58,1.48-0.58,3.15-0.73,4.73c-0.17,2.23-0.17,4.44-0.07,6.66c-0.05,0-0.07,0-0.12,0c-4.05,1.26-8.14-0.34-12.21,0.24
			c-0.51,0.1-0.63,0.68-0.41,1.07c-2.74,5.33-1.48,13.94-1.31,19.53c0.22,7.97,0.82,16.67,0.1,24.6c-2.52-0.29-5.14,0.12-7.66-0.1
			c-2.21-0.17-4.22-0.32-6.28,0.41c-0.12-7.71,0.07-15.46,0.27-23.19c0.17-7.22,1.07-14.78-0.1-21.93
			c-0.07-0.44-0.68-0.53-1.02-0.32c-0.15-0.24-0.39-0.41-0.8-0.44c-1.62-0.05-3.25,0.12-4.87,0.17c-0.8,0.05-1.82-0.17-2.69-0.07
			c-0.36-1.58,0.05-3.39,0.12-4.99c0.07-1.79,0.17-3.85-0.07-5.72c1.5,0.27,3.03,0.29,4.56,0.17c1.19-0.1,2.54-0.15,3.71-0.61
			c0.34-0.02,0.65-0.17,0.85-0.44c0.02-0.02,0.05-0.02,0.07-0.05c0.39-0.29,0.32-0.68,0.07-0.97c-0.56-7.32-0.29-18.2,5.57-22.98
			c6.01-4.92,16.96-3.51,24.4-2.59c-1.79,3.01-1.24,7.03-2.06,10.32c-3.47-1.55-8.97-1.02-11.37,1.55
			C53.09,24.31,54.64,30.08,54.86,34.37z"/>
		<path d="M64.07,34.1c1.79-0.1,4.05-0.58,5.5,0.68c0.12,0.12,0.15,0.27,0.12,0.44c1.65,3.42,0.05,8.77-0.22,12.34
			c-0.02,0.46-0.36,0.73-0.73,0.78c-0.1,0.27-0.29,0.51-0.63,0.61c-3.8,1.19-8.29,0.58-12.21-0.15c0.53,7.32-0.36,15.05-0.27,22.39
			c0.07,7.1,1.16,14.88-0.07,21.91c-0.02,0.19-0.15,0.32-0.27,0.41c-0.07,0.22-0.19,0.39-0.44,0.46c-2.74,0.65-5.99,0.63-8.77,0.34
			c-2.11-0.22-4.75,0.17-6.71-0.68c-0.44,0.15-1.04-0.05-1.04-0.63c-0.24-7.83-0.63-15.51-0.44-23.36
			c0.15-6.91-0.29-14.13,0.73-21.01c-0.12,0.07-0.27,0.15-0.46,0.15c-1.87,0.19-3.76,0.36-5.65,0.19c-0.78-0.07-1.89-0.15-2.52-0.7
			c-0.41,0.15-0.9,0.05-1.16-0.39c-0.92-1.5-0.36-3.73-0.29-5.4c0.12-2.16-0.36-4.9,0.7-6.88c-0.1-0.51,0.19-1.11,0.85-1.04
			c1.5,0.15,3.03,0.15,4.53,0.05c0.9-0.07,1.84-0.32,2.76-0.46c-0.78-3.78,0.22-8.75,0.7-12.38c0.63-4.6,2.01-9.04,5.74-12.04
			c3.39-2.74,7.61-3.78,11.88-3.9c4.85-0.12,10.88-1.11,15.2,1.43c0.12,0.07,0.22,0.19,0.29,0.29c0.29,0.05,0.56,0.32,0.48,0.63
			c-0.39,2.28-0.82,4.56-0.99,6.86c-0.12,1.65-0.05,3.39-0.65,4.97c-0.12,0.34-0.36,0.56-0.63,0.65c-0.07,0.15-0.19,0.27-0.36,0.32
			c-3.78,1.02-8.94-2.3-11.56,2.21c-1.89,3.22-0.68,7.73-0.58,11.2C59.25,33.83,61.65,34.2,64.07,34.1z M67.83,19.19
			c0.82-3.3,0.27-7.32,2.06-10.32c-7.44-0.92-18.39-2.33-24.4,2.59c-5.86,4.77-6.13,15.66-5.57,22.98c0.24,0.29,0.32,0.68-0.07,0.97
			c-0.02,0.02-0.05,0.02-0.07,0.05c-0.19,0.27-0.51,0.41-0.85,0.44c-1.16,0.46-2.52,0.51-3.71,0.61c-1.53,0.12-3.05,0.1-4.56-0.17
			c0.24,1.87,0.15,3.93,0.07,5.72c-0.07,1.6-0.48,3.42-0.12,4.99c0.87-0.1,1.89,0.12,2.69,0.07c1.62-0.05,3.25-0.22,4.87-0.17
			c0.41,0.02,0.65,0.19,0.8,0.44c0.34-0.22,0.95-0.12,1.02,0.32c1.16,7.15,0.27,14.71,0.1,21.93c-0.19,7.73-0.39,15.49-0.27,23.19
			c2.06-0.73,4.07-0.58,6.28-0.41c2.52,0.22,5.14-0.19,7.66,0.1c0.73-7.92,0.12-16.63-0.1-24.6c-0.17-5.6-1.43-14.2,1.31-19.53
			c-0.22-0.39-0.1-0.97,0.41-1.07c4.07-0.58,8.17,1.02,12.21-0.24c0.05,0,0.07,0,0.12,0c-0.1-2.23-0.1-4.44,0.07-6.66
			c0.15-1.58,0.15-3.25,0.73-4.73c-1.67,0.19-3.49,0.24-5.14,0.24c-2.3,0.02-4.82-0.05-7.03-0.7c-0.58,0.24-1.43-0.05-1.48-0.85
			c-0.22-4.29-1.77-10.06,1.6-13.62C58.86,18.18,64.36,17.64,67.83,19.19z"/>
	</g>
	<g>
	</g>
</g>
</svg>
