<?xml version="1.0" encoding="utf-8"?>
<!-- Generator: Adobe Illustrator 25.0.0, SVG Export Plug-In . SVG Version: 6.00 Build 0)  -->
<svg version="1.1" id="Ebene_1" xmlns="http://www.w3.org/2000/svg" xmlns:xlink="http://www.w3.org/1999/xlink" x="0px" y="0px"
	 viewBox="0 0 100 100" style="enable-background:new 0 0 100 100;" xml:space="preserve">
<g>
	<g id="XMLID_13_">
		<g>
			<path d="M96.08,94.23C96.03,94.15,96,94.07,96,93.97c-0.05-0.4-0.13-0.8-0.19-1.22c-2.66-0.19-5.45-0.05-8-0.11
				c-3.22-0.03-6.57,0.27-9.76,0.93c0-0.08,0.03-0.13,0-0.19c-1.68-8.24,5.32-44.65-12.9-41.88c-16.81,2.58-8.03,30.85-10.21,41.8
				c-6.41-0.27-12.42-0.96-18.8-0.27c0.61-2.98,0.43-6.41,0.43-9.39c0.03-6.09,0.27-12.15,0.51-18.24
				c0.37-9.92,0.64-20.58-0.61-30.5c2.9,0.61,6.09,0.32,8.96,0.24c2.9-0.08,6.14,0.16,9.09-0.32c-0.03,1.44,0.08,2.85,0.21,4.28
				c0.13,1.33,0,2.71,0.61,3.94c0.16,0.29,0.72,0.32,0.88,0c0.13-0.32,0.21-0.61,0.27-0.9c12.92-11.01,34.46-10.08,38.69,9.33
				c0.93,4.31,1.09,9.01,1.12,13.69c-0.9,2.21-0.51,5.82-0.45,7.53c0.16,7.1,0.29,14.17,0.21,21.27c0,0.11,0.03,0.19,0.05,0.27
				H96.08z"/>
			<path d="M54.95,93.3c2.18-10.96-6.59-39.22,10.21-41.8c18.21-2.77,11.22,33.64,12.9,41.88c0.03,0.05,0,0.11,0,0.19
				c3.19-0.66,6.54-0.96,9.76-0.93c2.55,0.05,5.34-0.08,8,0.11c0.05,0.43,0.13,0.82,0.19,1.22c0,0.11,0.03,0.19,0.08,0.27
				c0.03,0.19,0.11,0.35,0.16,0.51c-2.5,0.35-5.13,0-7.66-0.11c-3.96-0.16-8.06,0.82-11.99,0.11c-0.24-0.03-0.35-0.21-0.35-0.43
				c-0.08-0.11-0.16-0.24-0.21-0.4c-1.52-6.46,0.08-14.17-0.21-20.85c-0.11-2.71-0.16-5.45-0.43-8.14
				c-0.69-6.91-4.55-14.17-12.9-11.06c-8.27,3.06-6.06,17.76-6.04,24.41c0,2.55,0.16,5.16,0.11,7.74c0.11,0.03,0.19,0.08,0.21,0.24
				c0.48,2.87-0.24,6.06-0.56,8.96c-0.03,0.16-0.32,0.24-0.35,0.03c-0.05-0.24-0.08-0.51-0.11-0.74c-0.05,0.03-0.08,0.08-0.13,0.11
				c-2.93,0.88-5.98-0.21-8.93-0.43c-3.8-0.27-7.61,0.37-11.41-0.03c-0.43,0.08-0.88-0.05-1.01-0.59
				c-0.96-3.62,0.19-8.32,0.16-12.02c-0.03-6.62,0.4-13.24,0.56-19.84c0.13-6.22-0.03-12.44-0.35-18.64
				c-0.16-2.82-0.72-5.96,0.69-8.4c-0.11-0.03-0.21-0.05-0.32-0.08c-0.4-0.13-0.48-0.8,0-0.88c3.35-0.69,6.99-0.21,10.4-0.21
				c3.46-0.03,7.45-0.66,10.77,0.32c0.35,0.11,0.35,0.56,0,0.66c-0.13,0.03-0.27,0.05-0.43,0.08c0.16,1.52,0.35,3.03,0.56,4.55
				c0.08,0.77,0.21,1.52,0.21,2.26c9.87-9.84,25.55-11.33,35.02-0.24c5.32,6.25,5.85,12.6,6.17,20.48c0.08,1.97,0.19,3.94,0.27,5.9
				c-0.16,0.03-0.32,0.11-0.48,0.16c-0.64,8.7-0.35,17.52-0.24,26.3c0,0.66-0.93,0.74-1.17,0.27c-0.03-0.08-0.05-0.16-0.05-0.27
				c0.08-7.1-0.05-14.17-0.21-21.27c-0.05-1.7-0.45-5.32,0.45-7.53c-0.03-4.68-0.19-9.39-1.12-13.69
				c-4.23-19.41-25.77-20.34-38.69-9.33c-0.05,0.29-0.13,0.59-0.27,0.9c-0.16,0.32-0.72,0.29-0.88,0c-0.61-1.22-0.48-2.61-0.61-3.94
				c-0.13-1.44-0.24-2.85-0.21-4.28c-2.95,0.48-6.2,0.24-9.09,0.32c-2.87,0.08-6.06,0.37-8.96-0.24c1.25,9.92,0.98,20.58,0.61,30.5
				c-0.24,6.09-0.48,12.15-0.51,18.24c0,2.98,0.19,6.41-0.43,9.39C42.53,92.35,48.54,93.04,54.95,93.3z"/>
			<path d="M8.36,8.4c3.67-1.52,7.47-2.74,11.35-0.9c5.24,2.5,6.17,10.8,2.71,15.13c-3.59,4.47-10.45,4.07-14.76,0.9
				C2.46,19.7,2.83,11.72,8.36,8.4z"/>
			<path d="M12.51,34.96c3.72,0,7.55,0.66,11.14-0.64c-0.51,3.48-0.48,7.02-0.56,10.53c-0.05,3.14-0.27,6.36,0.11,9.49
				c-0.64,5.5-0.74,11.12-1.06,16.62c-0.4,7.5-1.09,15.13-0.66,22.66c-3.67,0-7.23-0.16-10.96-0.53c-1.36-0.13-3.86-0.59-5.27,0.21
				c-0.08-2.55,0.08-5.19-0.21-7.74c0.03-0.03,0.08-0.05,0.13-0.08c0.08-2.13,0.32-4.25,0.48-6.46c0.43-5.4,0.16-10.8,0.4-16.19
				c0.37-9.28,1.01-18.43-0.24-27.68C7.85,35.63,10.62,34.96,12.51,34.96z"/>
			<path d="M3.68,94.21c-0.21-2.69-0.27-5.45,0.11-8.14c-0.11,0.05-0.24,0.11-0.35,0.16c-0.27-6.54,0.64-13.38,0.64-19.65
				c0-5.27,0.53-10.48,0.53-15.74C4.64,45.52,3.97,40.12,4.5,34.8c0.03-0.11,0.08-0.19,0.16-0.27c-0.03-0.05-0.08-0.05-0.08-0.11
				c0-0.03,0-0.05,0-0.05c0-0.13,0.08-0.21,0.19-0.29c1.57-0.93,4.97-0.45,6.75-0.53c4.12-0.13,8.08,0.05,12.23-0.4
				c0.32-0.05,0.53,0.24,0.56,0.53c0.03,0,0.03,0.03,0.05,0.05c0.56,3.67,0.37,7.39,0.27,11.12c-0.05,2.79,0.03,5.69-0.24,8.48
				c0.53,5.82,0,11.83-0.32,17.63c-0.43,7.55-0.56,15.13-1.12,22.68c0.27,0,0.51,0.03,0.74,0c0.88,0,0.88,1.33,0,1.3
				c-0.48,0-0.98,0-1.46,0c-0.03,0-0.05,0-0.05,0c-3.38,0.03-6.73,0.13-10.1-0.05c-1.94-0.11-5.08,0.56-7.02-0.16
				C4.64,95.11,3.73,94.93,3.68,94.21z M21.47,93.62c-0.43-7.53,0.27-15.16,0.66-22.66c0.32-5.5,0.43-11.12,1.06-16.62
				c-0.37-3.14-0.16-6.36-0.11-9.49c0.08-3.51,0.05-7.05,0.56-10.53c-3.59,1.3-7.42,0.64-11.14,0.64c-1.89,0-4.65,0.66-6.7,0.19
				c1.25,9.25,0.61,18.4,0.24,27.68c-0.24,5.4,0.03,10.8-0.4,16.19c-0.16,2.21-0.4,4.33-0.48,6.46c-0.05,0.03-0.11,0.05-0.13,0.08
				c0.29,2.55,0.13,5.19,0.21,7.74c1.41-0.8,3.91-0.35,5.27-0.21C14.24,93.46,17.8,93.62,21.47,93.62z"/>
			<path d="M3.79,9.51c5.03-4.97,14.78-7.39,19.89-1.14c3.7,4.52,2.71,12.9-2.07,16.3C16.5,28.34,7.88,27.76,3.97,22.6
				c-2.85-3.75-2.45-8.91,0.16-12.47C3.79,10.23,3.52,9.78,3.79,9.51z M8.36,8.4c-5.53,3.32-5.9,11.3-0.69,15.13
				c4.31,3.16,11.17,3.56,14.76-0.9c3.46-4.33,2.53-12.63-2.71-15.13C15.83,5.66,12.03,6.88,8.36,8.4z"/>
		</g>
		<g>
		</g>
	</g>
</g>
</svg>
