<?xml version="1.0" encoding="utf-8"?>
<!-- Generator: Adobe Illustrator 25.0.0, SVG Export Plug-In . SVG Version: 6.00 Build 0)  -->
<svg version="1.1" id="Ebene_1" xmlns="http://www.w3.org/2000/svg" xmlns:xlink="http://www.w3.org/1999/xlink" x="0px" y="0px"
	 viewBox="0 0 100 100" style="enable-background:new 0 0 100 100;" xml:space="preserve">
<g>
	<g id="XMLID_2_">
		<g>
			<path d="M74.43,20.67c-0.24,1.44-2.06,2.24-3.31,2.06c-1.15-0.16-2.19-0.91-2.51-2.06c-0.37-1.26,0.24-2.62,1.36-3.23
				c1.26-0.69,2.62-0.37,3.66,0.43c0.86,0.67,1.04,1.84,0.72,2.81c0.05-0.03,0.05-0.05,0.08-0.08
				C74.43,20.62,74.43,20.64,74.43,20.67z"/>
			<path d="M73.63,17.86c-1.04-0.8-2.41-1.12-3.66-0.43c-1.12,0.61-1.74,1.98-1.36,3.23c0.32,1.15,1.36,1.9,2.51,2.06
				c1.26,0.19,3.07-0.61,3.31-2.06c0-0.03,0-0.05,0-0.08c-0.03,0.03-0.03,0.05-0.08,0.08C74.67,19.71,74.48,18.53,73.63,17.86z
				 M12.16,13.16c3.58,6.44,8.98,11.06,15.34,14.7c6.25,3.55,13.28,8.18,20.69,8.66c0.72,0.56,1.98,0.21,1.87-0.72
				c0.03-0.13,0-0.27-0.08-0.37c-2.73-7.46,2.65-16.68,8.82-20.31c5.08-2.99,10.85-3.53,16.2-0.94c2.54,1.23,4.25,3.47,6.98,4.01
				c0.03,0,0.03-0.03,0.03-0.03c1.1,0.29,2.41-0.19,3.45-0.51c2.59-0.83,5.13-1.84,7.43-3.26c0.11-0.08,0.24-0.16,0.37-0.21
				c-0.45,0.64-0.83,1.36-1.2,1.92c-1.71,2.67-3.34,4.73-5.77,6.79c-0.72,0.61,0.11,1.36,0.8,1.26c1.36,0.78,3.18,0.4,4.68,0.19
				c1.34-0.19,2.59-0.61,3.77-1.18c-1.26,1.04-2.38,2.19-3.53,3.42c-0.96,1.02-1.9,2.08-2.97,2.97c-0.35,0.29-0.72,0.56-1.1,0.8
				c-0.53-0.13-1.18,0.05-1.26,0.67c-0.03,0.16-0.05,0.32-0.08,0.45c-0.11,0.13-0.21,0.21-0.29,0.35c-0.19,0.27-0.08,0.53,0.11,0.69
				c-2.46,15.07-6.57,30.89-18.89,41c-6.63,5.43-13.63,8.9-21.83,11.36c-2,0.59-4.2,1.2-6.49,1.74c-1.18,0-2.41,0.27-3.5,0.45
				c-1.04,0.16-2.08,0.27-3.1,0.32c-3.53-0.67-7.22-1.02-10.85-1.12v-0.03c-0.72-0.08-1.42-0.16-2.11-0.27
				c-5.24-0.83-9.51-2.03-14.11-3.93c3.74,0.51,8.26-0.61,11.33-1.55c3.1-0.94,6.09-2.41,9.03-3.71c1.58-0.69,2.49-1.02,3.26-2.33
				c0.61,0.11,1.26,0.08,2-0.24c0.53-0.21,0.51-1.07,0-1.34c-3.39-1.63-6.87-3.31-10.02-5.37c-2.97-1.95-4.78-4.44-6.73-7.14
				c0.75,0.16,1.52,0.19,2.11,0.19c1.07-0.03,4.81-0.13,5.08-1.47c0.03-0.08,0-0.16-0.05-0.21h-0.03c0.27-0.32,0.16-0.94-0.21-1.18
				c-3.47-2.19-7-4.46-9.92-7.4c-1.9-1.95-3.1-3.82-4.01-6.39c-0.29-0.83-0.53-1.63-0.8-2.41c0.56,0.35,1.15,0.61,1.58,0.8
				c1.63,0.72,4.3,1.66,6.04,0.88c0.32-0.13,0.4-0.59,0.21-0.88c0.45-0.32,0.67-1.02,0.19-1.5c-2.59-2.73-4.57-3.63-6.07-7.64
				c-1.15-3.05-1.28-6.52-0.96-9.73c0.4-3.9,1.76-5.85,3.77-9.06C11.89,13.43,12.03,13.72,12.16,13.16z"/>
			<path d="M27.5,27.86c-6.36-3.63-11.76-8.26-15.34-14.7c-0.13,0.56-0.27,0.27-0.86,1.2c-2,3.21-3.37,5.16-3.77,9.06
				c-0.32,3.21-0.19,6.68,0.96,9.73c1.5,4.01,3.47,4.92,6.07,7.64c0.48,0.48,0.27,1.18-0.19,1.5c0.19,0.29,0.11,0.75-0.21,0.88
				c-1.74,0.78-4.41-0.16-6.04-0.88c-0.43-0.19-1.02-0.45-1.58-0.8c0.27,0.78,0.51,1.58,0.8,2.41c0.91,2.57,2.11,4.44,4.01,6.39
				c2.91,2.94,6.44,5.21,9.92,7.4c0.37,0.24,0.48,0.86,0.21,1.18h0.03c0.05,0.05,0.08,0.13,0.05,0.21
				c-0.27,1.34-4.01,1.44-5.08,1.47c-0.59,0-1.36-0.03-2.11-0.19c1.95,2.7,3.77,5.18,6.73,7.14c3.15,2.06,6.63,3.74,10.02,5.37
				c0.51,0.27,0.53,1.12,0,1.34c-0.75,0.32-1.39,0.35-2,0.24c-0.78,1.31-1.68,1.63-3.26,2.33c-2.94,1.31-5.93,2.78-9.03,3.71
				c-3.07,0.94-7.59,2.06-11.33,1.55c4.6,1.9,8.87,3.1,14.11,3.93c0.69,0.11,1.39,0.19,2.11,0.27v0.03
				c3.63,0.11,7.32,0.45,10.85,1.12c1.02-0.05,2.06-0.16,3.1-0.32c1.1-0.19,2.33-0.45,3.5-0.45c2.3-0.53,4.49-1.15,6.49-1.74
				c8.2-2.46,15.21-5.93,21.83-11.36c12.32-10.1,16.44-25.92,18.89-41c-0.19-0.16-0.29-0.43-0.11-0.69
				c0.08-0.13,0.19-0.21,0.29-0.35c0.03-0.13,0.05-0.29,0.08-0.45c0.08-0.61,0.72-0.8,1.26-0.67c0.37-0.24,0.75-0.51,1.1-0.8
				c1.07-0.88,2-1.95,2.97-2.97c1.15-1.23,2.27-2.38,3.53-3.42c-1.18,0.56-2.43,0.99-3.77,1.18c-1.5,0.21-3.31,0.59-4.68-0.19
				c-0.69,0.11-1.52-0.64-0.8-1.26c2.43-2.06,4.06-4.12,5.77-6.79c0.37-0.56,0.75-1.28,1.2-1.92c-0.13,0.05-0.27,0.13-0.37,0.21
				c-2.3,1.42-4.84,2.43-7.43,3.26c-1.04,0.32-2.35,0.8-3.45,0.51c0,0,0,0.03-0.03,0.03c-2.73-0.53-4.44-2.78-6.98-4.01
				c-5.35-2.59-11.12-2.06-16.2,0.94c-6.17,3.63-11.55,12.85-8.82,20.31c0.08,0.11,0.11,0.24,0.08,0.37
				c0.11,0.94-1.15,1.28-1.87,0.72C40.78,36.04,33.75,31.41,27.5,27.86z M97.33,22.06c-1.79,2.11-3.13,4.62-4.84,6.76
				c-0.88,1.1-2.3,2.75-3.82,3.5c-0.75,17.96-8.37,35.33-23.09,46.07c-7.86,5.72-16.89,8.93-26.38,10.82
				c-0.21,0.05-0.45,0.11-0.69,0.13c-0.21,0-0.43,0.03-0.64,0.03c-1.18,0.19-2.51,0.08-3.47,0.21c-0.78,0.13-1.71,0.27-2.51,0.08
				c-0.27,0.05-0.56,0.08-0.83,0.11c-0.03,0-0.05,0-0.08-0.03c-1.66,0-3.39-0.27-4.76-0.37c-2.46-0.19-5.45,0-7.75-1.12
				C12.43,87.08,6.71,85,2.35,81.02c0,0,0,0,0-0.03c-0.19-0.11-0.4-0.19-0.59-0.32c-0.11-0.08-0.08-0.21,0.05-0.21
				c4.92-0.35,9.73-0.21,14.54-1.68c3.85-1.18,7.7-2.97,11.3-4.84c-0.35-0.16-0.69-0.37-1.07-0.59c-2.3-1.34-4.65-2.67-6.79-4.25
				c-2.62-1.95-7.03-5.77-7.24-9.49c-0.4-0.29-0.72-0.67-0.8-1.2c-0.05-0.24,0.19-0.37,0.37-0.29c1.92,0.83,3.39,1.2,5.51,1.04
				c0.35-0.05,0.91-0.19,1.5-0.32c-0.83-0.29-1.58-0.83-2.43-1.5c-2.16-1.63-4.36-3.31-6.31-5.24c-3.13-3.07-6.07-7.83-5.72-12.43
				c-0.13-0.35-0.21-0.72-0.13-1.12c0.03-0.13,0.21-0.24,0.35-0.19c0.61,0.21,0.96,0.67,1.47,1.07c0.83,0.67,1.84,1.18,2.86,1.55
				c1.04,0.4,2.19,0.51,3.29,0.69C3.82,34.89,1.58,18.8,11.62,12.23c0.29-0.19,0.61,0.08,0.61,0.37c0.16-0.13,0.4-0.16,0.59,0.03
				c2.33,2.22,3.96,5,6.41,7.14c3.13,2.7,6.65,5,10.34,6.84c3.93,1.98,8.07,4.52,12.21,5.96c1.79,0.64,3.61,1.04,5.37,1.58
				c-1.98-7.91,4.06-17.24,10.4-21.01c4.49-2.65,9.78-3.74,14.86-2.27c3.18,0.91,7.91,2.97,9.33,6.25c1.82-0.53,3.63-0.96,5.48-1.63
				c2.67-0.96,5.16-2.33,7.83-3.29c0.21-0.08,0.37,0.19,0.29,0.35c-1.6,3.13-3.31,7.99-6.33,10.45c1.07-0.16,2.14-0.35,3.21-0.61
				c1.95-0.48,3.77-1.36,5.8-1.36c0.21,0,0.37,0.27,0.19,0.43C97.95,21.69,97.63,21.87,97.33,22.06z"/>
		</g>
		<g>
		</g>
	</g>
</g>
</svg>
