<?xml version="1.0" encoding="utf-8"?>
<!-- Generator: Adobe Illustrator 25.0.1, SVG Export Plug-In . SVG Version: 6.00 Build 0)  -->
<svg version="1.1" id="Ebene_1" xmlns="http://www.w3.org/2000/svg" xmlns:xlink="http://www.w3.org/1999/xlink" x="0px" y="0px"
	 viewBox="0 0 100 100" style="enable-background:new 0 0 100 100;" xml:space="preserve">
<path d="M24.54,93.44c-0.52-0.53-0.97-1.11-1.65-1.51c-0.2-0.12-0.33-0.27-0.44-0.44c-0.38-0.61-1.02-1.06-1.46-1.63
	c-0.09-0.12-0.2-0.26-0.35-0.33c-0.73-0.36-1.17-0.95-1.69-1.47c-1.42-1.43-2.82-2.87-4.24-4.31c-0.37-0.38-0.73-0.76-1.2-1.06
	c-0.18-0.11-0.29-0.3-0.41-0.46c-0.46-0.63-0.95-1.24-1.71-1.65c-0.3-0.16-0.5-0.4-0.64-0.69c-0.13-0.28-0.28-0.55-0.59-0.71
	c-0.66-0.34-1.11-0.86-1.59-1.35c-0.89-0.92-1.95-1.67-3.09-2.35c-0.75-0.44-0.71-1.15-0.44-1.57c0.67-1.03,1.45-2.01,2.5-2.81
	c0.13-0.1,0.27-0.2,0.42-0.25c1.07-0.36,2.07-0.86,3.23-1.04c1.03-0.16,1.98-0.55,2.93-0.92c0.79-0.3,1.59-0.6,2.24-1.1
	c0.17-0.13,0.38-0.24,0.59-0.29c0.46-0.12,0.81-0.38,1.2-0.59c0.34-0.19,0.7-0.35,1.05-0.52c0.25-0.12,0.51-0.23,0.74-0.38
	c0.46-0.3,0.93-0.57,1.48-0.76c0.42-0.14,0.75-0.47,1.17-0.62c0.81-0.3,1.5-0.73,2.21-1.16c0.47-0.28,1.02-0.47,1.5-0.73
	c0.49-0.27,0.92-0.61,1.49-0.74c0.96-0.55,2.02-0.94,2.97-1.51c1.17-0.71,2.34-1.43,3.53-2.11c1.05-0.61,2.15-1.15,3.19-1.78
	c0.47-0.28,1.04-0.42,1.36-0.87c0.08-0.11,0.28-0.17,0.42-0.25c0.29-0.16,0.6-0.3,0.86-0.49c0.3-0.22,0.53-0.52,0.84-0.73
	c0.31-0.21,0.71-0.33,1.03-0.54c1.2-0.77,2.4-1.55,3.44-2.48c0.16-0.14,0.37-0.23,0.55-0.35c0.27-0.18,0.61-0.33,0.8-0.56
	c0.55-0.72,1.36-1.21,2.11-1.75c0.76-0.53,1.43-1.14,2.14-1.71c0.62-0.5,1.11-1.12,1.83-1.55c0.87-1.04,1.99-1.9,2.9-2.92
	c0.77-0.86,1.58-1.69,2.32-2.56c0.71-0.84,1.38-1.7,2.06-2.55c0.18-0.23,0.16-0.48-0.04-0.68c-0.22-0.23-0.42-0.5-0.7-0.65
	c-0.61-0.32-1.04-0.78-1.51-1.21c-0.88-0.78-1.87-1.46-2.85-2.15c-0.67-0.47-1.42-0.85-1.99-1.43c-0.18-0.18-0.46-0.3-0.7-0.43
	c-0.63-0.35-1.26-0.7-1.9-1.04c-0.3-0.16-0.51-0.39-0.69-0.65c-0.19-0.26-0.29-0.57-0.11-0.84c0.26-0.39,0.21-0.75,0.03-1.13
	c-0.09-0.19-0.02-0.39,0.07-0.57c0.02-0.05,0.04-0.09,0.08-0.13c0.59-0.67,1.17-1.34,1.78-1.99c0.1-0.11,0.27-0.18,0.43-0.23
	c0.49-0.16,0.97-0.32,1.48-0.43c0.68-0.14,1.33-0.33,1.95-0.6c0.82-0.36,1.7-0.63,2.48-1.06c0.15-0.08,0.3-0.15,0.47-0.2
	c1.49-0.42,2.76-1.25,4.23-1.7c0.72-0.41,1.48-0.76,2.23-1.14c0.45-0.22,0.89-0.44,1.37-0.63c0.89-0.35,1.76-0.71,2.56-1.22
	c0.64-0.41,1.42-0.65,2.14-0.97c0.26-0.11,0.51-0.24,0.78-0.33c0.87-0.29,1.63-0.74,2.34-1.25c0.84-0.62,1.89-0.95,2.81-1.46
	c0.59-0.12,1.01-0.47,1.48-0.76c0.38-0.23,0.73-0.5,1.15-0.66c0.51-0.19,0.7-0.65,1.15-0.88c0.44-0.23,0.96-0.38,1.33-0.67
	c0.73-0.56,1.42-1.15,1.92-1.89c0.17-0.25,0.35-0.56,0.62-0.7c0.71-0.38,1.04-1.05,1.72-1.45c0.48-0.28,0.95-0.56,1.52-0.68
	c0.39-0.08,0.78-0.2,1.17-0.27c0.1-0.02,0.25,0.02,0.32,0.08c0.4,0.35,0.8,0.71,1.18,1.08c0.11,0.11,0.17,0.26,0.22,0.4
	C90.94,7.49,91.2,8.24,91.46,9c0.06,0.19,0.18,0.39,0.15,0.57c-0.13,0.82,0.29,1.54,0.48,2.3c0.25,1.01,0.52,2.02,0.81,3.02
	c0.27,0.91,0.56,1.81,0.88,2.7c0.37,1.04,0.59,2.09,0.6,3.18c0.01,1.28,0.18,2.55,0.36,3.82c0.12,0.84,0.13,1.67,0.08,2.5
	c-0.03,0.64-0.02,1.29,0.1,1.91c0.19,0.93,0.15,1.86,0.14,2.79c0,0.25-0.02,0.49,0,0.74c0.03,0.63,0.16,1.27-0.03,1.9
	c-0.07,0.23,0.03,0.49,0.03,0.73c0.02,0.64-0.11,1.28,0.03,1.91c-0.23,0.62-0.09,1.27-0.17,1.91c-0.07,0.54-0.08,1.08-0.11,1.62
	c-0.01,0.19-0.02,0.39-0.05,0.58c-0.04,0.24-0.16,0.48-0.16,0.72c0.01,1.03-0.26,2.04-0.22,3.08c0.04,1.13-0.11,2.25-0.44,3.36
	c-0.21,0.71-0.36,1.43-0.2,2.19c0.17,0.81-0.14,1.55-0.7,2.22c-0.27,0.32-0.52,0.65-1,0.78c-0.09,0.02-0.18,0.14-0.21,0.22
	c-0.08,0.23-0.14,0.48-0.2,0.72c-0.09,0.36-0.33,0.64-0.67,0.83c-0.77,0.45-1.6,0.8-2.54,0.88c-0.22,0.02-0.49,0.01-0.67-0.09
	c-0.48-0.26-1.01-0.48-1.42-0.85c-0.71-0.65-1.58-1.14-2.39-1.7c-1.3-0.9-2.72-1.67-4.12-2.44c-0.88-0.49-1.75-0.96-2.37-1.71
	c-0.2-0.24-0.51-0.4-0.84-0.51c-0.29-0.1-0.6-0.05-0.77,0.17c-0.66,0.87-1.32,1.73-1.8,2.69c-0.52,1.04-1.09,2.07-1.66,3.09
	c-0.27,0.49-0.63,0.94-0.89,1.43c-0.43,0.81-1.02,1.54-1.32,2.4c-0.06,0.18-0.2,0.36-0.33,0.52c-0.44,0.58-0.87,1.15-1.12,1.82
	c-0.1,0.27-0.32,0.52-0.52,0.76c-0.83,1-1.43,2.14-2.39,3.08c-0.07,0.07-0.13,0.16-0.18,0.25c-0.69,1.32-1.87,2.36-2.83,3.53
	c-0.16,0.2-0.41,0.35-0.6,0.53c-0.22,0.22-0.44,0.46-0.64,0.7c-0.34,0.4-0.65,0.81-0.99,1.21c-0.44,0.52-0.91,1-1.47,1.44
	c-0.68,0.52-1.25,1.16-1.84,1.76c-0.45,0.46-0.95,0.86-1.45,1.27c-0.5,0.41-1.04,0.78-1.44,1.27c-0.26,0.32-0.69,0.53-0.97,0.84
	c-0.78,0.87-1.75,1.57-2.73,2.27c-0.53,0.65-1.37,1.02-1.97,1.62c-0.56,0.55-1.29,0.98-1.97,1.45c-1.26,0.87-2.52,1.73-3.79,2.59
	c-0.27,0.18-0.57,0.34-0.85,0.51c-0.19,0.11-0.4,0.21-0.54,0.35c-0.49,0.5-1.06,0.9-1.79,1.13c-0.15,0.05-0.3,0.16-0.41,0.27
	c-0.66,0.7-1.56,1.13-2.4,1.63c-0.42,0.26-0.83,0.54-1.24,0.81c-0.32,0.21-0.61,0.48-0.96,0.62c-0.64,0.26-1.18,0.58-1.6,1.07
	c-0.2,0.23-0.53,0.37-0.86,0.48c-1.1,0.33-2.07,0.88-2.98,1.48c-0.86,0.56-1.81,0.85-2.89,0.88c-0.39,0.01-0.67-0.12-0.9-0.36
	C25.2,94.12,24.87,93.78,24.54,93.44z M21.49,84.14c0.01-0.01,0.02-0.02,0.03-0.02c0.96,0.99,1.9,1.99,2.87,2.97
	c0.85,0.87,1.74,1.71,2.59,2.58c0.27,0.27,0.62,0.44,0.96,0.62c0.09,0.05,0.24,0.09,0.33,0.06c1.02-0.34,2.12-0.51,2.96-1.18
	c0.21-0.17,0.46-0.32,0.72-0.4c0.62-0.19,1.11-0.53,1.6-0.87c0.72-0.5,1.44-0.99,2.17-1.48c0.27-0.18,0.54-0.4,0.85-0.51
	c0.87-0.32,1.58-0.82,2.28-1.34c0.48-0.35,1.01-0.67,1.44-1.06c0.45-0.41,1.04-0.61,1.53-0.96c2.04-1.45,4.11-2.89,6.17-4.33
	c0.36-0.25,0.68-0.52,0.93-0.87c0.33-0.46,0.76-0.85,1.34-1.13c0.24-0.11,0.45-0.31,0.62-0.51c1-1.21,2.35-2.16,3.41-3.33
	c0.73-0.5,1.3-1.13,1.83-1.77c0.37-0.45,0.87-0.8,1.21-1.25c0.38-0.5,0.84-0.94,1.31-1.37c0.16-0.14,0.31-0.3,0.43-0.46
	c0.51-0.72,1.19-1.32,1.78-1.99c0.69-0.79,1.44-1.53,1.91-2.44c0.07-0.13,0.2-0.24,0.28-0.37c0.41-0.6,0.73-1.25,1.23-1.77
	c0.54-0.56,0.71-1.23,1.08-1.83c0.16-0.26,0.37-0.5,0.54-0.76c0.29-0.43,0.6-0.84,0.83-1.29c0.38-0.77,0.97-1.45,1.24-2.27
	c0.08-0.23,0.27-0.43,0.41-0.65c0.14-0.21,0.33-0.42,0.41-0.65c0.25-0.71,0.68-1.35,1.07-2.01c0.67-1.15,1.18-2.35,1.96-3.45
	c0.15-0.21,0.24-0.45,0.31-0.69c0.33-1.07,1.02-1.96,1.83-2.81c0.55-0.59,1.24-1.02,2.04-1.33c0.14-0.05,0.35-0.03,0.5,0.02
	c0.27,0.09,0.51,0.23,0.77,0.34c0.59,0.23,1.09,0.55,1.49,0.99c0.28,0.31,0.57,0.63,0.93,0.87c1,0.67,1.89,1.45,2.9,2.1
	c0.88,0.56,1.73,1.16,2.72,1.58c0.47,0.2,0.9,0.44,1.32,0.71c0.46,0.3,0.98,0.52,1.48,0.77c0.23,0.12,0.4,0.06,0.58-0.15
	c0.27-0.32,0.51-0.64,0.55-1.07c0.04-0.39,0.19-0.77,0.28-1.15c0.23-0.96,0.42-1.93,0.32-2.92c-0.1-0.93,0.15-1.86,0.02-2.8
	c0.23-0.76-0.01-1.58,0.41-2.32c0.05-0.49,0.12-0.98,0.14-1.47c0.01-0.29-0.05-0.59-0.05-0.88c-0.01-1.42,0.11-2.85,0-4.27
	c-0.11-1.47-0.01-2.95-0.35-4.41c-0.08-0.33-0.05-0.69-0.02-1.03c0.1-1.04,0.01-2.06-0.17-3.08c-0.19-1.12-0.37-2.24-0.51-3.36
	c-0.14-1.18-0.26-2.35-0.78-3.46c-0.13-0.27-0.17-0.57-0.25-0.86c-0.21-0.77-0.48-1.53-0.63-2.3c-0.17-0.83-0.64-1.58-0.83-2.4
	c-0.15-0.65-0.59-0.66-1.17-0.47c-0.32,0.1-0.62,0.28-0.89,0.45c-0.69,0.45-1.38,0.9-2.02,1.4c-0.94,0.74-2.19,1.11-3.08,1.89
	c-0.38,0.12-0.76,0.23-1.14,0.36c-0.16,0.05-0.3,0.15-0.45,0.22c-0.4,0.19-0.8,0.39-1.21,0.58c-1.31,0.62-2.63,1.24-3.93,1.87
	c-0.65,0.31-1.27,0.7-1.96,0.93c-0.71,0.24-1.31,0.63-2.01,0.87c-1.45,0.5-2.76,1.24-4.14,1.85c-0.67,0.29-1.32,0.6-2.02,0.85
	c-1.01,0.36-2.03,0.74-2.98,1.2c-1.11,0.54-2.25,1.01-3.44,1.4c-0.55,0.18-1,0.48-1.41,0.83c-0.03,0.03-0.05,0.12-0.03,0.14
	c0.56,0.49,1.07,1.03,1.69,1.46c0.95,0.64,1.91,1.27,2.74,2.03c0.2,0.18,0.45,0.31,0.67,0.46c0.72,0.49,1.46,0.96,2.14,1.5
	c0.59,0.47,1.22,0.9,1.96,1.2c0.31,0.12,0.63,0.27,0.88,0.47c0.58,0.44,1.04,0.93,0.71,1.67c-0.1,0.22-0.1,0.48-0.11,0.73
	c-0.01,0.26-0.09,0.48-0.27,0.68c-0.24,0.27-0.45,0.58-0.72,0.83c-0.28,0.25-0.51,0.53-0.75,0.81c-0.78,0.92-1.47,1.89-2.31,2.76
	c-0.87,0.91-1.58,1.94-2.57,2.77c-0.38,0.64-1.11,0.99-1.66,1.49c-0.55,0.5-0.99,1.09-1.66,1.5c-0.42,0.26-0.86,0.53-1.17,0.87
	c-0.42,0.47-0.96,0.86-1.37,1.32c-0.68,0.76-1.53,1.33-2.37,1.93c-1.5,1.08-3.06,2.11-4.44,3.31c-0.12,0.1-0.23,0.25-0.37,0.3
	c-0.98,0.29-1.52,1.04-2.3,1.53c-0.21,0.32-0.54,0.49-0.92,0.64c-0.36,0.14-0.69,0.36-1.02,0.56c-1.04,0.61-1.9,1.45-3.13,1.84
	c-0.21,0.07-0.37,0.24-0.56,0.35c-0.24,0.14-0.46,0.33-0.72,0.41c-0.9,0.27-1.57,0.83-2.31,1.3c-0.47,0.29-0.89,0.66-1.4,0.87
	c-0.69,0.28-1.3,0.65-1.89,1.05c-0.5,0.34-1.05,0.6-1.61,0.86c-0.54,0.25-1.18,0.4-1.57,0.88c-0.12,0.14-0.39,0.19-0.6,0.28
	c-0.26,0.12-0.54,0.2-0.76,0.35c-0.81,0.57-1.86,0.8-2.63,1.41c-1.17,0.34-2,1.16-3.15,1.54c-0.42,0.14-0.73,0.52-1.15,0.65
	c-0.94,0.3-1.63,0.94-2.58,1.22c-0.21,0.06-0.4,0.2-0.58,0.33c-1.01,0.69-2.13,1.16-3.39,1.44c-0.5,0.11-0.98,0.29-1.47,0.44
	c-0.11,0.03-0.21,0.08-0.31,0.14c-0.1,0.05-0.18,0.12-0.27,0.18c-0.33,0.22-0.41,0.51-0.17,0.76c1.17,1.22,2.35,2.44,3.52,3.66
	c0.11,0.11,0.22,0.24,0.37,0.31c0.81,0.43,1.34,1.08,1.93,1.69C18.7,81.25,20.09,82.7,21.49,84.14z"/>
</svg>
