<?xml version="1.0" encoding="utf-8"?>
<!-- Generator: Adobe Illustrator 26.0.2, SVG Export Plug-In . SVG Version: 6.00 Build 0)  -->
<svg version="1.1" id="Ebene_1" xmlns="http://www.w3.org/2000/svg" xmlns:xlink="http://www.w3.org/1999/xlink" x="0px" y="0px"
	 viewBox="0 0 1752.9 262.3" style="enable-background:new 0 0 1752.9 262.3;" xml:space="preserve">
<style type="text/css">
	.st0{display:none;}
	.st1{display:inline;}
	.st2{display:inline;fill:#2F400D;}
	.st3{opacity:0.1091;fill:#31401B;enable-background:new    ;}
	.st4{fill:#FFFFFF;}
	.st5{fill:none;}
	.st6{opacity:0.35;fill:#FFFFFF;}
	.st7{opacity:0.65;fill:#2E193F;enable-background:new    ;}
	.st8{opacity:0.55;fill:#2E193F;enable-background:new    ;}
	.st9{fill:#B0D959;}
	.st10{fill:#31073F;}
	.st11{fill:#2F400D;}
	.st12{fill:url(#SVGID_1_);}
</style>
<g id="Ebene_1_00000108297882875454534200000007816474239820096664_">
	<g class="st0">
		<g class="st1">
			
				<image style="overflow:visible;enable-background:new    ;" width="1000" height="667" xlink:href="E261AE8F.jpg"  transform="matrix(1 0 0 1 -296.2249 -1888.9501)">
			</image>
		</g>
	</g>
</g>
<g class="st0">
	<ellipse class="st2" cx="1404.2" cy="-1692" rx="78.7" ry="78.7"/>
	<g class="st1">
		<g>
			<path class="st3" d="M1492.7-1699.8c-0.2-5.5-0.6-10.6-1.9-15.9c-1.3-5.4-3.1-10.5-5.5-15.5c-4.6-10-11.8-19.1-19.9-26.4
				c-17.2-15.5-40.3-23.7-63.4-22.7s-46,11.4-61.4,28.8c-7.5,8.5-13.9,18.3-17.7,29c-3.9,11-6,23-5.3,34.7s3.3,23.5,8.6,34
				c5,10.2,11.8,19.7,20.3,27.2s18.3,13.8,29,17.6c10,3.5,20.4,5.4,31,5.4c23.5-0.1,46-9.7,62.5-26.4c8-8.2,14.3-17.6,18.7-28.2
				c2.2-5.3,3.9-10.8,5.1-16.5c1.4-7.1,1.6-14.1,1.6-21.3c-0.5,0-0.9,0.2-1.3,0.6c-1.4,1-2.8,2-4.2,3.1c-1.4,1-2.8,2.1-4.1,3.2
				c-0.4,0.3-0.8,0.6-0.9,1.1c-0.6,5.3-1.2,10.3-2.6,15.4c-1.3,4.9-3.1,9.5-5.3,14.1c-4.2,8.7-10.4,16.7-17.5,23.2
				c-14.7,13.3-34.1,20.6-53.9,20.5c-20-0.2-40.2-8.3-54.4-22.6c-14.5-14.7-23.4-34.7-23.1-55.5c0.1-10.7,2-21.5,6.4-31.2
				c4.2-9.4,10.1-18.3,17.7-25.4s16.4-13.1,26.2-16.7c9.1-3.4,18.7-5.1,28.4-5.1c21.5,0,42,8.7,56.9,24.1
				c7.1,7.4,12.7,15.9,16.5,25.4c1.9,4.7,3.5,9.6,4.5,14.6c1.2,6,1,11.8,0.8,17.9c0.5-0.2,0.8-0.5,1.1-0.9c1.1-1.3,2.3-2.6,3.4-4
				c1.1-1.3,2.2-2.7,3.2-4.1C1492.4-1698.9,1492.6-1699.3,1492.7-1699.8z"/>
			<path class="st3" d="M1491-1702.1c-0.2-5.5-0.6-10.6-1.9-15.9c-1.3-5.4-3.1-10.5-5.5-15.5c-4.6-10-11.8-19.1-20-26.4
				c-17.2-15.4-40.3-23.6-63.4-22.5c-23,1.1-45.7,11.5-61.1,28.7c-7.5,8.4-13.8,18.2-17.6,28.8c-3.9,11-6.1,22.9-5.4,34.6
				s3.2,23.5,8.4,34c5,10.2,11.7,19.7,20.2,27.3c8.5,7.5,18.2,13.9,29,17.7c10,3.6,20.4,5.4,31,5.4c23.5-0.1,46-9.6,62.4-26.4
				c8-8.1,14.3-17.6,18.7-28.2c2.2-5.3,4-10.8,5.1-16.5c1.4-7,1.6-14.1,1.6-21.3c0-0.2-6.5,2.7-6.4,2.6c-1.6,0.8-3.3,1.6-4.9,2.4
				c-0.5,0.2-0.9,0.5-1.2,0.9c-0.2,5.1-0.6,10.1-1.7,15.1c-1,4.9-2.5,9.6-4.4,14.2c-3.7,9-9.4,17.4-16.2,24.3
				c-14.4,14.6-34.4,22.9-54.9,22.9c-20.9,0-42-8.7-56.3-24.1c-14.4-15.5-22.7-36.5-21.3-57.9c0.7-10.7,3.1-21.4,8.1-31
				c4.7-9.1,11-17.5,18.9-24.1c7.8-6.4,16.7-11.7,26.3-14.6c8.8-2.7,17.9-3.9,27.2-3.5c20,0.8,38.8,9.3,52.7,23.7
				c6.7,6.9,12,14.8,15.7,23.7c1.9,4.5,3.5,9.1,4.5,13.9c0.3,1.9,0.6,3.9,0.9,5.8c0.2,3.7,0.1,7.5-0.2,11.2c0.5-0.1,1-0.3,1.4-0.7
				c1.5-1.2,3.1-2.4,4.6-3.6s3-2.5,4.5-3.7C1490.5-1701.2,1490.8-1701.6,1491-1702.1z"/>
			<path class="st3" d="M1489.8-1698.5c-0.2-5.4-0.6-10.5-1.8-15.8c-1.3-5.4-3.1-10.5-5.5-15.5c-4.6-10-11.8-19.1-19.9-26.5
				c-17.2-15.5-40.3-23.7-63.5-22.6c-23,1.1-45.8,11.5-61.2,28.8c-7.5,8.4-13.8,18.2-17.6,28.9c-3.9,11-6,22.9-5.4,34.6
				c0.7,11.7,3.3,23.5,8.5,34c5,10.2,11.8,19.7,20.3,27.2s18.2,13.8,28.9,17.6c10,3.5,20.4,5.4,31,5.4c23.5-0.1,46-9.6,62.5-26.2
				c8-8.1,14.4-17.6,18.8-28.2c2.2-5.3,4-10.8,5.1-16.5c1.4-7.1,1.7-14.1,1.6-21.3c-0.4,0-0.8,0.1-1.1,0.4c-1.2,0.8-2.4,1.6-3.6,2.5
				c-1.2,0.8-2.4,1.7-3.5,2.6c-0.4,0.2-0.6,0.5-0.8,0.9c-0.4,5.6-0.9,10.8-2.2,16.2c-1.2,5.2-3,10.2-5.2,15
				c-4.3,9.4-10.9,18-18.5,24.8c-15.6,14-36.6,21-57.5,19.7c-20.2-1.3-40-10.8-53.2-26.3c-12.8-15-20.1-34.6-19.2-54.4
				s8.8-39.3,23.3-53.1c13.9-13.4,31.9-21.4,51.3-22.2c21-0.9,41.5,6.6,56.8,20.9c7.5,7,13.5,15.3,17.8,24.6c2.1,4.7,3.9,9.6,5,14.6
				c0.4,2,0.7,4.1,1.1,6.1c0.3,3.9,0.4,7.8,0.1,11.7c0.4-0.1,0.8-0.3,1-0.6c1.1-1,2.1-2,3.1-3.1c1-1,2-2.1,3-3.2
				C1489.5-1697.8,1489.7-1698.1,1489.8-1698.5z"/>
			<path class="st3" d="M1492.3-1694.9c-0.5-6.4-1-12.7-2.8-18.8c-1-3.3-2.1-6.4-3.5-9.5c-3.1-7.3-7.3-14-12.2-20.2
				c-7.8-9.8-18.1-17.7-29.3-23.2c-11.6-5.8-24.5-9-37.5-9.2c-25.8-0.6-51.9,10.5-68.8,30.1c-8.3,9.6-14.6,20.4-18.4,32.5
				c-3.9,12.3-5.3,25.8-3.4,38.6c1.7,11.7,5.4,22.7,11.2,33c3.4,6,7.7,11.4,12.4,16.4c4.5,4.9,10.1,9.5,15.7,13.1
				c9.8,6.3,20.4,10.6,31.8,13c6.8,1.4,14.4,2,21.4,1.5c7.1-0.4,14.3-1.4,21.1-3.6c11.1-3.5,21.1-8.8,30.3-15.9
				c9.8-7.7,17.8-17.8,23.5-28.8c3.7-7.1,6.4-14.7,8.1-22.5c1.5-7.1,1.8-14.2,1.8-21.5c0-1-1.7,1.3-1.6,1.2
				c-0.8,0.9-1.6,1.9-2.4,2.9c-0.4,0.5-0.8,1-1.1,1.6c-0.2,2.4-0.4,4.8-0.6,7.2c-0.4,3.5-1.1,7-2,10.4c-1.4,5.6-3.3,11.1-5.9,16.2
				c-2.1,4-4.4,7.9-7,11.6c-4,5.6-8.8,10.2-13.9,14.8c0.1-0.1,0.2-0.2,0.3-0.2c-1.8,1.4-3.7,2.8-5.5,4.2c0.1-0.1,0.2-0.1,0.3-0.2
				c-1.9,1.2-3.9,2.5-5.8,3.7c0.1-0.1,0.2-0.1,0.3-0.2c-2,1.1-4.1,2.1-6.1,3.2c0.1-0.1,0.2-0.1,0.3-0.2c-2.1,0.9-4.2,1.8-6.3,2.7
				c0.1,0,0.2-0.1,0.3-0.1c-2.2,0.7-4.3,1.4-6.5,2.1c0.1,0,0.2-0.1,0.4-0.1c-4.2,1.2-8.6,2-13,2.4c-4.2,0.4-8.5,0.5-12.7,0.2
				c-8.2-0.5-16.3-2.3-23.9-5.3c-11.9-4.7-22.4-12.2-31.2-21.4c-10.2-10.6-17.7-24-21.2-38.2c-3.7-15.2-2.8-31.1,2.5-45.8
				c5.3-14.8,15-27.8,27.6-37.1c13.6-10,30-15.3,46.8-15.5c17.1-0.2,33.8,4.9,47.8,14.7c14.3,10,25.6,24.9,31.1,41.5
				c1.4,4.2,2.4,8.4,3.1,12.7c0.5,4,0.7,8.1,0.7,12.1c0,1,1.5-1.5,1.4-1.2c0.6-1,1.2-1.9,1.7-2.9
				C1491.9-1693.8,1492.1-1694.3,1492.3-1694.9z"/>
			<path class="st3" d="M1492.8-1702.3c-0.2-5.5-0.6-10.7-1.9-16c-1.3-5.4-3.2-10.5-5.5-15.5c-4.7-10-11.9-19.1-20-26.4
				c-17.2-15.4-40.3-23.6-63.4-22.6c-23,1-45.9,11.4-61.3,28.7c-7.6,8.5-13.9,18.3-17.8,29c-4,11.1-6.1,23-5.4,34.8
				s3.3,23.6,8.6,34.2c5.1,10.2,11.9,19.8,20.4,27.3s18.4,13.8,29.1,17.6c10,3.5,20.5,5.4,31.1,5.3c23.5-0.2,46-9.8,62.5-26.6
				c8-8.2,14.3-17.7,18.7-28.2c2.2-5.3,3.9-10.9,5.1-16.5c1.4-7.1,1.6-14.1,1.6-21.3c-0.5,0-1,0.1-1.4,0.4c-1.6,0.8-3.2,1.6-4.8,2.4
				s-3.2,1.7-4.7,2.6c-0.5,0.2-0.9,0.5-1.1,0.9c-0.3,5.1-0.8,9.9-1.9,14.9c-1.1,4.8-2.5,9.4-4.4,13.9c-3.7,8.8-9.3,17.1-15.9,24
				c-14.2,14.6-33.8,23.3-54.1,23.9c-21,0.6-42.4-7.4-57.3-22.4c-7.4-7.4-13.7-16.2-17.7-26c-4.1-10.1-6.4-21.2-6.1-32.2
				s2.5-22.2,7.3-32.2c4.6-9.6,10.9-18.6,18.9-25.6c7.9-7,17.2-12.7,27.3-16c9.3-3,18.9-4.4,28.6-4.1c20.9,0.8,40.7,9.8,54.9,25.3
				c6.7,7.2,11.9,15.5,15.5,24.6c1.8,4.6,3.4,9.3,4.3,14.2c1.1,5.8,0.9,11.5,0.6,17.3c0.5-0.1,0.9-0.4,1.3-0.8
				c1.4-1.3,2.8-2.5,4.1-3.9c1.4-1.3,2.7-2.6,4-4C1492.3-1701.4,1492.6-1701.8,1492.8-1702.3z"/>
			<path class="st3" d="M1490.6-1704.2c-0.2-5.5-0.6-10.6-1.9-16s-3.2-10.5-5.5-15.5c-4.7-10-11.9-19.1-20.1-26.5
				c-17.3-15.5-40.5-23.6-63.7-22.5c-23,1.1-45.7,11.6-61.1,28.9c-7.5,8.4-13.9,18.2-17.7,28.8c-4,11-6.2,22.9-5.5,34.6
				c0.6,11.8,3.2,23.6,8.4,34.2c5,10.3,11.8,19.9,20.4,27.5c8.5,7.6,18.4,14,29.2,17.8c10.1,3.6,20.6,5.4,31.3,5.3
				c23.6-0.2,46.2-9.9,62.6-26.8c8-8.2,14.2-17.7,18.6-28.3c2.2-5.3,3.9-10.8,5-16.5c1.4-7.1,1.6-14.1,1.6-21.3
				c0-0.4-6.3,1.5-6.1,1.5c-0.2,0.1-5.9,1.4-5.9,2.2c0,5.2-0.1,10.2-0.9,15.3c-0.8,5-2,9.9-3.7,14.7c-3.3,9.4-8.8,18.4-15.5,25.8
				c-14.3,15.9-34.8,25.2-56.2,25.8c-21.8,0.6-44.1-8.2-59.2-24.1c-7.4-7.9-13.7-17.2-17.5-27.4c-3.8-10.5-5.8-21.9-5.1-33.2
				c0.8-11.2,3.4-22.4,8.8-32.2c5-9.4,11.7-18,20.1-24.6c8.1-6.4,17.4-11.5,27.4-14.2c8.9-2.4,18.1-3.3,27.3-2.6
				c19.3,1.4,37.3,9.9,50.9,23.7c6.6,6.6,11.9,14.2,15.8,22.7c2,4.4,3.7,8.9,4.8,13.6c0.3,1.9,0.7,3.8,1,5.7c0.3,3.6,0.3,7.3,0,10.9
				c0.5,0,1-0.2,1.4-0.5c1.6-0.9,3.3-1.8,4.9-2.8c1.6-0.9,3.2-1.9,4.8-2.9C1490-1703.4,1490.4-1703.8,1490.6-1704.2z"/>
			<path class="st3" d="M1490.4-1705.9c-0.3-6.5-0.8-12.8-2.7-19.1c-1.6-5.3-3.7-10.4-6.3-15.3c-5.3-9.9-12.5-18.5-21.2-25.7
				c-19-15.7-44.1-22.8-68.5-19.6c-24.2,3.2-46.2,16.5-60.5,36.2c-13.2,18.1-19.2,40.9-16.5,63.1c2,16.5,8.7,31.9,18.9,45
				c7.8,10,18.2,18.1,29.5,23.7c10.6,5.3,22.1,8.4,33.9,9.2c13.1,0.9,26.8-1,39-6.1c10.8-4.5,20.4-10.7,28.9-18.8
				c8.3-7.8,14.7-17.6,19.5-27.9c2.8-6.1,5-13.1,6.2-19.8c0.3-2.3,0.7-4.6,1-7c0.5-4.8,0.7-9.6,0.4-14.3c0-0.5-5.5,0.6-5.4,0.6
				c-0.1,0-5.3,0.7-5.3,1.3c0.2,4.3,0.4,8.5,0.1,12.7c-0.3,5.2-1.3,10.4-2.7,15.4c-2.5,9.1-6.6,17.6-12.1,25.3
				c-5.6,7.8-12.6,14.5-20.6,19.7c-8.2,5.4-17.5,9.7-27.2,11.6c-19.3,3.9-39.3,1.3-56.6-8.2c-4.9-2.7-9.6-5.8-13.9-9.4
				c-9.5-24.7-19-49.4-28.5-74.1c0.4-2.3,0.8-4.6,1.2-7c1.2-5.6,3.1-11.1,5.5-16.3c3.4-7.4,7.6-13.4,12.9-19.9
				c-0.1,0.1-0.1,0.2-0.2,0.3c1.6-1.7,3.2-3.3,4.8-5c-0.1,0.1-0.2,0.2-0.2,0.2c1.7-1.5,3.4-3,5.2-4.6c-0.1,0.1-0.2,0.2-0.3,0.2
				c1.8-1.4,3.7-2.7,5.5-4.1c-0.1,0.1-0.2,0.1-0.3,0.2c1.9-1.2,3.9-2.4,5.8-3.6c-0.1,0.1-0.2,0.1-0.3,0.2c2-1,4-2.1,6-3.1
				c-0.1,0-0.2,0.1-0.3,0.1c4-1.8,8.1-3.3,12.3-4.4c4-1.1,8.1-1.8,12.3-2.2c6.2-0.5,12.4-0.4,18.5,0.4c12.3,1.7,24,6.3,34.4,13
				c9.8,6.4,18.5,14.8,24.9,24.6c3.1,4.8,5.6,9.9,7.6,15.2c1.3,3.6,2.3,7.4,2.9,11.2c0.4,3.6,0.5,7.2,0.3,10.7
				c0,0.3,6.2-2.2,6.1-2.2C1484.9-1703.1,1490.4-1705,1490.4-1705.9z"/>
			<path class="st3" d="M1491.3-1698.6c-0.2-5.5-0.6-10.6-1.8-15.9c-1.3-5.4-3.1-10.5-5.4-15.5c-4.6-10-11.7-19.1-19.8-26.4
				c-17.1-15.5-40.2-23.7-63.3-22.7c-23,1-45.8,11.4-61.2,28.7c-7.5,8.4-13.8,18.2-17.6,28.9c-3.9,11-6.1,22.9-5.4,34.6
				s3.3,23.4,8.5,34c5,10.2,11.7,19.7,20.2,27.2c8.4,7.5,18.2,13.8,28.9,17.6c10,3.5,20.4,5.4,31,5.4c23.4-0.1,45.9-9.6,62.4-26.3
				c8-8.1,14.3-17.6,18.7-28.1c2.2-5.3,4-10.8,5.1-16.5c1.4-7,1.6-14.1,1.6-21.2c-0.5,0-0.9,0.2-1.3,0.6c-1.4,1-2.8,2.1-4.2,3.1
				c-1.4,1.1-2.8,2.1-4.1,3.2c-0.4,0.3-0.7,0.6-0.9,1.1c-0.5,5.4-1.2,10.5-2.6,15.7c-1.4,5-3.2,9.7-5.5,14.3
				c-4.3,8.8-10.9,16.9-18.3,23.3c-15.1,13-35,19.6-54.9,18.5c-19.6-1.1-38.9-9.8-52.1-24.4s-21.2-33.9-20.6-53.8
				c0.5-20.2,8.5-40.2,23.4-54.1c7.3-6.8,15.7-12.6,25.1-16.2c8.8-3.4,18-5.2,27.4-5.4c21.1-0.4,41.4,7.8,56.2,22.7
				c7.2,7.2,12.9,15.6,16.8,25c2,4.7,3.6,9.6,4.6,14.6c1.2,5.9,1.1,11.8,0.9,17.8c0.5-0.1,0.8-0.4,1.1-0.9c1.2-1.3,2.3-2.6,3.4-3.9
				s2.2-2.7,3.3-4C1491-1697.7,1491.2-1698.1,1491.3-1698.6z"/>
			<path class="st3" d="M1489.5-1702.9c-0.2-5.4-0.6-10.6-1.9-15.9c-1.3-5.4-3.1-10.5-5.5-15.5c-4.6-10-11.8-19.1-20-26.5
				c-17.2-15.5-40.4-23.7-63.6-22.6c-23,1.1-45.8,11.6-61.2,28.9c-7.5,8.4-13.8,18.2-17.6,28.9c-3.9,11-6.1,22.9-5.4,34.6
				s3.2,23.5,8.4,34.1c5,10.2,11.7,19.8,20.3,27.4c8.5,7.6,18.3,13.9,29.1,17.8c10.1,3.6,20.5,5.5,31.2,5.4
				c23.6-0.1,46.2-9.8,62.7-26.7c8-8.2,14.3-17.7,18.6-28.3c2.2-5.3,3.9-10.9,5-16.5c1.4-7.1,1.6-14.1,1.5-21.3
				c0-0.4-5.6,1.8-5.5,1.7c-0.3,0.1-5.2,1.6-5.2,2.4c0,5.4-0.2,10.5-1.1,15.7c-0.9,5.1-2.2,10-4,14.9c-3.5,9.5-9.3,18.5-16.3,25.8
				c-14.8,15.6-35.6,24.5-57.1,24.5c-21.7,0.1-43.6-9.1-58.3-25.2c-7.2-7.9-13.2-17.1-16.7-27.2c-3.6-10.3-5.4-21.5-4.5-32.5
				c0.9-10.8,3.5-21.7,8.8-31.2c4.9-9,11.3-17.3,19.4-23.8c7.7-6.2,16.6-11.3,26.1-14.1c8.6-2.6,17.5-3.8,26.5-3.5
				c19.6,0.6,38.3,8.3,52.5,21.7c7,6.6,12.7,14.3,16.8,23c2.1,4.4,3.9,9.1,5,13.9c0.4,1.9,0.7,3.9,1.1,5.8c0.3,3.7,0.4,7.4,0.1,11.1
				c0.5,0,0.9-0.2,1.3-0.5c1.4-0.9,2.8-1.7,4.2-2.7c1.4-0.9,2.8-1.8,4.2-2.8C1489-1702.2,1489.3-1702.5,1489.5-1702.9z"/>
			<path class="st3" d="M1491.8-1706.4c0-4.3-0.4-8.6-1.2-12.8c-0.5-2.1-1-4.3-1.5-6.4c-2.1-7.5-5.6-14.5-9.8-21
				c-7.4-11.4-17.3-20.8-29-27.7c-25.2-15-57.8-17-84.2-4c-16.4,8.1-30.2,20.6-39.3,36.4c-7.7,13.4-11.7,28.7-11.8,44.1
				c0,15.6,3.9,31,11.8,44.6c10.5,18.3,27.6,32.5,47.5,39.6c13.6,4.8,28.4,6.3,42.7,4.2c14-2,27.3-7.5,38.9-15.6
				c11.2-7.8,20.3-18.6,26.9-30.5c3.9-7,6.6-14.7,8.4-22.5c0.9-3.4,1.5-6.9,1.8-10.4c0.5-4.8,0.7-9.6,0.4-14.3
				c0-0.5-5.8,0.4-5.7,0.4c0,0-5.7,0.5-5.6,1.2c0.3,6.3,0.4,12.4-0.4,18.7c-0.9,7.2-3.1,14.1-6,20.7c-5.1,11.6-12.8,21.7-22.5,29.7
				c-22.1,18.2-52.9,23-79.7,13.1c-6.3-2.3-12.4-5.5-17.9-9.3c-7.6-4.9-13.5-11.7-17.5-20.2c-7.1-6.3-11.9-13.9-14.5-22.7
				c-4.4-13.7-5.1-28.4-2.4-42.5c2.6-13.7,9.1-26.5,17.9-37.1c5-6.1,11.1-11.2,17.6-15.5c2.7-1.9,5.6-3.6,8.7-5
				c4.1-2,8.3-3.6,12.7-4.9c-0.1,0-0.2,0.1-0.3,0.1c2.3-0.5,4.5-1.1,6.8-1.6c-0.1,0-0.2,0.1-0.4,0.1c2.3-0.3,4.6-0.7,6.9-1
				c-0.1,0-0.3,0-0.4,0c2.3-0.1,4.6-0.3,6.9-0.4c-0.1,0-0.3,0-0.4,0c6.7,0.1,13.3,0.4,19.8,2c4.9,1.2,9.7,2.9,14.4,5
				c9.2,4.2,17.7,10.2,24.8,17.4c6.3,6.4,11.7,13.6,16,21.5c2.6,4.8,4.8,10.5,6.1,15.8c0.4,1.9,0.7,3.7,1.1,5.6
				c0.3,3.5,0.4,7.1,0.1,10.7c0,0.3,6.5-2.4,6.4-2.3c1.6-0.7,3.3-1.4,4.9-2.2C1491.1-1705.7,1491.5-1706,1491.8-1706.4z"/>
			<path class="st3" d="M1490.8-1695.9c-0.1-6.4,0.2-4.9-0.5-9.7c-0.7-5.4-2.1-10.7-4-15.8c-3.8-10.4-10.3-19.9-17.8-28
				c-7.7-8.3-17.3-14.7-27.5-19.5c-10.6-5-22.3-7.3-33.9-7.9c-11.9-0.5-23.9,1.8-35,6c-10.7,4-20.4,10.6-28.8,18.3
				c-17.8,16.5-27.7,40.7-27.6,64.9c0.1,23.5,9.7,46.1,26.5,62.6c16.7,16.3,39.3,25.5,62.6,25.3c23.4-0.2,45.9-9.7,62.3-26.4
				c8-8.1,14.3-17.6,18.8-28.1c2.2-5.3,4-10.8,5.2-16.5c1.4-7.1,1.7-14.1,1.7-21.3c-0.4,0-0.7,0.2-1,0.5c-1,0.9-2,1.8-3,2.8
				c-1,0.9-1.9,1.9-2.9,2.9c-0.3,0.3-0.5,0.6-0.6,1c-0.5,5.8-1.2,11.2-2.7,16.8c-1.4,5.3-3.3,10.5-5.9,15.4
				c-4.8,9.4-11.7,18.1-19.9,24.7c-7.3,5.9-15.5,10.5-24.4,13.5c-9.9,3.3-20.1,4.5-30.5,3.7c-18.7-1.4-35.8-9.4-49.3-22.3
				c-13.3-12.7-22.3-30.9-24-49.2c-0.9-9.1-0.3-18.2,1.8-27.1c2.4-9.7,6.6-18.8,12.4-26.9c11.6-16.1,28.7-26.9,48-31
				c10.7-2.3,22.3-1.9,32.9,0.5c10.3,2.3,20.6,6.9,29.1,13.2c7.7,5.8,14.4,12.6,19.7,20.6c2.9,4.4,5.5,9.1,7.5,14
				c4,9.8,5.6,19.5,5.1,30.4c0,0.4,0,0.3,0.3,0.2c0.2-0.2,0.4-0.4,0.5-0.5c0.6-0.7,1.1-1.4,1.7-2.2c0.8-1.1,1.7-2.3,2.4-3.4
				C1490.3-1694.7,1490.8-1695.3,1490.8-1695.9z"/>
			<path class="st3" d="M1490.5-1700.5c-0.2-5.4-0.6-10.6-1.9-15.9c-1.3-5.4-3.1-10.5-5.4-15.5c-4.6-10-11.8-19.1-19.9-26.4
				c-17.2-15.5-40.2-23.7-63.3-22.6c-23,1.1-45.8,11.4-61.1,28.7c-7.5,8.4-13.8,18.2-17.6,28.9c-3.9,11-6.1,22.8-5.4,34.5
				s3.2,23.4,8.4,33.9c5,10.2,11.7,19.7,20.2,27.2c8.4,7.5,18.2,13.8,28.9,17.6c10,3.6,20.3,5.4,30.9,5.4
				c23.4-0.1,45.9-9.6,62.4-26.2c8-8.1,14.3-17.6,18.7-28.1c2.2-5.3,4-10.8,5.1-16.5c1.4-7,1.6-14.1,1.6-21.2c-0.5,0-1,0.1-1.4,0.5
				c-1.6,0.8-3.1,1.7-4.7,2.6c-1.5,0.9-3.1,1.8-4.6,2.8c-0.5,0.2-0.8,0.5-1.1,1c-0.4,5.3-0.9,10.2-2.1,15.4
				c-1.2,4.9-2.8,9.7-4.8,14.3c-4,9-10.1,17.2-17.2,23.9c-14.8,13.9-34.9,21.4-55.3,20.8s-40.6-9.6-54.2-24.9
				c-13.6-15.2-21.3-35.5-20-56c1.3-20.3,10.1-40.1,25.6-53.5c7.4-6.4,16-11.8,25.3-14.9c8.7-2.9,17.6-4.4,26.8-4.3
				c20.2,0.2,39.6,8.3,53.9,22.7c6.9,7,12.4,15.1,16.3,24.1c2,4.6,3.6,9.3,4.6,14.2c0.3,2,0.6,3.9,0.9,5.9c0.2,3.8,0.2,7.6-0.1,11.4
				c0.5-0.1,0.9-0.4,1.3-0.8c1.4-1.2,2.8-2.4,4.1-3.7c1.4-1.2,2.7-2.5,4-3.8C1490.1-1699.6,1490.4-1700,1490.5-1700.5z"/>
		</g>
	</g>
</g>
<path class="st4" d="M-965.9-402.6c6.9,7.5,33.2-4.8,49.5-17.8c15.5-12.4,33.3-34.5,27.7-42.9c-5.5-8.4-33.9-2.9-52.8,11.9
	C-960.6-436.5-972.8-409.9-965.9-402.6z"/>
<g>
	
		<text transform="matrix(1 0 0 1 -588.5316 -654.7999)" style="fill:#2E193F; font-family:'FranklinGothicLTPro-CnMd'; font-size:72px;">Kuri</text>
	
		<text transform="matrix(1 0 0 1 -842.8358 -655.5728)" style="fill:#D2E7B5; font-family:'FranklinGothicLTPro-CnMd'; font-size:72px;">Christina</text>
</g>
<text transform="matrix(1 0 0 1 -928.2594 -621.494)" style="fill:#20231C; font-family:'MrsEavesXLSerifOT-Reg'; font-size:24px;">Psychotherapeutin in Ausbildung unter Supervision</text>
<text transform="matrix(1 0 0 1 -942.4595 -592.694)" style="fill:#20231C; font-family:'MrsEavesXLSerifOT-Reg'; font-size:24px;">tiefenpsychologisch fundierte Hypnosepsychotherapie</text>
<rect x="-28.9" y="-842.7" class="st5" width="651.4" height="459.6"/>
<text transform="matrix(1 0 0 1 -28.911 -833.9379)" style="font-family:'MrsEavesXLSerifOT-Reg'; font-size:14px;">Fliesstext Mrs Evans 14px.</text>
<text transform="matrix(1 0 0 1 -28.911 -800.338)" style="font-family:'MrsEavesXLSerifOT-Reg'; font-size:14px;">Lorem ipsum dolor sit amet, consectetuer adipiscing elit, sed diam nonummy nibh euismod tincidunt ut </text>
<text transform="matrix(1 0 0 1 -28.911 -783.5379)" style="font-family:'MrsEavesXLSerifOT-Reg'; font-size:14px;">laoreet dolore magna aliquam erat volutpat. Ut wisi enim ad minim veniam, quis nostrud exerci tation </text>
<text transform="matrix(1 0 0 1 -28.911 -766.7379)" style="font-family:'MrsEavesXLSerifOT-Reg'; font-size:14px;">ullamcorper suscipit lobortis nisl ut aliquip ex ea commodo consequat. Duis autem vel eum iriure dolor in </text>
<text transform="matrix(1 0 0 1 -28.911 -749.9379)" style="font-family:'MrsEavesXLSerifOT-Reg'; font-size:14px;">hendrerit in vulputate velit esse molestie consequat, vel illum dolore eu feugiat nulla facilisis at vero eros et </text>
<text transform="matrix(1 0 0 1 -28.911 -733.1379)" style="font-family:'MrsEavesXLSerifOT-Reg'; font-size:14px;">accumsan et iusto odio </text>
<text transform="matrix(1 0 0 1 110.489 -733.1379)" style="fill:#98C73A; font-family:'MrsEavesXLSerifOT-Reg'; font-size:14px;">hier ein Textlink</text>
<text transform="matrix(1 0 0 1 209.389 -733.1379)" style="font-family:'MrsEavesXLSerifOT-Reg'; font-size:14px;"> praesent luptatum zzril delenit augue duis dolore te feugait nulla </text>
<text transform="matrix(1 0 0 1 -28.911 -716.338)" style="font-family:'MrsEavesXLSerifOT-Reg'; font-size:14px;">facilisi.</text>
<text transform="matrix(1 0 0 1 -28.911 -682.7379)" style="font-family:'MrsEavesXLSerifOT-Reg'; font-size:14px;">Lorem ipsum dolor sit amet, cons ectetuer adipiscing elit, sed diam nonummy nibh euismod tincidunt ut </text>
<text transform="matrix(1 0 0 1 -28.911 -665.9379)" style="font-family:'MrsEavesXLSerifOT-Reg'; font-size:14px;">laoreet dolore magna aliquam erat volutpat. Ut wisi enim ad minim veniam, quis nostrud exerci tation </text>
<text transform="matrix(1 0 0 1 -28.911 -649.1379)" style="font-family:'MrsEavesXLSerifOT-Reg'; font-size:14px;">ullamcorper suscipit lobortis nisl ut aliquip ex ea commodo consequat.</text>
<text transform="matrix(1 0 0 1 -28.911 -632.3379)" style="font-family:'MrsEavesXLSerifOT-Reg'; font-size:14px;">Lorem ipsum dolor sit amet, consectetuer adipiscing elit, sed diam nonummy nibh euismod tincidunt ut </text>
<text transform="matrix(1 0 0 1 -28.911 -615.538)" style="font-family:'MrsEavesXLSerifOT-Reg'; font-size:14px;">laoreet dolore magna aliquam erat volutpat. Ut wisi enim ad minim veniam, quis nostrud exerci tation </text>
<text transform="matrix(1 0 0 1 -28.911 -598.7379)" style="font-family:'MrsEavesXLSerifOT-Reg'; font-size:14px;">ullamcorper suscipit lobortis nisl ut aliquip ex ea commodo consequat. Duis autem vel eum iriure dolor in </text>
<text transform="matrix(1 0 0 1 -28.911 -581.9379)" style="font-family:'MrsEavesXLSerifOT-Reg'; font-size:14px;">hendrerit in vulputate velit esse molestie consequat, vel illum dolore eu feugiat nulla facilisis at vero eros et </text>
<text transform="matrix(1 0 0 1 -28.911 -565.1379)" style="font-family:'MrsEavesXLSerifOT-Reg'; font-size:14px;">accumsan et iusto odio dignissim qui blandit praesent luptatum zzril delenit augue duis dolore te feugait </text>
<text transform="matrix(1 0 0 1 -28.911 -548.3379)" style="font-family:'MrsEavesXLSerifOT-Reg'; font-size:14px;">nulla facilisi.</text>
<text transform="matrix(1 0 0 1 -28.911 -514.7379)" style="font-family:'MrsEavesXLSerifOT-Reg'; font-size:14px;">Lorem ipsum dolor sit amet, cons ectetuer adipiscing elit, sed diam nonummy nibh euismod tincidunt ut </text>
<text transform="matrix(1 0 0 1 -28.911 -497.9379)" style="font-family:'MrsEavesXLSerifOT-Reg'; font-size:14px;">laoreet dolore magna aliquam erat volut</text>
<g>
	
		<text transform="matrix(1 0 0 1 -32.7505 -984.0117)" style="fill:#435C1D; font-family:'FranklinGothicLTPro-CnMd'; font-size:36px;">Heading 1: Franklin Gothic 36px </text>
</g>
<g>
	
		<text transform="matrix(1 0 0 1 -32.8345 -930.2932)" style="fill:#435C1D; font-family:'FranklinGothicLTPro-CnMd'; font-size:30px;">Heading 2: Franklin Gothic 30px </text>
</g>
<g>
	
		<text transform="matrix(1 0 0 1 -30.4468 -885.6301)" style="fill:#435C1D; font-family:'FranklinGothicLTPro-CnMd'; font-size:24px;">Heading 3: Franklin Gothic 24px </text>
</g>
<image style="overflow:visible;enable-background:new    ;" width="2480" height="1040" xlink:href="../../../../../../../Downloads/Kuri komplementär.jpeg"  transform="matrix(9.354889e-02 0 0 9.354889e-02 523.3299 -1901.1511)">
</image>
<g>
	<rect x="24.3" y="502.3" class="st5" width="651.4" height="317.6"/>
	<text transform="matrix(1 0 0 1 24.2469 511.5978)" style="font-family:'NimbusSan-Lig'; font-size:14px;">Fliesstext Nimbus Sans Linght 14px.</text>
	<text transform="matrix(1 0 0 1 24.2469 545.1978)" style="font-family:'NimbusSan-Lig'; font-size:14px;">Lorem ipsum dolor sit amet, consectetuer adipiscing elit, sed diam nonummy nibh euismod tincidunt ut laoreet </text>
	<text transform="matrix(1 0 0 1 24.2469 561.9978)" style="font-family:'NimbusSan-Lig'; font-size:14px;">dolore magna aliquam erat volutpat. Ut wisi enim ad minim veniam, quis nostrud exerci tation ullamcorper </text>
	<text transform="matrix(1 0 0 1 24.2469 578.7978)" style="font-family:'NimbusSan-Lig'; font-size:14px;">suscipit lobortis nisl ut aliquip ex ea commodo consequat. Duis autem vel eum iriure dolor in hendrerit in </text>
	<text transform="matrix(1 0 0 1 24.2469 595.5978)" style="font-family:'NimbusSan-Lig'; font-size:14px;">vulputate velit esse molestie consequat, vel illum dolore eu feugiat nulla facilisis at vero eros et accumsan et </text>
	<text transform="matrix(1 0 0 1 24.2469 612.3978)" style="font-family:'NimbusSan-Lig'; font-size:14px;">iusto odio </text>
	<text transform="matrix(1 0 0 1 86.047 612.3978)" style="fill:#98C73A; font-family:'NimbusSan-Lig'; font-size:14px;">hier ein Textlink</text>
	<text transform="matrix(1 0 0 1 177.3469 612.3978)" style="font-family:'NimbusSan-Lig'; font-size:14px;"> praesent luptatum zzril delenit augue duis dolore te feugait nulla facilisi.</text>
	<text transform="matrix(1 0 0 1 24.2469 645.9978)" style="font-family:'NimbusSan-Lig'; font-size:14px;">Lorem ipsum dolor sit amet, cons ectetuer adipiscing elit, sed diam nonummy nibh euismod tincidunt ut </text>
	<text transform="matrix(1 0 0 1 24.2469 662.7978)" style="font-family:'NimbusSan-Lig'; font-size:14px;">laoreet dolore magna aliquam erat volutpat. Ut wisi enim ad minim veniam, quis nostrud exerci tation ullamcor</text>
	<text transform="matrix(1 0 0 1 670.2469 662.7978)" style="font-family:'NimbusSan-Lig'; font-size:14px;">-</text>
	<text transform="matrix(1 0 0 1 24.2469 679.5978)" style="font-family:'NimbusSan-Lig'; font-size:14px;">per suscipit lobortis nisl ut aliquip ex ea commodo consequat.</text>
	<text transform="matrix(1 0 0 1 24.2469 696.3978)" style="font-family:'NimbusSan-Lig'; font-size:14px;">Lorem ipsum dolor sit amet, consectetuer adipiscing elit, sed diam nonummy nibh euismod tincidunt ut laoreet </text>
	<text transform="matrix(1 0 0 1 24.2469 713.1978)" style="font-family:'NimbusSan-Lig'; font-size:14px;">dolore magna aliquam erat volutpat. Ut wisi enim ad minim veniam, quis nostrud exerci tation ullamcorper </text>
	<text transform="matrix(1 0 0 1 24.2469 729.9978)" style="font-family:'NimbusSan-Lig'; font-size:14px;">suscipit lobortis nisl ut aliquip ex ea commodo consequat. Duis autem vel eum iriure dolor in hendrerit in </text>
	<text transform="matrix(1 0 0 1 24.2469 746.7978)" style="font-family:'NimbusSan-Lig'; font-size:14px;">vulputate velit esse molestie consequat, vel illum dolore eu feugiat nulla facilisis at vero eros et accumsan et </text>
	<text transform="matrix(1 0 0 1 24.2469 763.5978)" style="font-family:'NimbusSan-Lig'; font-size:14px;">iusto odio dignissim qui blandit praesent luptatum zzril delenit augue duis dolore te feugait nulla facilisi.</text>
	<text transform="matrix(1 0 0 1 24.2469 797.1978)" style="font-family:'NimbusSan-Lig'; font-size:14px;">Lorem ipsum dolor sit amet, cons ectetuer adipiscing elit, sed diam nonummy nibh euismod tincidunt ut </text>
	<text transform="matrix(1 0 0 1 24.2469 813.9978)" style="font-family:'NimbusSan-Lig'; font-size:14px;">laoreet dolore magna aliquam erat volut</text>
	<g>
		<text transform="matrix(1 0 0 1 20.4075 360.9214)" class="st11" style="font-family:'LookScript-Reg'; font-size:36px;">Heading 1: Look Script 36px </text>
	</g>
	<g>
		<text transform="matrix(1 0 0 1 20.3235 414.6398)" style="fill:#435C1D; font-family:'LookScript-Reg'; font-size:30px;">Heading 2: Look Script 30px </text>
	</g>
	<g>
		<text transform="matrix(1 0 0 1 22.7112 459.3031)" style="fill:#435C1D; font-family:'LookScript-Reg'; font-size:24px;">Heading 3: Look Script 24px </text>
	</g>
</g>
<g>
	<g>
		
			<image style="overflow:visible;enable-background:new    ;" width="196" height="194" xlink:href="E261AE8B.png"  transform="matrix(0.6478 0 0 0.6478 2624.4441 -215.012)">
		</image>
	</g>
</g>
<path class="st4" d="M1063.3,453.5c6.9,7.5,33.2-4.8,49.5-17.8c15.5-12.4,33.3-34.5,27.7-42.9c-5.5-8.4-33.9-2.9-52.8,11.9
	C1068.6,419.6,1056.5,446.1,1063.3,453.5z"/>
<path class="st6" d="M234.1,71"/>
<path class="st6" d="M1535,168.2c2.9-6.5,24.4-4.9,39.1-0.4c14,4.3,27.5,11.2,30.5,21.2c-8.9,5.5-22.9,10.1-40,5.1
	C1547.6,189,1532.1,174.7,1535,168.2z"/>
<path class="st6" d="M1542.2,221.2c2.9-6.5,24.4-4.9,39.1-0.4c14,4.3,28.8,14.4,30.5,21.2c-4.7,4.4-22.9,10.1-40,5.1
	C1554.8,242,1539.3,227.6,1542.2,221.2z"/>
<path class="st6" d="M141.6,14.2c7.1-2,21.5,0.1,33.1,6.4c10.9,6,24.2,17.6,21.4,23s-21.3,4.5-34.6-2.6
	C148,33.8,140.9,19.9,141.6,14.2z"/>
<path class="st6" d="M84.4,14.1c7.9-1.3,21.5,0.1,33.1,6.4c10.9,6,24.2,17.6,21.4,23s-21.3,4.5-34.6-2.6
	C90.9,33.6,83.7,20,84.4,14.1z"/>
<path class="st6" d="M33.5,13.5c8.2-0.5,21.5,0.1,33.1,6.4c10.9,6,24.2,17.6,21.4,23s-21.3,4.5-34.6-2.6
	C40,33.2,31.4,19.8,33.5,13.5z"/>
<path class="st6" d="M28.5,85.9c7.1-11.6,15.2-14.1,28.2-17.1c12.4-3,30.5-3.4,32.7,2.2S77.7,88.1,62.9,91.8
	C48,95.6,36.1,92.2,28.5,85.9z"/>
<path class="st6" d="M77.3,106.3c5.9-9.8,15.2-14.1,28.2-17.1c12.4-3,30.5-3.4,32.7,2.2s-11.6,17.1-26.5,20.9
	C96.7,115.9,78.5,112.1,77.3,106.3z"/>
<path class="st6" d="M15,147.4c5.6-6.1,20.1-7.3,33.3-5.4c12.6,1.8,29.5,8,29,14.1c-0.4,5.9-18,11.5-33.2,9.4
	C28.7,163.4,15.8,153.5,15,147.4z"/>
<path class="st6" d="M95.2,166.6c6.4-1.4,16,13.4,20.1,25.2c3.8,11.3,3.4,23.6-0.5,30.4c-5.9,2.3-19.1-9.8-23.9-23.4
	C86,185.2,89,168,95.2,166.6z"/>
<path class="st6" d="M129.8,149.5c6.9-1.7,16.9,14.4,20.8,27.3c3.8,12.4,3.1,26.9-1.5,33.7c-8.1-1.9-20.3-10.3-25.1-25.2
	C119.1,170.3,123,151.2,129.8,149.5z"/>
<path class="st6" d="M205.1,136c5.2-0.1,10.4,12.8,11.8,22.5c1.3,9.3-0.9,19-4.7,23.3c-4.2-1.4-13.4-10.5-15.1-21.7
	C195.2,148.8,200,136.1,205.1,136z"/>
<path class="st6" d="M185.5,136c3.9,3.1-1.2,16-7.1,24.2c-5.6,7.8-14.1,13.7-20.1,14.6c-2.1-3.6-2.6-16.1,4-25.6
	C169.1,139.5,181.7,132.9,185.5,136z"/>
<path class="st6" d="M217.7,205.9c4.9-1,12.8,10.5,16.2,19.7c3.2,8.7,3.1,19.2,0.2,23.4c-3.8-1.8-15.1-7.9-19.2-18.3
	C210.9,220,212.9,206.8,217.7,205.9z"/>
<path class="st6" d="M272.7,256.2c5.5-11.7,6.9-14.5,15.2-20.3c7.9-5.5,20.8-10.8,23.9-7.3s-3.4,15.8-13,22.5
	C289.3,258,281.2,258.2,272.7,256.2z"/>
<path class="st6" d="M252.4,215.2c7.5-10.1,11.5-13.6,22.1-17.6c10.1-3.8,25.3-6.1,27.7-1.5c2.3,4.6-8.2,15.9-20.4,20.6
	C269.6,221.4,256.9,219.6,252.4,215.2z"/>
<path class="st6" d="M252.4,180.9c-0.4-7.2,7.1-14.5,15.5-20.1c8-5.5,20.9-10.6,24-7c3.1,3.5-3.6,15.7-13.2,22.4
	C269,182.9,260.1,183,252.4,180.9z"/>
<path class="st6" d="M206,204.4c-3.3-3.5-17,1.1-25.8,6.4c-8.2,5.1-18,14.5-15.5,18.4c9.1,3.1,17.1,2.4,27.2-3.6
	C202.2,219.5,209.3,208,206,204.4z"/>
<path class="st6" d="M1598.7,66.9c-2.6-4.8,9.6-13.9,20.1-18.3c10-4.2,23.3-5.1,29.2-3c0.7,7.9-5.6,15.9-17.6,21.1
	C1618.2,72,1601.2,71.5,1598.7,66.9z"/>
<path class="st6" d="M1644.7,93.9c-4.2-3.5,3.6-16.2,11.6-23.8c7.7-7.3,18.9-11.8,26.1-12.5c3.8,8.6,0.9,16.7-8.2,25.6
	C1665,92.1,1648.9,97.4,1644.7,93.9z"/>
<path class="st6" d="M1674.4,146.1c-0.9-5.3,13.7-10.4,25.1-11.7c10.9-1.1,20.1,0.8,28.7,5.5c-3.4,6.7-10.5,13.5-23.7,15.1
	C1691.3,156.5,1675.3,151.3,1674.4,146.1z"/>
<path class="st6" d="M1709.8,105.2c2.2-3.7,14-0.5,21.8,3.7c7.5,4.1,12.3,9.4,15.3,16.2c-5.6,2.8-13.6,3.8-22.7-1
	C1715.2,119.3,1707.8,109,1709.8,105.2z"/>
<path class="st6" d="M1615.4,191.6c3.6-4.1,17.5,2.4,26.3,9.4c8.2,6.7,17.8,18.8,15,23.5c-2.8,4.6-17.8,1.8-27.9-6.1
	C1618.5,210.3,1611.9,195.7,1615.4,191.6z"/>
<path class="st6" d="M1627.6,158.6c3.6-4.1,17.5,2.4,26.3,9.4c8.2,6.7,17.8,18.8,15,23.5c-2.8,4.6-17.8,1.8-27.9-6.1
	C1630.7,177.2,1624.1,162.7,1627.6,158.6z"/>
<path class="st6" d="M1542.5,99.3c3.1-4.5,17.7,0.6,27.2,6.7c9.1,5.8,16.7,12.3,17.7,21.7c-6,2.9-17.5,3.6-28.5-3.3
	C1547.8,117.6,1539.4,103.8,1542.5,99.3z"/>
<path class="st6" d="M1714.6,81.7c-3.4-3.4,2.1-16.5,7.9-24.6c5.6-7.7,11.4-11.7,19.3-13.8c2.5,6.3,1.3,16.8-5.3,26.2
	C1729.8,78.9,1717.8,85,1714.6,81.7z"/>
<g>
	
		<text transform="matrix(1 0 0 1 1503.7373 352.4125)" style="fill:#435C1D; font-family:'FranklinGothicLTPro-CnMd'; font-size:72px;">Kuri</text>
	
		<text transform="matrix(1 0 0 1 1249.4331 351.6397)" style="fill:#D2E7B5; font-family:'FranklinGothicLTPro-CnMd'; font-size:72px;">Christina</text>
</g>
<text transform="matrix(1 0 0 1 1164.01 385.7184)" style="fill:#20231C; font-family:'MrsEavesXLSerifOT-Reg'; font-size:24px;">Psychotherapeutin in Ausbildung unter Supervision</text>
<text transform="matrix(1 0 0 1 1149.8101 414.5184)" style="fill:#20231C; font-family:'MrsEavesXLSerifOT-Reg'; font-size:24px;">tiefenpsychologisch fundierte Hypnosepsychotherapie</text>
<rect x="2000.3" y="13.4" class="st5" width="651.4" height="459.6"/>
<text transform="matrix(1 0 0 1 2000.2997 22.135)" style="font-family:'MrsEavesXLSerifOT-Reg'; font-size:14px;">Fliesstext Mrs Evans 14px.</text>
<text transform="matrix(1 0 0 1 2000.2997 55.735)" style="font-family:'MrsEavesXLSerifOT-Reg'; font-size:14px;">Lorem ipsum dolor sit amet, consectetuer adipiscing elit, sed diam nonummy nibh euismod tincidunt ut </text>
<text transform="matrix(1 0 0 1 2000.2997 72.535)" style="font-family:'MrsEavesXLSerifOT-Reg'; font-size:14px;">laoreet dolore magna aliquam erat volutpat. Ut wisi enim ad minim veniam, quis nostrud exerci tation </text>
<text transform="matrix(1 0 0 1 2000.2997 89.335)" style="font-family:'MrsEavesXLSerifOT-Reg'; font-size:14px;">ullamcorper suscipit lobortis nisl ut aliquip ex ea commodo consequat. Duis autem vel eum iriure dolor in </text>
<text transform="matrix(1 0 0 1 2000.2997 106.135)" style="font-family:'MrsEavesXLSerifOT-Reg'; font-size:14px;">hendrerit in vulputate velit esse molestie consequat, vel illum dolore eu feugiat nulla facilisis at vero eros et </text>
<text transform="matrix(1 0 0 1 2000.2997 122.935)" style="font-family:'MrsEavesXLSerifOT-Reg'; font-size:14px;">accumsan et iusto odio </text>
<text transform="matrix(1 0 0 1 2139.6997 122.935)" style="fill:#98C73A; font-family:'MrsEavesXLSerifOT-Reg'; font-size:14px;">hier ein Textlink</text>
<text transform="matrix(1 0 0 1 2238.5996 122.935)" style="font-family:'MrsEavesXLSerifOT-Reg'; font-size:14px;"> praesent luptatum zzril delenit augue duis dolore te feugait nulla </text>
<text transform="matrix(1 0 0 1 2000.2997 139.735)" style="font-family:'MrsEavesXLSerifOT-Reg'; font-size:14px;">facilisi.</text>
<text transform="matrix(1 0 0 1 2000.2997 173.335)" style="font-family:'MrsEavesXLSerifOT-Reg'; font-size:14px;">Lorem ipsum dolor sit amet, cons ectetuer adipiscing elit, sed diam nonummy nibh euismod tincidunt ut </text>
<text transform="matrix(1 0 0 1 2000.2997 190.135)" style="font-family:'MrsEavesXLSerifOT-Reg'; font-size:14px;">laoreet dolore magna aliquam erat volutpat. Ut wisi enim ad minim veniam, quis nostrud exerci tation </text>
<text transform="matrix(1 0 0 1 2000.2997 206.935)" style="font-family:'MrsEavesXLSerifOT-Reg'; font-size:14px;">ullamcorper suscipit lobortis nisl ut aliquip ex ea commodo consequat.</text>
<text transform="matrix(1 0 0 1 2000.2997 223.735)" style="font-family:'MrsEavesXLSerifOT-Reg'; font-size:14px;">Lorem ipsum dolor sit amet, consectetuer adipiscing elit, sed diam nonummy nibh euismod tincidunt ut </text>
<text transform="matrix(1 0 0 1 2000.2997 240.535)" style="font-family:'MrsEavesXLSerifOT-Reg'; font-size:14px;">laoreet dolore magna aliquam erat volutpat. Ut wisi enim ad minim veniam, quis nostrud exerci tation </text>
<text transform="matrix(1 0 0 1 2000.2997 257.335)" style="font-family:'MrsEavesXLSerifOT-Reg'; font-size:14px;">ullamcorper suscipit lobortis nisl ut aliquip ex ea commodo consequat. Duis autem vel eum iriure dolor in </text>
<text transform="matrix(1 0 0 1 2000.2997 274.135)" style="font-family:'MrsEavesXLSerifOT-Reg'; font-size:14px;">hendrerit in vulputate velit esse molestie consequat, vel illum dolore eu feugiat nulla facilisis at vero eros et </text>
<text transform="matrix(1 0 0 1 2000.2997 290.935)" style="font-family:'MrsEavesXLSerifOT-Reg'; font-size:14px;">accumsan et iusto odio dignissim qui blandit praesent luptatum zzril delenit augue duis dolore te feugait </text>
<text transform="matrix(1 0 0 1 2000.2997 307.735)" style="font-family:'MrsEavesXLSerifOT-Reg'; font-size:14px;">nulla facilisi.</text>
<text transform="matrix(1 0 0 1 2000.2997 341.335)" style="font-family:'MrsEavesXLSerifOT-Reg'; font-size:14px;">Lorem ipsum dolor sit amet, cons ectetuer adipiscing elit, sed diam nonummy nibh euismod tincidunt ut </text>
<text transform="matrix(1 0 0 1 2000.2997 358.135)" style="font-family:'MrsEavesXLSerifOT-Reg'; font-size:14px;">laoreet dolore magna aliquam erat volut</text>
<g>
	
		<text transform="matrix(1 0 0 1 1996.4604 -127.9389)" style="fill:#435C1D; font-family:'FranklinGothicLTPro-CnMd'; font-size:36px;">Heading 1: Franklin Gothic 36px </text>
</g>
<g>
	
		<text transform="matrix(1 0 0 1 1996.3765 -74.2206)" style="fill:#435C1D; font-family:'FranklinGothicLTPro-CnMd'; font-size:30px;">Heading 2: Franklin Gothic 30px </text>
</g>
<g>
	
		<text transform="matrix(1 0 0 1 1998.7639 -29.5573)" style="fill:#435C1D; font-family:'FranklinGothicLTPro-CnMd'; font-size:24px;">Heading 3: Franklin Gothic 24px </text>
</g>
<image style="overflow:visible;enable-background:new    ;" width="2480" height="1040" xlink:href="../../../../../../../Downloads/Kuri komplementär.jpeg"  transform="matrix(9.354889e-02 0 0 9.354889e-02 530.3299 -414.2011)">
</image>
<image style="overflow:visible;enable-background:new    ;" width="2480" height="1040" xlink:href="../../../../../../../Downloads/Kuri komplementär.jpeg"  transform="matrix(9.354889e-02 0 0 9.354889e-02 523.3299 -1068.2744)">
</image>
<g>
	<path class="st7" d="M-720.1-833.9c39,5.1,78.9,22,76.5,50.3c-2.3,27.2-50.6,44.7-89.7,42.1c-81.2-5.4-139.3-98.5-134.5-102.8
		c2.1-1.9,15.5,13.9,38.5,15c19,1,32.6,13.4,57.2,6.7C-770.2-823.1-744.2-837-720.1-833.9z"/>
	<path class="st8" d="M-535.1-930.3c-3-0.4-2.8,19.1-20.4,31.8c-14.5,10.5-16.9,27.5-41.2,34.7c-1.8,0.5-32.3,2.7-49.5,17.7
		c-6,5.2-11.7,10.9-16.7,16.9c-5-5.9-10.6-11.7-16.7-16.9c-17.2-14.9-47.6-17.1-49.5-17.7c-24.4-7.2-26.7-24.2-41.2-34.7
		c-17.6-12.7-17.4-32.3-20.4-31.8c-6.9,0.9-25,105.5,36.4,151.5c25.7,19.2,67.3,29.8,91.5,18.9c24.1,10.9,65.8,0.3,91.5-18.9
		C-510-824.8-528.2-929.3-535.1-930.3z"/>
	<g>
		<path class="st9" d="M-679.6-849.5c6,5.2,11.7,10.9,16.7,16.9c5-5.9,10.6-11.7,16.7-16.9c7.1-6.2,16.4-10.1,25.1-12.7
			c-10.3-10-25.3-16.4-42.1-16.4c-16.7,0-31.7,6.3-42,16.2C-696.4-859.8-686.8-855.7-679.6-849.5z"/>
	</g>
	<path class="st7" d="M-605.8-833.9c-39,5.1-78.9,22-76.5,50.3c2.3,27.2,50.6,44.7,89.7,42.1c81.2-5.4,139.3-98.5,134.5-102.8
		c-2.1-1.9-15.5,13.9-38.5,15c-19,1-32.6,13.4-57.2,6.7C-555.7-823.1-581.6-837-605.8-833.9z"/>
</g>
<rect x="-24.9" y="-1648" class="st5" width="651.4" height="459.6"/>
<text transform="matrix(1 0 0 1 -24.9037 -1637.262)" style="font-family:'NeusaNextStd-Regular'; font-size:14px;">Fliesstext Neusa Next 14px.</text>
<text transform="matrix(1 0 0 1 -24.9037 -1603.662)" style="font-family:'NeusaNextStd-Regular'; font-size:14px;">Lorem ipsum dolor sit amet, consectetuer adipiscing elit, sed diam nonummy nibh euismod tincidunt ut </text>
<text transform="matrix(1 0 0 1 -24.9037 -1586.8619)" style="font-family:'NeusaNextStd-Regular'; font-size:14px;">laoreet dolore magna aliquam erat volutpat. Ut wisi enim ad minim veniam, quis nostrud exerci tation </text>
<text transform="matrix(1 0 0 1 -24.9037 -1570.062)" style="font-family:'NeusaNextStd-Regular'; font-size:14px;">ullamcorper suscipit lobortis nisl ut aliquip ex ea commodo consequat. Duis autem vel eum iriure dolor in </text>
<text transform="matrix(1 0 0 1 -24.9037 -1553.262)" style="font-family:'NeusaNextStd-Regular'; font-size:14px;">hendrerit in vulputate velit esse molestie consequat, vel illum dolore eu feugiat nulla facilisis at vero eros </text>
<text transform="matrix(1 0 0 1 -24.9037 -1536.4619)" style="font-family:'NeusaNextStd-Regular'; font-size:14px;">et accumsan et iusto odio </text>
<text transform="matrix(1 0 0 1 136.8963 -1536.4619)" style="fill:#98C73A; font-family:'NeusaNextStd-Regular'; font-size:14px;">hier ein Textlink</text>
<text transform="matrix(1 0 0 1 234.2963 -1536.4619)" style="font-family:'NeusaNextStd-Regular'; font-size:14px;"> praesent luptatum zzril delenit augue duis dolore te feugait </text>
<text transform="matrix(1 0 0 1 -24.9037 -1519.662)" style="font-family:'NeusaNextStd-Regular'; font-size:14px;">nulla facilisi.</text>
<text transform="matrix(1 0 0 1 -24.9037 -1486.062)" style="font-family:'NeusaNextStd-Regular'; font-size:14px;">Lorem ipsum dolor sit amet, cons ectetuer adipiscing elit, sed diam nonummy nibh euismod tincidunt ut </text>
<text transform="matrix(1 0 0 1 -24.9037 -1469.262)" style="font-family:'NeusaNextStd-Regular'; font-size:14px;">laoreet dolore magna aliquam erat volutpat. Ut wisi enim ad minim veniam, quis nostrud exerci tation </text>
<text transform="matrix(1 0 0 1 -24.9037 -1452.4619)" style="font-family:'NeusaNextStd-Regular'; font-size:14px;">ullamcorper suscipit lobortis nisl ut aliquip ex ea commodo consequat.</text>
<text transform="matrix(1 0 0 1 -24.9037 -1435.662)" style="font-family:'NeusaNextStd-Regular'; font-size:14px;">Lorem ipsum dolor sit amet, consectetuer adipiscing elit, sed diam nonummy nibh euismod tincidunt ut </text>
<text transform="matrix(1 0 0 1 -24.9037 -1418.8619)" style="font-family:'NeusaNextStd-Regular'; font-size:14px;">laoreet dolore magna aliquam erat volutpat. Ut wisi enim ad minim veniam, quis nostrud exerci tation </text>
<text transform="matrix(1 0 0 1 -24.9037 -1402.062)" style="font-family:'NeusaNextStd-Regular'; font-size:14px;">ullamcorper suscipit lobortis nisl ut aliquip ex ea commodo consequat. Duis autem vel eum iriure dolor in </text>
<text transform="matrix(1 0 0 1 -24.9037 -1385.262)" style="font-family:'NeusaNextStd-Regular'; font-size:14px;">hendrerit in vulputate velit esse molestie consequat, vel illum dolore eu feugiat nulla facilisis at vero eros </text>
<text transform="matrix(1 0 0 1 -24.9037 -1368.4619)" style="font-family:'NeusaNextStd-Regular'; font-size:14px;">et accumsan et iusto odio dignissim qui blandit praesent luptatum zzril delenit augue duis dolore te feu</text>
<text transform="matrix(1 0 0 1 605.8963 -1368.4619)" style="font-family:'NeusaNextStd-Regular'; font-size:14px;">-</text>
<text transform="matrix(1 0 0 1 -24.9037 -1351.662)" style="font-family:'NeusaNextStd-Regular'; font-size:14px;">gait nulla facilisi.</text>
<text transform="matrix(1 0 0 1 -24.9037 -1318.062)" style="font-family:'NeusaNextStd-Regular'; font-size:14px;">Lorem ipsum dolor sit amet, cons ectetuer adipiscing elit, sed diam nonummy nibh euismod tincidunt ut </text>
<text transform="matrix(1 0 0 1 -24.9037 -1301.262)" style="font-family:'NeusaNextStd-Regular'; font-size:14px;">laoreet dolore magna aliquam erat volut</text>
<g>
	
		<text transform="matrix(1 0 0 1 -28.7435 -1789.3796)" style="fill:#435C1D; font-family:'DomusTitlingSemibold'; font-size:36px;">Heading 1: Domus Titling 36px </text>
</g>
<g>
	
		<text transform="matrix(1 0 0 1 -28.8275 -1735.6613)" style="fill:#435C1D; font-family:'DomusTitlingSemibold'; font-size:30px;">Heading 2: Domus Titling 30px </text>
</g>
<g>
	
		<text transform="matrix(1 0 0 1 -26.4398 -1690.9979)" style="fill:#435C1D; font-family:'DomusTitlingSemibold'; font-size:24px;">Heading 3: Domus Titling  24px </text>
</g>
<image style="overflow:visible;enable-background:new    ;" width="2480" height="1040" xlink:href="../../../../../../../Downloads/Kuri komplementär.jpeg"  transform="matrix(9.354889e-02 0 0 9.354889e-02 2552.541 -1068.2744)">
</image>
<g>
	<rect x="2000.3" y="-1598.3" class="st5" width="651.4" height="317.6"/>
	<text transform="matrix(1 0 0 1 2000.3005 -1589.864)" style="font-family:'MrEavesXLModOT-Book'; font-size:14px;">Fliesstext Mr Evans 14px.</text>
	<text transform="matrix(1 0 0 1 2000.3005 -1556.264)" style="font-family:'MrEavesXLModOT-Book'; font-size:14px;">Lorem ipsum dolor sit amet, consectetuer adipiscing elit, sed diam nonummy nibh euismod tincidunt ut laoreet dolore </text>
	<text transform="matrix(1 0 0 1 2000.3005 -1539.464)" style="font-family:'MrEavesXLModOT-Book'; font-size:14px;">magna aliquam erat volutpat. Ut wisi enim ad minim veniam, quis nostrud exerci tation ullamcorper suscipit lobortis nisl </text>
	<text transform="matrix(1 0 0 1 2000.3005 -1522.6641)" style="font-family:'MrEavesXLModOT-Book'; font-size:14px;">ut aliquip ex ea commodo consequat. Duis autem vel eum iriure dolor in hendrerit in vulputate velit esse molestie conse</text>
	<text transform="matrix(1 0 0 1 2643.1006 -1522.6641)" style="font-family:'MrEavesXLModOT-Book'; font-size:14px;">-</text>
	<text transform="matrix(1 0 0 1 2000.3005 -1505.864)" style="font-family:'MrEavesXLModOT-Book'; font-size:14px;">quat, vel illum dolore eu feugiat nulla facilisis at vero eros et accumsan et iusto odio </text>
	<text transform="matrix(1 0 0 1 2453.3005 -1505.864)" style="fill:#98C73A; font-family:'MrEavesXLModOT-Book'; font-size:14px;">hier ein Textlink</text>
	<text transform="matrix(1 0 0 1 2536.2004 -1505.864)" style="font-family:'MrEavesXLModOT-Book'; font-size:14px;"> praesent luptatum </text>
	<text transform="matrix(1 0 0 1 2000.3005 -1489.064)" style="font-family:'MrEavesXLModOT-Book'; font-size:14px;">zzril delenit augue duis dolore te feugait nulla facilisi.</text>
	<text transform="matrix(1 0 0 1 2000.3005 -1455.464)" style="font-family:'MrEavesXLModOT-Book'; font-size:14px;">Lorem ipsum dolor sit amet, cons ectetuer adipiscing elit, sed diam nonummy nibh euismod tincidunt ut laoreet dolore </text>
	<text transform="matrix(1 0 0 1 2000.3005 -1438.6641)" style="font-family:'MrEavesXLModOT-Book'; font-size:14px;">magna aliquam erat volutpat. Ut wisi enim ad minim veniam, quis nostrud exerci tation ullamcorper suscipit lobortis nisl </text>
	<text transform="matrix(1 0 0 1 2000.3005 -1421.864)" style="font-family:'MrEavesXLModOT-Book'; font-size:14px;">ut aliquip ex ea commodo consequat.</text>
	<text transform="matrix(1 0 0 1 2000.3005 -1405.064)" style="font-family:'MrEavesXLModOT-Book'; font-size:14px;">Lorem ipsum dolor sit amet, consectetuer adipiscing elit, sed diam nonummy nibh euismod tincidunt ut laoreet dolore </text>
	<text transform="matrix(1 0 0 1 2000.3005 -1388.264)" style="font-family:'MrEavesXLModOT-Book'; font-size:14px;">magna aliquam erat volutpat. Ut wisi enim ad minim veniam, quis nostrud exerci tation ullamcorper suscipit lobortis nisl </text>
	<text transform="matrix(1 0 0 1 2000.3005 -1371.464)" style="font-family:'MrEavesXLModOT-Book'; font-size:14px;">ut aliquip ex ea commodo consequat. Duis autem vel eum iriure dolor in hendrerit in vulputate velit esse molestie conse</text>
	<text transform="matrix(1 0 0 1 2643.1006 -1371.464)" style="font-family:'MrEavesXLModOT-Book'; font-size:14px;">-</text>
	<text transform="matrix(1 0 0 1 2000.3005 -1354.6641)" style="font-family:'MrEavesXLModOT-Book'; font-size:14px;">quat, vel illum dolore eu feugiat nulla facilisis at vero eros et accumsan et iusto odio dignissim qui blandit praesent </text>
	<text transform="matrix(1 0 0 1 2000.3005 -1337.864)" style="font-family:'MrEavesXLModOT-Book'; font-size:14px;">luptatum zzril delenit augue duis dolore te feugait nulla facilisi.</text>
	<text transform="matrix(1 0 0 1 2000.3005 -1304.264)" style="font-family:'MrEavesXLModOT-Book'; font-size:14px;">Lorem ipsum dolor sit amet, cons ectetuer adipiscing elit, sed diam nonummy nibh euismod tincidunt ut laoreet dolore </text>
	<text transform="matrix(1 0 0 1 2000.3005 -1287.464)" style="font-family:'MrEavesXLModOT-Book'; font-size:14px;">magna aliquam erat volut</text>
	<g>
		<text transform="matrix(1 0 0 1 1996.4609 -1739.6023)" class="st11" style="font-family:'Parkside-Bold'; font-size:36px;">Heading 1: Franklin Gothic 36px </text>
	</g>
	<g>
		<text transform="matrix(1 0 0 1 1996.377 -1685.8839)" style="fill:#435C1D; font-family:'Parkside-Bold'; font-size:30px;">Heading 2: Franklin Gothic 30px </text>
	</g>
	<g>
		<text transform="matrix(1 0 0 1 1998.7645 -1641.2207)" style="fill:#435C1D; font-family:'Parkside-Bold'; font-size:24px;">Heading 3: Franklin Gothic 24px </text>
	</g>
</g>
<g>
	<g>
		<path class="st9" d="M1349.9-1710.2c19.7-2.6,40.3-0.2,58.6,7.8c20.7,8.9,38.2,25.1,46.9,46.4c16.8,41.5-2.4,89.5-33.7,118.8
			c-46.1,44.5-138.1,44.8-170-16.5c-9.7-18.9-12.9-40.6-9.9-61.5c6.2-45,42-75.6,87.5-74.5c21.2,0.3,42.2,5.5,60.7,15.9
			c38.4,20.9,51.6,57.9,26.2,95.5c-17,24.4-46.1,41.8-76.2,41.9c-32.2-0.3-63.1-15.8-73.4-48c-10.4-30.9,0.1-68.2,31.5-82
			c25.1-11.5,58.4-6,74.8,17.3c10.6,15.1,14.4,35.7,6.9,52.9c-7.3,16.8-24.6,27.2-42.3,28.5c-11.7,0.9-24.3-2.5-32.7-11.1
			c-22.2-23-13.9-71.7,25.3-58.8c3.3,1.1,6.5,2.4,9.5,4.2l-0.9,1.8c-6.1-2.4-12.8-3.8-19-3.5c-21.9,0.9-22.1,27.5-12.8,41.9
			c6,10.1,17.8,14.3,29.2,12.5c13-1.8,25.7-10.6,29.4-23.3c3.3-11.3-0.1-23.8-6.8-33.2c-4.7-6.6-11.7-11-19.6-13.3
			c-21.2-5.9-46.2,4.4-52.6,26.4c-6.6,20.7,0.7,47.2,20.3,58.5c10.7,6.5,24.1,9.4,36.7,9.4c16.8-0.7,33-8,45.8-18.9
			c9.1-7.7,16.7-17.5,20.8-28.7c12.2-32.1-16.1-56.3-43.5-68.3c-29.2-12.2-66.6-14.2-92,7.4c-25.6,21-32.9,58.5-22.7,89.1
			c12.4,39.5,50.3,56.9,89.7,53.6c18.7-1.5,37.2-7.1,53.2-16.9c36.3-23,62.7-71.8,47.2-114.2c-1.1-2.8-2.4-5.8-3.9-8.4
			c-1.2-1.9-2.3-4.2-3.6-6c-4.2-6.5-9.9-12.3-15.9-17.4c-2.9-2.4-6.6-4.9-9.8-7c-1.5-0.9-3.7-2.1-5.2-3c-3.8-1.9-8.2-4-12.2-5.5
			c-13.1-4.9-27.1-7.2-41.3-7.5C1350-1708.2,1349.9-1710.2,1349.9-1710.2L1349.9-1710.2z"/>
	</g>
	<g>
		<path class="st10" d="M1349.9-1709.5c14.3-1.1,29,0.3,42.8,4.5c3.8,1.1,8.3,2.9,12,4.5c0.6,0.2,1.8,0.8,2.3,1.1
			c6.1,2.9,12.2,6.5,17.5,10.7c62.5,48.5,22.7,143.9-42.2,168.3c-51.9,20.7-119.2,5.1-135.2-54c-3.7-13.1-4.7-27-2.9-40.5
			c9.8-64.3,68.2-84.7,125-63.9c24.8,9.8,51.8,28.3,53.9,57.3c1,15-4.9,29.6-13.8,41.4c-16.3,21.3-41.9,36.1-69.1,36.1
			c-20.7-0.5-42.7-7.6-56-24.4c-13.1-16.7-16.7-40-10.3-60.1c4.3-13.5,14.5-25.2,27.5-31c22.2-10.4,52.5-5.7,66.7,15.5
			c7.9,11.6,11.5,26.6,7.9,40.3c-2.6,10.3-9.9,19.3-19,24.5c-12.1,7-27.5,9.1-40.4,3.2c-13-5.9-20-20.4-20.5-34.2
			c-0.5-21.2,13.5-32.3,33.9-26.4c3.3,0.9,6.5,2.1,9.5,3.6l-0.2,0.4c-6.1-2.8-12.7-4.5-19.4-4.5c-10.7-0.1-18.7,6.5-20.9,17
			c-3.3,15.6,3.7,34.7,18.8,41.4c18.6,8,43.1-1.2,51.9-19.3c5.4-10.9,4.4-24.1-0.4-35c-10.7-25.6-41.7-32.9-65.6-21.8
			c-37.7,17-35.1,76.4-0.7,95.7c12.6,7.4,27.7,10.6,42.3,10c18-1.2,35.3-9.3,48.8-21.1c19.5-16.7,33.2-45,19.9-69.5
			c-12.3-22.6-40.3-37-64.8-42.2c-33.8-7.4-68.8,0.2-89.2,30c-15.3,22.1-18.4,51.4-10.7,76.9c16.7,57.2,81.4,70.5,131.6,50.4
			c61-22.9,100.9-112.8,44.2-160.6c-5.6-4.8-12.1-9-18.7-12.4c-1.4-0.8-5.3-2.4-6.8-3.1c-3.1-1.2-6.3-2.4-9.5-3.3
			c-12.8-4-26.4-5.4-39.8-4.9L1349.9-1709.5L1349.9-1709.5z"/>
	</g>
	<text transform="matrix(1 0 0 1 1085.6079 -1404.6974)" style="font-family:'MrEavesXLModOT-Book'; font-size:24px;">Psychotherapeutin in Ausbildung unter Supervision</text>
	<text transform="matrix(1 0 0 1 1068.908 -1375.8973)" style="font-family:'MrEavesXLModOT-Book'; font-size:24px;">tiefenpsychologisch fundierte Hypnosepsychotherapie</text>
	<text transform="matrix(1 0 0 1 1112.7159 -1445.9144)" class="st11" style="font-family:'Parkside-Bold'; font-size:72px;">Christina Kuri</text>
</g>
<image style="overflow:visible;enable-background:new    ;" width="2480" height="1040" xlink:href="../../../../../../../Downloads/Kuri komplementär.jpeg"  transform="matrix(9.354889e-02 0 0 9.354889e-02 2552.541 -1901.1511)">
</image>
<rect x="2004.3" y="-815.2" class="st5" width="651.4" height="459.6"/>
<text transform="matrix(1 0 0 1 2004.3076 -806.7647)" style="font-family:'MrEavesXLModOT-Book'; font-size:14px;">Fliesstext Mr Evans 14px.</text>
<text transform="matrix(1 0 0 1 2004.3076 -773.1647)" style="font-family:'MrEavesXLModOT-Book'; font-size:14px;">Lorem ipsum dolor sit amet, consectetuer adipiscing elit, sed diam nonummy nibh euismod tincidunt ut laoreet dolore </text>
<text transform="matrix(1 0 0 1 2004.3076 -756.3647)" style="font-family:'MrEavesXLModOT-Book'; font-size:14px;">magna aliquam erat volutpat. Ut wisi enim ad minim veniam, quis nostrud exerci tation ullamcorper suscipit lobortis nisl </text>
<text transform="matrix(1 0 0 1 2004.3076 -739.5647)" style="font-family:'MrEavesXLModOT-Book'; font-size:14px;">ut aliquip ex ea commodo consequat. Duis autem vel eum iriure dolor in hendrerit in vulputate velit esse molestie conse</text>
<text transform="matrix(1 0 0 1 2647.1077 -739.5647)" style="font-family:'MrEavesXLModOT-Book'; font-size:14px;">-</text>
<text transform="matrix(1 0 0 1 2004.3076 -722.7647)" style="font-family:'MrEavesXLModOT-Book'; font-size:14px;">quat, vel illum dolore eu feugiat nulla facilisis at vero eros et accumsan et iusto odio </text>
<text transform="matrix(1 0 0 1 2457.3076 -722.7647)" style="fill:#98C73A; font-family:'MrEavesXLModOT-Book'; font-size:14px;">hier ein Textlink</text>
<text transform="matrix(1 0 0 1 2540.2078 -722.7647)" style="font-family:'MrEavesXLModOT-Book'; font-size:14px;"> praesent luptatum </text>
<text transform="matrix(1 0 0 1 2004.3076 -705.9647)" style="font-family:'MrEavesXLModOT-Book'; font-size:14px;">zzril delenit augue duis dolore te feugait nulla facilisi.</text>
<text transform="matrix(1 0 0 1 2004.3076 -672.3647)" style="font-family:'MrEavesXLModOT-Book'; font-size:14px;">Lorem ipsum dolor sit amet, cons ectetuer adipiscing elit, sed diam nonummy nibh euismod tincidunt ut laoreet dolore </text>
<text transform="matrix(1 0 0 1 2004.3076 -655.5647)" style="font-family:'MrEavesXLModOT-Book'; font-size:14px;">magna aliquam erat volutpat. Ut wisi enim ad minim veniam, quis nostrud exerci tation ullamcorper suscipit lobortis nisl </text>
<text transform="matrix(1 0 0 1 2004.3076 -638.7647)" style="font-family:'MrEavesXLModOT-Book'; font-size:14px;">ut aliquip ex ea commodo consequat.</text>
<text transform="matrix(1 0 0 1 2004.3076 -621.9647)" style="font-family:'MrEavesXLModOT-Book'; font-size:14px;">Lorem ipsum dolor sit amet, consectetuer adipiscing elit, sed diam nonummy nibh euismod tincidunt ut laoreet dolore </text>
<text transform="matrix(1 0 0 1 2004.3076 -605.1647)" style="font-family:'MrEavesXLModOT-Book'; font-size:14px;">magna aliquam erat volutpat. Ut wisi enim ad minim veniam, quis nostrud exerci tation ullamcorper suscipit lobortis nisl </text>
<text transform="matrix(1 0 0 1 2004.3076 -588.3647)" style="font-family:'MrEavesXLModOT-Book'; font-size:14px;">ut aliquip ex ea commodo consequat. Duis autem vel eum iriure dolor in hendrerit in vulputate velit esse molestie conse</text>
<text transform="matrix(1 0 0 1 2647.1077 -588.3647)" style="font-family:'MrEavesXLModOT-Book'; font-size:14px;">-</text>
<text transform="matrix(1 0 0 1 2004.3076 -571.5647)" style="font-family:'MrEavesXLModOT-Book'; font-size:14px;">quat, vel illum dolore eu feugiat nulla facilisis at vero eros et accumsan et iusto odio dignissim qui blandit praesent </text>
<text transform="matrix(1 0 0 1 2004.3076 -554.7647)" style="font-family:'MrEavesXLModOT-Book'; font-size:14px;">luptatum zzril delenit augue duis dolore te feugait nulla facilisi.</text>
<text transform="matrix(1 0 0 1 2004.3076 -521.1647)" style="font-family:'MrEavesXLModOT-Book'; font-size:14px;">Lorem ipsum dolor sit amet, cons ectetuer adipiscing elit, sed diam nonummy nibh euismod tincidunt ut laoreet dolore </text>
<text transform="matrix(1 0 0 1 2004.3076 -504.3647)" style="font-family:'MrEavesXLModOT-Book'; font-size:14px;">magna aliquam erat volut</text>
<g>
	
		<text transform="matrix(1 0 0 1 2000.468 -956.5027)" style="fill:#435C1D; font-family:'MrsEavesXLSerifOT-Reg'; font-size:36px;">Heading 1: Mrs Evans LT Pro 36px </text>
</g>
<g>
	
		<text transform="matrix(1 0 0 1 2000.384 -902.7842)" style="fill:#435C1D; font-family:'MrsEavesXLSerifOT-Reg'; font-size:30px;">Heading 2: Mrs Evans LT Pro 30px </text>
</g>
<g>
	
		<text transform="matrix(1 0 0 1 2002.7717 -858.1208)" style="fill:#435C1D; font-family:'MrsEavesXLSerifOT-Reg'; font-size:24px;">Heading 3: Mrs Evans LT Pro  24px </text>
</g>
<g>
	<path class="st11" d="M-534.7-1674.1c-0.4-67.7-55.6-122.7-123.4-122.7c-68.1,0-123.4,55.4-123.4,123.4
		c0,68.1,55.4,123.4,123.4,123.4h73.3v-22h-73.3c-55.9,0-101.4-45.5-101.4-101.4s45.5-101.4,101.4-101.4s101.4,45.5,101.4,101.4
		v72.9h22V-1674.1L-534.7-1674.1z"/>
	<path class="st11" d="M-559.4-1673.9c-0.3-54.2-44.5-98.2-98.7-98.2c-54.4,0-98.7,44.3-98.7,98.7c0,54.4,44.3,98.7,98.7,98.7h73.4
		v-17.6h-73.4c-44.7,0-81.1-36.4-81.1-81.1s36.4-81.1,81.1-81.1s81.1,36.4,81.1,81.1v72.8h17.6L-559.4-1673.9L-559.4-1673.9z"/>
	
		<radialGradient id="SVGID_1_" cx="-636.2091" cy="2725.2627" r="77.931" fx="-581.1036" fy="2780.3682" gradientTransform="matrix(1 0 0 -1 0 1074)" gradientUnits="userSpaceOnUse">
		<stop  offset="0" style="stop-color:#B0D959"/>
		<stop  offset="7.002669e-02" style="stop-color:#89AB42"/>
		<stop  offset="0.155" style="stop-color:#5F7929"/>
		<stop  offset="0.197" style="stop-color:#4E651F"/>
		<stop  offset="0.2275" style="stop-color:#465B1A"/>
		<stop  offset="0.2947" style="stop-color:#394C13"/>
		<stop  offset="0.3726" style="stop-color:#31430E"/>
		<stop  offset="0.4852" style="stop-color:#2F400D"/>
	</radialGradient>
	<path class="st12" d="M-658.1-1751.3c-43,0-77.9,34.9-77.9,77.9s34.9,77.9,77.9,77.9h77.9v-77.9
		C-580.2-1716.4-615.1-1751.3-658.1-1751.3z"/>
	<rect x="-579.9" y="-1571.9" class="st11" width="21.7" height="21.7"/>
	<rect x="-556.7" y="-1595.2" class="st11" width="21.7" height="21.7"/>
</g>
<text transform="matrix(1 0 0 1 -936.2218 -1468.5536)" class="st11" style="font-family:'DomusTitlingSemibold'; font-size:72px;">Christina Kuri</text>
<text transform="matrix(1 0 0 1 -929.224 -1419.4094)" style="fill:#20231C; font-family:'NeusaNextStd-Regular'; font-size:24px;">Psychotherapeutin in Ausbildung unter Supervision</text>
<text transform="matrix(1 0 0 1 -948.124 -1390.6094)" style="fill:#20231C; font-family:'NeusaNextStd-Regular'; font-size:24px;">tiefenpsychologisch fundierte Hypnosepsychotherapie</text>
<path class="st11" d="M-1335.1-183.7"/>
<g>
	<g>
		<path class="st11" d="M-541.5,52.9c-1-1-2.4-1.4-3.8-1.1c-3.7,0.7-7.3,1.4-11.2,2.1c-7.7,1.4-18.3,4.2-26.6,6.3l-2.2,7.3
			c8-2,22.5-5.3,30-6.7c2.4-0.4,4.8-0.9,7.2-1.3c-0.5,2.7-1,5.4-1.5,8c-5.6,30.6-10.9,59.6-51,99.7l-0.4,0.4
			c-40.1,40.1-69,45.4-99.7,51c-0.7,0.1-5.6,0.9-6.3,1l-1.7,7.7c2-0.4,7.2-1.4,9.2-1.8c30.4-5.6,61.7-11.3,103.4-53l0.4-0.4
			c41.6-41.6,47.4-73,53-103.4c0.7-3.9,1.5-8,2.3-12C-540.1,55.3-540.5,53.9-541.5,52.9z"/>
		<path class="st11" d="M-716.3,141c-0.1,0.2-0.3,0.4-0.4,0.6c-1.4-21.7-7.5-46.8-26.4-78.7l-0.3-0.5
			c-30.1-50.7-60.7-64.8-87.7-77.3c-3.6-1.6-6.9-3.2-10.3-4.8c-1.3-0.6-2.7-0.5-4,0.2c-1.2,0.7-2,2-2,3.4c-0.2,4.1-0.5,8.2-0.8,12.2
			c-2.1,30.8-4.3,62.6,25.7,113.3l0.3,0.5c30,50.6,59,64,87,76.9l8.3,3.4l-1.9-7.9l-3.4-1.8c-28.3-13.1-55-25.4-83.9-74.2l-0.3-0.5
			c-7.9-13.3-13.4-25.1-17.3-35.9c19.9,8,42.9,23.1,61.9,42.1l0.4,0.4c40.2,40.2,45.8,70.8,51.2,100.5c0.4,2.4,0.9,4.8,1.3,7.2
			c-2.7-0.5-5.4-1-8-1.5c-30.6-5.6-59.6-10.9-99.7-51l-0.4-0.4c-40.1-40.1-45.4-69-51-99.7c-0.5-2.6-1-5.3-1.5-8
			c2.4,0.5,4.8,0.9,7.2,1.3c7.3,1.3,14.7,2.7,22.4,4.6l0,0c0.8,0.2,5.6,1.5,6.4,1.7l-2.2-7.9c-0.8-0.2-1.7-0.4-2.5-0.6l0,0
			c-7.9-2-15.5-3.4-22.9-4.7c-3.9-0.7-7.5-1.4-11.2-2.1c-1.4-0.3-2.8,0.1-3.8,1.1s-1.4,2.4-1.1,3.8c0.8,4,1.6,8.1,2.3,12
			c5.6,30.4,11.3,61.7,53,103.4l0.4,0.4c41.6,41.6,73,47.4,103.4,53c3.9,0.7,8,1.5,12,2.3c0.3,0.1,0.6,0.1,0.8,0.1s0.5,0,0.8,0
			c0.8,0.1,1.8,0,2.5,0c0.3,0,0.6,0,0.8-0.1c0.4-0.1,0.6-0.1,0.7-0.1s0.2,0,0.3-0.1l1.7-7.5l1.3-7.2c1.3-7.1,2.6-14.3,4.4-21.7
			c3.1-1.5,6.2-2.9,9.3-4.3c28-12.9,57-26.3,87-76.9l0.3-0.5c30-50.6,27.8-82.5,25.7-113.3c-0.3-4-0.6-8.1-0.8-12.2
			c-0.1-1.4-0.8-2.7-2-3.4s-2.7-0.8-4-0.2c-3.4,1.6-6.7,3.2-10.3,4.8c-24.7,11.4-52.3,24.1-79.8,64.7c0.2-5.4,0.3-11.1,0.1-17.2
			v-0.6c-1.6-58.9-21.5-86.2-39-110.2c-2.3-3.2-4.5-6.2-6.7-9.2c-0.8-1.2-2.1-1.8-3.5-1.8s-2.7,0.8-3.4,2c-2.2,3.5-4.4,6.9-6.6,10.3
			c-15.3,23.5-31.2,52.5-32.7,101l7.3,8.3c1.5-46.6,15.7-81.7,31.2-105.5c1.5-2.2,2.9-4.5,4.4-6.8c1.4,2,2.9,4,4.3,5.9
			c17.8,24.3,36.2,49.5,37.7,106.3V33c0.3,10.9-0.1,20.6-1,29.5c0,0,0,0,0,0.1l-0.3,0.5 M-612.3,105.8l-0.3,0.5
			c-28.9,48.8-55.6,61.1-83.9,74.2c-1.3,0.6-2.6,1.2-4,1.8c6.3-20.8,17.7-43.3,44.4-69.9l0.4-0.4c18.1-18.1,41.7-33.8,60.7-42
			C-598.9,80.7-604.4,92.5-612.3,105.8z M-678.6,64.7c28.7-47.8,56.7-60.7,83.9-73.2c2.2-1,4.4-2,6.6-3.1c0.2,2.7,0.4,5.5,0.5,8.1
			c1.4,20.3,2.7,39.9-4.5,64.6c-20.1,8.6-49.8,27-68.5,45.8l-0.4,0.4c-24.4,24.4-36.6,45.9-43.6,65.4 M-749.1,66.5
			c18.4,31.1,24.3,55.1,25.5,76.1c-0.5-0.7-1-1.4-1.5-2c-16.9-23.1-32.8-45.8-36.5-93.2c4.1,5.6,8.1,11.7,12.2,18.6L-749.1,66.5z
			 M-768.2,38.8l-1.5-1.9C-769.2,37.6-768.7,38.2-768.2,38.8z M-767,107c-19.6-19.6-48.9-37.6-69.7-46c-7.2-24.6-5.9-44.1-4.5-64.4
			c0.2-2.7,0.4-5.4,0.5-8.1c2.2,1,4.5,2.1,6.6,3.1c20.9,9.6,42.4,19.5,64.2,45.4c3.7,49.9,22.3,84.8,39.1,107.8
			c2.4,3.2,4.8,6.6,7.1,9.9c0.1,0.1,0.2,0.2,0.3,0.3c-0.1,5.2-0.3,10.2-0.7,15.2c-7.1-18.8-19.3-39.4-42.6-62.7L-767,107z"/>
	</g>
	<text transform="matrix(1 0 0 1 -899.2357 296.2455)" class="st11" style="font-family:'LookScript-Reg'; font-size:72px;">Christina Kuri</text>
	<text transform="matrix(1 0 0 1 -960.1855 352.5179)" style="fill:#20231C; font-family:'NimbusSan-Lig'; font-size:24px;">Psychotherapeutin in Ausbildung unter Supervision</text>
	<text transform="matrix(1 0 0 1 -975.3855 381.3179)" style="fill:#20231C; font-family:'NimbusSan-Lig'; font-size:24px;">tiefenpsychologisch fundierte Hypnosepsychotherapie</text>
</g>
<g id="Ebene_3">
	<g>
		<path class="st11" d="M1159.8-696.1c-1.6,2.9-0.2,0.8-4.9,5.3l-1,1.7c-8.8,7.7-4.6,4.6-12.4,9.4c-7.1,4.3-4.2,2.6-8.9,4.7
			c-7.1,3-4.2,1.7-7.1,2.8c-1.4,0.5-2.6,0.7-4,1.3c-2,0.2-1.2-0.1-2.8,0.8c-2.8,0.4-5.8,1-8.5,1c-1.7,0-2.6,0.4-5.4,0.8
			c-3.4,2.6-5.2,6.1-7.2,9.7l-1.9,4.7c-1.8,2.4-1,3.8-2.3,6.4c-0.1,1.8-0.6,4.1-0.6,6.1c0,3.5,2.6,7.1,4,7.3
			c0.6,1.1,4.6,1.7,7.4,1.7c1.6,0,3.7,0,5.6-1c2.5-0.6,5.2-1.4,7.7-2.4c0.6-0.2,1.6-0.7,3.4-1.3c1.6-0.8,5.8-4.1,7-4.1
			c0.5,0,0.7,0.1,0.7,0.4c0,0.1-0.5,0.5-1.3,1.1l-2.3,1.6l-4.8,2.6l-3.7,1.9l-2.4,1.2c-1.7,0.8-5.3,1.8-7.4,2.6
			c-2.5,0.7-5,1.2-6.6,1.2c-4.1,0-7.6-1.9-9.6-3.4c-3.1-3-4.4-4-4.4-8.8c0-0.5,0.4-4.3,1.4-5.4c0-2.2,0.8-5.2,2-7.9
			c1.3-2.8,1.4-1.4,6.7-10.6c0.8-2.4,0.1-0.8,2.6-4l-0.1-0.6c-6.7-2.9-8.8-3-8.8-9.2c0-0.8,0-1.8,0.1-2.9
			c4.4-7.4,10.2-10.8,18.6-11.6c1.7,0.2,2.2,0.7,2.2,1.2c-0.1,1-2.6,1.8-4.7,1.3c-3.5,1.3-2.6,1.1-4.3,1.1c-3.8,3.4-5.4,4.3-6.7,9.4
			c0.6,3.8,0.2,4,3.4,7.4l2.3,0.2h1.1l2.5-2.9l3.7-4.2l5.3-5.2c11.8-9.5,13.7-11.4,25.2-17c2.9-1.4,13.6-5.4,16.3-5.4
			c5.6,0,6.2,1.2,7.7,3.2C1161.9-699.5,1163-702,1159.8-696.1z M1156.5-705.5c-3.2,0.1-3.8,0.5-7.1,1.2c-3.6,1.9-1.3,0.8-7,2.6
			c-5.8,4.3-2.5,2-9.7,6.6c-1.4,0.8-4.9,2.9-6.1,4c-1.3,1.2-2,2.6-3.7,3.4c-1.9,1.9-0.8,1-3.1,2.9l-10.1,10.8
			c-0.4,0.7-0.6,1.2-0.6,1.6c0,0.5,0.4,0.6,1.1,0.6s1.7-0.1,3-0.2l4-0.5c12.1-1.4,25.1-7.6,32.8-14.8c3.7-3.5,4.4-4.9,7.8-9.7
			c2-4.2,2.4-3.2,2.8-5.8C1159.8-705.5,1159.5-705.1,1156.5-705.5z"/>
		<path class="st11" d="M1156.5-660.8c0.8-1,2.5-2.5,3.2-2.6c0.2,0,0.4,0.1,0.4,0.4v0.1c-2.8,3-5.2,5.4-8.5,7.8c-3,2.3-4.2,4.4-7,7
			c-0.7,1.1-4,5.5-4,7l0.2,0.2c2.4-0.7,2.6-1.1,5.3-2.8c2.3-1.4,4.3-2.4,7.1-2.8c0.4,0.1,1.6,0.6,0.7,2c-1.8,2.2-3.6,4.7-4.1,7.4
			c0.2,0.2,0.4,0.4,0.6,0.4c0.5,0,1.2-0.7,3.8-2.2l3.2-1.8l1.4-1c0.4-0.1,0.7-0.1,1-0.1c0.1,0,0.2,0,0.2,0.1c0,0.5-1.9,1.7-2.8,2.3
			c-3,2.3-6,4.3-9.4,6c-0.6,0.1-1.1,0.2-1.4,0.2c-0.6,0-1-0.2-1.3-1.2c0.4-3.2,0.7-3.2,2.5-6.8v-0.6l-0.4-0.4
			c-4.6,1.7-8.3,4.2-11.8,7.8c-0.6,0.2-1.2,0.5-1.7,0.5c-0.6,0-1.1-0.5-1.1-1.8c0.6-1.8,1.7-4.1,2.3-5l1.4-2.3
			c0.8-1.4,0.8-1.9,0.4-2c-0.6,0-1.9,0.7-3.1,1.4l-3.4,1.9l-2.2,1.4c-0.6,0.1-1,0.1-1.2,0.1s-0.4,0-0.4-0.1c0-0.4,1.1-1.1,2.3-2.2
			l10.7-7.1l1.7-2.2c5.6-7.2,10.3-17.9,15.8-26.8c4.9-6,13.1-16.6,20.8-18.5l1.6,0.2l1.1,2.2v1.3l-1.7,4.6l-0.4,2.2l-1.3,2.3
			l-1.6,2.9c-3.7,7-5.3,8.2-10.7,13.6c-1.2,1.3-2.2,1.9-2.5,1.9l-0.2-0.1c-0.1-0.2,0.2-0.8,0.8-1.7l1.1-1.3l5.3-6.4
			c4.2-5,7.1-11.2,7.7-17.5l-0.4-0.6h-2.6l-1.1,0.6l-4.4,4.3l-3.4,4.8l-6.7,10.8l-1.9,3l-1.1,1.9l-2.2,3.1l-2.3,5l-1.1,1.7
			c-0.2,0.5-0.7,1.3-0.7,1.9c0,0.2,0.1,0.5,0.5,0.5c0.1,0,0.4,0,0.5-0.1L1156.5-660.8z"/>
		<path class="st11" d="M1167.3-644l-0.4-0.4l-1.2,0.2l-2.4,0.7l-2.8,1.9c-1.4,1.1-2.3,1.6-2.6,1.6h-0.2l0.1-0.8
			c4.6-3.6,2.3-2.2,6.6-4.7l1.2-1.1l1-1.3l1.8-1.7c1.3,0,2.5,0,2.5,1.4c0,0.1,0,0.4-0.1,0.6c-0.6,0.5-0.7,0.5-0.7,0.7
			c0,0.1,0,0.2,0.1,0.6c1,0.4,1.8,0.5,2.3,1.6c-1.1,1.9-0.2,0.7-2.9,3.1c-1.3,3.1-1.1,1.8-1.3,4.1l1.1,0.1c0.5,0,0.8-0.1,1.7-0.5
			l2.9-1.7c2.8-1.7,4-2.4,4.3-2.4l0.2,0.1c0,0.4-0.2,0.7-0.5,1.1l-2.4,1.7l-1.4,1.1c-2.8,2.2-5.4,4.3-9,5c-1.2-0.7-1.6-1.4-1.6-2.4
			c0-1.1,0.6-2.3,1.1-3.7l1.7-2.8l0.8-1.2l0.1-0.5C1167.3-643.6,1167.3-644,1167.3-644z"/>
		<path class="st11" d="M1192.9-650.8c0.5,0,0.7,0.1,0.7,0.8c-1.9,3.1-4.1,5.9-5,9.4l-0.7,1.4v0.8l1.1,0.4h0.7l0.7-0.5l1.7-1
			l2.4-1.3l1.4-1.1c0.4-0.1,0.6-0.1,0.8-0.1c0.4,0,0.5,0.1,0.5,0.2c0,0.6-2.2,1.9-3,2.5l-1.3,0.8l-2.9,2c-2.2,1.6-4.1,2.8-6.7,2.8
			h-1.1l-0.4-0.4c0.7-3.6,2-5.6,3.8-9v-0.7l-1.6-0.4l-1.4,0.5l-2,1l-1.8,1.2l-2.3,1.3h-0.8l0.2-0.8l3.6-2.5l4-2.4l1.7-1
			c2.3-1.3,4.6-3.2,7.1-4.1h0.6L1192.9-650.8L1192.9-650.8z M1199.6-659.2c-0.6,0.4-1.2,0.6-1.8,0.6c-2.4,0-4.8-2.5-4.8-4.9v-0.1
			c0-1-0.1-0.2,1.7-1.6l0.5-0.1l1.3,0.1l3.2,4.9L1199.6-659.2z"/>
		<path class="st11" d="M1211.6-649.6c0.5,0,1,0.1,1.1,0.7l-0.4,0.6c-2,0.7-2.5,0.8-4.3,2.4l-0.4,0.7c1,1.6,1.9,2.6,1.9,4.3
			c0,0.4-0.1,0.8-0.2,1.2l0.4,0.4c1.6-0.8,1.9-0.8,2.2-1c0.2-0.1,0.5-0.4,1.8-1.3c0.7-0.2,1-0.4,1.2-0.4c0.1,0,0.5,0.2,0.5,0.4
			s-0.2,0.2-0.6,0.7c-3.8,2.2-2,1-5.5,3.6l-1.2,1.8l-0.6,1.1l-1,1l-1.3,1.6c-3.5,2.6-2.8,2.5-7.7,3c-1-0.4-1.6-0.4-1.6-1.4
			c0-1.3,1.8-2.4,2.8-3.2l5.6-3.1c0.2-0.7,0.4-1.1,0.4-1.4c0-0.5-0.1-1-0.4-2c-1.1-2.2-0.8-1.6-1.2-3.2c-2.8,0.8-4.8,1.7-7.8,3.2
			c-0.2,0-0.4,0.1-0.5,0.1s-0.2-0.1-0.2-0.2c0-0.5,2.6-2.3,3.8-3c3.7-1.9,1.8-1.2,5.5-2.5c1.7-2.4,3.8-2.8,6.7-3.8h1
			C1211.6-649.3,1211.6-649.6,1211.6-649.6z M1204-634.7c-0.6,0-1.3,0.2-1.7,0.4c-1,0.2-0.7,0.4-1.4,1.2c-0.6,0.4-1.2,0.6-1.2,1.4
			s0.5,1.1,1,1.1c1.1,0,2.9-1.1,3.2-1.7c0.6-1.2,0.8-1.3,0.8-1.6C1204.8-634.4,1204.4-634.7,1204-634.7z"/>
		<path class="st11" d="M1215.2-641.3l-1.9,1.3h-0.8l0.2-0.7c1.3-1.1,3.5-2.8,4.4-3.6c-0.4-0.6-0.6-1.3-0.6-1.7
			c0-1.3,0.5-2.2,1.3-2.2c0.5,0,1.6,0.7,2.3,1.3c3.4-3.2,7.3-7.2,10.2-11.2l4.2-5.6c6.8-9.1,3.6-6.1,7.2-10.4l4.2-4.9
			c0.7-0.5,1-0.7,1.3-0.7c0.4,0,0.7,0.4,1.4,0.7c0.2,0.6,0.5,0.7,0.5,0.8s-0.2,0.4-0.4,1.1l-1.7,3.8l-2.4,4.1l-5.2,7.7
			c-3.8,5.8-8,12.6-11.9,19c-0.2,1.1,1.6,1.6,3.1,1.8c1.6,0.1,3.2-0.2,4.6-1.1h0.5c0.6,0,0.7,0.1,0.7,0.2c0,0.6-2.3,1.6-3.4,2.2
			c-2,0.8-3.6,1.1-4.7,1.1c-0.6,0-1.8-0.1-2.6-0.4c-0.7,1.9-1.7,4.7-2.8,5.9c-0.8,0.2-1,0.4-1.2,0.4s-0.5-0.1-1.3-0.2
			c-0.4-0.7-0.5-1.2-0.5-1.7c0-0.7,0.4-1.3,0.6-2.4s0.4-2,0.5-3.2c-0.1-0.5-2.2-2.2-3.2-3.4L1215.2-641.3z M1223.8-643.7
			c1.7-0.8,4.8-7.1,6.5-9.6c-0.2-0.1-0.5-0.2-0.6-0.2c-1,0-2,1.4-2.8,2.2c-1.7,1.7-4,4-5.8,5.5
			C1221.9-645,1222.9-644.3,1223.8-643.7z"/>
		<path class="st11" d="M1251-650.8c0.5,0,0.7,0.1,0.7,0.8c-1.9,3.1-4.1,5.9-5,9.4l-0.7,1.4v0.8l1.1,0.4h0.7l0.7-0.5l1.7-1l2.4-1.3
			l1.4-1.1c0.4-0.1,0.6-0.1,0.8-0.1c0.4,0,0.5,0.1,0.5,0.2c0,0.6-2.2,1.9-3,2.5l-1.3,0.8l-2.9,2c-2.2,1.6-4.1,2.8-6.7,2.8h-1.1
			l-0.4-0.4c0.7-3.6,2-5.6,3.8-9v-0.7l-1.6-0.4l-1.4,0.5l-2,1l-1.8,1.2l-2.3,1.3h-0.8l0.2-0.8l3.6-2.5l4-2.4l1.7-1
			c2.3-1.3,4.6-3.2,7.1-4.1h0.6L1251-650.8L1251-650.8z M1257.7-659.2c-0.6,0.4-1.2,0.6-1.8,0.6c-2.4,0-4.8-2.5-4.8-4.9v-0.1
			c0-1-0.1-0.2,1.7-1.6l0.5-0.1l1.3,0.1l3.2,4.9L1257.7-659.2z"/>
		<path class="st11" d="M1275.4-643.6c-0.1-0.6-0.4-0.8-0.7-0.8c-0.6,0-1.3,0.7-1.9,1.1l-6.2,4.9c-1.7,1.3-5.4,5.2-7.7,5.2l-0.2-0.2
			l0.1-1l3.8-7.3c0.5-0.8,0.6-1.4,0.6-1.8c0-0.7-0.4-1-1-1c-0.8,0-2.2,0.5-3.5,1.3l-3.5,2.2c-1.1,0.7-1.9,1-2.4,1
			c-0.1,0-0.2,0-0.2-0.2c0-0.1,0.1-0.2,0.2-0.5l3.5-2.5c3.2-2.4,6.5-4.1,10.3-5.3c1.3,0,1.7,0.6,1.7,1.6c0,1.7-1.2,4-1.4,4.8
			l-0.6,1.4l0.2,0.2l4.1-3.4c2.5-2,5.9-4.3,9.1-4.3c0.5,0.6,0.6,1.1,0.6,1.8c0,1.6-1.1,3.4-1.6,4.6c-0.7,1-1.9,2.4-1.9,3.5
			c0,0.4,0.1,0.7,0.4,1c0.7-0.1,1.1-0.1,1.4-0.1c0.7-0.2,1.4-0.8,5.4-3.1c1.4-0.8,2.3-1.2,2.5-1.2l0.2,0.1c0,0.5-1.3,1.8-2.5,2.6
			c-4,2.9-7.1,5.2-11.3,5.3c-0.8-0.6-1.1-1.1-1.1-1.7c0-0.6,0.4-1.3,0.6-2.3L1275.4-643.6z"/>
		<path class="st11" d="M1302.9-639.5l-0.1-0.2l-0.6,0.4c-2.6,1.9-3.4,2.5-7.4,4.9l-2.4,1.1c-1.8-0.1-2.5,0.1-2.5-2.4
			c0-2.2,2-4.6,2-6.7c0-0.5-0.6-0.4-1-0.5l-1.3,0.6l-2.3,1.1l-2.6,1.3c-0.5,0-0.7-0.1-0.7-0.2c0-0.6,2.6-2,4.1-3
			c3.4-2,7-4.1,10.4-4.1c0.7,0,1.6,0.4,1.6,1.3c0,1.2-4.3,2.4-5.4,6.7c0.1,1.7-0.1,1.3,1.1,2.2c1.3,0,2.6-0.4,4.4-1.9
			c0.6-0.6,3.8-3.2,3.8-4.4s-3.5-0.5-3.5-3.2c0-1.2,1.8-1.7,2.8-1.7c1.7,0,2.3,1.3,2.6,2.2c0.2,0,0.8,0.2,2.2,0.2
			c0.6,0.5,1,0.5,1,1.3c0,0.4-0.1,1.3-0.5,1.9c-0.4,0.8-1.9,3-1.9,4.4c0,0.1,0.1,0.8,0.5,0.8c0.5,0,1-0.5,2-1c2.3-1.2,1-0.8,3.5-2.3
			c0.6-0.4,2.4-4,3-4c0.2,0-0.3,2.5-0.3,2.6s-0.4,0.6-0.7,1.2l-1.5,1.8l-1.3,0.8c-3.6,2.3-1.8,1.3-4.8,3.4c-1.1,0.6-1.3,0.8-1.7,1
			c-0.2,0.1-0.6,0.1-1.8,0.5l-1.2-0.5c-0.5-0.8-0.7-1.4-0.7-2c0-1.2,0.4-0.8,1.2-3L1302.9-639.5L1302.9-639.5z"/>
		<path class="st11" d="M1355.8-684.8l-0.2,1.4c1,4.7,3.2,5.2,7.1,7.2l1.7,0.2l2.9,0.6l0.8-0.1l1.9-2.8c9.7-14,22.1-27.1,34-33.6
			c6.5-3.5,6.8-3.2,14.4-4.6l4.8,0.4c3.4,1.2,7.2,1.9,7.2,5.9l-1.7,3.1l-0.4,1.3l-2.4,3.8c-5,6-2.5,4.4-6.1,6.4
			c-4.8,4.4-2.8,3.4-5.5,4.6c-2.6,2.9-1.3,1.2-5,3.8c-2.9,2.2-1.3,1.2-4.2,2.8c-3.7,2-2.2,1.3-5,2.6l-2.4,1.1
			c-1.9,1.3-0.7,0.7-3.7,1.4l-1.4,0.1c-4.4,2.3-1.4,0.4-10.1,3.8l-2.4,1c-2.6,1.1-1,0.6-4.9,1.3l-1.3,0.1l-1.6,1.8
			c-1.3,2.3-0.6,1.2-2.2,3.5l-2.9,5.8c-2.8,4.3-1.4,1.6-4.3,7.8c-0.8,1.8-0.8,0.8-1.1,2.4c-1.2,1.7-0.6,0.6-1.2,3.7l-2.6,5.2
			c0.1,1.8,0.4,2.2,1.1,2.2c0.4,0,1-0.1,1.7-0.2l4-6.1l1.1-2.3l3.8-5.2l0.4-0.8c10.2-10.1,6-6.1,12.7-11.6c7.2-5.9,9.5-8,18.6-10.2
			l4.1-1c1.3-0.1,2.2-0.2,2.8-0.2c1,0,1.6,0.4,2.6,1.9c-0.8,2.6-0.4,1.2-2,4l-1.7,2.6c-0.2,1.1,0,0.4-1.3,1.6
			c-1.7,3.2-0.7,1-5.9,5.6c-3.6,2.3-1.6,1.1-6.2,3.5l-1.7,0.6l-2.2,1.6l-0.5,0.6c0.1,1.3,0.1,1.8,0.1,2.2c0,0.5,0,0.8-0.2,2.6
			c0.5,7.9,0.2,4.4,0.8,10.4c0.7,3.1,2.3,4.1,4.4,4.1c1.3,0,2.9-0.4,4.4-1l2.8-1.4l1.9-0.7l1.4-1c0.2-0.1,0.5-0.1,0.7-0.1
			s0.4,0.1,0.4,0.2c0,0.4-2,1.7-2.6,2l-1.2,1l-4.6,3.2c-3.4,1.6-4.3,2-5.8,2c-0.7,0-1.6-0.1-2.9-0.2c-3.4-0.5-5.6-5.6-6.4-10.3v-2
			c0-4-0.1-4.7-0.1-5.6c0-0.8,0-2,0.5-5.3c0.4-3.2,0.8-4.8,3.7-4.8c0.5,0,0.8,0.1,1.3,0.1c1.1,1.3,1.3,1.9,1.7,1.9s0.8-0.7,2.5-1.7
			c5.8-3.2,6.5-4.1,10.8-8.9l2.8-5v-1.2l-0.8-0.6l-2.3,0.1l-1.4,0.7l-1.9,0.1l-3,1.3c-1.3,0.4-1.7,0.5-2,0.6
			c-0.4,0.2-0.7,0.5-2.2,1.3c-1.3,0.8-1.7,1.1-2.2,1.3c-0.6,0.4-1.1,0.8-4.6,3.5l-3.6,2.8l-5.2,5.2c-2.2,2.2-0.8,1-3.7,3.1
			c-1.3,3.6-0.2,1.3-4,6.4c-0.2,1.7,0,0.7-1.8,2.6c-0.1,1.6,0.1,0.6-3.6,6.1l-0.8,2.8l-0.4,4.8l-0.4,1.2l-0.5,0.8l-3.4,1.7l-1-0.2
			l-0.2-1.4l0.6-3.5c0.2-0.4,0.4-0.7,0.4-1.1c0-0.6-0.4-1.2-1-1.8c-1.6,1.1-2,1.3-2.4,1.6c-0.2,0.2-0.5,0.6-1.6,1.7
			c-1.2,3.4-2.4,5.3-4.4,8.2c-0.8,1.1-2,2.3-2.9,2.3c-0.6,0-1-0.5-1-1.9c0-4.1,1.6-6.1,3.5-10.6l1.8-2.4c5.6-10.9,3.1-5.5,7.7-15.8
			c1.3-3.1,0.5-1.3,2.8-5.9l4.1-8.4l1.1-1.8l-0.1-0.5l-1-0.7h-3.4l-1.3-0.7l-1.9-0.1c-3.6-1-8.6-3.9-7.4-7.1c2.1-5.7,3.9-9.5,8-11.3
			l1.3,0.1 M1409.1-689.4l1.4-0.7l6.8-5.6c5.5-4.6,4.9-2.2,5.3-5.8c3-3.2,3.5-4.3,4.9-8.2c0.2-1.1,0.6-1.7,0.6-2
			c0-0.6-0.8-0.6-3.8-1.6l-3.5-0.4c-1.4-0.5-1.8-0.8-2.2-0.8s-0.7,0.4-2.2,0.8c-0.5,0-1,0.1-1.3,0.1h-0.1l-0.8-0.1
			c-0.5,0-0.6,0.1-1.7,0.7c-0.8,0.2-1.2,0.2-1.4,0.2c-0.2,0.1-0.5,0.4-1.7,1c-1.9,0.7-2.4,0.8-2.9,1.1c-0.6,0.4-1,0.7-3.1,2.3
			c-1,0.2-1.3,0.4-1.6,0.5c-0.5,0.4-0.7,1-3.5,3.4c-5.6,4.9-3.4,3-6.4,6.4c-0.7,0.5-1,0.6-1.2,0.7c-0.2,0.2-0.2,0.6-1.1,1.8
			c-1.6,1.3-1.9,1.7-2.3,2c-0.4,0.5-0.6,1-2,3c-2.3,1.8-1.6,0.7-2.5,3c-3.6,4.2-3,2.2-3.5,5.5c-2.6,3.2-2.2,1.6-2.6,4.2
			c-0.5,0.7-0.6,1.1-0.6,1.3s0.1,0.4,0.5,0.4s0.8-0.1,1.3-0.1c6.8-1.7,3.6-0.8,10.1-2.6l3.5-1.6c2.2-0.5,0.6-0.4,4.2-1.6
			c2.9-1.1,3.7-1.3,4.4-1.7c1-0.5,1.9-1.1,6.5-3.6L1409.1-689.4z"/>
		<path class="st11" d="M1413.1-643c-1.7,0-2.2,0-5.5,1.7l-2.4,1.2c-0.5,0-0.7-0.1-0.7-0.4c0-0.4,0.7-1,2.5-2l4.3-2.8l5.2-2.5
			c0.4-0.1,1.7-0.8,2.9-0.8c0.6,0,1,0.1,1,0.6c0,0.2,0,0.4-0.1,0.6l-0.7,1.9l-1.4,2.2l-2.2,4.6v0.5c0,0.7,0,1,0.5,1
			c0.4,0,0.8-0.1,1.8-0.4c6.8-5.2,3.8-2.4,9.1-7.9c2.2-1.8,2.3-1.9,4.2-2.2l0.2,0.4c0,2.6,0,0.7-2.4,4.9c-0.6,1.1-2.4,3.5-2.4,5.2
			c0,0.2,0,0.4,0.1,0.6l1.2-0.1l2.6-1.3l3.7-2.5c0.4-0.2,2.2-1.3,2.6-1.3c0.1,0,0.2,0,0.2,0.1s-0.2,0.5-0.7,1.1l-2.3,1.7
			c-2.3,1.7-4.7,3.2-7.2,4.8c-1.4,0.7-2.3,1.2-3.5,1.2c-0.5,0-1,0-1.7-0.2c-0.4-0.5-0.5-0.8-0.5-1.2c0-0.6,0.5-1.1,1-2l0.5-1.6
			l0.8-1c0-0.7-0.2-0.7-0.7-0.7c-3.5,2.6-6,5-10.2,6.6h-2.8l-0.5-0.6l0.1-1l1-1.9l2.6-5.4l0.1-0.4L1413.1-643z"/>
		<path class="st11" d="M1444.3-644l-0.4-0.4l-1.2,0.2l-2.4,0.7l-2.8,1.9c-1.4,1.1-2.3,1.6-2.6,1.6h-0.2l0.1-0.8
			c4.6-3.6,2.3-2.2,6.6-4.7l1.2-1.1l1-1.3l1.8-1.7c1.3,0,2.5,0,2.5,1.4c0,0.1,0,0.4-0.1,0.6c-0.6,0.5-0.7,0.5-0.7,0.7
			c0,0.1,0,0.2,0.1,0.6c1,0.4,1.8,0.5,2.3,1.6c-1.1,1.9-0.2,0.7-2.9,3.1c-1.3,3.1-1.1,1.8-1.3,4.1l1.1,0.1c0.5,0,0.8-0.1,1.7-0.5
			l2.9-1.7c2.8-1.7,4-2.4,4.3-2.4l0.2,0.1c0,0.4-0.2,0.7-0.5,1.1l-2.4,1.7l-1.4,1.1c-2.8,2.2-5.4,4.3-9,5c-1.2-0.7-1.6-1.4-1.6-2.4
			c0-1.1,0.6-2.3,1.1-3.7l1.7-2.8l0.8-1.2l0.1-0.5L1444.3-644L1444.3-644z"/>
		<path class="st11" d="M1469.8-650.8c0.5,0,0.7,0.1,0.7,0.8c-1.9,3.1-4.1,5.9-5,9.4l-0.7,1.4v0.8l1.1,0.4h0.7l0.7-0.5l1.7-1
			l2.4-1.3l1.4-1.1c0.4-0.1,0.6-0.1,0.8-0.1c0.4,0,0.5,0.1,0.5,0.2c0,0.6-2.2,1.9-3,2.5l-1.3,0.8l-2.9,2c-2.2,1.6-4.1,2.8-6.7,2.8
			h-1.1l-0.4-0.4c0.7-3.6,2-5.6,3.8-9v-0.7l-1.6-0.4l-1.4,0.5l-2,1l-1.8,1.2l-2.3,1.3h-0.8l0.2-0.8l3.6-2.5l4-2.4l1.7-1
			c2.3-1.3,4.6-3.2,7.1-4.1h0.6L1469.8-650.8L1469.8-650.8z M1476.5-659.2c-0.6,0.4-1.2,0.6-1.8,0.6c-2.4,0-4.8-2.5-4.8-4.9v-0.1
			c0-1-0.1-0.2,1.7-1.6l0.5-0.1l1.3,0.1l3.2,4.9L1476.5-659.2z"/>
	</g>
	
		<text transform="matrix(1 0 0 1 1016.0218 -596.5865)" style="fill:#20231C; font-family:'MrsEavesXLSerifOT-Reg'; font-size:24px;">Psychotherapeutin in Ausbildung unter Supervision</text>
	
		<text transform="matrix(1 0 0 1 1001.8218 -567.7865)" style="fill:#20231C; font-family:'MrsEavesXLSerifOT-Reg'; font-size:24px;">tiefenpsychologisch fundierte Hypnosepsychotherapie</text>
	<g>
		<path class="st10" d="M1379.4-749c-3,2.4-3.5,6.7-1,9.6c2.5,2.9,6.9,3.4,10,1c3-2.4,3.5-6.7,1-9.6S1382.5-751.4,1379.4-749z"/>
		<g>
			<g>
				<path class="st11" d="M1222.3-564.4c34.1-14.6,66.9-37.8,87-69.4c19.7-32.1,27.3-70.9,23-108.2c-1.2-10.7-3.3-21.3-6.4-31.6
					l0.3-0.1c19.1,49.1,10.6,105-20.6,147.1c-7.9,11-16.7,21.4-26.8,30.5c-8.1,7.2-17.1,13.5-26.5,18.9c-9.5,5.3-19.4,9.9-29.8,13.1
					L1222.3-564.4L1222.3-564.4z"/>
			</g>
			<path class="st10" d="M1288.7-771.8c2.6,5.7,9.6,8.3,15.5,5.8s8.6-9.2,6-15c-2.6-5.7-9.6-8.3-15.5-5.8
				C1288.7-784.2,1286-777.5,1288.7-771.8z"/>
			<path class="st10" d="M1290.7-822.1c4.4,1.6,6.7,6.4,5,10.7s-6.7,6.4-11.1,4.8c-4.4-1.6-6.7-6.4-5-10.7
				C1281.3-821.6,1286.3-823.7,1290.7-822.1z"/>
			<path class="st10" d="M1331.7-776.5c1.3,3.1-0.2,6.6-3.4,7.9c-3.2,1.3-6.9-0.2-8.2-3.3c-1.3-3.1,0.2-6.6,3.4-7.9
				C1326.7-781,1330.4-779.6,1331.7-776.5z"/>
			<path class="st10" d="M1313.3-830.6c-3,2.4-3.5,6.7-1,9.6c2.5,2.9,6.9,3.4,10,1c3-2.4,3.5-6.7,1-9.6
				C1320.8-832.6,1316.3-833,1313.3-830.6z"/>
			<path class="st10" d="M1372.1-792.9c-1.7,2.7-0.9,6.3,2,8c2.8,1.7,6.5,0.8,8.3-1.9s0.9-6.3-1.9-8
				C1377.5-796.5,1373.8-795.6,1372.1-792.9z"/>
			<path class="st10" d="M1351.4-790.8c-1.8,2.7-0.9,6.3,1.9,8s6.5,0.9,8.3-1.9c1.7-2.7,0.9-6.3-1.9-8
				C1356.8-794.4,1353.1-793.5,1351.4-790.8z"/>
			<path class="st10" d="M1331.4-760.6c1.7-0.7,41-16.4,46.5-26.1l-1.9-1c-3.4,5.9-21.7,14.9-34,20.3c1.6-1.2,3.3-2.4,4.9-3.7
				c7.1-5.8,11-10.9,11.6-15l-2.2-0.3c-0.5,3.6-4.3,8.3-10.8,13.7c-7,5.7-14.8,10.2-14.9,10.3L1331.4-760.6z"/>
			<g>
				<path class="st11" d="M1388.7-798.4c-7.9,22.7-23,32.6-34.4,36.9c-12.3,4.6-22.6,3.9-23,3.8l0.2-2.8c1.6,0.1,40,2.6,54.4-38.8
					L1388.7-798.4z"/>
				<path class="st11" d="M1273.2-782.5c17.3,17.2,33.1,21.5,45.2,20.6c13.1-0.9,12.8,1.5,13.2,1.3l-3.1-5.8
					c-1.4,0.8-21.7,13.3-53.2-18.1L1273.2-782.5z"/>
				<path class="st11" d="M1402.6-775.9c-17.6,19.5-36.9,23.3-50,23c-14.2-0.3-24.1-5.1-24.5-5.3l1.4-2.7c1.6,0.8,38.7,18.5,70.7-17
					L1402.6-775.9z"/>
				<path class="st11" d="M1331.4-748.7c2,0.5,49.3,12.6,61.3,7.5l-1-2.3c-7.3,3.2-30.6-1.1-45.8-4.4c2.3,0,4.7,0,7.2-0.1
					c10.7-0.5,17.9-2.5,21.5-5.9l-1.8-1.8c-3,2.9-9.9,4.7-19.8,5.2c-10.5,0.5-21-0.7-21.1-0.7L1331.4-748.7z"/>
				<path class="st11" d="M1331.1-766.5c1.3-0.8,31.6-19,34.7-27.7l-1.8-0.6c-1.9,5.3-15.9,15.2-25.3,21.3c1.2-1.2,2.4-2.4,3.5-3.7
					c5.1-5.7,7.6-10.4,7.5-14h-1.9c0.1,3-2.3,7.4-7,12.7c-5,5.6-10.8,10.4-10.9,10.5L1331.1-766.5z"/>
				<path class="st11" d="M1335.9-740.7c-1.7-0.1-42.1-2.5-50.1-9.6l1.4-1.5c4.9,4.3,24.3,6.9,37.1,8.1c-1.8-0.6-3.7-1.2-5.6-1.9
					c-8.3-3.1-13.4-6.5-15.2-10l1.9-0.9c1.6,3,6.5,6.2,14.1,9c8.1,3,16.6,4.7,16.7,4.8L1335.9-740.7z"/>
				<path class="st11" d="M1299.1-833.2c1.9,0.6,2.1-1.3,4-0.7c-2.1,11.1,16.8,43.2,25.5,67.6c-0.5-3.6-1-8.2-1.4-11.9
					c-1.9-16.5,0.2-26.8,6.2-31.6c1.5,1.1,0.9,1,2.4,2.1c-5.2,4-7.3,13.8-5.7,29.1c1.7,16.3,5.8,33.2,5.8,33.3
					c4,32.4-7.3,61.9-14.2,91c-1.4-1.4,1.5-0.7,0-2c11.3-26.5,14.2-58.2,10.3-89.3c0,0-9.3-28.5-18-47.4
					C1305.1-813.5,1297.2-824.5,1299.1-833.2z"/>
			</g>
			<path class="st10" d="M1288-836.2c3.9,8.4,13.8,6.6,15.6,5.8c6-2.6,8.7-9.3,6-15.1s-9.7-8.4-15.6-5.8
				C1288-848.7,1285.3-841.9,1288-836.2z"/>
			<path class="st10" d="M1369.5-763c-3,2.4-3.5,6.7-1,9.6c2.5,2.9,6.9,3.4,10,1c3-2.4,3.5-6.7,1-9.6
				C1377-764.9,1372.5-765.4,1369.5-763z"/>
			<path class="st10" d="M1361.7-800c-1.7,2.7-0.9,6.3,1.9,8s6.5,0.8,8.3-1.9c1.7-2.7,0.9-6.3-1.9-8
				C1367.1-803.6,1363.4-802.8,1361.7-800z"/>
			<path class="st10" d="M1410.2-773.3c-4.9,4.1-12.4,3.5-16.6-1.3s-3.6-11.9,1.3-16s12.3-3.5,16.6,1.2
				C1415.7-784.5,1415.1-777.4,1410.2-773.3z"/>
			<path class="st10" d="M1325.2-810c2.8,6.2,10.3,8.9,16.6,6.2c6.4-2.7,9.3-9.9,6.4-16.1c-2.8-6.1-10.3-8.9-16.7-6.2
				C1325.2-823.4,1322.3-816.2,1325.2-810z"/>
			<path class="st10" d="M1353.7-797.9c1.3,3.1-0.2,6.6-3.4,7.9c-3.2,1.3-6.9-0.2-8.2-3.3c-1.3-3.1,0.2-6.6,3.4-7.9
				C1348.7-802.5,1352.4-801,1353.7-797.9z"/>
			<path class="st10" d="M1394.5-804.5c1.3,3.1-0.2,6.6-3.4,7.9c-3.2,1.3-6.9-0.2-8.2-3.3c-1.3-3.1,0.2-6.6,3.4-7.9
				C1389.5-809.1,1393.2-807.6,1394.5-804.5z"/>
			<path class="st10" d="M1308.3-763.3c4.4,1.6,6.7,6.4,5,10.7s-6.6,6.4-11.1,4.8c-4.4-1.6-6.7-6.4-5-10.7S1303.9-765,1308.3-763.3z
				"/>
			<path class="st10" d="M1285.8-758.3c4.4,1.6,6.7,6.4,5,10.7s-6.6,6.4-11.1,4.8c-4.4-1.6-6.7-6.4-5-10.7
				C1276.4-757.7,1281.3-759.9,1285.8-758.3z"/>
			<path class="st10" d="M1260.2-783.1c2.6,5.7,9.6,8.3,15.5,5.8c5.9-2.6,8.6-9.3,6-15s-9.6-8.3-15.5-5.8
				C1260.2-795.6,1257.6-788.9,1260.2-783.1z"/>
		</g>
	</g>
	<g>
		<g>
			<path class="st11" d="M1090.8-974.5c0,0.1,0,0.2,0,0.3c2.4,0.1,12.6-0.3,19-9.9c-0.4,0.1-0.7,0.1-1.1,0
				C1105.1-980.4,1093.4-975.5,1090.8-974.5z"/>
			<path class="st11" d="M1090.6-975.5c1.1-0.7,3.4-2.1,5.5-3.8c1.8-1.4,3.1-2.8,3.8-3.9l0,0c-3.7,2.9-8.3,5.7-9.4,6.4
				C1090.5-976.4,1090.6-975.9,1090.6-975.5z"/>
			<path class="st11" d="M1093.4-979.6c1.8-1.1,3.9-2.6,5.8-4.1c-0.9-0.7-1.2-2-0.6-3c-0.1,0.1-0.3,0.1-0.4,0.2
				c-0.1,0-0.2,0.1-0.2,0.1c-0.2,1.4-1.2,3.1-3.1,5.2C1094.4-980.6,1093.9-980.1,1093.4-979.6z"/>
			<path class="st11" d="M1082.3-970.2c0.8,0.5,1.9,0.9,3,1.3c1.9,0.7,3.9,1.3,5.2,1.6c-0.1-0.5-0.1-1-0.2-1.4
				c-0.4-1.1-1.1-3.3-2.1-6.1c-0.8-0.1-1.9-0.1-3.4,0.1c-1,0.1-2.1,0.1-3.2-0.1c1.1,0.9,1.6,2.5,1.1,3.9
				C1082.7-970.7,1082.5-970.4,1082.3-970.2z"/>
			<path class="st11" d="M1089-977.6C1089-977.5,1088.9-977.5,1089-977.6c0,0.2,0,0.4,0.1,0.5C1089-977.2,1089-977.4,1089-977.6z"/>
			<path class="st11" d="M1099.1-971c-3.3-0.1-6.1-0.7-7.9-1.3c0.2,0.8,0.3,1.5,0.4,2.2c1.6,0.1,4.6,0.3,7.6,0.2
				c2.8-0.1,5-0.5,6.5-1.1c0,0,0,0-0.1-0.1s-0.2-0.3-0.3-0.5C1103.1-971.2,1101-971,1099.1-971z"/>
			<path class="st11" d="M1126.1-985.5c0-20.1-16.3-36.4-36.4-36.4s-36.4,16.3-36.4,36.4s16.3,36.4,36.4,36.4c0.3,0,0.6,0,0.9,0
				c0.7-5.6,0.7-11.3,0.1-16.9c-3.6-0.3-12.8-1.1-17.3-2.8l0,0c-0.7,1.8-2.8,2.7-4.6,2c-1.8-0.7-2.8-2.7-2.1-4.4
				c0.7-1.8,2.8-2.7,4.6-2c1.6,0.6,2.4,2.1,2.3,3.6c3.2,1.3,9.4,2,13.8,2.5c-0.8-0.2-1.5-0.5-2.3-0.8c-1.3-0.5-2.4-1-3.3-1.5
				c-1,0.8-2.3,1-3.5,0.6c-1.8-0.7-2.8-2.7-2.1-4.4c0.4-1.1,1.3-1.8,2.3-2.1c-0.6-0.2-1.2-0.4-1.8-0.6c-1.2-0.1-2.4-0.7-3.3-1.6
				c-1.7-1-3.6-2.3-5.4-4c-0.2,0.2-0.5,0.3-0.8,0.4c-2.5,1.1-5.4,0-6.4-2.4c-1.1-2.4,0-5.2,2.5-6.2c2.5-1.1,5.4,0,6.5,2.4
				c0.8,1.7,0.4,3.7-0.8,5c1.2,1.1,2.3,2,3.5,2.8c-0.6-2.2,0.5-4.6,2.7-5.5c2.5-1.1,5.4,0,6.5,2.4s0,5.2-2.5,6.2
				c-0.2,0.1-0.4,0.1-0.5,0.2c4.5,1.6,7.7,0.9,9.4,0.3c-0.2-0.5-0.4-1-0.5-1.5c-0.7-0.2-1.4-0.7-1.7-1.5c-0.3-0.8-0.2-1.7,0.2-2.3
				c-0.9-2.2-1.8-4.5-2.7-6.5c-3.2-7.4-6.1-11.8-6.3-15.2c-1.5,0-3.5-0.5-4.5-2.7c-1.1-2.4,0-5.2,2.5-6.3s5.4,0,6.5,2.4
				s0,5.2-2.5,6.3c-0.1,0-0.2,0.1-0.3,0.1c0.5,4.5,5,13.1,8.4,21c0,0,0.1,0,0.1-0.1c0.5-0.2,1-0.2,1.4-0.2
				c-0.5-4.7-0.1-8.1,1.1-10.3c-0.8-0.5-1.4-1.2-1.8-2.1c-1.2-2.6,0-5.6,2.7-6.7c2.6-1.1,5.7,0,6.9,2.6c1.2,2.6,0,5.6-2.7,6.7
				c-1.3,0.6-2.7,0.6-3.9,0.1c-1.1,2.1-1.5,5.6-1,10.3c0.3,0.2,0.5,0.6,0.7,0.9c0.3,0.8,0.2,1.7-0.3,2.4c0,0.2,0.1,0.5,0.1,0.7
				c0.8-0.7,2.5-2.2,4-3.9c1.6-1.9,2.6-3.4,2.9-4.6c-1,0-1.9-0.6-2.3-1.6c-0.5-1.3,0.1-2.8,1.4-3.3s2.8,0.1,3.4,1.4
				c0.3,0.7,0.2,1.5-0.1,2.2c0.8-0.5,1.8-0.5,2.6,0c0.3,0.2,0.6,0.4,0.7,0.7c0.2-0.2,0.4-0.5,0.6-0.7c-0.9-0.8-1.1-2.1-0.5-3.1
				c0.7-1.1,2.3-1.5,3.4-0.8c1.2,0.7,1.5,2.2,0.8,3.3c-0.7,1-2,1.4-3.1,0.9c-0.2,0.3-0.5,0.6-0.8,1c0.2,0.6,0.1,1.3-0.3,1.9
				c-0.4,0.7-1.2,1.1-2,1.1c-0.8,1.3-2.2,2.8-4.2,4.5c-0.7,0.6-1.4,1.1-2,1.6c4.4-2,10.7-5,13.2-7.4c-1.1-0.7-1.4-2.1-0.7-3.2
				c0.7-1.1,2.3-1.5,3.4-0.8c0.5,0.3,0.9,0.7,1,1.2c0.3-0.7,0.7-1.5,1-2.3c-0.4-0.3-0.7-0.6-0.9-1.1c-0.5-1.3,0.1-2.8,1.4-3.3
				s2.8,0.1,3.4,1.4c0.5,1.3-0.1,2.8-1.4,3.3c-0.4,0.2-0.9,0.2-1.3,0.2c-3.4,8.8-9.4,12.7-14,14.4c-2.6,1-5,1.4-6.8,1.5
				c2.9,0.8,7.2,1.4,12,0.2c-0.1-0.9,0.3-1.8,1.1-2.4c1.3-1,3.1-0.8,4.1,0.4c0,0,0,0,0,0.1c2.2-1.1,4.4-2.6,6.6-4.6
				c-0.3-0.2-0.5-0.4-0.7-0.7c-1.8-2-1.5-5,0.5-6.7s5.1-1.5,6.9,0.5s1.5,5-0.5,6.7c-1.4,1.2-3.4,1.4-5,0.8c-2.4,2.3-4.8,3.9-7.2,5.1
				c0.2,1-0.1,2.1-1,2.8s-2.1,0.8-3.1,0.4c-1.7,0.8-4.2,1.3-7.5,1.5c-1,0-2,0.1-3,0c3.8,0.8,8.9,1.8,12.9,2.2c-0.1-1,0.2-2,1-2.6
				c1.3-1,3.1-0.8,4.1,0.4c0.5,0.6,0.7,1.3,0.7,2c0.1,0,0.2-0.1,0.3-0.1l0.4,0.9c-0.3,0.1-0.7,0.2-1,0.3c-0.2,0.3-0.4,0.6-0.7,0.9
				c-1.3,1-3.1,0.8-4.1-0.4c-0.1-0.1-0.2-0.2-0.2-0.3c-6.1-0.4-14.2-2.3-17.7-3.1c0.1,0.6,0.2,1,0.2,1c0,0.4,0.1,0.7,0.1,1.1l0,0
				l0,0c0.3,3.2,0.3,6.3,0,9.4c0,2.7-0.2,5.4-0.5,8.1C1110.9-950.3,1126.1-966.2,1126.1-985.5z M1073.4-999.8
				c1.8,0.7,2.8,2.7,2.1,4.4c-0.7,1.8-2.8,2.7-4.6,2c-1.8-0.7-2.8-2.7-2.1-4.4C1069.5-999.6,1071.6-1000.5,1073.4-999.8z
				 M1086.5-999c-1.3,1-3.1,0.8-4.1-0.4s-0.8-3,0.4-4c1.3-1,3.1-0.8,4.1,0.4C1088-1001.8,1087.8-1000,1086.5-999z"/>
		</g>
		
			<text transform="matrix(1 0 0 1 1137.4722 -957.6729)" class="st11" style="font-family:'VolutaScriptPro-Regular'; font-size:100px;">Christina Kuri</text>
		<g>
			<text transform="matrix(1 0 0 1 1155.2334 -924.7788)" style="font-family:'MrEavesXLModOT-Book'; font-size:27px;">Icon Verwendung für Webseite</text>
		</g>
	</g>
</g>
</svg>
