<?xml version="1.0" encoding="utf-8"?>
<!-- Generator: Adobe Illustrator 26.0.2, SVG Export Plug-In . SVG Version: 6.00 Build 0)  -->
<svg version="1.1" id="Ebene_1" xmlns="http://www.w3.org/2000/svg" xmlns:xlink="http://www.w3.org/1999/xlink" x="0px" y="0px"
	 viewBox="0 0 1752.9 495.3" style="enable-background:new 0 0 1752.9 495.3;" xml:space="preserve">
<style type="text/css">
	.st0{display:none;}
	.st1{display:inline;}
	.st2{opacity:0.35;}
	.st3{display:inline;fill:#2F400D;}
	.st4{opacity:0.1091;fill:#31401B;enable-background:new    ;}
	.st5{fill:#FFFFFF;}
	.st6{fill:none;}
	.st7{opacity:0.65;fill:#2E193F;enable-background:new    ;}
	.st8{opacity:0.55;fill:#2E193F;enable-background:new    ;}
	.st9{fill:#B0D959;}
	.st10{fill:#31073F;}
	.st11{fill:#2F400D;}
	.st12{fill:url(#SVGID_1_);}
</style>
<g id="Ebene_1_00000108297882875454534200000007816474239820096664_">
	<g class="st0">
		<g class="st1">
			
				<image style="overflow:visible;enable-background:new    ;" width="1000" height="667" xlink:href="E261AE8F.jpg"  transform="matrix(1 0 0 1 -296.2249 -1655.9501)">
			</image>
		</g>
	</g>
</g>
<g id="Ebene_2_00000119806425501988784510000001593396877791928974_" class="st2">
	<g class="st0">
		
			<ellipse transform="matrix(0.7071 -0.7071 0.7071 0.7071 1442.9764 565.605)" class="st3" cx="1404.2" cy="-1459" rx="78.7" ry="78.7"/>
		<g class="st1">
			<g>
				<path class="st4" d="M1492.7-1466.8c-0.2-5.5-0.6-10.6-1.9-15.9c-1.3-5.4-3.1-10.5-5.5-15.5c-4.6-10-11.8-19.1-19.9-26.4
					c-17.2-15.5-40.3-23.7-63.4-22.7c-23.1,1-46,11.4-61.4,28.8c-7.5,8.5-13.9,18.3-17.7,29c-3.9,11-6,23-5.3,34.7
					c0.7,11.7,3.3,23.5,8.6,34c5,10.2,11.8,19.7,20.3,27.2s18.3,13.8,29,17.6c10,3.5,20.4,5.4,31,5.4c23.5-0.1,46-9.7,62.5-26.4
					c8-8.2,14.3-17.6,18.7-28.2c2.2-5.3,3.9-10.8,5.1-16.5c1.4-7.1,1.6-14.1,1.6-21.3c-0.5,0-0.9,0.2-1.3,0.6c-1.4,1-2.8,2-4.2,3.1
					c-1.4,1-2.8,2.1-4.1,3.2c-0.4,0.3-0.8,0.6-0.9,1.1c-0.6,5.3-1.2,10.3-2.6,15.4c-1.3,4.9-3.1,9.5-5.3,14.1
					c-4.2,8.7-10.4,16.7-17.5,23.2c-14.7,13.3-34.1,20.6-53.9,20.5c-20-0.2-40.2-8.3-54.4-22.6c-14.5-14.7-23.4-34.7-23.1-55.5
					c0.1-10.7,2-21.5,6.4-31.2c4.2-9.4,10.1-18.3,17.7-25.4s16.4-13.1,26.2-16.7c9.1-3.4,18.7-5.1,28.4-5.1c21.5,0,42,8.7,56.9,24.1
					c7.1,7.4,12.7,15.9,16.5,25.4c1.9,4.7,3.5,9.6,4.5,14.6c1.2,6,1,11.8,0.8,17.9c0.5-0.2,0.8-0.5,1.1-0.9c1.1-1.3,2.3-2.6,3.4-4
					c1.1-1.3,2.2-2.7,3.2-4.1C1492.4-1465.9,1492.6-1466.3,1492.7-1466.8z"/>
				<path class="st4" d="M1491-1469.1c-0.2-5.5-0.6-10.6-1.9-15.9c-1.3-5.4-3.1-10.5-5.5-15.5c-4.6-10-11.8-19.1-20-26.4
					c-17.2-15.4-40.3-23.6-63.4-22.5c-23,1.1-45.7,11.5-61.1,28.7c-7.5,8.4-13.8,18.2-17.6,28.8c-3.9,11-6.1,22.9-5.4,34.6
					c0.7,11.7,3.2,23.5,8.4,34c5,10.2,11.7,19.7,20.2,27.3c8.5,7.5,18.2,13.9,29,17.7c10,3.6,20.4,5.4,31,5.4
					c23.5-0.1,46-9.6,62.4-26.4c8-8.1,14.3-17.6,18.7-28.2c2.2-5.3,4-10.8,5.1-16.5c1.4-7,1.6-14.1,1.6-21.3c0-0.2-6.5,2.7-6.4,2.6
					c-1.6,0.8-3.3,1.6-4.9,2.4c-0.5,0.2-0.9,0.5-1.2,0.9c-0.2,5.1-0.6,10.1-1.7,15.1c-1,4.9-2.5,9.6-4.4,14.2
					c-3.7,9-9.4,17.4-16.2,24.3c-14.4,14.6-34.4,22.9-54.9,22.9c-20.9,0-42-8.7-56.3-24.1c-14.4-15.5-22.7-36.5-21.3-57.9
					c0.7-10.7,3.1-21.4,8.1-31c4.7-9.1,11-17.5,18.9-24.1c7.8-6.4,16.7-11.7,26.3-14.6c8.8-2.7,17.9-3.9,27.2-3.5
					c20,0.8,38.8,9.3,52.7,23.7c6.7,6.9,12,14.8,15.7,23.7c1.9,4.5,3.5,9.1,4.5,13.9c0.3,1.9,0.6,3.9,0.9,5.8
					c0.2,3.7,0.1,7.5-0.2,11.2c0.5-0.1,1-0.3,1.4-0.7c1.5-1.2,3.1-2.4,4.6-3.6s3-2.5,4.5-3.7
					C1490.5-1468.2,1490.8-1468.6,1491-1469.1z"/>
				<path class="st4" d="M1489.8-1465.5c-0.2-5.4-0.6-10.5-1.8-15.8c-1.3-5.4-3.1-10.5-5.5-15.5c-4.6-10-11.8-19.1-19.9-26.5
					c-17.2-15.5-40.3-23.7-63.5-22.6c-23,1.1-45.8,11.5-61.2,28.8c-7.5,8.4-13.8,18.2-17.6,28.9c-3.9,11-6,22.9-5.4,34.6
					c0.7,11.7,3.3,23.5,8.5,34c5,10.2,11.8,19.7,20.3,27.2s18.2,13.8,28.9,17.6c10,3.5,20.4,5.4,31,5.4c23.5-0.1,46-9.6,62.5-26.2
					c8-8.1,14.4-17.6,18.8-28.2c2.2-5.3,4-10.8,5.1-16.5c1.4-7.1,1.7-14.1,1.6-21.3c-0.4,0-0.8,0.1-1.1,0.4
					c-1.2,0.8-2.4,1.6-3.6,2.5c-1.2,0.8-2.4,1.7-3.5,2.6c-0.4,0.2-0.6,0.5-0.8,0.9c-0.4,5.6-0.9,10.8-2.2,16.2
					c-1.2,5.2-3,10.2-5.2,15c-4.3,9.4-10.9,18-18.5,24.8c-15.6,14-36.6,21-57.5,19.7c-20.2-1.3-40-10.8-53.2-26.3
					c-12.8-15-20.1-34.6-19.2-54.4c0.9-19.8,8.8-39.3,23.3-53.1c13.9-13.4,31.9-21.4,51.3-22.2c21-0.9,41.5,6.6,56.8,20.9
					c7.5,7,13.5,15.3,17.8,24.6c2.1,4.7,3.9,9.6,5,14.6c0.4,2,0.7,4.1,1.1,6.1c0.3,3.9,0.4,7.8,0.1,11.7c0.4-0.1,0.8-0.3,1-0.6
					c1.1-1,2.1-2,3.1-3.1c1-1,2-2.1,3-3.2C1489.5-1464.8,1489.7-1465.1,1489.8-1465.5z"/>
				<path class="st4" d="M1492.3-1461.9c-0.5-6.4-1-12.7-2.8-18.8c-1-3.3-2.1-6.4-3.5-9.5c-3.1-7.3-7.3-14-12.2-20.2
					c-7.8-9.8-18.1-17.7-29.3-23.2c-11.6-5.8-24.5-9-37.5-9.2c-25.8-0.6-51.9,10.5-68.8,30.1c-8.3,9.6-14.6,20.4-18.4,32.5
					c-3.9,12.3-5.3,25.8-3.4,38.6c1.7,11.7,5.4,22.7,11.2,33c3.4,6,7.7,11.4,12.4,16.4c4.5,4.9,10.1,9.5,15.7,13.1
					c9.8,6.3,20.4,10.6,31.8,13c6.8,1.4,14.4,2,21.4,1.5c7.1-0.4,14.3-1.4,21.1-3.6c11.1-3.5,21.1-8.8,30.3-15.9
					c9.8-7.7,17.8-17.8,23.5-28.8c3.7-7.1,6.4-14.7,8.1-22.5c1.5-7.1,1.8-14.2,1.8-21.5c0-1-1.7,1.3-1.6,1.2
					c-0.8,0.9-1.6,1.9-2.4,2.9c-0.4,0.5-0.8,1-1.1,1.6c-0.2,2.4-0.4,4.8-0.6,7.2c-0.4,3.5-1.1,7-2,10.4c-1.4,5.6-3.3,11.1-5.9,16.2
					c-2.1,4-4.4,7.9-7,11.6c-4,5.6-8.8,10.2-13.9,14.8c0.1-0.1,0.2-0.2,0.3-0.2c-1.8,1.4-3.7,2.8-5.5,4.2c0.1-0.1,0.2-0.1,0.3-0.2
					c-1.9,1.2-3.9,2.5-5.8,3.7c0.1-0.1,0.2-0.1,0.3-0.2c-2,1.1-4.1,2.1-6.1,3.2c0.1-0.1,0.2-0.1,0.3-0.2c-2.1,0.9-4.2,1.8-6.3,2.7
					c0.1,0,0.2-0.1,0.3-0.1c-2.2,0.7-4.3,1.4-6.5,2.1c0.1,0,0.2-0.1,0.4-0.1c-4.2,1.2-8.6,2-13,2.4c-4.2,0.4-8.5,0.5-12.7,0.2
					c-8.2-0.5-16.3-2.3-23.9-5.3c-11.9-4.7-22.4-12.2-31.2-21.4c-10.2-10.6-17.7-24-21.2-38.2c-3.7-15.2-2.8-31.1,2.5-45.8
					c5.3-14.8,15-27.8,27.6-37.1c13.6-10,30-15.3,46.8-15.5c17.1-0.2,33.8,4.9,47.8,14.7c14.3,10,25.6,24.9,31.1,41.5
					c1.4,4.2,2.4,8.4,3.1,12.7c0.5,4,0.7,8.1,0.7,12.1c0,1,1.5-1.5,1.4-1.2c0.6-1,1.2-1.9,1.7-2.9
					C1491.9-1460.8,1492.1-1461.3,1492.3-1461.9z"/>
				<path class="st4" d="M1492.8-1469.3c-0.2-5.5-0.6-10.7-1.9-16c-1.3-5.4-3.2-10.5-5.5-15.5c-4.7-10-11.9-19.1-20-26.4
					c-17.2-15.4-40.3-23.6-63.4-22.6c-23,1-45.9,11.4-61.3,28.7c-7.6,8.5-13.9,18.3-17.8,29c-4,11.1-6.1,23-5.4,34.8
					s3.3,23.6,8.6,34.2c5.1,10.2,11.9,19.8,20.4,27.3s18.4,13.8,29.1,17.6c10,3.5,20.5,5.4,31.1,5.3c23.5-0.2,46-9.8,62.5-26.6
					c8-8.2,14.3-17.7,18.7-28.2c2.2-5.3,3.9-10.9,5.1-16.5c1.4-7.1,1.6-14.1,1.6-21.3c-0.5,0-1,0.1-1.4,0.4
					c-1.6,0.8-3.2,1.6-4.8,2.4s-3.2,1.7-4.7,2.6c-0.5,0.2-0.9,0.5-1.1,0.9c-0.3,5.1-0.8,9.9-1.9,14.9c-1.1,4.8-2.5,9.4-4.4,13.9
					c-3.7,8.8-9.3,17.1-15.9,24c-14.2,14.6-33.8,23.3-54.1,23.9c-21,0.6-42.4-7.4-57.3-22.4c-7.4-7.4-13.7-16.2-17.7-26
					c-4.1-10.1-6.4-21.2-6.1-32.2c0.3-11,2.5-22.2,7.3-32.2c4.6-9.6,10.9-18.6,18.9-25.6c7.9-7,17.2-12.7,27.3-16
					c9.3-3,18.9-4.4,28.6-4.1c20.9,0.8,40.7,9.8,54.9,25.3c6.7,7.2,11.9,15.5,15.5,24.6c1.8,4.6,3.4,9.3,4.3,14.2
					c1.1,5.8,0.9,11.5,0.6,17.3c0.5-0.1,0.9-0.4,1.3-0.8c1.4-1.3,2.8-2.5,4.1-3.9c1.4-1.3,2.7-2.6,4-4
					C1492.3-1468.4,1492.6-1468.8,1492.8-1469.3z"/>
				<path class="st4" d="M1490.6-1471.2c-0.2-5.5-0.6-10.6-1.9-16c-1.3-5.4-3.2-10.5-5.5-15.5c-4.7-10-11.9-19.1-20.1-26.5
					c-17.3-15.5-40.5-23.6-63.7-22.5c-23,1.1-45.7,11.6-61.1,28.9c-7.5,8.4-13.9,18.2-17.7,28.8c-4,11-6.2,22.9-5.5,34.6
					c0.6,11.8,3.2,23.6,8.4,34.2c5,10.3,11.8,19.9,20.4,27.5c8.5,7.6,18.4,14,29.2,17.8c10.1,3.6,20.6,5.4,31.3,5.3
					c23.6-0.2,46.2-9.9,62.6-26.8c8-8.2,14.2-17.7,18.6-28.3c2.2-5.3,3.9-10.8,5-16.5c1.4-7.1,1.6-14.1,1.6-21.3
					c0-0.4-6.3,1.5-6.1,1.5c-0.2,0.1-5.9,1.4-5.9,2.2c0,5.2-0.1,10.2-0.9,15.3c-0.8,5-2,9.9-3.7,14.7c-3.3,9.4-8.8,18.4-15.5,25.8
					c-14.3,15.9-34.8,25.2-56.2,25.8c-21.8,0.6-44.1-8.2-59.2-24.1c-7.4-7.9-13.7-17.2-17.5-27.4c-3.8-10.5-5.8-21.9-5.1-33.2
					c0.8-11.2,3.4-22.4,8.8-32.2c5-9.4,11.7-18,20.1-24.6c8.1-6.4,17.4-11.5,27.4-14.2c8.9-2.4,18.1-3.3,27.3-2.6
					c19.3,1.4,37.3,9.9,50.9,23.7c6.6,6.6,11.9,14.2,15.8,22.7c2,4.4,3.7,8.9,4.8,13.6c0.3,1.9,0.7,3.8,1,5.7
					c0.3,3.6,0.3,7.3,0,10.9c0.5,0,1-0.2,1.4-0.5c1.6-0.9,3.3-1.8,4.9-2.8c1.6-0.9,3.2-1.9,4.8-2.9
					C1490-1470.4,1490.4-1470.8,1490.6-1471.2z"/>
				<path class="st4" d="M1490.4-1472.9c-0.3-6.5-0.8-12.8-2.7-19.1c-1.6-5.3-3.7-10.4-6.3-15.3c-5.3-9.9-12.5-18.5-21.2-25.7
					c-19-15.7-44.1-22.8-68.5-19.6c-24.2,3.2-46.2,16.5-60.5,36.2c-13.2,18.1-19.2,40.9-16.5,63.1c2,16.5,8.7,31.9,18.9,45
					c7.8,10,18.2,18.1,29.5,23.7c10.6,5.3,22.1,8.4,33.9,9.2c13.1,0.9,26.8-1,39-6.1c10.8-4.5,20.4-10.7,28.9-18.8
					c8.3-7.8,14.7-17.6,19.5-27.9c2.8-6.1,5-13.1,6.2-19.8c0.3-2.3,0.7-4.6,1-7c0.5-4.8,0.7-9.6,0.4-14.3c0-0.5-5.5,0.6-5.4,0.6
					c-0.1,0-5.3,0.7-5.3,1.3c0.2,4.3,0.4,8.5,0.1,12.7c-0.3,5.2-1.3,10.4-2.7,15.4c-2.5,9.1-6.6,17.6-12.1,25.3
					c-5.6,7.8-12.6,14.5-20.6,19.7c-8.2,5.4-17.5,9.7-27.2,11.6c-19.3,3.9-39.3,1.3-56.6-8.2c-4.9-2.7-9.6-5.8-13.9-9.4
					c-9.5-24.7-19-49.4-28.5-74.1c0.4-2.3,0.8-4.6,1.2-7c1.2-5.6,3.1-11.1,5.5-16.3c3.4-7.4,7.6-13.4,12.9-19.9
					c-0.1,0.1-0.1,0.2-0.2,0.3c1.6-1.7,3.2-3.3,4.8-5c-0.1,0.1-0.2,0.2-0.2,0.2c1.7-1.5,3.4-3,5.2-4.6c-0.1,0.1-0.2,0.2-0.3,0.2
					c1.8-1.4,3.7-2.7,5.5-4.1c-0.1,0.1-0.2,0.1-0.3,0.2c1.9-1.2,3.9-2.4,5.8-3.6c-0.1,0.1-0.2,0.1-0.3,0.2c2-1,4-2.1,6-3.1
					c-0.1,0-0.2,0.1-0.3,0.1c4-1.8,8.1-3.3,12.3-4.4c4-1.1,8.1-1.8,12.3-2.2c6.2-0.5,12.4-0.4,18.5,0.4c12.3,1.7,24,6.3,34.4,13
					c9.8,6.4,18.5,14.8,24.9,24.6c3.1,4.8,5.6,9.9,7.6,15.2c1.3,3.6,2.3,7.4,2.9,11.2c0.4,3.6,0.5,7.2,0.3,10.7
					c0,0.3,6.2-2.2,6.1-2.2C1484.9-1470.1,1490.4-1472,1490.4-1472.9z"/>
				<path class="st4" d="M1491.3-1465.6c-0.2-5.5-0.6-10.6-1.8-15.9c-1.3-5.4-3.1-10.5-5.4-15.5c-4.6-10-11.7-19.1-19.8-26.4
					c-17.1-15.5-40.2-23.7-63.3-22.7c-23,1-45.8,11.4-61.2,28.7c-7.5,8.4-13.8,18.2-17.6,28.9c-3.9,11-6.1,22.9-5.4,34.6
					c0.7,11.7,3.3,23.4,8.5,34c5,10.2,11.7,19.7,20.2,27.2c8.4,7.5,18.2,13.8,28.9,17.6c10,3.5,20.4,5.4,31,5.4
					c23.4-0.1,45.9-9.6,62.4-26.3c8-8.1,14.3-17.6,18.7-28.1c2.2-5.3,4-10.8,5.1-16.5c1.4-7,1.6-14.1,1.6-21.2
					c-0.5,0-0.9,0.2-1.3,0.6c-1.4,1-2.8,2.1-4.2,3.1c-1.4,1.1-2.8,2.1-4.1,3.2c-0.4,0.3-0.7,0.6-0.9,1.1c-0.5,5.4-1.2,10.5-2.6,15.7
					c-1.4,5-3.2,9.7-5.5,14.3c-4.3,8.8-10.9,16.9-18.3,23.3c-15.1,13-35,19.6-54.9,18.5c-19.6-1.1-38.9-9.8-52.1-24.4
					s-21.2-33.9-20.6-53.8c0.5-20.2,8.5-40.2,23.4-54.1c7.3-6.8,15.7-12.6,25.1-16.2c8.8-3.4,18-5.2,27.4-5.4
					c21.1-0.4,41.4,7.8,56.2,22.7c7.2,7.2,12.9,15.6,16.8,25c2,4.7,3.6,9.6,4.6,14.6c1.2,5.9,1.1,11.8,0.9,17.8
					c0.5-0.1,0.8-0.4,1.1-0.9c1.2-1.3,2.3-2.6,3.4-3.9c1.1-1.3,2.2-2.7,3.3-4C1491-1464.7,1491.2-1465.1,1491.3-1465.6z"/>
				<path class="st4" d="M1489.5-1469.9c-0.2-5.4-0.6-10.6-1.9-15.9c-1.3-5.4-3.1-10.5-5.5-15.5c-4.6-10-11.8-19.1-20-26.5
					c-17.2-15.5-40.4-23.7-63.6-22.6c-23,1.1-45.8,11.6-61.2,28.9c-7.5,8.4-13.8,18.2-17.6,28.9c-3.9,11-6.1,22.9-5.4,34.6
					c0.7,11.7,3.2,23.5,8.4,34.1c5,10.2,11.7,19.8,20.3,27.4c8.5,7.6,18.3,13.9,29.1,17.8c10.1,3.6,20.5,5.5,31.2,5.4
					c23.6-0.1,46.2-9.8,62.7-26.7c8-8.2,14.3-17.7,18.6-28.3c2.2-5.3,3.9-10.9,5-16.5c1.4-7.1,1.6-14.1,1.5-21.3
					c0-0.4-5.6,1.8-5.5,1.7c-0.3,0.1-5.2,1.6-5.2,2.4c0,5.4-0.2,10.5-1.1,15.7c-0.9,5.1-2.2,10-4,14.9c-3.5,9.5-9.3,18.5-16.3,25.8
					c-14.8,15.6-35.6,24.5-57.1,24.5c-21.7,0.1-43.6-9.1-58.3-25.2c-7.2-7.9-13.2-17.1-16.7-27.2c-3.6-10.3-5.4-21.5-4.5-32.5
					c0.9-10.8,3.5-21.7,8.8-31.2c4.9-9,11.3-17.3,19.4-23.8c7.7-6.2,16.6-11.3,26.1-14.1c8.6-2.6,17.5-3.8,26.5-3.5
					c19.6,0.6,38.3,8.3,52.5,21.7c7,6.6,12.7,14.3,16.8,23c2.1,4.4,3.9,9.1,5,13.9c0.4,1.9,0.7,3.9,1.1,5.8
					c0.3,3.7,0.4,7.4,0.1,11.1c0.5,0,0.9-0.2,1.3-0.5c1.4-0.9,2.8-1.7,4.2-2.7c1.4-0.9,2.8-1.8,4.2-2.8
					C1489-1469.2,1489.3-1469.5,1489.5-1469.9z"/>
				<path class="st4" d="M1491.8-1473.4c0-4.3-0.4-8.6-1.2-12.8c-0.5-2.1-1-4.3-1.5-6.4c-2.1-7.5-5.6-14.5-9.8-21
					c-7.4-11.4-17.3-20.8-29-27.7c-25.2-15-57.8-17-84.2-4c-16.4,8.1-30.2,20.6-39.3,36.4c-7.7,13.4-11.7,28.7-11.8,44.1
					c0,15.6,3.9,31,11.8,44.6c10.5,18.3,27.6,32.5,47.5,39.6c13.6,4.8,28.4,6.3,42.7,4.2c14-2,27.3-7.5,38.9-15.6
					c11.2-7.8,20.3-18.6,26.9-30.5c3.9-7,6.6-14.7,8.4-22.5c0.9-3.4,1.5-6.9,1.8-10.4c0.5-4.8,0.7-9.6,0.4-14.3
					c0-0.5-5.8,0.4-5.7,0.4c0,0-5.7,0.5-5.6,1.2c0.3,6.3,0.4,12.4-0.4,18.7c-0.9,7.2-3.1,14.1-6,20.7c-5.1,11.6-12.8,21.7-22.5,29.7
					c-22.1,18.2-52.9,23-79.7,13.1c-6.3-2.3-12.4-5.5-17.9-9.3c-7.6-4.9-13.5-11.7-17.5-20.2c-7.1-6.3-11.9-13.9-14.5-22.7
					c-4.4-13.7-5.1-28.4-2.4-42.5c2.6-13.7,9.1-26.5,17.9-37.1c5-6.1,11.1-11.2,17.6-15.5c2.7-1.9,5.6-3.6,8.7-5
					c4.1-2,8.3-3.6,12.7-4.9c-0.1,0-0.2,0.1-0.3,0.1c2.3-0.5,4.5-1.1,6.8-1.6c-0.1,0-0.2,0.1-0.4,0.1c2.3-0.3,4.6-0.7,6.9-1
					c-0.1,0-0.3,0-0.4,0c2.3-0.1,4.6-0.3,6.9-0.4c-0.1,0-0.3,0-0.4,0c6.7,0.1,13.3,0.4,19.8,2c4.9,1.2,9.7,2.9,14.4,5
					c9.2,4.2,17.7,10.2,24.8,17.4c6.3,6.4,11.7,13.6,16,21.5c2.6,4.8,4.8,10.5,6.1,15.8c0.4,1.9,0.7,3.7,1.1,5.6
					c0.3,3.5,0.4,7.1,0.1,10.7c0,0.3,6.5-2.4,6.4-2.3c1.6-0.7,3.3-1.4,4.9-2.2C1491.1-1472.7,1491.5-1473,1491.8-1473.4z"/>
				<path class="st4" d="M1490.8-1462.9c-0.1-6.4,0.2-4.9-0.5-9.7c-0.7-5.4-2.1-10.7-4-15.8c-3.8-10.4-10.3-19.9-17.8-28
					c-7.7-8.3-17.3-14.7-27.5-19.5c-10.6-5-22.3-7.3-33.9-7.9c-11.9-0.5-23.9,1.8-35,6c-10.7,4-20.4,10.6-28.8,18.3
					c-17.8,16.5-27.7,40.7-27.6,64.9c0.1,23.5,9.7,46.1,26.5,62.6c16.7,16.3,39.3,25.5,62.6,25.3c23.4-0.2,45.9-9.7,62.3-26.4
					c8-8.1,14.3-17.6,18.8-28.1c2.2-5.3,4-10.8,5.2-16.5c1.4-7.1,1.7-14.1,1.7-21.3c-0.4,0-0.7,0.2-1,0.5c-1,0.9-2,1.8-3,2.8
					c-1,0.9-1.9,1.9-2.9,2.9c-0.3,0.3-0.5,0.6-0.6,1c-0.5,5.8-1.2,11.2-2.7,16.8c-1.4,5.3-3.3,10.5-5.9,15.4
					c-4.8,9.4-11.7,18.1-19.9,24.7c-7.3,5.9-15.5,10.5-24.4,13.5c-9.9,3.3-20.1,4.5-30.5,3.7c-18.7-1.4-35.8-9.4-49.3-22.3
					c-13.3-12.7-22.3-30.9-24-49.2c-0.9-9.1-0.3-18.2,1.8-27.1c2.4-9.7,6.6-18.8,12.4-26.9c11.6-16.1,28.7-26.9,48-31
					c10.7-2.3,22.3-1.9,32.9,0.5c10.3,2.3,20.6,6.9,29.1,13.2c7.7,5.8,14.4,12.6,19.7,20.6c2.9,4.4,5.5,9.1,7.5,14
					c4,9.8,5.6,19.5,5.1,30.4c0,0.4,0,0.3,0.3,0.2c0.2-0.2,0.4-0.4,0.5-0.5c0.6-0.7,1.1-1.4,1.7-2.2c0.8-1.1,1.7-2.3,2.4-3.4
					C1490.3-1461.7,1490.8-1462.3,1490.8-1462.9z"/>
				<path class="st4" d="M1490.5-1467.5c-0.2-5.4-0.6-10.6-1.9-15.9c-1.3-5.4-3.1-10.5-5.4-15.5c-4.6-10-11.8-19.1-19.9-26.4
					c-17.2-15.5-40.2-23.7-63.3-22.6c-23,1.1-45.8,11.4-61.1,28.7c-7.5,8.4-13.8,18.2-17.6,28.9c-3.9,11-6.1,22.8-5.4,34.5
					c0.7,11.7,3.2,23.4,8.4,33.9c5,10.2,11.7,19.7,20.2,27.2c8.4,7.5,18.2,13.8,28.9,17.6c10,3.6,20.3,5.4,30.9,5.4
					c23.4-0.1,45.9-9.6,62.4-26.2c8-8.1,14.3-17.6,18.7-28.1c2.2-5.3,4-10.8,5.1-16.5c1.4-7,1.6-14.1,1.6-21.2c-0.5,0-1,0.1-1.4,0.5
					c-1.6,0.8-3.1,1.7-4.7,2.6c-1.5,0.9-3.1,1.8-4.6,2.8c-0.5,0.2-0.8,0.5-1.1,1c-0.4,5.3-0.9,10.2-2.1,15.4
					c-1.2,4.9-2.8,9.7-4.8,14.3c-4,9-10.1,17.2-17.2,23.9c-14.8,13.9-34.9,21.4-55.3,20.8s-40.6-9.6-54.2-24.9
					c-13.6-15.2-21.3-35.5-20-56c1.3-20.3,10.1-40.1,25.6-53.5c7.4-6.4,16-11.8,25.3-14.9c8.7-2.9,17.6-4.4,26.8-4.3
					c20.2,0.2,39.6,8.3,53.9,22.7c6.9,7,12.4,15.1,16.3,24.1c2,4.6,3.6,9.3,4.6,14.2c0.3,2,0.6,3.9,0.9,5.9
					c0.2,3.8,0.2,7.6-0.1,11.4c0.5-0.1,0.9-0.4,1.3-0.8c1.4-1.2,2.8-2.4,4.1-3.7c1.4-1.2,2.7-2.5,4-3.8
					C1490.1-1466.6,1490.4-1467,1490.5-1467.5z"/>
			</g>
		</g>
	</g>
	<path class="st5" d="M-965.9-169.6c6.9,7.5,33.2-4.8,49.5-17.8c15.5-12.4,33.3-34.5,27.7-42.9c-5.5-8.4-33.9-2.9-52.8,11.9
		C-960.6-203.5-972.8-176.9-965.9-169.6z"/>
	<g>
		
			<text transform="matrix(1 0 0 1 -588.5316 -421.7999)" style="fill:#2E193F; font-family:'FranklinGothicLTPro-CnMd'; font-size:72px;">Kuri</text>
		
			<text transform="matrix(1 0 0 1 -842.8358 -422.5728)" style="fill:#D2E7B5; font-family:'FranklinGothicLTPro-CnMd'; font-size:72px;">Christina</text>
	</g>
	
		<text transform="matrix(1 0 0 1 -928.2594 -388.494)" style="fill:#20231C; font-family:'MrsEavesXLSerifOT-Reg'; font-size:24px;">Psychotherapeutin in Ausbildung unter Supervision</text>
	
		<text transform="matrix(1 0 0 1 -942.4594 -359.694)" style="fill:#20231C; font-family:'MrsEavesXLSerifOT-Reg'; font-size:24px;">tiefenpsychologisch fundierte Hypnosepsychotherapie</text>
	<rect x="-28.9" y="-609.7" class="st6" width="651.4" height="459.6"/>
	<text transform="matrix(1 0 0 1 -28.911 -600.9379)" style="font-family:'MrsEavesXLSerifOT-Reg'; font-size:14px;">Fliesstext Mrs Evans 14px.</text>
	<text transform="matrix(1 0 0 1 -28.911 -567.338)" style="font-family:'MrsEavesXLSerifOT-Reg'; font-size:14px;">Lorem ipsum dolor sit amet, consectetuer adipiscing elit, sed diam nonummy nibh euismod tincidunt ut </text>
	<text transform="matrix(1 0 0 1 -28.911 -550.5379)" style="font-family:'MrsEavesXLSerifOT-Reg'; font-size:14px;">laoreet dolore magna aliquam erat volutpat. Ut wisi enim ad minim veniam, quis nostrud exerci tation </text>
	<text transform="matrix(1 0 0 1 -28.911 -533.7379)" style="font-family:'MrsEavesXLSerifOT-Reg'; font-size:14px;">ullamcorper suscipit lobortis nisl ut aliquip ex ea commodo consequat. Duis autem vel eum iriure dolor in </text>
	<text transform="matrix(1 0 0 1 -28.911 -516.9379)" style="font-family:'MrsEavesXLSerifOT-Reg'; font-size:14px;">hendrerit in vulputate velit esse molestie consequat, vel illum dolore eu feugiat nulla facilisis at vero eros et </text>
	<text transform="matrix(1 0 0 1 -28.911 -500.1379)" style="font-family:'MrsEavesXLSerifOT-Reg'; font-size:14px;">accumsan et iusto odio </text>
	<text transform="matrix(1 0 0 1 110.489 -500.1379)" style="fill:#98C73A; font-family:'MrsEavesXLSerifOT-Reg'; font-size:14px;">hier ein Textlink</text>
	<text transform="matrix(1 0 0 1 209.389 -500.1379)" style="font-family:'MrsEavesXLSerifOT-Reg'; font-size:14px;"> praesent luptatum zzril delenit augue duis dolore te feugait nulla </text>
	<text transform="matrix(1 0 0 1 -28.911 -483.338)" style="font-family:'MrsEavesXLSerifOT-Reg'; font-size:14px;">facilisi.</text>
	<text transform="matrix(1 0 0 1 -28.911 -449.7379)" style="font-family:'MrsEavesXLSerifOT-Reg'; font-size:14px;">Lorem ipsum dolor sit amet, cons ectetuer adipiscing elit, sed diam nonummy nibh euismod tincidunt ut </text>
	<text transform="matrix(1 0 0 1 -28.911 -432.9379)" style="font-family:'MrsEavesXLSerifOT-Reg'; font-size:14px;">laoreet dolore magna aliquam erat volutpat. Ut wisi enim ad minim veniam, quis nostrud exerci tation </text>
	<text transform="matrix(1 0 0 1 -28.911 -416.1379)" style="font-family:'MrsEavesXLSerifOT-Reg'; font-size:14px;">ullamcorper suscipit lobortis nisl ut aliquip ex ea commodo consequat.</text>
	<text transform="matrix(1 0 0 1 -28.911 -399.3379)" style="font-family:'MrsEavesXLSerifOT-Reg'; font-size:14px;">Lorem ipsum dolor sit amet, consectetuer adipiscing elit, sed diam nonummy nibh euismod tincidunt ut </text>
	<text transform="matrix(1 0 0 1 -28.911 -382.538)" style="font-family:'MrsEavesXLSerifOT-Reg'; font-size:14px;">laoreet dolore magna aliquam erat volutpat. Ut wisi enim ad minim veniam, quis nostrud exerci tation </text>
	<text transform="matrix(1 0 0 1 -28.911 -365.7379)" style="font-family:'MrsEavesXLSerifOT-Reg'; font-size:14px;">ullamcorper suscipit lobortis nisl ut aliquip ex ea commodo consequat. Duis autem vel eum iriure dolor in </text>
	<text transform="matrix(1 0 0 1 -28.911 -348.9379)" style="font-family:'MrsEavesXLSerifOT-Reg'; font-size:14px;">hendrerit in vulputate velit esse molestie consequat, vel illum dolore eu feugiat nulla facilisis at vero eros et </text>
	<text transform="matrix(1 0 0 1 -28.911 -332.1379)" style="font-family:'MrsEavesXLSerifOT-Reg'; font-size:14px;">accumsan et iusto odio dignissim qui blandit praesent luptatum zzril delenit augue duis dolore te feugait </text>
	<text transform="matrix(1 0 0 1 -28.911 -315.3379)" style="font-family:'MrsEavesXLSerifOT-Reg'; font-size:14px;">nulla facilisi.</text>
	<text transform="matrix(1 0 0 1 -28.911 -281.7379)" style="font-family:'MrsEavesXLSerifOT-Reg'; font-size:14px;">Lorem ipsum dolor sit amet, cons ectetuer adipiscing elit, sed diam nonummy nibh euismod tincidunt ut </text>
	<text transform="matrix(1 0 0 1 -28.911 -264.9379)" style="font-family:'MrsEavesXLSerifOT-Reg'; font-size:14px;">laoreet dolore magna aliquam erat volut</text>
	<g>
		
			<text transform="matrix(1 0 0 1 -32.7505 -751.0117)" style="fill:#435C1D; font-family:'FranklinGothicLTPro-CnMd'; font-size:36px;">Heading 1: Franklin Gothic 36px </text>
	</g>
	<g>
		
			<text transform="matrix(1 0 0 1 -32.8345 -697.2933)" style="fill:#435C1D; font-family:'FranklinGothicLTPro-CnMd'; font-size:30px;">Heading 2: Franklin Gothic 30px </text>
	</g>
	<g>
		
			<text transform="matrix(1 0 0 1 -30.4468 -652.6301)" style="fill:#435C1D; font-family:'FranklinGothicLTPro-CnMd'; font-size:24px;">Heading 3: Franklin Gothic 24px </text>
	</g>
	
		<image style="overflow:visible;enable-background:new    ;" width="2480" height="1040" xlink:href="../../../../../../../Downloads/Kuri komplementär.jpeg"  transform="matrix(9.354889e-02 0 0 9.354889e-02 523.3299 -1668.1511)">
	</image>
	<g>
		<rect x="24.3" y="735.3" class="st6" width="651.4" height="317.6"/>
		<text transform="matrix(1 0 0 1 24.2469 744.5978)" style="font-family:'NimbusSan-Lig'; font-size:14px;">Fliesstext Nimbus Sans Linght 14px.</text>
		<text transform="matrix(1 0 0 1 24.2469 778.1978)" style="font-family:'NimbusSan-Lig'; font-size:14px;">Lorem ipsum dolor sit amet, consectetuer adipiscing elit, sed diam nonummy nibh euismod tincidunt ut laoreet </text>
		<text transform="matrix(1 0 0 1 24.2469 794.9978)" style="font-family:'NimbusSan-Lig'; font-size:14px;">dolore magna aliquam erat volutpat. Ut wisi enim ad minim veniam, quis nostrud exerci tation ullamcorper </text>
		<text transform="matrix(1 0 0 1 24.2469 811.7978)" style="font-family:'NimbusSan-Lig'; font-size:14px;">suscipit lobortis nisl ut aliquip ex ea commodo consequat. Duis autem vel eum iriure dolor in hendrerit in </text>
		<text transform="matrix(1 0 0 1 24.2469 828.5978)" style="font-family:'NimbusSan-Lig'; font-size:14px;">vulputate velit esse molestie consequat, vel illum dolore eu feugiat nulla facilisis at vero eros et accumsan et </text>
		<text transform="matrix(1 0 0 1 24.2469 845.3978)" style="font-family:'NimbusSan-Lig'; font-size:14px;">iusto odio </text>
		<text transform="matrix(1 0 0 1 86.047 845.3978)" style="fill:#98C73A; font-family:'NimbusSan-Lig'; font-size:14px;">hier ein Textlink</text>
		<text transform="matrix(1 0 0 1 177.3469 845.3978)" style="font-family:'NimbusSan-Lig'; font-size:14px;"> praesent luptatum zzril delenit augue duis dolore te feugait nulla facilisi.</text>
		<text transform="matrix(1 0 0 1 24.2469 878.9978)" style="font-family:'NimbusSan-Lig'; font-size:14px;">Lorem ipsum dolor sit amet, cons ectetuer adipiscing elit, sed diam nonummy nibh euismod tincidunt ut </text>
		<text transform="matrix(1 0 0 1 24.2469 895.7978)" style="font-family:'NimbusSan-Lig'; font-size:14px;">laoreet dolore magna aliquam erat volutpat. Ut wisi enim ad minim veniam, quis nostrud exerci tation ullamcor</text>
		<text transform="matrix(1 0 0 1 670.2469 895.7978)" style="font-family:'NimbusSan-Lig'; font-size:14px;">-</text>
		<text transform="matrix(1 0 0 1 24.2469 912.5978)" style="font-family:'NimbusSan-Lig'; font-size:14px;">per suscipit lobortis nisl ut aliquip ex ea commodo consequat.</text>
		<text transform="matrix(1 0 0 1 24.2469 929.3978)" style="font-family:'NimbusSan-Lig'; font-size:14px;">Lorem ipsum dolor sit amet, consectetuer adipiscing elit, sed diam nonummy nibh euismod tincidunt ut laoreet </text>
		<text transform="matrix(1 0 0 1 24.2469 946.1978)" style="font-family:'NimbusSan-Lig'; font-size:14px;">dolore magna aliquam erat volutpat. Ut wisi enim ad minim veniam, quis nostrud exerci tation ullamcorper </text>
		<text transform="matrix(1 0 0 1 24.2469 962.9978)" style="font-family:'NimbusSan-Lig'; font-size:14px;">suscipit lobortis nisl ut aliquip ex ea commodo consequat. Duis autem vel eum iriure dolor in hendrerit in </text>
		<text transform="matrix(1 0 0 1 24.2469 979.7978)" style="font-family:'NimbusSan-Lig'; font-size:14px;">vulputate velit esse molestie consequat, vel illum dolore eu feugiat nulla facilisis at vero eros et accumsan et </text>
		<text transform="matrix(1 0 0 1 24.2469 996.5978)" style="font-family:'NimbusSan-Lig'; font-size:14px;">iusto odio dignissim qui blandit praesent luptatum zzril delenit augue duis dolore te feugait nulla facilisi.</text>
		<text transform="matrix(1 0 0 1 24.2469 1030.1978)" style="font-family:'NimbusSan-Lig'; font-size:14px;">Lorem ipsum dolor sit amet, cons ectetuer adipiscing elit, sed diam nonummy nibh euismod tincidunt ut </text>
		<text transform="matrix(1 0 0 1 24.2469 1046.9978)" style="font-family:'NimbusSan-Lig'; font-size:14px;">laoreet dolore magna aliquam erat volut</text>
		<g>
			<text transform="matrix(1 0 0 1 20.4075 593.9214)" class="st11" style="font-family:'LookScript-Reg'; font-size:36px;">Heading 1: Look Script 36px </text>
		</g>
		<g>
			<text transform="matrix(1 0 0 1 20.3235 647.6398)" style="fill:#435C1D; font-family:'LookScript-Reg'; font-size:30px;">Heading 2: Look Script 30px </text>
		</g>
		<g>
			<text transform="matrix(1 0 0 1 22.7112 692.3031)" style="fill:#435C1D; font-family:'LookScript-Reg'; font-size:24px;">Heading 3: Look Script 24px </text>
		</g>
	</g>
	<g>
		<g>
			
				<image style="overflow:visible;enable-background:new    ;" width="196" height="194" xlink:href="E261AE8B.png"  transform="matrix(0.6478 0 0 0.6478 2624.4441 17.988)">
			</image>
		</g>
	</g>
	<path class="st5" d="M1063.3,686.5c6.9,7.5,33.2-4.8,49.5-17.8c15.5-12.4,33.3-34.5,27.7-42.9c-5.5-8.4-33.9-2.9-52.8,11.9
		C1068.6,652.6,1056.5,679.1,1063.3,686.5z"/>
	<path class="st5" d="M227.7,204.7"/>
	<path class="st5" d="M1490.6,103.1c2.8,6.8,23.7,5.1,38,0.4c13.6-4.5,26.7-11.7,29.6-22.1c-8.6-5.7-22.2-10.5-38.8-5.3
		C1502.8,81.4,1487.8,96.4,1490.6,103.1z"/>
	<path class="st5" d="M1497.6,47.8c2.8,6.8,23.7,5.1,38,0.4c13.6-4.5,28-15,29.6-22.1c-4.6-4.6-22.2-10.5-38.8-5.3
		C1509.8,26.1,1494.8,41.1,1497.6,47.8z"/>
	<path class="st5" d="M137.9,264c6.9,2.1,20.9-0.1,32.1-6.7c10.6-6.3,23.5-18.4,20.8-24s-20.7-4.7-33.6,2.7
		C144.1,243.5,137.2,258,137.9,264z"/>
	<path class="st5" d="M82.4,264.1c7.7,1.4,20.9-0.1,32.1-6.7c10.6-6.3,23.5-18.4,20.8-24c-2.7-5.6-20.7-4.7-33.6,2.7
		C88.7,243.7,81.7,257.9,82.4,264.1z"/>
	<path class="st5" d="M33,264.7c8,0.5,20.9-0.1,32.1-6.7c10.6-6.3,23.5-18.4,20.8-24s-20.7-4.7-33.6,2.7
		C39.3,244.2,30.9,258.2,33,264.7z"/>
	<path class="st5" d="M28.1,189.1c6.9,12.1,14.8,14.7,27.4,17.9c12,3.1,29.6,3.6,31.7-2.3s-11.3-17.9-25.7-21.8
		C47,179,35.5,182.5,28.1,189.1z"/>
	<path class="st5" d="M75.5,167.8c5.7,10.2,14.8,14.7,27.4,17.9c12,3.1,29.6,3.6,31.7-2.3c2.1-5.9-11.3-17.9-25.7-21.8
		C94.3,157.8,76.6,161.7,75.5,167.8z"/>
	<path class="st5" d="M15,124.9c5.4,6.4,19.5,7.6,32.3,5.6c12.2-1.9,28.6-8.4,28.2-14.7c-0.4-6.2-17.5-12-32.2-9.8
		C28.3,108.2,15.8,118.5,15,124.9z"/>
	<path class="st5" d="M92.9,104.8c6.2,1.5,15.5-14,19.5-26.3c3.7-11.8,3.3-24.6-0.5-31.8c-5.7-2.4-18.5,10.2-23.2,24.4
		C83.9,85.4,86.8,103.4,92.9,104.8z"/>
	<path class="st5" d="M126.4,122.7c6.7,1.8,16.4-15,20.2-28.5c3.7-12.9,3-28.1-1.5-35.2c-7.9,2-19.7,10.8-24.4,26.3
		C116.1,100.9,119.8,120.9,126.4,122.7z"/>
	<path class="st5" d="M199.5,136.8c5,0.1,10.1-13.4,11.5-23.5c1.3-9.7-0.9-19.8-4.6-24.3c-4.1,1.5-13,11-14.7,22.7
		C189.9,123.4,194.6,136.7,199.5,136.8z"/>
	<path class="st5" d="M180.5,136.8c3.8-3.2-1.2-16.7-6.9-25.3c-5.4-8.1-13.7-14.3-19.5-15.2c-2,3.8-2.5,16.8,3.9,26.7
		C164.6,133.1,176.8,140,180.5,136.8z"/>
	<path class="st5" d="M211.8,63.8c4.8,1,12.4-11,15.7-20.6c3.1-9.1,3-20.1,0.2-24.4C224,20.7,213,27,209.1,37.9
		C205.2,49,207.1,62.8,211.8,63.8z"/>
	<path class="st5" d="M265.2,11.2c5.3,12.2,6.7,15.1,14.8,21.2c7.7,5.7,20.2,11.3,23.2,7.6c3-3.7-3.3-16.5-12.6-23.5
		C281.3,9.3,273.4,9.1,265.2,11.2z"/>
	<path class="st5" d="M245.5,54.1c7.3,10.5,11.2,14.2,21.5,18.4c9.8,4,24.6,6.4,26.9,1.6c2.2-4.8-8-16.6-19.8-21.5
		C262.2,47.6,249.8,49.5,245.5,54.1z"/>
	<path class="st5" d="M245.5,89.9c-0.4,7.5,6.9,15.1,15,21c7.8,5.7,20.3,11.1,23.3,7.3c3-3.7-3.5-16.4-12.8-23.4
		C261.6,87.8,252.9,87.7,245.5,89.9z"/>
	<path class="st5" d="M200.4,65.3c-3.2,3.7-16.5-1.1-25-6.7c-8-5.3-17.5-15.1-15-19.2c8.8-3.2,16.6-2.5,26.4,3.8
		C196.7,49.6,203.6,61.6,200.4,65.3z"/>
	<path class="st5" d="M1552.4,209c-2.5,5,9.3,14.5,19.5,19.1c9.7,4.4,22.6,5.3,28.3,3.1c0.7-8.2-5.4-16.6-17.1-22
		C1571.4,203.6,1554.9,204.1,1552.4,209z"/>
	<path class="st5" d="M1597.1,180.7c-4.1,3.7,3.5,16.9,11.3,24.9c7.5,7.6,18.3,12.3,25.3,13.1c3.7-9,0.9-17.4-8-26.7
		C1616.8,182.6,1601.2,177.1,1597.1,180.7z"/>
	<path class="st5" d="M1625.9,126.2c-0.9,5.5,13.3,10.9,24.4,12.2c10.6,1.2,19.5-0.8,27.9-5.7c-3.3-7-10.2-14.1-23-15.8
		C1642.3,115.4,1626.8,120.8,1625.9,126.2z"/>
	<path class="st5" d="M1660.3,168.9c2.1,3.9,13.6,0.5,21.2-3.9c7.3-4.3,11.9-9.8,14.9-16.9c-5.4-2.9-13.2-4-22,1
		C1665.5,154.2,1658.3,165,1660.3,168.9z"/>
	<path class="st5" d="M1568.6,78.7c3.5,4.3,17-2.5,25.5-9.8c8-7,17.3-19.6,14.6-24.5c-2.7-4.8-17.3-1.9-27.1,6.4
		C1571.7,59.2,1565.2,74.4,1568.6,78.7z"/>
	<path class="st5" d="M1580.5,113.2c3.5,4.3,17-2.5,25.5-9.8c8-7,17.3-19.6,14.6-24.5c-2.7-4.8-17.3-1.9-27.1,6.4
		C1583.5,93.7,1577.1,108.9,1580.5,113.2z"/>
	<path class="st5" d="M1497.9,175.1c3,4.7,17.2-0.6,26.4-7c8.8-6.1,16.2-12.8,17.2-22.7c-5.8-3-17-3.8-27.7,3.4
		C1503,156,1494.9,170.4,1497.9,175.1z"/>
	<path class="st5" d="M1664.9,193.5c-3.3,3.6,2,17.2,7.7,25.7c5.4,8,11.1,12.2,18.7,14.4c2.4-6.6,1.3-17.5-5.1-27.4
		C1679.7,196.4,1668.1,190,1664.9,193.5z"/>
	<g>
		
			<text transform="matrix(1 0 0 1 1503.7373 585.4125)" style="fill:#435C1D; font-family:'FranklinGothicLTPro-CnMd'; font-size:72px;">Kuri</text>
		
			<text transform="matrix(1 0 0 1 1249.4331 584.6397)" style="fill:#D2E7B5; font-family:'FranklinGothicLTPro-CnMd'; font-size:72px;">Christina</text>
	</g>
	<text transform="matrix(1 0 0 1 1164.01 618.7184)" style="fill:#20231C; font-family:'MrsEavesXLSerifOT-Reg'; font-size:24px;">Psychotherapeutin in Ausbildung unter Supervision</text>
	
		<text transform="matrix(1 0 0 1 1149.8101 647.5184)" style="fill:#20231C; font-family:'MrsEavesXLSerifOT-Reg'; font-size:24px;">tiefenpsychologisch fundierte Hypnosepsychotherapie</text>
	<rect x="2000.3" y="246.4" class="st6" width="651.4" height="459.6"/>
	<text transform="matrix(1 0 0 1 2000.2997 255.135)" style="font-family:'MrsEavesXLSerifOT-Reg'; font-size:14px;">Fliesstext Mrs Evans 14px.</text>
	<text transform="matrix(1 0 0 1 2000.2997 288.735)" style="font-family:'MrsEavesXLSerifOT-Reg'; font-size:14px;">Lorem ipsum dolor sit amet, consectetuer adipiscing elit, sed diam nonummy nibh euismod tincidunt ut </text>
	<text transform="matrix(1 0 0 1 2000.2997 305.535)" style="font-family:'MrsEavesXLSerifOT-Reg'; font-size:14px;">laoreet dolore magna aliquam erat volutpat. Ut wisi enim ad minim veniam, quis nostrud exerci tation </text>
	<text transform="matrix(1 0 0 1 2000.2997 322.335)" style="font-family:'MrsEavesXLSerifOT-Reg'; font-size:14px;">ullamcorper suscipit lobortis nisl ut aliquip ex ea commodo consequat. Duis autem vel eum iriure dolor in </text>
	<text transform="matrix(1 0 0 1 2000.2997 339.135)" style="font-family:'MrsEavesXLSerifOT-Reg'; font-size:14px;">hendrerit in vulputate velit esse molestie consequat, vel illum dolore eu feugiat nulla facilisis at vero eros et </text>
	<text transform="matrix(1 0 0 1 2000.2997 355.935)" style="font-family:'MrsEavesXLSerifOT-Reg'; font-size:14px;">accumsan et iusto odio </text>
	<text transform="matrix(1 0 0 1 2139.6997 355.935)" style="fill:#98C73A; font-family:'MrsEavesXLSerifOT-Reg'; font-size:14px;">hier ein Textlink</text>
	<text transform="matrix(1 0 0 1 2238.5996 355.935)" style="font-family:'MrsEavesXLSerifOT-Reg'; font-size:14px;"> praesent luptatum zzril delenit augue duis dolore te feugait nulla </text>
	<text transform="matrix(1 0 0 1 2000.2997 372.735)" style="font-family:'MrsEavesXLSerifOT-Reg'; font-size:14px;">facilisi.</text>
	<text transform="matrix(1 0 0 1 2000.2997 406.335)" style="font-family:'MrsEavesXLSerifOT-Reg'; font-size:14px;">Lorem ipsum dolor sit amet, cons ectetuer adipiscing elit, sed diam nonummy nibh euismod tincidunt ut </text>
	<text transform="matrix(1 0 0 1 2000.2997 423.135)" style="font-family:'MrsEavesXLSerifOT-Reg'; font-size:14px;">laoreet dolore magna aliquam erat volutpat. Ut wisi enim ad minim veniam, quis nostrud exerci tation </text>
	<text transform="matrix(1 0 0 1 2000.2997 439.935)" style="font-family:'MrsEavesXLSerifOT-Reg'; font-size:14px;">ullamcorper suscipit lobortis nisl ut aliquip ex ea commodo consequat.</text>
	<text transform="matrix(1 0 0 1 2000.2997 456.735)" style="font-family:'MrsEavesXLSerifOT-Reg'; font-size:14px;">Lorem ipsum dolor sit amet, consectetuer adipiscing elit, sed diam nonummy nibh euismod tincidunt ut </text>
	<text transform="matrix(1 0 0 1 2000.2997 473.535)" style="font-family:'MrsEavesXLSerifOT-Reg'; font-size:14px;">laoreet dolore magna aliquam erat volutpat. Ut wisi enim ad minim veniam, quis nostrud exerci tation </text>
	<text transform="matrix(1 0 0 1 2000.2997 490.335)" style="font-family:'MrsEavesXLSerifOT-Reg'; font-size:14px;">ullamcorper suscipit lobortis nisl ut aliquip ex ea commodo consequat. Duis autem vel eum iriure dolor in </text>
	<text transform="matrix(1 0 0 1 2000.2997 507.135)" style="font-family:'MrsEavesXLSerifOT-Reg'; font-size:14px;">hendrerit in vulputate velit esse molestie consequat, vel illum dolore eu feugiat nulla facilisis at vero eros et </text>
	<text transform="matrix(1 0 0 1 2000.2997 523.935)" style="font-family:'MrsEavesXLSerifOT-Reg'; font-size:14px;">accumsan et iusto odio dignissim qui blandit praesent luptatum zzril delenit augue duis dolore te feugait </text>
	<text transform="matrix(1 0 0 1 2000.2997 540.735)" style="font-family:'MrsEavesXLSerifOT-Reg'; font-size:14px;">nulla facilisi.</text>
	<text transform="matrix(1 0 0 1 2000.2997 574.335)" style="font-family:'MrsEavesXLSerifOT-Reg'; font-size:14px;">Lorem ipsum dolor sit amet, cons ectetuer adipiscing elit, sed diam nonummy nibh euismod tincidunt ut </text>
	<text transform="matrix(1 0 0 1 2000.2997 591.135)" style="font-family:'MrsEavesXLSerifOT-Reg'; font-size:14px;">laoreet dolore magna aliquam erat volut</text>
	<g>
		
			<text transform="matrix(1 0 0 1 1996.4604 105.0611)" style="fill:#435C1D; font-family:'FranklinGothicLTPro-CnMd'; font-size:36px;">Heading 1: Franklin Gothic 36px </text>
	</g>
	<g>
		
			<text transform="matrix(1 0 0 1 1996.3765 158.7794)" style="fill:#435C1D; font-family:'FranklinGothicLTPro-CnMd'; font-size:30px;">Heading 2: Franklin Gothic 30px </text>
	</g>
	<g>
		
			<text transform="matrix(1 0 0 1 1998.7639 203.4427)" style="fill:#435C1D; font-family:'FranklinGothicLTPro-CnMd'; font-size:24px;">Heading 3: Franklin Gothic 24px </text>
	</g>
	
		<image style="overflow:visible;enable-background:new    ;" width="2480" height="1040" xlink:href="../../../../../../../Downloads/Kuri komplementär.jpeg"  transform="matrix(9.354889e-02 0 0 9.354889e-02 530.3299 -181.2011)">
	</image>
	
		<image style="overflow:visible;enable-background:new    ;" width="2480" height="1040" xlink:href="../../../../../../../Downloads/Kuri komplementär.jpeg"  transform="matrix(9.354889e-02 0 0 9.354889e-02 523.3299 -835.2745)">
	</image>
	<g>
		<path class="st7" d="M-720.1-600.9c39,5.1,78.9,22,76.5,50.3c-2.3,27.2-50.6,44.7-89.7,42.1c-81.2-5.4-139.3-98.5-134.5-102.8
			c2.1-1.9,15.5,13.9,38.5,15c19,1,32.6,13.4,57.2,6.7C-770.2-590.1-744.2-604-720.1-600.9z"/>
		<path class="st8" d="M-535.1-697.3c-3-0.4-2.8,19.1-20.4,31.8c-14.5,10.5-16.9,27.5-41.2,34.7c-1.8,0.5-32.3,2.7-49.5,17.7
			c-6,5.2-11.7,10.9-16.7,16.9c-5-5.9-10.6-11.7-16.7-16.9c-17.2-14.9-47.6-17.1-49.5-17.7c-24.4-7.2-26.7-24.2-41.2-34.7
			c-17.6-12.7-17.4-32.3-20.4-31.8c-6.9,0.9-25,105.5,36.4,151.5c25.7,19.2,67.3,29.8,91.5,18.9c24.1,10.9,65.8,0.3,91.5-18.9
			C-510-591.8-528.2-696.3-535.1-697.3z"/>
		<g>
			<path class="st9" d="M-679.6-616.5c6,5.2,11.7,10.9,16.7,16.9c5-5.9,10.6-11.7,16.7-16.9c7.1-6.2,16.4-10.1,25.1-12.7
				c-10.3-10-25.3-16.4-42.1-16.4c-16.7,0-31.7,6.3-42,16.2C-696.4-626.8-686.8-622.7-679.6-616.5z"/>
		</g>
		<path class="st7" d="M-605.8-600.9c-39,5.1-78.9,22-76.5,50.3c2.3,27.2,50.6,44.7,89.7,42.1c81.2-5.4,139.3-98.5,134.5-102.8
			c-2.1-1.9-15.5,13.9-38.5,15c-19,1-32.6,13.4-57.2,6.7C-555.7-590.1-581.6-604-605.8-600.9z"/>
	</g>
	<rect x="-24.9" y="-1415" class="st6" width="651.4" height="459.6"/>
	<text transform="matrix(1 0 0 1 -24.9037 -1404.262)" style="font-family:'NeusaNextStd-Regular'; font-size:14px;">Fliesstext Neusa Next 14px.</text>
	<text transform="matrix(1 0 0 1 -24.9037 -1370.662)" style="font-family:'NeusaNextStd-Regular'; font-size:14px;">Lorem ipsum dolor sit amet, consectetuer adipiscing elit, sed diam nonummy nibh euismod tincidunt ut </text>
	<text transform="matrix(1 0 0 1 -24.9037 -1353.8619)" style="font-family:'NeusaNextStd-Regular'; font-size:14px;">laoreet dolore magna aliquam erat volutpat. Ut wisi enim ad minim veniam, quis nostrud exerci tation </text>
	<text transform="matrix(1 0 0 1 -24.9037 -1337.062)" style="font-family:'NeusaNextStd-Regular'; font-size:14px;">ullamcorper suscipit lobortis nisl ut aliquip ex ea commodo consequat. Duis autem vel eum iriure dolor in </text>
	<text transform="matrix(1 0 0 1 -24.9037 -1320.262)" style="font-family:'NeusaNextStd-Regular'; font-size:14px;">hendrerit in vulputate velit esse molestie consequat, vel illum dolore eu feugiat nulla facilisis at vero eros </text>
	<text transform="matrix(1 0 0 1 -24.9037 -1303.4619)" style="font-family:'NeusaNextStd-Regular'; font-size:14px;">et accumsan et iusto odio </text>
	
		<text transform="matrix(1 0 0 1 136.8963 -1303.4619)" style="fill:#98C73A; font-family:'NeusaNextStd-Regular'; font-size:14px;">hier ein Textlink</text>
	<text transform="matrix(1 0 0 1 234.2963 -1303.4619)" style="font-family:'NeusaNextStd-Regular'; font-size:14px;"> praesent luptatum zzril delenit augue duis dolore te feugait </text>
	<text transform="matrix(1 0 0 1 -24.9037 -1286.662)" style="font-family:'NeusaNextStd-Regular'; font-size:14px;">nulla facilisi.</text>
	<text transform="matrix(1 0 0 1 -24.9037 -1253.062)" style="font-family:'NeusaNextStd-Regular'; font-size:14px;">Lorem ipsum dolor sit amet, cons ectetuer adipiscing elit, sed diam nonummy nibh euismod tincidunt ut </text>
	<text transform="matrix(1 0 0 1 -24.9037 -1236.262)" style="font-family:'NeusaNextStd-Regular'; font-size:14px;">laoreet dolore magna aliquam erat volutpat. Ut wisi enim ad minim veniam, quis nostrud exerci tation </text>
	<text transform="matrix(1 0 0 1 -24.9037 -1219.4619)" style="font-family:'NeusaNextStd-Regular'; font-size:14px;">ullamcorper suscipit lobortis nisl ut aliquip ex ea commodo consequat.</text>
	<text transform="matrix(1 0 0 1 -24.9037 -1202.662)" style="font-family:'NeusaNextStd-Regular'; font-size:14px;">Lorem ipsum dolor sit amet, consectetuer adipiscing elit, sed diam nonummy nibh euismod tincidunt ut </text>
	<text transform="matrix(1 0 0 1 -24.9037 -1185.8619)" style="font-family:'NeusaNextStd-Regular'; font-size:14px;">laoreet dolore magna aliquam erat volutpat. Ut wisi enim ad minim veniam, quis nostrud exerci tation </text>
	<text transform="matrix(1 0 0 1 -24.9037 -1169.062)" style="font-family:'NeusaNextStd-Regular'; font-size:14px;">ullamcorper suscipit lobortis nisl ut aliquip ex ea commodo consequat. Duis autem vel eum iriure dolor in </text>
	<text transform="matrix(1 0 0 1 -24.9037 -1152.262)" style="font-family:'NeusaNextStd-Regular'; font-size:14px;">hendrerit in vulputate velit esse molestie consequat, vel illum dolore eu feugiat nulla facilisis at vero eros </text>
	<text transform="matrix(1 0 0 1 -24.9037 -1135.4619)" style="font-family:'NeusaNextStd-Regular'; font-size:14px;">et accumsan et iusto odio dignissim qui blandit praesent luptatum zzril delenit augue duis dolore te feu</text>
	<text transform="matrix(1 0 0 1 605.8963 -1135.4619)" style="font-family:'NeusaNextStd-Regular'; font-size:14px;">-</text>
	<text transform="matrix(1 0 0 1 -24.9037 -1118.662)" style="font-family:'NeusaNextStd-Regular'; font-size:14px;">gait nulla facilisi.</text>
	<text transform="matrix(1 0 0 1 -24.9037 -1085.062)" style="font-family:'NeusaNextStd-Regular'; font-size:14px;">Lorem ipsum dolor sit amet, cons ectetuer adipiscing elit, sed diam nonummy nibh euismod tincidunt ut </text>
	<text transform="matrix(1 0 0 1 -24.9037 -1068.262)" style="font-family:'NeusaNextStd-Regular'; font-size:14px;">laoreet dolore magna aliquam erat volut</text>
	<g>
		
			<text transform="matrix(1 0 0 1 -28.7435 -1556.3796)" style="fill:#435C1D; font-family:'DomusTitlingSemibold'; font-size:36px;">Heading 1: Domus Titling 36px </text>
	</g>
	<g>
		
			<text transform="matrix(1 0 0 1 -28.8275 -1502.6613)" style="fill:#435C1D; font-family:'DomusTitlingSemibold'; font-size:30px;">Heading 2: Domus Titling 30px </text>
	</g>
	<g>
		
			<text transform="matrix(1 0 0 1 -26.4398 -1457.9979)" style="fill:#435C1D; font-family:'DomusTitlingSemibold'; font-size:24px;">Heading 3: Domus Titling  24px </text>
	</g>
	
		<image style="overflow:visible;enable-background:new    ;" width="2480" height="1040" xlink:href="../../../../../../../Downloads/Kuri komplementär.jpeg"  transform="matrix(9.354889e-02 0 0 9.354889e-02 2552.541 -835.2745)">
	</image>
	<g>
		<rect x="2000.3" y="-1365.3" class="st6" width="651.4" height="317.6"/>
		<text transform="matrix(1 0 0 1 2000.3005 -1356.864)" style="font-family:'MrEavesXLModOT-Book'; font-size:14px;">Fliesstext Mr Evans 14px.</text>
		<text transform="matrix(1 0 0 1 2000.3005 -1323.264)" style="font-family:'MrEavesXLModOT-Book'; font-size:14px;">Lorem ipsum dolor sit amet, consectetuer adipiscing elit, sed diam nonummy nibh euismod tincidunt ut laoreet dolore </text>
		<text transform="matrix(1 0 0 1 2000.3005 -1306.464)" style="font-family:'MrEavesXLModOT-Book'; font-size:14px;">magna aliquam erat volutpat. Ut wisi enim ad minim veniam, quis nostrud exerci tation ullamcorper suscipit lobortis nisl </text>
		<text transform="matrix(1 0 0 1 2000.3005 -1289.6641)" style="font-family:'MrEavesXLModOT-Book'; font-size:14px;">ut aliquip ex ea commodo consequat. Duis autem vel eum iriure dolor in hendrerit in vulputate velit esse molestie conse</text>
		<text transform="matrix(1 0 0 1 2643.1006 -1289.6641)" style="font-family:'MrEavesXLModOT-Book'; font-size:14px;">-</text>
		<text transform="matrix(1 0 0 1 2000.3005 -1272.864)" style="font-family:'MrEavesXLModOT-Book'; font-size:14px;">quat, vel illum dolore eu feugiat nulla facilisis at vero eros et accumsan et iusto odio </text>
		
			<text transform="matrix(1 0 0 1 2453.3005 -1272.864)" style="fill:#98C73A; font-family:'MrEavesXLModOT-Book'; font-size:14px;">hier ein Textlink</text>
		<text transform="matrix(1 0 0 1 2536.2004 -1272.864)" style="font-family:'MrEavesXLModOT-Book'; font-size:14px;"> praesent luptatum </text>
		<text transform="matrix(1 0 0 1 2000.3005 -1256.064)" style="font-family:'MrEavesXLModOT-Book'; font-size:14px;">zzril delenit augue duis dolore te feugait nulla facilisi.</text>
		<text transform="matrix(1 0 0 1 2000.3005 -1222.464)" style="font-family:'MrEavesXLModOT-Book'; font-size:14px;">Lorem ipsum dolor sit amet, cons ectetuer adipiscing elit, sed diam nonummy nibh euismod tincidunt ut laoreet dolore </text>
		<text transform="matrix(1 0 0 1 2000.3005 -1205.6641)" style="font-family:'MrEavesXLModOT-Book'; font-size:14px;">magna aliquam erat volutpat. Ut wisi enim ad minim veniam, quis nostrud exerci tation ullamcorper suscipit lobortis nisl </text>
		<text transform="matrix(1 0 0 1 2000.3005 -1188.864)" style="font-family:'MrEavesXLModOT-Book'; font-size:14px;">ut aliquip ex ea commodo consequat.</text>
		<text transform="matrix(1 0 0 1 2000.3005 -1172.064)" style="font-family:'MrEavesXLModOT-Book'; font-size:14px;">Lorem ipsum dolor sit amet, consectetuer adipiscing elit, sed diam nonummy nibh euismod tincidunt ut laoreet dolore </text>
		<text transform="matrix(1 0 0 1 2000.3005 -1155.264)" style="font-family:'MrEavesXLModOT-Book'; font-size:14px;">magna aliquam erat volutpat. Ut wisi enim ad minim veniam, quis nostrud exerci tation ullamcorper suscipit lobortis nisl </text>
		<text transform="matrix(1 0 0 1 2000.3005 -1138.464)" style="font-family:'MrEavesXLModOT-Book'; font-size:14px;">ut aliquip ex ea commodo consequat. Duis autem vel eum iriure dolor in hendrerit in vulputate velit esse molestie conse</text>
		<text transform="matrix(1 0 0 1 2643.1006 -1138.464)" style="font-family:'MrEavesXLModOT-Book'; font-size:14px;">-</text>
		<text transform="matrix(1 0 0 1 2000.3005 -1121.6641)" style="font-family:'MrEavesXLModOT-Book'; font-size:14px;">quat, vel illum dolore eu feugiat nulla facilisis at vero eros et accumsan et iusto odio dignissim qui blandit praesent </text>
		<text transform="matrix(1 0 0 1 2000.3005 -1104.864)" style="font-family:'MrEavesXLModOT-Book'; font-size:14px;">luptatum zzril delenit augue duis dolore te feugait nulla facilisi.</text>
		<text transform="matrix(1 0 0 1 2000.3005 -1071.264)" style="font-family:'MrEavesXLModOT-Book'; font-size:14px;">Lorem ipsum dolor sit amet, cons ectetuer adipiscing elit, sed diam nonummy nibh euismod tincidunt ut laoreet dolore </text>
		<text transform="matrix(1 0 0 1 2000.3005 -1054.464)" style="font-family:'MrEavesXLModOT-Book'; font-size:14px;">magna aliquam erat volut</text>
		<g>
			<text transform="matrix(1 0 0 1 1996.4609 -1506.6023)" class="st11" style="font-family:'Parkside-Bold'; font-size:36px;">Heading 1: Franklin Gothic 36px </text>
		</g>
		<g>
			<text transform="matrix(1 0 0 1 1996.377 -1452.8839)" style="fill:#435C1D; font-family:'Parkside-Bold'; font-size:30px;">Heading 2: Franklin Gothic 30px </text>
		</g>
		<g>
			<text transform="matrix(1 0 0 1 1998.7645 -1408.2207)" style="fill:#435C1D; font-family:'Parkside-Bold'; font-size:24px;">Heading 3: Franklin Gothic 24px </text>
		</g>
	</g>
	<g>
		<g>
			<path class="st9" d="M1349.9-1477.2c19.7-2.6,40.3-0.2,58.6,7.8c20.7,8.9,38.2,25.1,46.9,46.4c16.8,41.5-2.4,89.5-33.7,118.8
				c-46.1,44.5-138.1,44.8-170-16.5c-9.7-18.9-12.9-40.6-9.9-61.5c6.2-45,42-75.6,87.5-74.5c21.2,0.3,42.2,5.5,60.7,15.9
				c38.4,20.9,51.6,57.9,26.2,95.5c-17,24.4-46.1,41.8-76.2,41.9c-32.2-0.3-63.1-15.8-73.4-48c-10.4-30.9,0.1-68.2,31.5-82
				c25.1-11.5,58.4-6,74.8,17.3c10.6,15.1,14.4,35.7,6.9,52.9c-7.3,16.8-24.6,27.2-42.3,28.5c-11.7,0.9-24.3-2.5-32.7-11.1
				c-22.2-23-13.9-71.7,25.3-58.8c3.3,1.1,6.5,2.4,9.5,4.2l-0.9,1.8c-6.1-2.4-12.8-3.8-19-3.5c-21.9,0.9-22.1,27.5-12.8,41.9
				c6,10.1,17.8,14.3,29.2,12.5c13-1.8,25.7-10.6,29.4-23.3c3.3-11.3-0.1-23.8-6.8-33.2c-4.7-6.6-11.7-11-19.6-13.3
				c-21.2-5.9-46.2,4.4-52.6,26.4c-6.6,20.7,0.7,47.2,20.3,58.5c10.7,6.5,24.1,9.4,36.7,9.4c16.8-0.7,33-8,45.8-18.9
				c9.1-7.7,16.7-17.5,20.8-28.7c12.2-32.1-16.1-56.3-43.5-68.3c-29.2-12.2-66.6-14.2-92,7.4c-25.6,21-32.9,58.5-22.7,89.1
				c12.4,39.5,50.3,56.9,89.7,53.6c18.7-1.5,37.2-7.1,53.2-16.9c36.3-23,62.7-71.8,47.2-114.2c-1.1-2.8-2.4-5.8-3.9-8.4
				c-1.2-1.9-2.3-4.2-3.6-6c-4.2-6.5-9.9-12.3-15.9-17.4c-2.9-2.4-6.6-4.9-9.8-7c-1.5-0.9-3.7-2.1-5.2-3c-3.8-1.9-8.2-4-12.2-5.5
				c-13.1-4.9-27.1-7.2-41.3-7.5C1350-1475.2,1349.9-1477.2,1349.9-1477.2L1349.9-1477.2z"/>
		</g>
		<g>
			<path class="st10" d="M1349.9-1476.5c14.3-1.1,29,0.3,42.8,4.5c3.8,1.1,8.3,2.9,12,4.5c0.6,0.2,1.8,0.8,2.3,1.1
				c6.1,2.9,12.2,6.5,17.5,10.7c62.5,48.5,22.7,143.9-42.2,168.3c-51.9,20.7-119.2,5.1-135.2-54c-3.7-13.1-4.7-27-2.9-40.5
				c9.8-64.3,68.2-84.7,125-63.9c24.8,9.8,51.8,28.3,53.9,57.3c1,15-4.9,29.6-13.8,41.4c-16.3,21.3-41.9,36.1-69.1,36.1
				c-20.7-0.5-42.7-7.6-56-24.4c-13.1-16.7-16.7-40-10.3-60.1c4.3-13.5,14.5-25.2,27.5-31c22.2-10.4,52.5-5.7,66.7,15.5
				c7.9,11.6,11.5,26.6,7.9,40.3c-2.6,10.3-9.9,19.3-19,24.5c-12.1,7-27.5,9.1-40.4,3.2c-13-5.9-20-20.4-20.5-34.2
				c-0.5-21.2,13.5-32.3,33.9-26.4c3.3,0.9,6.5,2.1,9.5,3.6l-0.2,0.4c-6.1-2.8-12.7-4.5-19.4-4.5c-10.7-0.1-18.7,6.5-20.9,17
				c-3.3,15.6,3.7,34.7,18.8,41.4c18.6,8,43.1-1.2,51.9-19.3c5.4-10.9,4.4-24.1-0.4-35c-10.7-25.6-41.7-32.9-65.6-21.8
				c-37.7,17-35.1,76.4-0.7,95.7c12.6,7.4,27.7,10.6,42.3,10c18-1.2,35.3-9.3,48.8-21.1c19.5-16.7,33.2-45,19.9-69.5
				c-12.3-22.6-40.3-37-64.8-42.2c-33.8-7.4-68.8,0.2-89.2,30c-15.3,22.1-18.4,51.4-10.7,76.9c16.7,57.2,81.4,70.5,131.6,50.4
				c61-22.9,100.9-112.8,44.2-160.6c-5.6-4.8-12.1-9-18.7-12.4c-1.4-0.8-5.3-2.4-6.8-3.1c-3.1-1.2-6.3-2.4-9.5-3.3
				c-12.8-4-26.4-5.4-39.8-4.9L1349.9-1476.5L1349.9-1476.5z"/>
		</g>
		<text transform="matrix(1 0 0 1 1085.6079 -1171.6974)" style="font-family:'MrEavesXLModOT-Book'; font-size:24px;">Psychotherapeutin in Ausbildung unter Supervision</text>
		<text transform="matrix(1 0 0 1 1068.908 -1142.8973)" style="font-family:'MrEavesXLModOT-Book'; font-size:24px;">tiefenpsychologisch fundierte Hypnosepsychotherapie</text>
		<text transform="matrix(1 0 0 1 1112.7159 -1212.9144)" class="st11" style="font-family:'Parkside-Bold'; font-size:72px;">Christina Kuri</text>
	</g>
	
		<image style="overflow:visible;enable-background:new    ;" width="2480" height="1040" xlink:href="../../../../../../../Downloads/Kuri komplementär.jpeg"  transform="matrix(9.354889e-02 0 0 9.354889e-02 2552.541 -1668.1511)">
	</image>
	<rect x="2004.3" y="-582.2" class="st6" width="651.4" height="459.6"/>
	<text transform="matrix(1 0 0 1 2004.3076 -573.7647)" style="font-family:'MrEavesXLModOT-Book'; font-size:14px;">Fliesstext Mr Evans 14px.</text>
	<text transform="matrix(1 0 0 1 2004.3076 -540.1647)" style="font-family:'MrEavesXLModOT-Book'; font-size:14px;">Lorem ipsum dolor sit amet, consectetuer adipiscing elit, sed diam nonummy nibh euismod tincidunt ut laoreet dolore </text>
	<text transform="matrix(1 0 0 1 2004.3076 -523.3647)" style="font-family:'MrEavesXLModOT-Book'; font-size:14px;">magna aliquam erat volutpat. Ut wisi enim ad minim veniam, quis nostrud exerci tation ullamcorper suscipit lobortis nisl </text>
	<text transform="matrix(1 0 0 1 2004.3076 -506.5647)" style="font-family:'MrEavesXLModOT-Book'; font-size:14px;">ut aliquip ex ea commodo consequat. Duis autem vel eum iriure dolor in hendrerit in vulputate velit esse molestie conse</text>
	<text transform="matrix(1 0 0 1 2647.1077 -506.5647)" style="font-family:'MrEavesXLModOT-Book'; font-size:14px;">-</text>
	<text transform="matrix(1 0 0 1 2004.3076 -489.7647)" style="font-family:'MrEavesXLModOT-Book'; font-size:14px;">quat, vel illum dolore eu feugiat nulla facilisis at vero eros et accumsan et iusto odio </text>
	<text transform="matrix(1 0 0 1 2457.3076 -489.7647)" style="fill:#98C73A; font-family:'MrEavesXLModOT-Book'; font-size:14px;">hier ein Textlink</text>
	<text transform="matrix(1 0 0 1 2540.2078 -489.7647)" style="font-family:'MrEavesXLModOT-Book'; font-size:14px;"> praesent luptatum </text>
	<text transform="matrix(1 0 0 1 2004.3076 -472.9647)" style="font-family:'MrEavesXLModOT-Book'; font-size:14px;">zzril delenit augue duis dolore te feugait nulla facilisi.</text>
	<text transform="matrix(1 0 0 1 2004.3076 -439.3647)" style="font-family:'MrEavesXLModOT-Book'; font-size:14px;">Lorem ipsum dolor sit amet, cons ectetuer adipiscing elit, sed diam nonummy nibh euismod tincidunt ut laoreet dolore </text>
	<text transform="matrix(1 0 0 1 2004.3076 -422.5647)" style="font-family:'MrEavesXLModOT-Book'; font-size:14px;">magna aliquam erat volutpat. Ut wisi enim ad minim veniam, quis nostrud exerci tation ullamcorper suscipit lobortis nisl </text>
	<text transform="matrix(1 0 0 1 2004.3076 -405.7647)" style="font-family:'MrEavesXLModOT-Book'; font-size:14px;">ut aliquip ex ea commodo consequat.</text>
	<text transform="matrix(1 0 0 1 2004.3076 -388.9647)" style="font-family:'MrEavesXLModOT-Book'; font-size:14px;">Lorem ipsum dolor sit amet, consectetuer adipiscing elit, sed diam nonummy nibh euismod tincidunt ut laoreet dolore </text>
	<text transform="matrix(1 0 0 1 2004.3076 -372.1647)" style="font-family:'MrEavesXLModOT-Book'; font-size:14px;">magna aliquam erat volutpat. Ut wisi enim ad minim veniam, quis nostrud exerci tation ullamcorper suscipit lobortis nisl </text>
	<text transform="matrix(1 0 0 1 2004.3076 -355.3647)" style="font-family:'MrEavesXLModOT-Book'; font-size:14px;">ut aliquip ex ea commodo consequat. Duis autem vel eum iriure dolor in hendrerit in vulputate velit esse molestie conse</text>
	<text transform="matrix(1 0 0 1 2647.1077 -355.3647)" style="font-family:'MrEavesXLModOT-Book'; font-size:14px;">-</text>
	<text transform="matrix(1 0 0 1 2004.3076 -338.5647)" style="font-family:'MrEavesXLModOT-Book'; font-size:14px;">quat, vel illum dolore eu feugiat nulla facilisis at vero eros et accumsan et iusto odio dignissim qui blandit praesent </text>
	<text transform="matrix(1 0 0 1 2004.3076 -321.7647)" style="font-family:'MrEavesXLModOT-Book'; font-size:14px;">luptatum zzril delenit augue duis dolore te feugait nulla facilisi.</text>
	<text transform="matrix(1 0 0 1 2004.3076 -288.1647)" style="font-family:'MrEavesXLModOT-Book'; font-size:14px;">Lorem ipsum dolor sit amet, cons ectetuer adipiscing elit, sed diam nonummy nibh euismod tincidunt ut laoreet dolore </text>
	<text transform="matrix(1 0 0 1 2004.3076 -271.3647)" style="font-family:'MrEavesXLModOT-Book'; font-size:14px;">magna aliquam erat volut</text>
	<g>
		
			<text transform="matrix(1 0 0 1 2000.468 -723.5026)" style="fill:#435C1D; font-family:'MrsEavesXLSerifOT-Reg'; font-size:36px;">Heading 1: Mrs Evans LT Pro 36px </text>
	</g>
	<g>
		
			<text transform="matrix(1 0 0 1 2000.384 -669.7842)" style="fill:#435C1D; font-family:'MrsEavesXLSerifOT-Reg'; font-size:30px;">Heading 2: Mrs Evans LT Pro 30px </text>
	</g>
	<g>
		
			<text transform="matrix(1 0 0 1 2002.7717 -625.1209)" style="fill:#435C1D; font-family:'MrsEavesXLSerifOT-Reg'; font-size:24px;">Heading 3: Mrs Evans LT Pro  24px </text>
	</g>
	<g>
		<path class="st11" d="M-534.7-1441.1c-0.4-67.7-55.6-122.7-123.4-122.7c-68.1,0-123.4,55.4-123.4,123.4
			c0,68.1,55.4,123.4,123.4,123.4h73.3v-22h-73.3c-55.9,0-101.4-45.5-101.4-101.4s45.5-101.4,101.4-101.4s101.4,45.5,101.4,101.4
			v72.9h22V-1441.1L-534.7-1441.1z"/>
		<path class="st11" d="M-559.4-1440.9c-0.3-54.2-44.5-98.2-98.7-98.2c-54.4,0-98.7,44.3-98.7,98.7c0,54.4,44.3,98.7,98.7,98.7h73.4
			v-17.6h-73.4c-44.7,0-81.1-36.4-81.1-81.1s36.4-81.1,81.1-81.1s81.1,36.4,81.1,81.1v72.8h17.6V-1440.9L-559.4-1440.9z"/>
		
			<radialGradient id="SVGID_1_" cx="-636.2091" cy="2320.2627" r="77.931" fx="-581.1036" fy="2375.3682" gradientTransform="matrix(1 0 0 -1 0 902)" gradientUnits="userSpaceOnUse">
			<stop  offset="0" style="stop-color:#B0D959"/>
			<stop  offset="7.002669e-02" style="stop-color:#89AB42"/>
			<stop  offset="0.155" style="stop-color:#5F7929"/>
			<stop  offset="0.197" style="stop-color:#4E651F"/>
			<stop  offset="0.2275" style="stop-color:#465B1A"/>
			<stop  offset="0.2947" style="stop-color:#394C13"/>
			<stop  offset="0.3726" style="stop-color:#31430E"/>
			<stop  offset="0.4852" style="stop-color:#2F400D"/>
		</radialGradient>
		<path class="st12" d="M-658.1-1518.3c-43,0-77.9,34.9-77.9,77.9s34.9,77.9,77.9,77.9h77.9v-77.9
			C-580.2-1483.4-615.1-1518.3-658.1-1518.3z"/>
		<rect x="-579.9" y="-1338.9" class="st11" width="21.7" height="21.7"/>
		<rect x="-556.7" y="-1362.2" class="st11" width="21.7" height="21.7"/>
	</g>
	
		<text transform="matrix(1 0 0 1 -936.2218 -1235.5536)" class="st11" style="font-family:'DomusTitlingSemibold'; font-size:72px;">Christina Kuri</text>
	
		<text transform="matrix(1 0 0 1 -929.224 -1186.4094)" style="fill:#20231C; font-family:'NeusaNextStd-Regular'; font-size:24px;">Psychotherapeutin in Ausbildung unter Supervision</text>
	
		<text transform="matrix(1 0 0 1 -948.124 -1157.6094)" style="fill:#20231C; font-family:'NeusaNextStd-Regular'; font-size:24px;">tiefenpsychologisch fundierte Hypnosepsychotherapie</text>
	<path class="st11" d="M-1335.1,49.3"/>
	<g>
		<g>
			<path class="st11" d="M-541.5,285.9c-1-1-2.4-1.4-3.8-1.1c-3.7,0.7-7.3,1.4-11.2,2.1c-7.7,1.4-18.3,4.2-26.6,6.3l-2.2,7.3
				c8-2,22.5-5.3,30-6.7c2.4-0.4,4.8-0.9,7.2-1.3c-0.5,2.7-1,5.4-1.5,8c-5.6,30.6-10.9,59.6-51,99.7l-0.4,0.4
				c-40.1,40.1-69,45.4-99.7,51c-0.7,0.1-5.6,0.9-6.3,1l-1.7,7.7c2-0.4,7.2-1.4,9.2-1.8c30.4-5.6,61.7-11.3,103.4-53l0.4-0.4
				c41.6-41.6,47.4-73,53-103.4c0.7-3.9,1.5-8,2.3-12C-540.1,288.3-540.5,286.9-541.5,285.9z"/>
			<path class="st11" d="M-716.3,374c-0.1,0.2-0.3,0.4-0.4,0.6c-1.4-21.7-7.5-46.8-26.4-78.7l-0.3-0.5
				c-30.1-50.7-60.7-64.8-87.7-77.3c-3.6-1.6-6.9-3.2-10.3-4.8c-1.3-0.6-2.7-0.5-4,0.2c-1.2,0.7-2,2-2,3.4
				c-0.2,4.1-0.5,8.2-0.8,12.2c-2.1,30.8-4.3,62.6,25.7,113.3l0.3,0.5c30,50.6,59,64,87,76.9l8.3,3.4l-1.9-7.9l-3.4-1.8
				c-28.3-13.1-55-25.4-83.9-74.2l-0.3-0.5c-7.9-13.3-13.4-25.1-17.3-35.9c19.9,8,42.9,23.1,61.9,42.1l0.4,0.4
				c40.2,40.2,45.8,70.8,51.2,100.5c0.4,2.4,0.9,4.8,1.3,7.2c-2.7-0.5-5.4-1-8-1.5c-30.6-5.6-59.6-10.9-99.7-51l-0.4-0.4
				c-40.1-40.1-45.4-69-51-99.7c-0.5-2.6-1-5.3-1.5-8c2.4,0.5,4.8,0.9,7.2,1.3c7.3,1.3,14.7,2.7,22.4,4.6l0,0
				c0.8,0.2,5.6,1.5,6.4,1.7l-2.2-7.9c-0.8-0.2-1.7-0.4-2.5-0.6l0,0c-7.9-2-15.5-3.4-22.9-4.7c-3.9-0.7-7.5-1.4-11.2-2.1
				c-1.4-0.3-2.8,0.1-3.8,1.1s-1.4,2.4-1.1,3.8c0.8,4,1.6,8.1,2.3,12c5.6,30.4,11.3,61.7,53,103.4l0.4,0.4
				c41.6,41.6,73,47.4,103.4,53c3.9,0.7,8,1.5,12,2.3c0.3,0.1,0.6,0.1,0.8,0.1c0.2,0,0.5,0,0.8,0c0.8,0.1,1.8,0,2.5,0
				c0.3,0,0.6,0,0.8-0.1c0.4-0.1,0.6-0.1,0.7-0.1s0.2,0,0.3-0.1l1.7-7.5l1.3-7.2c1.3-7.1,2.6-14.3,4.4-21.7c3.1-1.5,6.2-2.9,9.3-4.3
				c28-12.9,57-26.3,87-76.9l0.3-0.5c30-50.6,27.8-82.5,25.7-113.3c-0.3-4-0.6-8.1-0.8-12.2c-0.1-1.4-0.8-2.7-2-3.4s-2.7-0.8-4-0.2
				c-3.4,1.6-6.7,3.2-10.3,4.8c-24.7,11.4-52.3,24.1-79.8,64.7c0.2-5.4,0.3-11.1,0.1-17.2v-0.6c-1.6-58.9-21.5-86.2-39-110.2
				c-2.3-3.2-4.5-6.2-6.7-9.2c-0.8-1.2-2.1-1.8-3.5-1.8s-2.7,0.8-3.4,2c-2.2,3.5-4.4,6.9-6.6,10.3c-15.3,23.5-31.2,52.5-32.7,101
				l7.3,8.3c1.5-46.6,15.7-81.7,31.2-105.5c1.5-2.2,2.9-4.5,4.4-6.8c1.4,2,2.9,4,4.3,5.9c17.8,24.3,36.2,49.5,37.7,106.3v0.6
				c0.3,10.9-0.1,20.6-1,29.5c0,0,0,0,0,0.1l-0.3,0.5 M-612.3,338.8l-0.3,0.5c-28.9,48.8-55.6,61.1-83.9,74.2
				c-1.3,0.6-2.6,1.2-4,1.8c6.3-20.8,17.7-43.3,44.4-69.9l0.4-0.4c18.1-18.1,41.7-33.8,60.7-42
				C-598.9,313.7-604.4,325.5-612.3,338.8z M-678.6,297.7c28.7-47.8,56.7-60.7,83.9-73.2c2.2-1,4.4-2,6.6-3.1
				c0.2,2.7,0.4,5.5,0.5,8.1c1.4,20.3,2.7,39.9-4.5,64.6c-20.1,8.6-49.8,27-68.5,45.8l-0.4,0.4c-24.4,24.4-36.6,45.9-43.6,65.4
				 M-749.1,299.5c18.4,31.1,24.3,55.1,25.5,76.1c-0.5-0.7-1-1.4-1.5-2c-16.9-23.1-32.8-45.8-36.5-93.2c4.1,5.6,8.1,11.7,12.2,18.6
				L-749.1,299.5z M-768.2,271.8l-1.5-1.9C-769.2,270.6-768.7,271.2-768.2,271.8z M-767,340c-19.6-19.6-48.9-37.6-69.7-46
				c-7.2-24.6-5.9-44.1-4.5-64.4c0.2-2.7,0.4-5.4,0.5-8.1c2.2,1,4.5,2.1,6.6,3.1c20.9,9.6,42.4,19.5,64.2,45.4
				c3.7,49.9,22.3,84.8,39.1,107.8c2.4,3.2,4.8,6.6,7.1,9.9c0.1,0.1,0.2,0.2,0.3,0.3c-0.1,5.2-0.3,10.2-0.7,15.2
				c-7.1-18.8-19.3-39.4-42.6-62.7L-767,340z"/>
		</g>
		<text transform="matrix(1 0 0 1 -899.2357 529.2455)" class="st11" style="font-family:'LookScript-Reg'; font-size:72px;">Christina Kuri</text>
		<text transform="matrix(1 0 0 1 -960.1855 585.5179)" style="fill:#20231C; font-family:'NimbusSan-Lig'; font-size:24px;">Psychotherapeutin in Ausbildung unter Supervision</text>
		<text transform="matrix(1 0 0 1 -975.3855 614.3179)" style="fill:#20231C; font-family:'NimbusSan-Lig'; font-size:24px;">tiefenpsychologisch fundierte Hypnosepsychotherapie</text>
	</g>
</g>
<g id="Ebene_3">
	<g>
		<path class="st11" d="M1159.8-463.1c-1.6,2.9-0.2,0.8-4.9,5.3l-1,1.7c-8.8,7.7-4.6,4.6-12.4,9.4c-7.1,4.3-4.2,2.6-8.9,4.7
			c-7.1,3-4.2,1.7-7.1,2.8c-1.4,0.5-2.6,0.7-4,1.3c-2,0.2-1.2-0.1-2.8,0.8c-2.8,0.4-5.8,1-8.5,1c-1.7,0-2.6,0.4-5.4,0.8
			c-3.4,2.6-5.2,6.1-7.2,9.7l-1.9,4.7c-1.8,2.4-1,3.8-2.3,6.4c-0.1,1.8-0.6,4.1-0.6,6.1c0,3.5,2.6,7.1,4,7.3
			c0.6,1.1,4.6,1.7,7.4,1.7c1.6,0,3.7,0,5.6-1c2.5-0.6,5.2-1.4,7.7-2.4c0.6-0.2,1.6-0.7,3.4-1.3c1.6-0.8,5.8-4.1,7-4.1
			c0.5,0,0.7,0.1,0.7,0.4c0,0.1-0.5,0.5-1.3,1.1l-2.3,1.6l-4.8,2.6l-3.7,1.9l-2.4,1.2c-1.7,0.8-5.3,1.8-7.4,2.6
			c-2.5,0.7-5,1.2-6.6,1.2c-4.1,0-7.6-1.9-9.6-3.4c-3.1-3-4.4-4-4.4-8.8c0-0.5,0.4-4.3,1.4-5.4c0-2.2,0.8-5.2,2-7.9
			c1.3-2.8,1.4-1.4,6.7-10.6c0.8-2.4,0.1-0.8,2.6-4l-0.1-0.6c-6.7-2.9-8.8-3-8.8-9.2c0-0.8,0-1.8,0.1-2.9
			c4.4-7.4,10.2-10.8,18.6-11.6c1.7,0.2,2.2,0.7,2.2,1.2c-0.1,1-2.6,1.8-4.7,1.3c-3.5,1.3-2.6,1.1-4.3,1.1c-3.8,3.4-5.4,4.3-6.7,9.4
			c0.6,3.8,0.2,4,3.4,7.4l2.3,0.2h1.1l2.5-2.9l3.7-4.2l5.3-5.2c11.8-9.5,13.7-11.4,25.2-17c2.9-1.4,13.6-5.4,16.3-5.4
			c5.6,0,6.2,1.2,7.7,3.2C1161.9-466.5,1163-469,1159.8-463.1z M1156.5-472.5c-3.2,0.1-3.8,0.5-7.1,1.2c-3.6,1.9-1.3,0.8-7,2.6
			c-5.8,4.3-2.5,2-9.7,6.6c-1.4,0.8-4.9,2.9-6.1,4c-1.3,1.2-2,2.6-3.7,3.4c-1.9,1.9-0.8,1-3.1,2.9l-10.1,10.8
			c-0.4,0.7-0.6,1.2-0.6,1.6c0,0.5,0.4,0.6,1.1,0.6c0.7,0,1.7-0.1,3-0.2l4-0.5c12.1-1.4,25.1-7.6,32.8-14.8c3.7-3.5,4.4-4.9,7.8-9.7
			c2-4.2,2.4-3.2,2.8-5.8C1159.8-472.5,1159.5-472.1,1156.5-472.5z"/>
		<path class="st11" d="M1156.5-427.8c0.8-1,2.5-2.5,3.2-2.6c0.2,0,0.4,0.1,0.4,0.4v0.1c-2.8,3-5.2,5.4-8.5,7.8c-3,2.3-4.2,4.4-7,7
			c-0.7,1.1-4,5.5-4,7l0.2,0.2c2.4-0.7,2.6-1.1,5.3-2.8c2.3-1.4,4.3-2.4,7.1-2.8c0.4,0.1,1.6,0.6,0.7,2c-1.8,2.2-3.6,4.7-4.1,7.4
			c0.2,0.2,0.4,0.4,0.6,0.4c0.5,0,1.2-0.7,3.8-2.2l3.2-1.8l1.4-1c0.4-0.1,0.7-0.1,1-0.1c0.1,0,0.2,0,0.2,0.1c0,0.5-1.9,1.7-2.8,2.3
			c-3,2.3-6,4.3-9.4,6c-0.6,0.1-1.1,0.2-1.4,0.2c-0.6,0-1-0.2-1.3-1.2c0.4-3.2,0.7-3.2,2.5-6.8v-0.6l-0.4-0.4
			c-4.6,1.7-8.3,4.2-11.8,7.8c-0.6,0.2-1.2,0.5-1.7,0.5c-0.6,0-1.1-0.5-1.1-1.8c0.6-1.8,1.7-4.1,2.3-5l1.4-2.3
			c0.8-1.4,0.8-1.9,0.4-2c-0.6,0-1.9,0.7-3.1,1.4l-3.4,1.9l-2.2,1.4c-0.6,0.1-1,0.1-1.2,0.1c-0.2,0-0.4,0-0.4-0.1
			c0-0.4,1.1-1.1,2.3-2.2l10.7-7.1l1.7-2.2c5.6-7.2,10.3-17.9,15.8-26.8c4.9-6,13.1-16.6,20.8-18.5l1.6,0.2l1.1,2.2v1.3l-1.7,4.6
			l-0.4,2.2l-1.3,2.3l-1.6,2.9c-3.7,7-5.3,8.2-10.7,13.6c-1.2,1.3-2.2,1.9-2.5,1.9l-0.2-0.1c-0.1-0.2,0.2-0.8,0.8-1.7l1.1-1.3
			l5.3-6.4c4.2-5,7.1-11.2,7.7-17.5l-0.4-0.6h-2.6l-1.1,0.6l-4.4,4.3l-3.4,4.8l-6.7,10.8l-1.9,3l-1.1,1.9l-2.2,3.1l-2.3,5l-1.1,1.7
			c-0.2,0.5-0.7,1.3-0.7,1.9c0,0.2,0.1,0.5,0.5,0.5c0.1,0,0.4,0,0.5-0.1L1156.5-427.8z"/>
		<path class="st11" d="M1167.3-411l-0.4-0.4l-1.2,0.2l-2.4,0.7l-2.8,1.9c-1.4,1.1-2.3,1.6-2.6,1.6h-0.2l0.1-0.8
			c4.6-3.6,2.3-2.2,6.6-4.7l1.2-1.1l1-1.3l1.8-1.7c1.3,0,2.5,0,2.5,1.4c0,0.1,0,0.4-0.1,0.6c-0.6,0.5-0.7,0.5-0.7,0.7
			c0,0.1,0,0.2,0.1,0.6c1,0.4,1.8,0.5,2.3,1.6c-1.1,1.9-0.2,0.7-2.9,3.1c-1.3,3.1-1.1,1.8-1.3,4.1l1.1,0.1c0.5,0,0.8-0.1,1.7-0.5
			l2.9-1.7c2.8-1.7,4-2.4,4.3-2.4l0.2,0.1c0,0.4-0.2,0.7-0.5,1.1l-2.4,1.7l-1.4,1.1c-2.8,2.2-5.4,4.3-9,5c-1.2-0.7-1.6-1.4-1.6-2.4
			c0-1.1,0.6-2.3,1.1-3.7l1.7-2.8l0.8-1.2l0.1-0.5C1167.3-410.6,1167.3-411,1167.3-411z"/>
		<path class="st11" d="M1192.9-417.8c0.5,0,0.7,0.1,0.7,0.8c-1.9,3.1-4.1,5.9-5,9.4l-0.7,1.4v0.8l1.1,0.4h0.7l0.7-0.5l1.7-1
			l2.4-1.3l1.4-1.1c0.4-0.1,0.6-0.1,0.8-0.1c0.4,0,0.5,0.1,0.5,0.2c0,0.6-2.2,1.9-3,2.5l-1.3,0.8l-2.9,2c-2.2,1.6-4.1,2.8-6.7,2.8
			h-1.1l-0.4-0.4c0.7-3.6,2-5.6,3.8-9v-0.7l-1.6-0.4l-1.4,0.5l-2,1l-1.8,1.2l-2.3,1.3h-0.8l0.2-0.8l3.6-2.5l4-2.4l1.7-1
			c2.3-1.3,4.6-3.2,7.1-4.1h0.6V-417.8L1192.9-417.8z M1199.6-426.2c-0.6,0.4-1.2,0.6-1.8,0.6c-2.4,0-4.8-2.5-4.8-4.9v-0.1
			c0-1-0.1-0.2,1.7-1.6l0.5-0.1l1.3,0.1l3.2,4.9L1199.6-426.2z"/>
		<path class="st11" d="M1211.6-416.6c0.5,0,1,0.1,1.1,0.7l-0.4,0.6c-2,0.7-2.5,0.8-4.3,2.4l-0.4,0.7c1,1.6,1.9,2.6,1.9,4.3
			c0,0.4-0.1,0.8-0.2,1.2l0.4,0.4c1.6-0.8,1.9-0.8,2.2-1c0.2-0.1,0.5-0.4,1.8-1.3c0.7-0.2,1-0.4,1.2-0.4c0.1,0,0.5,0.2,0.5,0.4
			s-0.2,0.2-0.6,0.7c-3.8,2.2-2,1-5.5,3.6l-1.2,1.8l-0.6,1.1l-1,1l-1.3,1.6c-3.5,2.6-2.8,2.5-7.7,3c-1-0.4-1.6-0.4-1.6-1.4
			c0-1.3,1.8-2.4,2.8-3.2l5.6-3.1c0.2-0.7,0.4-1.1,0.4-1.4c0-0.5-0.1-1-0.4-2c-1.1-2.2-0.8-1.6-1.2-3.2c-2.8,0.8-4.8,1.7-7.8,3.2
			c-0.2,0-0.4,0.1-0.5,0.1c-0.1,0-0.2-0.1-0.2-0.2c0-0.5,2.6-2.3,3.8-3c3.7-1.9,1.8-1.2,5.5-2.5c1.7-2.4,3.8-2.8,6.7-3.8h1
			C1211.6-416.3,1211.6-416.6,1211.6-416.6z M1204-401.7c-0.6,0-1.3,0.2-1.7,0.4c-1,0.2-0.7,0.4-1.4,1.2c-0.6,0.4-1.2,0.6-1.2,1.4
			s0.5,1.1,1,1.1c1.1,0,2.9-1.1,3.2-1.7c0.6-1.2,0.8-1.3,0.8-1.6C1204.8-401.4,1204.4-401.7,1204-401.7z"/>
		<path class="st11" d="M1215.2-408.3l-1.9,1.3h-0.8l0.2-0.7c1.3-1.1,3.5-2.8,4.4-3.6c-0.4-0.6-0.6-1.3-0.6-1.7
			c0-1.3,0.5-2.2,1.3-2.2c0.5,0,1.6,0.7,2.3,1.3c3.4-3.2,7.3-7.2,10.2-11.2l4.2-5.6c6.8-9.1,3.6-6.1,7.2-10.4l4.2-4.9
			c0.7-0.5,1-0.7,1.3-0.7c0.4,0,0.7,0.4,1.4,0.7c0.2,0.6,0.5,0.7,0.5,0.8c0,0.1-0.2,0.4-0.4,1.1l-1.7,3.8l-2.4,4.1l-5.2,7.7
			c-3.8,5.8-8,12.6-11.9,19c-0.2,1.1,1.6,1.6,3.1,1.8c1.6,0.1,3.2-0.2,4.6-1.1h0.5c0.6,0,0.7,0.1,0.7,0.2c0,0.6-2.3,1.6-3.4,2.2
			c-2,0.8-3.6,1.1-4.7,1.1c-0.6,0-1.8-0.1-2.6-0.4c-0.7,1.9-1.7,4.7-2.8,5.9c-0.8,0.2-1,0.4-1.2,0.4c-0.2,0-0.5-0.1-1.3-0.2
			c-0.4-0.7-0.5-1.2-0.5-1.7c0-0.7,0.4-1.3,0.6-2.4s0.4-2,0.5-3.2c-0.1-0.5-2.2-2.2-3.2-3.4L1215.2-408.3z M1223.8-410.7
			c1.7-0.8,4.8-7.1,6.5-9.6c-0.2-0.1-0.5-0.2-0.6-0.2c-1,0-2,1.4-2.8,2.2c-1.7,1.7-4,4-5.8,5.5
			C1221.9-412,1222.9-411.3,1223.8-410.7z"/>
		<path class="st11" d="M1251-417.8c0.5,0,0.7,0.1,0.7,0.8c-1.9,3.1-4.1,5.9-5,9.4l-0.7,1.4v0.8l1.1,0.4h0.7l0.7-0.5l1.7-1l2.4-1.3
			l1.4-1.1c0.4-0.1,0.6-0.1,0.8-0.1c0.4,0,0.5,0.1,0.5,0.2c0,0.6-2.2,1.9-3,2.5l-1.3,0.8l-2.9,2c-2.2,1.6-4.1,2.8-6.7,2.8h-1.1
			l-0.4-0.4c0.7-3.6,2-5.6,3.8-9v-0.7l-1.6-0.4l-1.4,0.5l-2,1l-1.8,1.2l-2.3,1.3h-0.8l0.2-0.8l3.6-2.5l4-2.4l1.7-1
			c2.3-1.3,4.6-3.2,7.1-4.1h0.6V-417.8z M1257.7-426.2c-0.6,0.4-1.2,0.6-1.8,0.6c-2.4,0-4.8-2.5-4.8-4.9v-0.1c0-1-0.1-0.2,1.7-1.6
			l0.5-0.1l1.3,0.1l3.2,4.9L1257.7-426.2z"/>
		<path class="st11" d="M1275.4-410.6c-0.1-0.6-0.4-0.8-0.7-0.8c-0.6,0-1.3,0.7-1.9,1.1l-6.2,4.9c-1.7,1.3-5.4,5.2-7.7,5.2l-0.2-0.2
			l0.1-1l3.8-7.3c0.5-0.8,0.6-1.4,0.6-1.8c0-0.7-0.4-1-1-1c-0.8,0-2.2,0.5-3.5,1.3l-3.5,2.2c-1.1,0.7-1.9,1-2.4,1
			c-0.1,0-0.2,0-0.2-0.2c0-0.1,0.1-0.2,0.2-0.5l3.5-2.5c3.2-2.4,6.5-4.1,10.3-5.3c1.3,0,1.7,0.6,1.7,1.6c0,1.7-1.2,4-1.4,4.8
			l-0.6,1.4l0.2,0.2l4.1-3.4c2.5-2,5.9-4.3,9.1-4.3c0.5,0.6,0.6,1.1,0.6,1.8c0,1.6-1.1,3.4-1.6,4.6c-0.7,1-1.9,2.4-1.9,3.5
			c0,0.4,0.1,0.7,0.4,1c0.7-0.1,1.1-0.1,1.4-0.1c0.7-0.2,1.4-0.8,5.4-3.1c1.4-0.8,2.3-1.2,2.5-1.2l0.2,0.1c0,0.5-1.3,1.8-2.5,2.6
			c-4,2.9-7.1,5.2-11.3,5.3c-0.8-0.6-1.1-1.1-1.1-1.7s0.4-1.3,0.6-2.3L1275.4-410.6z"/>
		<path class="st11" d="M1302.9-406.5l-0.1-0.2l-0.6,0.4c-2.6,1.9-3.4,2.5-7.4,4.9l-2.4,1.1c-1.8-0.1-2.5,0.1-2.5-2.4
			c0-2.2,2-4.6,2-6.7c0-0.5-0.6-0.4-1-0.5l-1.3,0.6l-2.3,1.1l-2.6,1.3c-0.5,0-0.7-0.1-0.7-0.2c0-0.6,2.6-2,4.1-3
			c3.4-2,7-4.1,10.4-4.1c0.7,0,1.6,0.4,1.6,1.3c0,1.2-4.3,2.4-5.4,6.7c0.1,1.7-0.1,1.3,1.1,2.2c1.3,0,2.6-0.4,4.4-1.9
			c0.6-0.6,3.8-3.2,3.8-4.4c0-1.2-3.5-0.5-3.5-3.2c0-1.2,1.8-1.7,2.8-1.7c1.7,0,2.3,1.3,2.6,2.2c0.2,0,0.8,0.2,2.2,0.2
			c0.6,0.5,1,0.5,1,1.3c0,0.4-0.1,1.3-0.5,1.9c-0.4,0.8-1.9,3-1.9,4.4c0,0.1,0.1,0.8,0.5,0.8c0.5,0,1-0.5,2-1c2.3-1.2,1-0.8,3.5-2.3
			c0.6-0.4,2.4-4,3-4c0.2,0-0.3,2.5-0.3,2.6s-0.4,0.6-0.7,1.2l-1.5,1.8l-1.3,0.8c-3.6,2.3-1.8,1.3-4.8,3.4c-1.1,0.6-1.3,0.8-1.7,1
			c-0.2,0.1-0.6,0.1-1.8,0.5l-1.2-0.5c-0.5-0.8-0.7-1.4-0.7-2c0-1.2,0.4-0.8,1.2-3V-406.5z"/>
		<path class="st11" d="M1355.8-451.8l-0.2,1.4c1,4.7,3.2,5.2,7.1,7.2l1.7,0.2l2.9,0.6l0.8-0.1l1.9-2.8c9.7-14,22.1-27.1,34-33.6
			c6.5-3.5,6.8-3.2,14.4-4.6l4.8,0.4c3.4,1.2,7.2,1.9,7.2,5.9l-1.7,3.1l-0.4,1.3l-2.4,3.8c-5,6-2.5,4.4-6.1,6.4
			c-4.8,4.4-2.8,3.4-5.5,4.6c-2.6,2.9-1.3,1.2-5,3.8c-2.9,2.2-1.3,1.2-4.2,2.8c-3.7,2-2.2,1.3-5,2.6l-2.4,1.1
			c-1.9,1.3-0.7,0.7-3.7,1.4l-1.4,0.1c-4.4,2.3-1.4,0.4-10.1,3.8l-2.4,1c-2.6,1.1-1,0.6-4.9,1.3l-1.3,0.1l-1.6,1.8
			c-1.3,2.3-0.6,1.2-2.2,3.5l-2.9,5.8c-2.8,4.3-1.4,1.6-4.3,7.8c-0.8,1.8-0.8,0.8-1.1,2.4c-1.2,1.7-0.6,0.6-1.2,3.7l-2.6,5.2
			c0.1,1.8,0.4,2.2,1.1,2.2c0.4,0,1-0.1,1.7-0.2l4-6.1l1.1-2.3l3.8-5.2l0.4-0.8c10.2-10.1,6-6.1,12.7-11.6c7.2-5.9,9.5-8,18.6-10.2
			l4.1-1c1.3-0.1,2.2-0.2,2.8-0.2c1,0,1.6,0.4,2.6,1.9c-0.8,2.6-0.4,1.2-2,4l-1.7,2.6c-0.2,1.1,0,0.4-1.3,1.6
			c-1.7,3.2-0.7,1-5.9,5.6c-3.6,2.3-1.6,1.1-6.2,3.5l-1.7,0.6l-2.2,1.6l-0.5,0.6c0.1,1.3,0.1,1.8,0.1,2.2c0,0.5,0,0.8-0.2,2.6
			c0.5,7.9,0.2,4.4,0.8,10.4c0.7,3.1,2.3,4.1,4.4,4.1c1.3,0,2.9-0.4,4.4-1l2.8-1.4l1.9-0.7l1.4-1c0.2-0.1,0.5-0.1,0.7-0.1
			c0.2,0,0.4,0.1,0.4,0.2c0,0.4-2,1.7-2.6,2l-1.2,1l-4.6,3.2c-3.4,1.6-4.3,2-5.8,2c-0.7,0-1.6-0.1-2.9-0.2
			c-3.4-0.5-5.6-5.6-6.4-10.3v-2c0-4-0.1-4.7-0.1-5.6c0-0.8,0-2,0.5-5.3c0.4-3.2,0.8-4.8,3.7-4.8c0.5,0,0.8,0.1,1.3,0.1
			c1.1,1.3,1.3,1.9,1.7,1.9s0.8-0.7,2.5-1.7c5.8-3.2,6.5-4.1,10.8-8.9l2.8-5v-1.2l-0.8-0.6l-2.3,0.1l-1.4,0.7l-1.9,0.1l-3,1.3
			c-1.3,0.4-1.7,0.5-2,0.6c-0.4,0.2-0.7,0.5-2.2,1.3c-1.3,0.8-1.7,1.1-2.2,1.3c-0.6,0.4-1.1,0.8-4.6,3.5l-3.6,2.8l-5.2,5.2
			c-2.2,2.2-0.8,1-3.7,3.1c-1.3,3.6-0.2,1.3-4,6.4c-0.2,1.7,0,0.7-1.8,2.6c-0.1,1.6,0.1,0.6-3.6,6.1l-0.8,2.8l-0.4,4.8l-0.4,1.2
			l-0.5,0.8l-3.4,1.7l-1-0.2l-0.2-1.4l0.6-3.5c0.2-0.4,0.4-0.7,0.4-1.1c0-0.6-0.4-1.2-1-1.8c-1.6,1.1-2,1.3-2.4,1.6
			c-0.2,0.2-0.5,0.6-1.6,1.7c-1.2,3.4-2.4,5.3-4.4,8.2c-0.8,1.1-2,2.3-2.9,2.3c-0.6,0-1-0.5-1-1.9c0-4.1,1.6-6.1,3.5-10.6l1.8-2.4
			c5.6-10.9,3.1-5.5,7.7-15.8c1.3-3.1,0.5-1.3,2.8-5.9l4.1-8.4l1.1-1.8l-0.1-0.5l-1-0.7h-3.4l-1.3-0.7l-1.9-0.1
			c-3.6-1-8.6-3.9-7.4-7.1c2.1-5.7,3.9-9.5,8-11.3l1.3,0.1 M1409.1-456.4l1.4-0.7l6.8-5.6c5.5-4.6,4.9-2.2,5.3-5.8
			c3-3.2,3.5-4.3,4.9-8.2c0.2-1.1,0.6-1.7,0.6-2c0-0.6-0.8-0.6-3.8-1.6l-3.5-0.4c-1.4-0.5-1.8-0.8-2.2-0.8s-0.7,0.4-2.2,0.8
			c-0.5,0-1,0.1-1.3,0.1h-0.1l-0.8-0.1c-0.5,0-0.6,0.1-1.7,0.7c-0.8,0.2-1.2,0.2-1.4,0.2c-0.2,0.1-0.5,0.4-1.7,1
			c-1.9,0.7-2.4,0.8-2.9,1.1c-0.6,0.4-1,0.7-3.1,2.3c-1,0.2-1.3,0.4-1.6,0.5c-0.5,0.4-0.7,1-3.5,3.4c-5.6,4.9-3.4,3-6.4,6.4
			c-0.7,0.5-1,0.6-1.2,0.7c-0.2,0.2-0.2,0.6-1.1,1.8c-1.6,1.3-1.9,1.7-2.3,2c-0.4,0.5-0.6,1-2,3c-2.3,1.8-1.6,0.7-2.5,3
			c-3.6,4.2-3,2.2-3.5,5.5c-2.6,3.2-2.2,1.6-2.6,4.2c-0.5,0.7-0.6,1.1-0.6,1.3s0.1,0.4,0.5,0.4s0.8-0.1,1.3-0.1
			c6.8-1.7,3.6-0.8,10.1-2.6l3.5-1.6c2.2-0.5,0.6-0.4,4.2-1.6c2.9-1.1,3.7-1.3,4.4-1.7c1-0.5,1.9-1.1,6.5-3.6L1409.1-456.4z"/>
		<path class="st11" d="M1413.1-410c-1.7,0-2.2,0-5.5,1.7l-2.4,1.2c-0.5,0-0.7-0.1-0.7-0.4c0-0.4,0.7-1,2.5-2l4.3-2.8l5.2-2.5
			c0.4-0.1,1.7-0.8,2.9-0.8c0.6,0,1,0.1,1,0.6c0,0.2,0,0.4-0.1,0.6l-0.7,1.9l-1.4,2.2l-2.2,4.6v0.5c0,0.7,0,1,0.5,1
			c0.4,0,0.8-0.1,1.8-0.4c6.8-5.2,3.8-2.4,9.1-7.9c2.2-1.8,2.3-1.9,4.2-2.2l0.2,0.4c0,2.6,0,0.7-2.4,4.9c-0.6,1.1-2.4,3.5-2.4,5.2
			c0,0.2,0,0.4,0.1,0.6l1.2-0.1l2.6-1.3l3.7-2.5c0.4-0.2,2.2-1.3,2.6-1.3c0.1,0,0.2,0,0.2,0.1s-0.2,0.5-0.7,1.1l-2.3,1.7
			c-2.3,1.7-4.7,3.2-7.2,4.8c-1.4,0.7-2.3,1.2-3.5,1.2c-0.5,0-1,0-1.7-0.2c-0.4-0.5-0.5-0.8-0.5-1.2c0-0.6,0.5-1.1,1-2l0.5-1.6
			l0.8-1c0-0.7-0.2-0.7-0.7-0.7c-3.5,2.6-6,5-10.2,6.6h-2.8l-0.5-0.6l0.1-1l1-1.9l2.6-5.4l0.1-0.4L1413.1-410z"/>
		<path class="st11" d="M1444.3-411l-0.4-0.4l-1.2,0.2l-2.4,0.7l-2.8,1.9c-1.4,1.1-2.3,1.6-2.6,1.6h-0.2l0.1-0.8
			c4.6-3.6,2.3-2.2,6.6-4.7l1.2-1.1l1-1.3l1.8-1.7c1.3,0,2.5,0,2.5,1.4c0,0.1,0,0.4-0.1,0.6c-0.6,0.5-0.7,0.5-0.7,0.7
			c0,0.1,0,0.2,0.1,0.6c1,0.4,1.8,0.5,2.3,1.6c-1.1,1.9-0.2,0.7-2.9,3.1c-1.3,3.1-1.1,1.8-1.3,4.1l1.1,0.1c0.5,0,0.8-0.1,1.7-0.5
			l2.9-1.7c2.8-1.7,4-2.4,4.3-2.4l0.2,0.1c0,0.4-0.2,0.7-0.5,1.1l-2.4,1.7l-1.4,1.1c-2.8,2.2-5.4,4.3-9,5c-1.2-0.7-1.6-1.4-1.6-2.4
			c0-1.1,0.6-2.3,1.1-3.7l1.7-2.8l0.8-1.2l0.1-0.5V-411L1444.3-411z"/>
		<path class="st11" d="M1469.8-417.8c0.5,0,0.7,0.1,0.7,0.8c-1.9,3.1-4.1,5.9-5,9.4l-0.7,1.4v0.8l1.1,0.4h0.7l0.7-0.5l1.7-1
			l2.4-1.3l1.4-1.1c0.4-0.1,0.6-0.1,0.8-0.1c0.4,0,0.5,0.1,0.5,0.2c0,0.6-2.2,1.9-3,2.5l-1.3,0.8l-2.9,2c-2.2,1.6-4.1,2.8-6.7,2.8
			h-1.1l-0.4-0.4c0.7-3.6,2-5.6,3.8-9v-0.7l-1.6-0.4l-1.4,0.5l-2,1l-1.8,1.2l-2.3,1.3h-0.8l0.2-0.8l3.6-2.5l4-2.4l1.7-1
			c2.3-1.3,4.6-3.2,7.1-4.1h0.6V-417.8L1469.8-417.8z M1476.5-426.2c-0.6,0.4-1.2,0.6-1.8,0.6c-2.4,0-4.8-2.5-4.8-4.9v-0.1
			c0-1-0.1-0.2,1.7-1.6l0.5-0.1l1.3,0.1l3.2,4.9L1476.5-426.2z"/>
	</g>
	
		<text transform="matrix(1 0 0 1 1016.0218 -363.5865)" style="fill:#20231C; font-family:'MrsEavesXLSerifOT-Reg'; font-size:24px;">Psychotherapeutin in Ausbildung unter Supervision</text>
	
		<text transform="matrix(1 0 0 1 1001.8218 -334.7865)" style="fill:#20231C; font-family:'MrsEavesXLSerifOT-Reg'; font-size:24px;">tiefenpsychologisch fundierte Hypnosepsychotherapie</text>
	<g>
		<path class="st10" d="M1379.4-516c-3,2.4-3.5,6.7-1,9.6s6.9,3.4,10,1c3-2.4,3.5-6.7,1-9.6S1382.5-518.4,1379.4-516z"/>
		<g>
			<g>
				<path class="st11" d="M1222.3-331.4c34.1-14.6,66.9-37.8,87-69.4c19.7-32.1,27.3-70.9,23-108.2c-1.2-10.7-3.3-21.3-6.4-31.6
					l0.3-0.1c19.1,49.1,10.6,105-20.6,147.1c-7.9,11-16.7,21.4-26.8,30.5c-8.1,7.2-17.1,13.5-26.5,18.9c-9.5,5.3-19.4,9.9-29.8,13.1
					L1222.3-331.4L1222.3-331.4z"/>
			</g>
			<path class="st10" d="M1288.7-538.8c2.6,5.7,9.6,8.3,15.5,5.8c5.9-2.5,8.6-9.2,6-15c-2.6-5.7-9.6-8.3-15.5-5.8
				C1288.7-551.2,1286-544.5,1288.7-538.8z"/>
			<path class="st10" d="M1290.7-589.1c4.4,1.6,6.7,6.4,5,10.7c-1.7,4.3-6.7,6.4-11.1,4.8c-4.4-1.6-6.7-6.4-5-10.7
				C1281.3-588.6,1286.3-590.7,1290.7-589.1z"/>
			<path class="st10" d="M1331.7-543.5c1.3,3.1-0.2,6.6-3.4,7.9c-3.2,1.3-6.9-0.2-8.2-3.3c-1.3-3.1,0.2-6.6,3.4-7.9
				C1326.7-548,1330.4-546.6,1331.7-543.5z"/>
			<path class="st10" d="M1313.3-597.6c-3,2.4-3.5,6.7-1,9.6c2.5,2.9,6.9,3.4,10,1c3-2.4,3.5-6.7,1-9.6
				C1320.8-599.6,1316.3-600,1313.3-597.6z"/>
			<path class="st10" d="M1372.1-559.9c-1.7,2.7-0.9,6.3,2,8c2.8,1.7,6.5,0.8,8.3-1.9c1.8-2.7,0.9-6.3-1.9-8
				C1377.5-563.5,1373.8-562.6,1372.1-559.9z"/>
			<path class="st10" d="M1351.4-557.8c-1.8,2.7-0.9,6.3,1.9,8c2.8,1.7,6.5,0.9,8.3-1.9c1.7-2.7,0.9-6.3-1.9-8
				C1356.8-561.4,1353.1-560.5,1351.4-557.8z"/>
			<path class="st10" d="M1331.4-527.6c1.7-0.7,41-16.4,46.5-26.1l-1.9-1c-3.4,5.9-21.7,14.9-34,20.3c1.6-1.2,3.3-2.4,4.9-3.7
				c7.1-5.8,11-10.9,11.6-15l-2.2-0.3c-0.5,3.6-4.3,8.3-10.8,13.7c-7,5.7-14.8,10.2-14.9,10.3L1331.4-527.6z"/>
			<g>
				<path class="st11" d="M1388.7-565.4c-7.9,22.7-23,32.6-34.4,36.9c-12.3,4.6-22.6,3.9-23,3.8l0.2-2.8c1.6,0.1,40,2.6,54.4-38.8
					L1388.7-565.4z"/>
				<path class="st11" d="M1273.2-549.5c17.3,17.2,33.1,21.5,45.2,20.6c13.1-0.9,12.8,1.5,13.2,1.3l-3.1-5.8
					c-1.4,0.8-21.7,13.3-53.2-18.1L1273.2-549.5z"/>
				<path class="st11" d="M1402.6-542.9c-17.6,19.5-36.9,23.3-50,23c-14.2-0.3-24.1-5.1-24.5-5.3l1.4-2.7c1.6,0.8,38.7,18.5,70.7-17
					L1402.6-542.9z"/>
				<path class="st11" d="M1331.4-515.7c2,0.5,49.3,12.6,61.3,7.5l-1-2.3c-7.3,3.2-30.6-1.1-45.8-4.4c2.3,0,4.7,0,7.2-0.1
					c10.7-0.5,17.9-2.5,21.5-5.9l-1.8-1.8c-3,2.9-9.9,4.7-19.8,5.2c-10.5,0.5-21-0.7-21.1-0.7L1331.4-515.7z"/>
				<path class="st11" d="M1331.1-533.5c1.3-0.8,31.6-19,34.7-27.7l-1.8-0.6c-1.9,5.3-15.9,15.2-25.3,21.3c1.2-1.2,2.4-2.4,3.5-3.7
					c5.1-5.7,7.6-10.4,7.5-14h-1.9c0.1,3-2.3,7.4-7,12.7c-5,5.6-10.8,10.4-10.9,10.5L1331.1-533.5z"/>
				<path class="st11" d="M1335.9-507.7c-1.7-0.1-42.1-2.5-50.1-9.6l1.4-1.5c4.9,4.3,24.3,6.9,37.1,8.1c-1.8-0.6-3.7-1.2-5.6-1.9
					c-8.3-3.1-13.4-6.5-15.2-10l1.9-0.9c1.6,3,6.5,6.2,14.1,9c8.1,3,16.6,4.7,16.7,4.8L1335.9-507.7z"/>
				<path class="st11" d="M1299.1-600.2c1.9,0.6,2.1-1.3,4-0.7c-2.1,11.1,16.8,43.2,25.5,67.6c-0.5-3.6-1-8.2-1.4-11.9
					c-1.9-16.5,0.2-26.8,6.2-31.6c1.5,1.1,0.9,1,2.4,2.1c-5.2,4-7.3,13.8-5.7,29.1c1.7,16.3,5.8,33.2,5.8,33.3
					c4,32.4-7.3,61.9-14.2,91c-1.4-1.4,1.5-0.7,0-2c11.3-26.5,14.2-58.2,10.3-89.3c0,0-9.3-28.5-18-47.4
					C1305.1-580.5,1297.2-591.5,1299.1-600.2z"/>
			</g>
			<path class="st10" d="M1288-603.2c3.9,8.4,13.8,6.6,15.6,5.8c6-2.6,8.7-9.3,6-15.1c-2.7-5.8-9.7-8.4-15.6-5.8
				C1288-615.7,1285.3-608.9,1288-603.2z"/>
			<path class="st10" d="M1369.5-530c-3,2.4-3.5,6.7-1,9.6c2.5,2.9,6.9,3.4,10,1c3-2.4,3.5-6.7,1-9.6
				C1377-531.9,1372.5-532.4,1369.5-530z"/>
			<path class="st10" d="M1361.7-567c-1.7,2.7-0.9,6.3,1.9,8c2.8,1.7,6.5,0.8,8.3-1.9c1.7-2.7,0.9-6.3-1.9-8
				C1367.1-570.6,1363.4-569.8,1361.7-567z"/>
			<path class="st10" d="M1410.2-540.3c-4.9,4.1-12.4,3.5-16.6-1.3c-4.2-4.8-3.6-11.9,1.3-16s12.3-3.5,16.6,1.2
				C1415.7-551.5,1415.1-544.4,1410.2-540.3z"/>
			<path class="st10" d="M1325.2-577c2.8,6.2,10.3,8.9,16.6,6.2c6.4-2.7,9.3-9.9,6.4-16.1c-2.8-6.1-10.3-8.9-16.7-6.2
				C1325.2-590.4,1322.3-583.2,1325.2-577z"/>
			<path class="st10" d="M1353.7-564.9c1.3,3.1-0.2,6.6-3.4,7.9c-3.2,1.3-6.9-0.2-8.2-3.3c-1.3-3.1,0.2-6.6,3.4-7.9
				C1348.7-569.5,1352.4-568,1353.7-564.9z"/>
			<path class="st10" d="M1394.5-571.5c1.3,3.1-0.2,6.6-3.4,7.9c-3.2,1.3-6.9-0.2-8.2-3.3c-1.3-3.1,0.2-6.6,3.4-7.9
				C1389.5-576.1,1393.2-574.6,1394.5-571.5z"/>
			<path class="st10" d="M1308.3-530.3c4.4,1.6,6.7,6.4,5,10.7c-1.7,4.3-6.6,6.4-11.1,4.8c-4.4-1.6-6.7-6.4-5-10.7
				C1298.9-529.8,1303.9-532,1308.3-530.3z"/>
			<path class="st10" d="M1285.8-525.3c4.4,1.6,6.7,6.4,5,10.7c-1.7,4.3-6.6,6.4-11.1,4.8c-4.4-1.6-6.7-6.4-5-10.7
				C1276.4-524.7,1281.3-526.9,1285.8-525.3z"/>
			<path class="st10" d="M1260.2-550.1c2.6,5.7,9.6,8.3,15.5,5.8c5.9-2.6,8.6-9.3,6-15c-2.6-5.7-9.6-8.3-15.5-5.8
				C1260.2-562.6,1257.6-555.9,1260.2-550.1z"/>
		</g>
	</g>
	<g>
		<g>
			<path class="st11" d="M1090.8-741.5c0,0.1,0,0.2,0,0.3c2.4,0.1,12.6-0.3,19-9.9c-0.4,0.1-0.7,0.1-1.1,0
				C1105.1-747.4,1093.4-742.5,1090.8-741.5z"/>
			<path class="st11" d="M1090.6-742.5c1.1-0.7,3.4-2.1,5.5-3.8c1.8-1.4,3.1-2.8,3.8-3.9l0,0c-3.7,2.9-8.3,5.7-9.4,6.4
				C1090.5-743.4,1090.6-742.9,1090.6-742.5z"/>
			<path class="st11" d="M1093.4-746.6c1.8-1.1,3.9-2.6,5.8-4.1c-0.9-0.7-1.2-2-0.6-3c-0.1,0.1-0.3,0.1-0.4,0.2
				c-0.1,0-0.2,0.1-0.2,0.1c-0.2,1.4-1.2,3.1-3.1,5.2C1094.4-747.6,1093.9-747.1,1093.4-746.6z"/>
			<path class="st11" d="M1082.3-737.2c0.8,0.5,1.9,0.9,3,1.3c1.9,0.7,3.9,1.3,5.2,1.6c-0.1-0.5-0.1-1-0.2-1.4
				c-0.4-1.1-1.1-3.3-2.1-6.1c-0.8-0.1-1.9-0.1-3.4,0.1c-1,0.1-2.1,0.1-3.2-0.1c1.1,0.9,1.6,2.5,1.1,3.9
				C1082.7-737.7,1082.5-737.4,1082.3-737.2z"/>
			<path class="st11" d="M1089-744.6C1089-744.5,1088.9-744.5,1089-744.6c0,0.2,0,0.4,0.1,0.5C1089-744.2,1089-744.4,1089-744.6z"/>
			<path class="st11" d="M1099.1-738c-3.3-0.1-6.1-0.7-7.9-1.3c0.2,0.8,0.3,1.5,0.4,2.2c1.6,0.1,4.6,0.3,7.6,0.2
				c2.8-0.1,5-0.5,6.5-1.1c0,0,0,0-0.1-0.1s-0.2-0.3-0.3-0.5C1103.1-738.2,1101-738,1099.1-738z"/>
			<path class="st11" d="M1126.1-752.5c0-20.1-16.3-36.4-36.4-36.4c-20.1,0-36.4,16.3-36.4,36.4s16.3,36.4,36.4,36.4
				c0.3,0,0.6,0,0.9,0c0.7-5.6,0.7-11.3,0.1-16.9c-3.6-0.3-12.8-1.1-17.3-2.8l0,0c-0.7,1.8-2.8,2.7-4.6,2c-1.8-0.7-2.8-2.7-2.1-4.4
				c0.7-1.8,2.8-2.7,4.6-2c1.6,0.6,2.4,2.1,2.3,3.6c3.2,1.3,9.4,2,13.8,2.5c-0.8-0.2-1.5-0.5-2.3-0.8c-1.3-0.5-2.4-1-3.3-1.5
				c-1,0.8-2.3,1-3.5,0.6c-1.8-0.7-2.8-2.7-2.1-4.4c0.4-1.1,1.3-1.8,2.3-2.1c-0.6-0.2-1.2-0.4-1.8-0.6c-1.2-0.1-2.4-0.7-3.3-1.6
				c-1.7-1-3.6-2.3-5.4-4c-0.2,0.2-0.5,0.3-0.8,0.4c-2.5,1.1-5.4,0-6.4-2.4c-1.1-2.4,0-5.2,2.5-6.2c2.5-1.1,5.4,0,6.5,2.4
				c0.8,1.7,0.4,3.7-0.8,5c1.2,1.1,2.3,2,3.5,2.8c-0.6-2.2,0.5-4.6,2.7-5.5c2.5-1.1,5.4,0,6.5,2.4c1.1,2.4,0,5.2-2.5,6.2
				c-0.2,0.1-0.4,0.1-0.5,0.2c4.5,1.6,7.7,0.9,9.4,0.3c-0.2-0.5-0.4-1-0.5-1.5c-0.7-0.2-1.4-0.7-1.7-1.5c-0.3-0.8-0.2-1.7,0.2-2.3
				c-0.9-2.2-1.8-4.5-2.7-6.5c-3.2-7.4-6.1-11.8-6.3-15.2c-1.5,0-3.5-0.5-4.5-2.7c-1.1-2.4,0-5.2,2.5-6.3s5.4,0,6.5,2.4
				s0,5.2-2.5,6.3c-0.1,0-0.2,0.1-0.3,0.1c0.5,4.5,5,13.1,8.4,21c0,0,0.1,0,0.1-0.1c0.5-0.2,1-0.2,1.4-0.2
				c-0.5-4.7-0.1-8.1,1.1-10.3c-0.8-0.5-1.4-1.2-1.8-2.1c-1.2-2.6,0-5.6,2.7-6.7c2.6-1.1,5.7,0,6.9,2.6c1.2,2.6,0,5.6-2.7,6.7
				c-1.3,0.6-2.7,0.6-3.9,0.1c-1.1,2.1-1.5,5.6-1,10.3c0.3,0.2,0.5,0.6,0.7,0.9c0.3,0.8,0.2,1.7-0.3,2.4c0,0.2,0.1,0.5,0.1,0.7
				c0.8-0.7,2.5-2.2,4-3.9c1.6-1.9,2.6-3.4,2.9-4.6c-1,0-1.9-0.6-2.3-1.6c-0.5-1.3,0.1-2.8,1.4-3.3s2.8,0.1,3.4,1.4
				c0.3,0.7,0.2,1.5-0.1,2.2c0.8-0.5,1.8-0.5,2.6,0c0.3,0.2,0.6,0.4,0.7,0.7c0.2-0.2,0.4-0.5,0.6-0.7c-0.9-0.8-1.1-2.1-0.5-3.1
				c0.7-1.1,2.3-1.5,3.4-0.8c1.2,0.7,1.5,2.2,0.8,3.3c-0.7,1-2,1.4-3.1,0.9c-0.2,0.3-0.5,0.6-0.8,1c0.2,0.6,0.1,1.3-0.3,1.9
				c-0.4,0.7-1.2,1.1-2,1.1c-0.8,1.3-2.2,2.8-4.2,4.5c-0.7,0.6-1.4,1.1-2,1.6c4.4-2,10.7-5,13.2-7.4c-1.1-0.7-1.4-2.1-0.7-3.2
				c0.7-1.1,2.3-1.5,3.4-0.8c0.5,0.3,0.9,0.7,1,1.2c0.3-0.7,0.7-1.5,1-2.3c-0.4-0.3-0.7-0.6-0.9-1.1c-0.5-1.3,0.1-2.8,1.4-3.3
				c1.3-0.5,2.8,0.1,3.4,1.4c0.5,1.3-0.1,2.8-1.4,3.3c-0.4,0.2-0.9,0.2-1.3,0.2c-3.4,8.8-9.4,12.7-14,14.4c-2.6,1-5,1.4-6.8,1.5
				c2.9,0.8,7.2,1.4,12,0.2c-0.1-0.9,0.3-1.8,1.1-2.4c1.3-1,3.1-0.8,4.1,0.4c0,0,0,0,0,0.1c2.2-1.1,4.4-2.6,6.6-4.6
				c-0.3-0.2-0.5-0.4-0.7-0.7c-1.8-2-1.5-5,0.5-6.7s5.1-1.5,6.9,0.5c1.8,2,1.5,5-0.5,6.7c-1.4,1.2-3.4,1.4-5,0.8
				c-2.4,2.3-4.8,3.9-7.2,5.1c0.2,1-0.1,2.1-1,2.8s-2.1,0.8-3.1,0.4c-1.7,0.8-4.2,1.3-7.5,1.5c-1,0-2,0.1-3,0
				c3.8,0.8,8.9,1.8,12.9,2.2c-0.1-1,0.2-2,1-2.6c1.3-1,3.1-0.8,4.1,0.4c0.5,0.6,0.7,1.3,0.7,2c0.1,0,0.2-0.1,0.3-0.1l0.4,0.9
				c-0.3,0.1-0.7,0.2-1,0.3c-0.2,0.3-0.4,0.6-0.7,0.9c-1.3,1-3.1,0.8-4.1-0.4c-0.1-0.1-0.2-0.2-0.2-0.3c-6.1-0.4-14.2-2.3-17.7-3.1
				c0.1,0.6,0.2,1,0.2,1c0,0.4,0.1,0.7,0.1,1.1l0,0l0,0c0.3,3.2,0.3,6.3,0,9.4c0,2.7-0.2,5.4-0.5,8.1
				C1110.9-717.3,1126.1-733.2,1126.1-752.5z M1073.4-766.8c1.8,0.7,2.8,2.7,2.1,4.4c-0.7,1.8-2.8,2.7-4.6,2
				c-1.8-0.7-2.8-2.7-2.1-4.4C1069.5-766.6,1071.6-767.5,1073.4-766.8z M1086.5-766c-1.3,1-3.1,0.8-4.1-0.4s-0.8-3,0.4-4
				c1.3-1,3.1-0.8,4.1,0.4C1088-768.8,1087.8-767,1086.5-766z"/>
		</g>
		
			<text transform="matrix(1 0 0 1 1137.4722 -724.6729)" class="st11" style="font-family:'VolutaScriptPro-Regular'; font-size:100px;">Christina Kuri</text>
		<g>
			<text transform="matrix(1 0 0 1 1155.2334 -691.7789)" style="font-family:'MrEavesXLModOT-Book'; font-size:27px;">Icon Verwendung für Webseite</text>
		</g>
	</g>
</g>
</svg>
