<svg xmlns="http://www.w3.org/2000/svg" viewBox="0 0 100 100" fill="currentColor">
		<path class="st0" d="M43.67,8.51C47.16,5.7,51.5,4.62,55.89,4.5c4.96-0.12,11.2-1.12,15.64,1.47c0.12,0.07,0.22,0.2,0.27,0.32
			c0.3,0.02,0.57,0.3,0.52,0.62c-0.4,2.34-0.85,4.69-1.02,7.06c-0.15,1.7-0.07,3.49-0.67,5.11c-0.15,0.35-0.4,0.57-0.67,0.67
			c-0.07,0.15-0.2,0.27-0.35,0.32c-3.92,1.07-9.2-2.37-11.92,2.27c-1.92,3.32-0.7,7.96-0.6,11.52c2.44-0.52,4.91-0.15,7.41-0.25
			c1.85-0.1,4.14-0.6,5.64,0.72c0.12,0.1,0.17,0.27,0.15,0.42c1.7,3.52,0.05,9.03-0.22,12.7c-0.05,0.5-0.37,0.75-0.77,0.82
			c-0.07,0.25-0.27,0.5-0.65,0.6c-3.92,1.25-8.53,0.6-12.55-0.15c0.55,7.53-0.37,15.49-0.3,23.05c0.1,7.33,1.22,15.31-0.05,22.55
			c-0.05,0.2-0.15,0.32-0.27,0.45c-0.07,0.2-0.22,0.37-0.47,0.45c-2.82,0.67-6.14,0.67-9.03,0.35c-2.15-0.22-4.89,0.17-6.91-0.7
			c-0.42,0.17-1.05-0.05-1.07-0.65c-0.25-8.06-0.62-15.94-0.45-24.04c0.17-7.11-0.3-14.54,0.77-21.62c-0.15,0.07-0.3,0.15-0.47,0.17
			c-1.95,0.17-3.87,0.35-5.81,0.17c-0.8-0.07-1.97-0.15-2.62-0.72c-0.42,0.15-0.9,0.05-1.17-0.4c-0.97-1.55-0.4-3.84-0.3-5.54
			c0.12-2.24-0.37-5.06,0.72-7.11c-0.12-0.52,0.2-1.15,0.85-1.07c1.57,0.15,3.12,0.15,4.69,0.05c0.9-0.07,1.87-0.3,2.84-0.47
			c-0.8-3.89,0.2-9,0.72-12.75C38.4,16.17,39.83,11.61,43.67,8.51z M70.48,7.67c-7.68-0.95-18.96-2.39-25.14,2.67
			c-6.01,4.94-6.31,16.11-5.74,23.65c0.25,0.3,0.35,0.7-0.07,1c0,0.02-0.05,0.02-0.05,0.05c-0.2,0.27-0.52,0.45-0.9,0.45
			c-1.17,0.47-2.57,0.52-3.79,0.62c-1.57,0.12-3.17,0.1-4.71-0.15c0.27,1.9,0.17,4.04,0.1,5.86c-0.07,1.65-0.5,3.52-0.12,5.14
			c0.9-0.1,1.95,0.12,2.77,0.07c1.67-0.05,3.34-0.22,5.01-0.17c0.4,0.02,0.67,0.2,0.82,0.45c0.32-0.22,0.95-0.12,1.02,0.32
			c1.22,7.36,0.27,15.16,0.1,22.57c-0.17,7.96-0.37,15.94-0.27,23.87c2.12-0.75,4.22-0.6,6.46-0.4c2.62,0.2,5.31-0.22,7.91,0.07
			c0.75-8.16,0.12-17.11-0.12-25.29c-0.15-5.79-1.47-14.62,1.37-20.13c-0.22-0.4-0.12-1,0.42-1.07c4.19-0.62,8.38,1.02,12.55-0.25
			c0.05-0.02,0.1-0.02,0.15-0.02c-0.1-2.29-0.12-4.54,0.07-6.86c0.12-1.62,0.15-3.34,0.75-4.86c-1.75,0.2-3.62,0.25-5.31,0.27
			c-2.34,0-4.94-0.07-7.23-0.75c-0.6,0.25-1.47-0.02-1.5-0.87c-0.22-4.41-1.82-10.33,1.62-14.02c2.47-2.64,8.16-3.17,11.7-1.6
			C69.21,14.9,68.61,10.76,70.48,7.67z"/>
		<path class="st0" d="M39.78,70.2c0.17-7.41,1.12-15.21-0.1-22.57c-0.07-0.45-0.7-0.55-1.02-0.32c-0.15-0.25-0.42-0.42-0.82-0.45
			c-1.67-0.05-3.34,0.12-5.01,0.17c-0.82,0.05-1.87-0.17-2.77-0.07c-0.37-1.62,0.05-3.49,0.12-5.14c0.07-1.82,0.17-3.97-0.1-5.86
			c1.55,0.25,3.14,0.27,4.71,0.15c1.22-0.1,2.62-0.15,3.79-0.62c0.37,0,0.7-0.17,0.9-0.45c0-0.02,0.05-0.02,0.05-0.05
			c0.42-0.3,0.32-0.7,0.07-1c-0.57-7.53-0.27-18.71,5.74-23.65c6.19-5.06,17.46-3.62,25.14-2.67c-1.87,3.09-1.27,7.23-2.15,10.63
			c-3.54-1.57-9.23-1.05-11.7,1.6c-3.44,3.69-1.85,9.6-1.62,14.02c0.02,0.85,0.9,1.12,1.5,0.87c2.29,0.67,4.89,0.75,7.23,0.75
			c1.7-0.02,3.57-0.07,5.31-0.27c-0.6,1.52-0.62,3.24-0.75,4.86c-0.2,2.32-0.17,4.56-0.07,6.86c-0.05,0-0.1,0-0.15,0.02
			c-4.17,1.27-8.36-0.37-12.55,0.25c-0.55,0.07-0.65,0.67-0.42,1.07c-2.84,5.51-1.52,14.34-1.37,20.13
			c0.25,8.18,0.87,17.14,0.12,25.29c-2.59-0.3-5.29,0.12-7.91-0.07c-2.24-0.2-4.34-0.35-6.46,0.4C39.4,86.13,39.6,78.15,39.78,70.2z
			"/>
</svg>
