<?xml version="1.0" encoding="utf-8"?>
<!-- Generator: Adobe Illustrator 25.0.1, SVG Export Plug-In . SVG Version: 6.00 Build 0)  -->
<svg version="1.1" id="Ebene_1" xmlns="http://www.w3.org/2000/svg" xmlns:xlink="http://www.w3.org/1999/xlink" x="0px" y="0px"
	 viewBox="0 0 100 100" style="enable-background:new 0 0 100 100;" xml:space="preserve">
<style type="text/css">
	.st0{fill:#020203;}
</style>
<g>
	<g id="XMLID_13_">
		<g>
			<path class="st0" d="M95.02,60.96c0.05,1.85,0.15,3.68,0.23,5.54c-0.15,0.03-0.3,0.1-0.45,0.15c-0.6,8.22-0.33,16.54-0.23,24.82
				c0,0.63-0.88,0.7-1.1,0.23c-0.03-0.05-0.05-0.15-0.05-0.23c0.08-6.72-0.05-13.36-0.2-20.08c-0.03-1.58-0.4-5.01,0.43-7.07
				c-0.03-4.41-0.18-8.87-1.05-12.91C88.6,33.08,68.3,32.2,56.11,42.58c-0.05,0.3-0.13,0.58-0.25,0.85c-0.15,0.3-0.68,0.3-0.83,0
				c-0.55-1.13-0.45-2.46-0.55-3.71c-0.15-1.35-0.25-2.68-0.23-4.04c-2.78,0.48-5.84,0.25-8.57,0.33c-2.71,0.08-5.72,0.33-8.45-0.23
				c1.18,9.35,0.93,19.38,0.58,28.75c-0.23,5.72-0.45,11.43-0.48,17.17c0,2.83,0.18,6.04-0.4,8.87c6.02-0.68,11.71-0.03,17.72,0.23
				c2.06-10.33-6.22-36.97,9.65-39.4c17.15-2.61,10.55,31.71,12.16,39.48c0,0.08-0.03,0.13,0,0.18c2.98-0.63,6.14-0.9,9.17-0.85
				c2.41,0.03,5.04-0.1,7.54,0.1c0.05,0.38,0.13,0.75,0.18,1.15c0,0.08,0.03,0.15,0.08,0.23c0.03,0.18,0.1,0.33,0.15,0.5
				c-2.36,0.33-4.84-0.03-7.22-0.13c-3.73-0.15-7.6,0.8-11.3,0.13c-0.23-0.05-0.33-0.23-0.33-0.4c-0.08-0.1-0.15-0.23-0.2-0.4
				c-1.43-6.07,0.08-13.36-0.2-19.65c-0.1-2.56-0.15-5.11-0.4-7.67c-0.65-6.49-4.29-13.36-12.16-10.43
				c-7.8,2.88-5.72,16.74-5.69,23.04c0.03,2.41,0.15,4.86,0.1,7.29c0.1,0.03,0.18,0.08,0.2,0.2c0.45,2.71-0.23,5.74-0.53,8.45
				c-0.03,0.18-0.3,0.23-0.33,0.05c-0.05-0.25-0.05-0.48-0.1-0.7c-0.05,0.03-0.08,0.08-0.13,0.08c-2.73,0.83-5.64-0.2-8.42-0.4
				c-3.58-0.25-7.17,0.35-10.75-0.03c-0.4,0.1-0.83-0.05-0.95-0.55c-0.9-3.41,0.18-7.82,0.15-11.33c0-6.24,0.38-12.46,0.53-18.7
				c0.13-5.84-0.03-11.71-0.33-17.55c-0.15-2.66-0.65-5.64,0.65-7.95c-0.08-0.03-0.2-0.03-0.28-0.05c-0.4-0.15-0.48-0.75,0-0.85
				c3.13-0.63,6.57-0.18,9.78-0.2c3.26,0,7.02-0.6,10.18,0.3c0.33,0.1,0.3,0.53,0,0.63c-0.15,0.05-0.28,0.05-0.43,0.1
				c0.15,1.43,0.35,2.86,0.53,4.26c0.08,0.73,0.2,1.45,0.2,2.16c9.3-9.27,24.09-10.7,33.01-0.23
				C94.19,47.52,94.72,53.51,95.02,60.96z"/>
			<path class="st0" d="M93.41,91.46c0,0.08,0.03,0.18,0.05,0.23h-0.03c-0.05-0.08-0.08-0.15-0.08-0.23
				c-0.05-0.4-0.13-0.78-0.18-1.15c-2.51-0.2-5.14-0.08-7.54-0.1c-3.03-0.05-6.19,0.23-9.17,0.85c-0.03-0.05,0-0.1,0-0.18
				c-1.6-7.77,4.99-42.09-12.16-39.48c-15.87,2.43-7.6,29.08-9.65,39.4c-6.02-0.25-11.71-0.9-17.72-0.23
				c0.58-2.83,0.4-6.04,0.4-8.87c0.03-5.74,0.25-11.46,0.48-17.17c0.35-9.37,0.6-19.4-0.58-28.75c2.73,0.55,5.74,0.3,8.45,0.23
				c2.73-0.08,5.79,0.15,8.57-0.33c-0.03,1.35,0.08,2.68,0.23,4.04c0.1,1.25,0,2.58,0.55,3.71c0.15,0.3,0.68,0.3,0.83,0
				c0.13-0.28,0.2-0.55,0.25-0.85c12.18-10.38,32.49-9.5,36.47,8.82c0.88,4.04,1.03,8.5,1.05,12.91c-0.83,2.06-0.45,5.49-0.43,7.07
				C93.36,78.1,93.49,84.74,93.41,91.46z"/>
			<path class="st0" d="M25.83,34.66c0.55,3.46,0.35,6.99,0.28,10.48c-0.08,2.66,0,5.36-0.25,8.02c0.53,5.49,0,11.13-0.3,16.59
				c-0.4,7.12-0.53,14.29-1.03,21.38c0.23,0,0.45,0.03,0.68,0.03c0.83-0.03,0.83,1.23,0,1.23c-0.45,0-0.93,0-1.38,0
				c-0.03,0-0.03,0-0.05,0c-3.18,0-6.34,0.1-9.5-0.05c-1.85-0.1-4.81,0.53-6.64-0.15c-0.4,0.35-1.25,0.18-1.3-0.53
				c-0.2-2.51-0.25-5.11,0.1-7.65c-0.1,0.05-0.23,0.08-0.33,0.13C5.86,78,6.71,71.56,6.71,65.62c0-4.96,0.5-9.88,0.53-14.81
				c0-5.04-0.63-10.1-0.13-15.12c0.03-0.1,0.1-0.18,0.15-0.28c-0.03-0.03-0.05-0.05-0.05-0.1c0,0-0.03-0.03-0.03-0.05
				c0-0.1,0.08-0.2,0.18-0.25c1.48-0.88,4.69-0.45,6.37-0.5c3.89-0.15,7.62,0.03,11.53-0.4c0.3-0.03,0.5,0.23,0.53,0.5
				C25.81,34.64,25.83,34.64,25.83,34.66z M24.63,45.14c0.08-3.31,0.05-6.64,0.53-9.9c-3.38,1.2-6.99,0.58-10.5,0.58
				c-1.78,0-4.39,0.63-6.32,0.18c1.2,8.72,0.58,17.35,0.23,26.09c-0.23,5.09,0.05,10.18-0.35,15.27c-0.18,2.08-0.4,4.11-0.48,6.12
				c-0.05,0-0.08,0.03-0.13,0.05c0.28,2.41,0.15,4.89,0.2,7.32c1.33-0.78,3.68-0.35,4.96-0.2c3.51,0.33,6.87,0.5,10.33,0.5
				c-0.4-7.09,0.25-14.29,0.63-21.38c0.3-5.16,0.4-10.48,1-15.64C24.38,51.15,24.58,48.1,24.63,45.14z"/>
			<path class="st0" d="M25.18,10.77c3.48,4.26,2.56,12.16-1.96,15.37c-4.81,3.43-12.93,2.88-16.62-1.96
				c-2.68-3.56-2.31-8.4,0.15-11.78c-0.33,0.13-0.58-0.33-0.33-0.55C11.17,7.14,20.39,4.86,25.18,10.77z M24,24.18
				c3.26-4.09,2.38-11.91-2.56-14.24c-3.66-1.73-7.24-0.6-10.7,0.83c-5.19,3.13-5.56,10.68-0.65,14.26
				C14.15,28.02,20.62,28.39,24,24.18z"/>
			<path class="st0" d="M25.16,35.24c-0.48,3.26-0.45,6.59-0.53,9.9c-0.05,2.96-0.25,6.02,0.1,8.97c-0.6,5.16-0.7,10.48-1,15.64
				c-0.38,7.09-1.03,14.29-0.63,21.38c-3.46,0-6.82-0.18-10.33-0.5c-1.28-0.15-3.63-0.58-4.96,0.2c-0.05-2.43,0.08-4.91-0.2-7.32
				c0.05-0.03,0.08-0.05,0.13-0.05c0.08-2.01,0.3-4.04,0.48-6.12c0.4-5.09,0.13-10.18,0.35-15.27c0.35-8.75,0.98-17.37-0.23-26.09
				c1.93,0.45,4.54-0.18,6.32-0.18C18.16,35.81,21.77,36.44,25.16,35.24z"/>
			<path class="st0" d="M21.45,9.95c4.94,2.33,5.82,10.15,2.56,14.24c-3.38,4.21-9.85,3.84-13.91,0.85
				c-4.91-3.58-4.54-11.13,0.65-14.26C14.2,9.34,17.79,8.22,21.45,9.95z"/>
		</g>
		<g>
		</g>
	</g>
</g>
</svg>
