<?xml version="1.0" encoding="utf-8"?>
<!-- Generator: Adobe Illustrator 26.0.2, SVG Export Plug-In . SVG Version: 6.00 Build 0)  -->
<svg version="1.1" id="Ebene_1" xmlns="http://www.w3.org/2000/svg" xmlns:xlink="http://www.w3.org/1999/xlink" x="0px" y="0px"
	 viewBox="0 0 500 500" style="enable-background:new 0 0 500 500;" xml:space="preserve">
<style type="text/css">
	.st0{display:none;}
	.st1{display:inline;}
	.st2{display:inline;fill:#2F400D;}
	.st3{opacity:0.1091;fill:#31401B;enable-background:new    ;}
	.st4{fill:#FFFFFF;}
	.st5{fill:none;}
	.st6{fill:#435C1D;}
	.st7{fill:#D2E7B5;}
	.st8{opacity:0.65;fill:#2E193F;enable-background:new    ;}
	.st9{opacity:0.55;fill:#2E193F;enable-background:new    ;}
	.st10{fill:#B0D959;}
	.st11{fill:#31073F;}
	.st12{fill:#2F400D;}
	.st13{fill:url(#SVGID_1_);}
</style>
<g id="Ebene_1_00000108297882875454534200000007816474239820096664_">
	<g class="st0">
		<g class="st1">
			
				<image style="overflow:visible;enable-background:new    ;" width="1000" height="667" xlink:href="E261AE8F.jpg"  transform="matrix(1 0 0 1 -1475.1748 -1653.6001)">
			</image>
		</g>
	</g>
</g>
<g class="st0">
	
		<ellipse transform="matrix(0.7071 -0.7071 0.7071 0.7071 1096.0083 -267.3502)" class="st2" cx="225.3" cy="-1456.7" rx="78.7" ry="78.7"/>
	<g class="st1">
		<g>
			<path class="st3" d="M313.8-1464.5c-0.2-5.5-0.6-10.6-1.9-15.9c-1.3-5.4-3.1-10.5-5.5-15.5c-4.6-10-11.8-19.1-19.9-26.4
				c-17.2-15.5-40.3-23.7-63.4-22.7s-46,11.4-61.4,28.8c-7.5,8.5-13.9,18.3-17.7,29c-3.9,11-6,23-5.3,34.7s3.3,23.5,8.6,34
				c5,10.2,11.8,19.7,20.3,27.2s18.3,13.8,29,17.6c10,3.5,20.4,5.4,31,5.4c23.5-0.1,46-9.7,62.5-26.4c8-8.2,14.3-17.6,18.7-28.2
				c2.2-5.3,3.9-10.8,5.1-16.5c1.4-7.1,1.6-14.1,1.6-21.3c-0.5,0-0.9,0.2-1.3,0.6c-1.4,1-2.8,2-4.2,3.1c-1.4,1-2.8,2.1-4.1,3.2
				c-0.4,0.3-0.8,0.6-0.9,1.1c-0.6,5.3-1.2,10.3-2.6,15.4c-1.3,4.9-3.1,9.5-5.3,14.1c-4.2,8.7-10.4,16.7-17.5,23.2
				c-14.7,13.3-34.1,20.6-53.9,20.5c-20-0.2-40.2-8.3-54.4-22.6c-14.5-14.7-23.4-34.7-23.1-55.5c0.1-10.7,2-21.5,6.4-31.2
				c4.2-9.4,10.1-18.3,17.7-25.4c7.6-7.1,16.4-13.1,26.2-16.7c9.1-3.4,18.7-5.1,28.4-5.1c21.5,0,42,8.7,56.9,24.1
				c7.1,7.4,12.7,15.9,16.5,25.4c1.9,4.7,3.5,9.6,4.5,14.6c1.2,6,1,11.8,0.8,17.9c0.5-0.2,0.8-0.5,1.1-0.9c1.1-1.3,2.3-2.6,3.4-4
				c1.1-1.3,2.2-2.7,3.2-4.1C313.4-1463.6,313.6-1464,313.8-1464.5z"/>
			<path class="st3" d="M312-1466.8c-0.2-5.5-0.6-10.6-1.9-15.9c-1.3-5.4-3.1-10.5-5.5-15.5c-4.6-10-11.8-19.1-20-26.4
				c-17.2-15.4-40.3-23.6-63.4-22.5c-23,1.1-45.7,11.5-61.1,28.7c-7.5,8.4-13.8,18.2-17.6,28.8c-3.9,11-6.1,22.9-5.4,34.6
				c0.7,11.7,3.2,23.5,8.4,34c5,10.2,11.7,19.7,20.2,27.3c8.5,7.5,18.2,13.9,29,17.7c10,3.6,20.4,5.4,31,5.4
				c23.5-0.1,46-9.6,62.4-26.4c8-8.1,14.3-17.6,18.7-28.2c2.2-5.3,4-10.8,5.1-16.5c1.4-7,1.6-14.1,1.6-21.3c0-0.2-6.5,2.7-6.4,2.6
				c-1.6,0.8-3.3,1.6-4.9,2.4c-0.5,0.2-0.9,0.5-1.2,0.9c-0.2,5.1-0.6,10.1-1.7,15.1c-1,4.9-2.5,9.6-4.4,14.2
				c-3.7,9-9.4,17.4-16.2,24.3c-14.4,14.6-34.4,22.9-54.9,22.9c-20.9,0-42-8.7-56.3-24.1c-14.4-15.5-22.7-36.5-21.3-57.9
				c0.7-10.7,3.1-21.4,8.1-31c4.7-9.1,11-17.5,18.9-24.1c7.8-6.4,16.7-11.7,26.3-14.6c8.8-2.7,17.9-3.9,27.2-3.5
				c20,0.8,38.8,9.3,52.7,23.7c6.7,6.9,12,14.8,15.7,23.7c1.9,4.5,3.5,9.1,4.5,13.9c0.3,1.9,0.6,3.9,0.9,5.8
				c0.2,3.7,0.1,7.5-0.2,11.2c0.5-0.1,1-0.3,1.4-0.7c1.5-1.2,3.1-2.4,4.6-3.6s3-2.5,4.5-3.7C311.5-1465.8,311.8-1466.2,312-1466.8z"
				/>
			<path class="st3" d="M310.8-1463.2c-0.2-5.4-0.6-10.5-1.8-15.8c-1.3-5.4-3.1-10.5-5.5-15.5c-4.6-10-11.8-19.1-19.9-26.5
				c-17.2-15.5-40.3-23.7-63.5-22.6c-23,1.1-45.8,11.5-61.2,28.8c-7.5,8.4-13.8,18.2-17.6,28.9c-3.9,11-6,22.9-5.4,34.6
				c0.7,11.7,3.3,23.5,8.5,34c5,10.2,11.8,19.7,20.3,27.2s18.2,13.8,28.9,17.6c10,3.5,20.4,5.4,31,5.4c23.5-0.1,46-9.6,62.5-26.2
				c8-8.1,14.4-17.6,18.8-28.2c2.2-5.3,4-10.8,5.1-16.5c1.4-7.1,1.7-14.1,1.6-21.3c-0.4,0-0.8,0.1-1.1,0.4c-1.2,0.8-2.4,1.6-3.6,2.5
				c-1.2,0.8-2.4,1.7-3.5,2.6c-0.4,0.2-0.6,0.5-0.8,0.9c-0.4,5.6-0.9,10.8-2.2,16.2c-1.2,5.2-3,10.2-5.2,15
				c-4.3,9.4-10.9,18-18.5,24.8c-15.6,14-36.6,21-57.5,19.7c-20.2-1.3-40-10.8-53.2-26.3c-12.8-15-20.1-34.6-19.2-54.4
				c0.9-19.8,8.8-39.3,23.3-53.1c13.9-13.4,31.9-21.4,51.3-22.2c21-0.9,41.5,6.6,56.8,20.9c7.5,7,13.5,15.3,17.8,24.6
				c2.1,4.7,3.9,9.6,5,14.6c0.4,2,0.7,4.1,1.1,6.1c0.3,3.9,0.4,7.8,0.1,11.7c0.4-0.1,0.8-0.3,1-0.6c1.1-1,2.1-2,3.1-3.1
				c1-1,2-2.1,3-3.2C310.5-1462.5,310.8-1462.8,310.8-1463.2z"/>
			<path class="st3" d="M313.3-1459.6c-0.5-6.4-1-12.7-2.8-18.8c-1-3.3-2.1-6.4-3.5-9.5c-3.1-7.3-7.3-14-12.2-20.2
				c-7.8-9.8-18.1-17.7-29.3-23.2c-11.6-5.8-24.5-9-37.5-9.2c-25.8-0.6-51.9,10.5-68.8,30.1c-8.3,9.6-14.6,20.4-18.4,32.5
				c-3.9,12.3-5.3,25.8-3.4,38.6c1.7,11.7,5.4,22.7,11.2,33c3.4,6,7.7,11.4,12.4,16.4c4.5,4.9,10.1,9.5,15.7,13.1
				c9.8,6.3,20.4,10.6,31.8,13c6.8,1.4,14.4,2,21.4,1.5c7.1-0.4,14.3-1.4,21.1-3.6c11.1-3.5,21.1-8.8,30.3-15.9
				c9.8-7.7,17.8-17.8,23.5-28.8c3.7-7.1,6.4-14.7,8.1-22.5c1.5-7.1,1.8-14.2,1.8-21.5c0-1-1.7,1.3-1.6,1.2
				c-0.8,0.9-1.6,1.9-2.4,2.9c-0.4,0.5-0.8,1-1.1,1.6c-0.2,2.4-0.4,4.8-0.6,7.2c-0.4,3.5-1.1,7-2,10.4c-1.4,5.6-3.3,11.1-5.9,16.2
				c-2.1,4-4.4,7.9-7,11.6c-4,5.6-8.8,10.2-13.9,14.8c0.1-0.1,0.2-0.2,0.3-0.2c-1.8,1.4-3.7,2.8-5.5,4.2c0.1-0.1,0.2-0.1,0.3-0.2
				c-1.9,1.2-3.9,2.5-5.8,3.7c0.1-0.1,0.2-0.1,0.3-0.2c-2,1.1-4.1,2.1-6.1,3.2c0.1-0.1,0.2-0.1,0.3-0.2c-2.1,0.9-4.2,1.8-6.3,2.7
				c0.1,0,0.2-0.1,0.3-0.1c-2.2,0.7-4.3,1.4-6.5,2.1c0.1,0,0.2-0.1,0.4-0.1c-4.2,1.2-8.6,2-13,2.4c-4.2,0.4-8.5,0.5-12.7,0.2
				c-8.2-0.5-16.3-2.3-23.9-5.3c-11.9-4.7-22.4-12.2-31.2-21.4c-10.2-10.6-17.7-24-21.2-38.2c-3.7-15.2-2.8-31.1,2.5-45.8
				c5.3-14.8,15-27.8,27.6-37.1c13.6-10,30-15.3,46.8-15.5c17.1-0.2,33.8,4.9,47.8,14.7c14.3,10,25.6,24.9,31.1,41.5
				c1.4,4.2,2.4,8.4,3.1,12.7c0.5,4,0.7,8.1,0.7,12.1c0,1,1.5-1.5,1.4-1.2c0.6-1,1.2-1.9,1.7-2.9
				C312.9-1458.5,313.1-1459,313.3-1459.6z"/>
			<path class="st3" d="M313.8-1467c-0.2-5.5-0.6-10.7-1.9-16c-1.3-5.4-3.2-10.5-5.5-15.5c-4.7-10-11.9-19.1-20-26.4
				c-17.2-15.4-40.3-23.6-63.4-22.6c-23,1-45.9,11.4-61.3,28.7c-7.6,8.5-13.9,18.3-17.8,29c-4,11.1-6.1,23-5.4,34.8
				c0.7,11.8,3.3,23.6,8.6,34.2c5.1,10.2,11.9,19.8,20.4,27.3s18.4,13.8,29.1,17.6c10,3.5,20.5,5.4,31.1,5.3
				c23.5-0.2,46-9.8,62.5-26.6c8-8.2,14.3-17.7,18.7-28.2c2.2-5.3,3.9-10.9,5.1-16.5c1.4-7.1,1.6-14.1,1.6-21.3
				c-0.5,0-1,0.1-1.4,0.4c-1.6,0.8-3.2,1.6-4.8,2.4c-1.6,0.8-3.2,1.7-4.7,2.6c-0.5,0.2-0.9,0.5-1.1,0.9c-0.3,5.1-0.8,9.9-1.9,14.9
				c-1.1,4.8-2.5,9.4-4.4,13.9c-3.7,8.8-9.3,17.1-15.9,24c-14.2,14.6-33.8,23.3-54.1,23.9c-21,0.6-42.4-7.4-57.3-22.4
				c-7.4-7.4-13.7-16.2-17.7-26c-4.1-10.1-6.4-21.2-6.1-32.2c0.3-11,2.5-22.2,7.3-32.2c4.6-9.6,10.9-18.6,18.9-25.6
				c7.9-7,17.2-12.7,27.3-16c9.3-3,18.9-4.4,28.6-4.1c20.9,0.8,40.7,9.8,54.9,25.3c6.7,7.2,11.9,15.5,15.5,24.6
				c1.8,4.6,3.4,9.3,4.3,14.2c1.1,5.8,0.9,11.5,0.6,17.3c0.5-0.1,0.9-0.4,1.3-0.8c1.4-1.3,2.8-2.5,4.1-3.9c1.4-1.3,2.7-2.6,4-4
				C313.3-1466.1,313.6-1466.5,313.8-1467z"/>
			<path class="st3" d="M311.6-1468.8c-0.2-5.5-0.6-10.6-1.9-16s-3.2-10.5-5.5-15.5c-4.7-10-11.9-19.1-20.1-26.5
				c-17.3-15.5-40.5-23.6-63.7-22.5c-23,1.1-45.7,11.6-61.1,28.9c-7.5,8.4-13.9,18.2-17.7,28.8c-4,11-6.2,22.9-5.5,34.6
				c0.6,11.8,3.2,23.6,8.4,34.2c5,10.3,11.8,19.9,20.4,27.5c8.5,7.6,18.4,14,29.2,17.8c10.1,3.6,20.6,5.4,31.3,5.3
				c23.6-0.2,46.2-9.9,62.6-26.8c8-8.2,14.2-17.7,18.6-28.3c2.2-5.3,3.9-10.8,5-16.5c1.4-7.1,1.6-14.1,1.6-21.3
				c0-0.4-6.3,1.5-6.1,1.5c-0.2,0.1-5.9,1.4-5.9,2.2c0,5.2-0.1,10.2-0.9,15.3c-0.8,5-2,9.9-3.7,14.7c-3.3,9.4-8.8,18.4-15.5,25.8
				c-14.3,15.9-34.8,25.2-56.2,25.8c-21.8,0.6-44.1-8.2-59.2-24.1c-7.4-7.9-13.7-17.2-17.5-27.4c-3.8-10.5-5.8-21.9-5.1-33.2
				c0.8-11.2,3.4-22.4,8.8-32.2c5-9.4,11.7-18,20.1-24.6c8.1-6.4,17.4-11.5,27.4-14.2c8.9-2.4,18.1-3.3,27.3-2.6
				c19.3,1.4,37.3,9.9,50.9,23.7c6.6,6.6,11.9,14.2,15.8,22.7c2,4.4,3.7,8.9,4.8,13.6c0.3,1.9,0.7,3.8,1,5.7c0.3,3.6,0.3,7.3,0,10.9
				c0.5,0,1-0.2,1.4-0.5c1.6-0.9,3.3-1.8,4.9-2.8c1.6-0.9,3.2-1.9,4.8-2.9C311-1468.1,311.4-1468.5,311.6-1468.8z"/>
			<path class="st3" d="M311.4-1470.6c-0.3-6.5-0.8-12.8-2.7-19.1c-1.6-5.3-3.7-10.4-6.3-15.3c-5.3-9.9-12.5-18.5-21.2-25.7
				c-19-15.7-44.1-22.8-68.5-19.6c-24.2,3.2-46.2,16.5-60.5,36.2c-13.2,18.1-19.2,40.9-16.5,63.1c2,16.5,8.7,31.9,18.9,45
				c7.8,10,18.2,18.1,29.5,23.7c10.6,5.3,22.1,8.4,33.9,9.2c13.1,0.9,26.8-1,39-6.1c10.8-4.5,20.4-10.7,28.9-18.8
				c8.3-7.8,14.7-17.6,19.5-27.9c2.8-6.1,5-13.1,6.2-19.8c0.3-2.3,0.7-4.6,1-7c0.5-4.8,0.7-9.6,0.4-14.3c0-0.5-5.5,0.6-5.4,0.6
				c-0.1,0-5.3,0.7-5.3,1.3c0.2,4.3,0.4,8.5,0.1,12.7c-0.3,5.2-1.3,10.4-2.7,15.4c-2.5,9.1-6.6,17.6-12.1,25.3
				c-5.6,7.8-12.6,14.5-20.6,19.7c-8.2,5.4-17.5,9.7-27.2,11.6c-19.3,3.9-39.3,1.3-56.6-8.2c-4.9-2.7-9.6-5.8-13.9-9.4
				c-9.5-24.7-19-49.4-28.5-74.1c0.4-2.3,0.8-4.6,1.2-7c1.2-5.6,3.1-11.1,5.5-16.3c3.4-7.4,7.6-13.4,12.9-19.9
				c-0.1,0.1-0.1,0.2-0.2,0.3c1.6-1.7,3.2-3.3,4.8-5c-0.1,0.1-0.2,0.2-0.2,0.2c1.7-1.5,3.4-3,5.2-4.6c-0.1,0.1-0.2,0.2-0.3,0.2
				c1.8-1.4,3.7-2.7,5.5-4.1c-0.1,0.1-0.2,0.1-0.3,0.2c1.9-1.2,3.9-2.4,5.8-3.6c-0.1,0.1-0.2,0.1-0.3,0.2c2-1,4-2.1,6-3.1
				c-0.1,0-0.2,0.1-0.3,0.1c4-1.8,8.1-3.3,12.3-4.4c4-1.1,8.1-1.8,12.3-2.2c6.2-0.5,12.4-0.4,18.5,0.4c12.3,1.7,24,6.3,34.4,13
				c9.8,6.4,18.5,14.8,24.9,24.6c3.1,4.8,5.6,9.9,7.6,15.2c1.3,3.6,2.3,7.4,2.9,11.2c0.4,3.6,0.5,7.2,0.3,10.7
				c0,0.3,6.2-2.2,6.1-2.2C305.9-1467.8,311.4-1469.7,311.4-1470.6z"/>
			<path class="st3" d="M312.3-1463.2c-0.2-5.5-0.6-10.6-1.8-15.9c-1.3-5.4-3.1-10.5-5.4-15.5c-4.6-10-11.7-19.1-19.8-26.4
				c-17.1-15.5-40.2-23.7-63.3-22.7c-23,1-45.8,11.4-61.2,28.7c-7.5,8.4-13.8,18.2-17.6,28.9c-3.9,11-6.1,22.9-5.4,34.6
				c0.7,11.7,3.3,23.4,8.5,34c5,10.2,11.7,19.7,20.2,27.2c8.4,7.5,18.2,13.8,28.9,17.6c10,3.5,20.4,5.4,31,5.4
				c23.4-0.1,45.9-9.6,62.4-26.3c8-8.1,14.3-17.6,18.7-28.1c2.2-5.3,4-10.8,5.1-16.5c1.4-7,1.6-14.1,1.6-21.2
				c-0.5,0-0.9,0.2-1.3,0.6c-1.4,1-2.8,2.1-4.2,3.1c-1.4,1.1-2.8,2.1-4.1,3.2c-0.4,0.3-0.7,0.6-0.9,1.1c-0.5,5.4-1.2,10.5-2.6,15.7
				c-1.4,5-3.2,9.7-5.5,14.3c-4.3,8.8-10.9,16.9-18.3,23.3c-15.1,13-35,19.6-54.9,18.5c-19.6-1.1-38.9-9.8-52.1-24.4
				c-13.2-14.6-21.2-33.9-20.6-53.8c0.5-20.2,8.5-40.2,23.4-54.1c7.3-6.8,15.7-12.6,25.1-16.2c8.8-3.4,18-5.2,27.4-5.4
				c21.1-0.4,41.4,7.8,56.2,22.7c7.2,7.2,12.9,15.6,16.8,25c2,4.7,3.6,9.6,4.6,14.6c1.2,5.9,1.1,11.8,0.9,17.8
				c0.5-0.1,0.8-0.4,1.1-0.9c1.2-1.3,2.3-2.6,3.4-3.9s2.2-2.7,3.3-4C312-1462.3,312.2-1462.8,312.3-1463.2z"/>
			<path class="st3" d="M310.5-1467.6c-0.2-5.4-0.6-10.6-1.9-15.9c-1.3-5.4-3.1-10.5-5.5-15.5c-4.6-10-11.8-19.1-20-26.5
				c-17.2-15.5-40.4-23.7-63.6-22.6c-23,1.1-45.8,11.6-61.2,28.9c-7.5,8.4-13.8,18.2-17.6,28.9c-3.9,11-6.1,22.9-5.4,34.6
				c0.7,11.7,3.2,23.5,8.4,34.1c5,10.2,11.7,19.8,20.3,27.4c8.5,7.6,18.3,13.9,29.1,17.8c10.1,3.6,20.5,5.5,31.2,5.4
				c23.6-0.1,46.2-9.8,62.7-26.7c8-8.2,14.3-17.7,18.6-28.3c2.2-5.3,3.9-10.9,5-16.5c1.4-7.1,1.6-14.1,1.5-21.3
				c0-0.4-5.6,1.8-5.5,1.7c-0.3,0.1-5.2,1.6-5.2,2.4c0,5.4-0.2,10.5-1.1,15.7c-0.9,5.1-2.2,10-4,14.9c-3.5,9.5-9.3,18.5-16.3,25.8
				c-14.8,15.6-35.6,24.5-57.1,24.5c-21.7,0.1-43.6-9.1-58.3-25.2c-7.2-7.9-13.2-17.1-16.7-27.2c-3.6-10.3-5.4-21.5-4.5-32.5
				c0.9-10.8,3.5-21.7,8.8-31.2c4.9-9,11.3-17.3,19.4-23.8c7.7-6.2,16.6-11.3,26.1-14.1c8.6-2.6,17.5-3.8,26.5-3.5
				c19.6,0.6,38.3,8.3,52.5,21.7c7,6.6,12.7,14.3,16.8,23c2.1,4.4,3.9,9.1,5,13.9c0.4,1.9,0.7,3.9,1.1,5.8c0.3,3.7,0.4,7.4,0.1,11.1
				c0.5,0,0.9-0.2,1.3-0.5c1.4-0.9,2.8-1.7,4.2-2.7c1.4-0.9,2.8-1.8,4.2-2.8C310-1466.8,310.3-1467.2,310.5-1467.6z"/>
			<path class="st3" d="M312.8-1471.1c0-4.3-0.4-8.6-1.2-12.8c-0.5-2.1-1-4.3-1.5-6.4c-2.1-7.5-5.6-14.5-9.8-21
				c-7.4-11.4-17.3-20.8-29-27.7c-25.2-15-57.8-17-84.2-4c-16.4,8.1-30.2,20.6-39.3,36.4c-7.7,13.4-11.7,28.7-11.8,44.1
				c0,15.6,3.9,31,11.8,44.6c10.5,18.3,27.6,32.5,47.5,39.6c13.6,4.8,28.4,6.3,42.7,4.2c14-2,27.3-7.5,38.9-15.6
				c11.2-7.8,20.3-18.6,26.9-30.5c3.9-7,6.6-14.7,8.4-22.5c0.9-3.4,1.5-6.9,1.8-10.4c0.5-4.8,0.7-9.6,0.4-14.3
				c0-0.5-5.8,0.4-5.7,0.4c0,0-5.7,0.5-5.6,1.2c0.3,6.3,0.4,12.4-0.4,18.7c-0.9,7.2-3.1,14.1-6,20.7c-5.1,11.6-12.8,21.7-22.5,29.7
				c-22.1,18.2-52.9,23-79.7,13.1c-6.3-2.3-12.4-5.5-17.9-9.3c-7.6-4.9-13.5-11.7-17.5-20.2c-7.1-6.3-11.9-13.9-14.5-22.7
				c-4.4-13.7-5.1-28.4-2.4-42.5c2.6-13.7,9.1-26.5,17.9-37.1c5-6.1,11.1-11.2,17.6-15.5c2.7-1.9,5.6-3.6,8.7-5
				c4.1-2,8.3-3.6,12.7-4.9c-0.1,0-0.2,0.1-0.3,0.1c2.3-0.5,4.5-1.1,6.8-1.6c-0.1,0-0.2,0.1-0.4,0.1c2.3-0.3,4.6-0.7,6.9-1
				c-0.1,0-0.3,0-0.4,0c2.3-0.1,4.6-0.3,6.9-0.4c-0.1,0-0.3,0-0.4,0c6.7,0.1,13.3,0.4,19.8,2c4.9,1.2,9.7,2.9,14.4,5
				c9.2,4.2,17.7,10.2,24.8,17.4c6.3,6.4,11.7,13.6,16,21.5c2.6,4.8,4.8,10.5,6.1,15.8c0.4,1.9,0.7,3.7,1.1,5.6
				c0.3,3.5,0.4,7.1,0.1,10.7c0,0.3,6.5-2.4,6.4-2.3c1.6-0.7,3.3-1.4,4.9-2.2C312.1-1470.3,312.5-1470.7,312.8-1471.1z"/>
			<path class="st3" d="M311.8-1460.6c-0.1-6.4,0.2-4.9-0.5-9.7c-0.7-5.4-2.1-10.7-4-15.8c-3.8-10.4-10.3-19.9-17.8-28
				c-7.7-8.3-17.3-14.7-27.5-19.5c-10.6-5-22.3-7.3-33.9-7.9c-11.9-0.5-23.9,1.8-35,6c-10.7,4-20.4,10.6-28.8,18.3
				c-17.8,16.5-27.7,40.7-27.6,64.9c0.1,23.5,9.7,46.1,26.5,62.6c16.7,16.3,39.3,25.5,62.6,25.3c23.4-0.2,45.9-9.7,62.3-26.4
				c8-8.1,14.3-17.6,18.8-28.1c2.2-5.3,4-10.8,5.2-16.5c1.4-7.1,1.7-14.1,1.7-21.3c-0.4,0-0.7,0.2-1,0.5c-1,0.9-2,1.8-3,2.8
				c-1,0.9-1.9,1.9-2.9,2.9c-0.3,0.3-0.5,0.6-0.6,1c-0.5,5.8-1.2,11.2-2.7,16.8c-1.4,5.3-3.3,10.5-5.9,15.4
				c-4.8,9.4-11.7,18.1-19.9,24.7c-7.3,5.9-15.5,10.5-24.4,13.5c-9.9,3.3-20.1,4.5-30.5,3.7c-18.7-1.4-35.8-9.4-49.3-22.3
				c-13.3-12.7-22.3-30.9-24-49.2c-0.9-9.1-0.3-18.2,1.8-27.1c2.4-9.7,6.6-18.8,12.4-26.9c11.6-16.1,28.7-26.9,48-31
				c10.7-2.3,22.3-1.9,32.9,0.5c10.3,2.3,20.6,6.9,29.1,13.2c7.7,5.8,14.4,12.6,19.7,20.6c2.9,4.4,5.5,9.1,7.5,14
				c4,9.8,5.6,19.5,5.1,30.4c0,0.4,0,0.3,0.3,0.2c0.2-0.2,0.4-0.4,0.5-0.5c0.6-0.7,1.1-1.4,1.7-2.2c0.8-1.1,1.7-2.3,2.4-3.4
				C311.3-1459.3,311.8-1460,311.8-1460.6z"/>
			<path class="st3" d="M311.5-1465.2c-0.2-5.4-0.6-10.6-1.9-15.9c-1.3-5.4-3.1-10.5-5.4-15.5c-4.6-10-11.8-19.1-19.9-26.4
				c-17.2-15.5-40.2-23.7-63.3-22.6c-23,1.1-45.8,11.4-61.1,28.7c-7.5,8.4-13.8,18.2-17.6,28.9c-3.9,11-6.1,22.8-5.4,34.5
				c0.7,11.7,3.2,23.4,8.4,33.9c5,10.2,11.7,19.7,20.2,27.2c8.4,7.5,18.2,13.8,28.9,17.6c10,3.6,20.3,5.4,30.9,5.4
				c23.4-0.1,45.9-9.6,62.4-26.2c8-8.1,14.3-17.6,18.7-28.1c2.2-5.3,4-10.8,5.1-16.5c1.4-7,1.6-14.1,1.6-21.2c-0.5,0-1,0.1-1.4,0.5
				c-1.6,0.8-3.1,1.7-4.7,2.6c-1.5,0.9-3.1,1.8-4.6,2.8c-0.5,0.2-0.8,0.5-1.1,1c-0.4,5.3-0.9,10.2-2.1,15.4
				c-1.2,4.9-2.8,9.7-4.8,14.3c-4,9-10.1,17.2-17.2,23.9c-14.8,13.9-34.9,21.4-55.3,20.8s-40.6-9.6-54.2-24.9
				c-13.6-15.2-21.3-35.5-20-56c1.3-20.3,10.1-40.1,25.6-53.5c7.4-6.4,16-11.8,25.3-14.9c8.7-2.9,17.6-4.4,26.8-4.3
				c20.2,0.2,39.6,8.3,53.9,22.7c6.9,7,12.4,15.1,16.3,24.1c2,4.6,3.6,9.3,4.6,14.2c0.3,2,0.6,3.9,0.9,5.9c0.2,3.8,0.2,7.6-0.1,11.4
				c0.5-0.1,0.9-0.4,1.3-0.8c1.4-1.2,2.8-2.4,4.1-3.7c1.4-1.2,2.7-2.5,4-3.8C311.1-1464.2,311.4-1464.7,311.5-1465.2z"/>
		</g>
	</g>
</g>
<path class="st4" d="M-2144.8-167.2c6.9,7.5,33.2-4.8,49.5-17.8c15.5-12.4,33.3-34.5,27.7-42.9c-5.5-8.4-33.9-2.9-52.8,11.9
	C-2139.6-201.1-2151.8-174.5-2144.8-167.2z"/>
<g>
	
		<text transform="matrix(1 0 0 1 -1767.4817 -419.4499)" style="fill:#2E193F; font-family:'FranklinGothicLTPro-CnMd'; font-size:72px;">Kuri</text>
	
		<text transform="matrix(1 0 0 1 -2021.7859 -420.2228)" class="st7" style="font-family:'FranklinGothicLTPro-CnMd'; font-size:72px;">Christina</text>
</g>
<text transform="matrix(1 0 0 1 -2107.2095 -386.144)" style="fill:#20231C; font-family:'MrsEavesXLSerifOT-Reg'; font-size:24px;">Psychotherapeutin in Ausbildung unter Supervision</text>
<text transform="matrix(1 0 0 1 -2121.4094 -357.344)" style="fill:#20231C; font-family:'MrsEavesXLSerifOT-Reg'; font-size:24px;">tiefenpsychologisch fundierte Hypnosepsychotherapie</text>
<rect x="-1207.9" y="-607.3" class="st5" width="651.4" height="459.6"/>
<text transform="matrix(1 0 0 1 -1207.8611 -598.5879)" style="font-family:'MrsEavesXLSerifOT-Reg'; font-size:14px;">Fliesstext Mrs Evans 14px.</text>
<text transform="matrix(1 0 0 1 -1207.8611 -564.988)" style="font-family:'MrsEavesXLSerifOT-Reg'; font-size:14px;">Lorem ipsum dolor sit amet, consectetuer adipiscing elit, sed diam nonummy nibh euismod tincidunt ut </text>
<text transform="matrix(1 0 0 1 -1207.8611 -548.1879)" style="font-family:'MrsEavesXLSerifOT-Reg'; font-size:14px;">laoreet dolore magna aliquam erat volutpat. Ut wisi enim ad minim veniam, quis nostrud exerci tation </text>
<text transform="matrix(1 0 0 1 -1207.8611 -531.3879)" style="font-family:'MrsEavesXLSerifOT-Reg'; font-size:14px;">ullamcorper suscipit lobortis nisl ut aliquip ex ea commodo consequat. Duis autem vel eum iriure dolor in </text>
<text transform="matrix(1 0 0 1 -1207.8611 -514.5879)" style="font-family:'MrsEavesXLSerifOT-Reg'; font-size:14px;">hendrerit in vulputate velit esse molestie consequat, vel illum dolore eu feugiat nulla facilisis at vero eros et </text>
<text transform="matrix(1 0 0 1 -1207.8611 -497.7879)" style="font-family:'MrsEavesXLSerifOT-Reg'; font-size:14px;">accumsan et iusto odio </text>
<text transform="matrix(1 0 0 1 -1068.4609 -497.7879)" style="fill:#98C73A; font-family:'MrsEavesXLSerifOT-Reg'; font-size:14px;">hier ein Textlink</text>
<text transform="matrix(1 0 0 1 -969.561 -497.7879)" style="font-family:'MrsEavesXLSerifOT-Reg'; font-size:14px;"> praesent luptatum zzril delenit augue duis dolore te feugait nulla </text>
<text transform="matrix(1 0 0 1 -1207.8611 -480.988)" style="font-family:'MrsEavesXLSerifOT-Reg'; font-size:14px;">facilisi.</text>
<text transform="matrix(1 0 0 1 -1207.8611 -447.3879)" style="font-family:'MrsEavesXLSerifOT-Reg'; font-size:14px;">Lorem ipsum dolor sit amet, cons ectetuer adipiscing elit, sed diam nonummy nibh euismod tincidunt ut </text>
<text transform="matrix(1 0 0 1 -1207.8611 -430.5879)" style="font-family:'MrsEavesXLSerifOT-Reg'; font-size:14px;">laoreet dolore magna aliquam erat volutpat. Ut wisi enim ad minim veniam, quis nostrud exerci tation </text>
<text transform="matrix(1 0 0 1 -1207.8611 -413.7879)" style="font-family:'MrsEavesXLSerifOT-Reg'; font-size:14px;">ullamcorper suscipit lobortis nisl ut aliquip ex ea commodo consequat.</text>
<text transform="matrix(1 0 0 1 -1207.8611 -396.9879)" style="font-family:'MrsEavesXLSerifOT-Reg'; font-size:14px;">Lorem ipsum dolor sit amet, consectetuer adipiscing elit, sed diam nonummy nibh euismod tincidunt ut </text>
<text transform="matrix(1 0 0 1 -1207.8611 -380.188)" style="font-family:'MrsEavesXLSerifOT-Reg'; font-size:14px;">laoreet dolore magna aliquam erat volutpat. Ut wisi enim ad minim veniam, quis nostrud exerci tation </text>
<text transform="matrix(1 0 0 1 -1207.8611 -363.3879)" style="font-family:'MrsEavesXLSerifOT-Reg'; font-size:14px;">ullamcorper suscipit lobortis nisl ut aliquip ex ea commodo consequat. Duis autem vel eum iriure dolor in </text>
<text transform="matrix(1 0 0 1 -1207.8611 -346.5879)" style="font-family:'MrsEavesXLSerifOT-Reg'; font-size:14px;">hendrerit in vulputate velit esse molestie consequat, vel illum dolore eu feugiat nulla facilisis at vero eros et </text>
<text transform="matrix(1 0 0 1 -1207.8611 -329.7879)" style="font-family:'MrsEavesXLSerifOT-Reg'; font-size:14px;">accumsan et iusto odio dignissim qui blandit praesent luptatum zzril delenit augue duis dolore te feugait </text>
<text transform="matrix(1 0 0 1 -1207.8611 -312.9879)" style="font-family:'MrsEavesXLSerifOT-Reg'; font-size:14px;">nulla facilisi.</text>
<text transform="matrix(1 0 0 1 -1207.8611 -279.3879)" style="font-family:'MrsEavesXLSerifOT-Reg'; font-size:14px;">Lorem ipsum dolor sit amet, cons ectetuer adipiscing elit, sed diam nonummy nibh euismod tincidunt ut </text>
<text transform="matrix(1 0 0 1 -1207.8611 -262.5879)" style="font-family:'MrsEavesXLSerifOT-Reg'; font-size:14px;">laoreet dolore magna aliquam erat volut</text>
<g>
	
		<text transform="matrix(1 0 0 1 -1211.7004 -748.6617)" class="st6" style="font-family:'FranklinGothicLTPro-CnMd'; font-size:36px;">Heading 1: Franklin Gothic 36px </text>
</g>
<g>
	
		<text transform="matrix(1 0 0 1 -1211.7844 -694.9432)" class="st6" style="font-family:'FranklinGothicLTPro-CnMd'; font-size:30px;">Heading 2: Franklin Gothic 30px </text>
</g>
<g>
	
		<text transform="matrix(1 0 0 1 -1209.3967 -650.2802)" class="st6" style="font-family:'FranklinGothicLTPro-CnMd'; font-size:24px;">Heading 3: Franklin Gothic 24px </text>
</g>
<image style="overflow:visible;enable-background:new    ;" width="2480" height="1040" xlink:href="../../../../../../../Downloads/Kuri komplement채r.jpeg"  transform="matrix(9.354889e-02 0 0 9.354889e-02 -655.6201 -1665.8011)">
</image>
<g>
	<rect x="-1207.9" y="326.1" class="st5" width="651.4" height="317.6"/>
	<text transform="matrix(1 0 0 1 -1207.8608 335.3743)" style="font-family:'NimbusSan-Lig'; font-size:14px;">Fliesstext Nimbus Sans Linght 14px.</text>
	<text transform="matrix(1 0 0 1 -1207.8608 368.9743)" style="font-family:'NimbusSan-Lig'; font-size:14px;">Lorem ipsum dolor sit amet, consectetuer adipiscing elit, sed diam nonummy nibh euismod tincidunt ut laoreet </text>
	<text transform="matrix(1 0 0 1 -1207.8608 385.7743)" style="font-family:'NimbusSan-Lig'; font-size:14px;">dolore magna aliquam erat volutpat. Ut wisi enim ad minim veniam, quis nostrud exerci tation ullamcorper </text>
	<text transform="matrix(1 0 0 1 -1207.8608 402.5743)" style="font-family:'NimbusSan-Lig'; font-size:14px;">suscipit lobortis nisl ut aliquip ex ea commodo consequat. Duis autem vel eum iriure dolor in hendrerit in </text>
	<text transform="matrix(1 0 0 1 -1207.8608 419.3743)" style="font-family:'NimbusSan-Lig'; font-size:14px;">vulputate velit esse molestie consequat, vel illum dolore eu feugiat nulla facilisis at vero eros et accumsan et </text>
	<text transform="matrix(1 0 0 1 -1207.8608 436.1743)" style="font-family:'NimbusSan-Lig'; font-size:14px;">iusto odio </text>
	<text transform="matrix(1 0 0 1 -1146.0608 436.1743)" style="fill:#98C73A; font-family:'NimbusSan-Lig'; font-size:14px;">hier ein Textlink</text>
	<text transform="matrix(1 0 0 1 -1054.7607 436.1743)" style="font-family:'NimbusSan-Lig'; font-size:14px;"> praesent luptatum zzril delenit augue duis dolore te feugait nulla facilisi.</text>
	<text transform="matrix(1 0 0 1 -1207.8608 469.7743)" style="font-family:'NimbusSan-Lig'; font-size:14px;">Lorem ipsum dolor sit amet, cons ectetuer adipiscing elit, sed diam nonummy nibh euismod tincidunt ut </text>
	<text transform="matrix(1 0 0 1 -1207.8608 486.5743)" style="font-family:'NimbusSan-Lig'; font-size:14px;">laoreet dolore magna aliquam erat volutpat. Ut wisi enim ad minim veniam, quis nostrud exerci tation ullamcor</text>
	<text transform="matrix(1 0 0 1 -561.8608 486.5743)" style="font-family:'NimbusSan-Lig'; font-size:14px;">-</text>
	<text transform="matrix(1 0 0 1 -1207.8608 503.3743)" style="font-family:'NimbusSan-Lig'; font-size:14px;">per suscipit lobortis nisl ut aliquip ex ea commodo consequat.</text>
	<text transform="matrix(1 0 0 1 -1207.8608 520.1743)" style="font-family:'NimbusSan-Lig'; font-size:14px;">Lorem ipsum dolor sit amet, consectetuer adipiscing elit, sed diam nonummy nibh euismod tincidunt ut laoreet </text>
	<text transform="matrix(1 0 0 1 -1207.8608 536.9744)" style="font-family:'NimbusSan-Lig'; font-size:14px;">dolore magna aliquam erat volutpat. Ut wisi enim ad minim veniam, quis nostrud exerci tation ullamcorper </text>
	<text transform="matrix(1 0 0 1 -1207.8608 553.7743)" style="font-family:'NimbusSan-Lig'; font-size:14px;">suscipit lobortis nisl ut aliquip ex ea commodo consequat. Duis autem vel eum iriure dolor in hendrerit in </text>
	<text transform="matrix(1 0 0 1 -1207.8608 570.5743)" style="font-family:'NimbusSan-Lig'; font-size:14px;">vulputate velit esse molestie consequat, vel illum dolore eu feugiat nulla facilisis at vero eros et accumsan et </text>
	<text transform="matrix(1 0 0 1 -1207.8608 587.3743)" style="font-family:'NimbusSan-Lig'; font-size:14px;">iusto odio dignissim qui blandit praesent luptatum zzril delenit augue duis dolore te feugait nulla facilisi.</text>
	<text transform="matrix(1 0 0 1 -1207.8608 620.9744)" style="font-family:'NimbusSan-Lig'; font-size:14px;">Lorem ipsum dolor sit amet, cons ectetuer adipiscing elit, sed diam nonummy nibh euismod tincidunt ut </text>
	<text transform="matrix(1 0 0 1 -1207.8608 637.7743)" style="font-family:'NimbusSan-Lig'; font-size:14px;">laoreet dolore magna aliquam erat volut</text>
	<g>
		<text transform="matrix(1 0 0 1 -1211.7002 184.6979)" class="st12" style="font-family:'LookScript-Reg'; font-size:36px;">Heading 1: Look Script 36px </text>
	</g>
	<g>
		<text transform="matrix(1 0 0 1 -1211.7842 238.4163)" class="st6" style="font-family:'LookScript-Reg'; font-size:30px;">Heading 2: Look Script 30px </text>
	</g>
	<g>
		<text transform="matrix(1 0 0 1 -1209.3965 283.0796)" class="st6" style="font-family:'LookScript-Reg'; font-size:24px;">Heading 3: Look Script 24px </text>
	</g>
</g>
<g>
	<g>
		
			<image style="overflow:visible;enable-background:new    ;" width="196" height="194" xlink:href="E261AE8B.png"  transform="matrix(0.6478 0 0 0.6478 1445.4941 20.338)">
		</image>
	</g>
</g>
<path class="st4" d="M-115.7,688.8c6.9,7.5,33.2-4.8,49.5-17.8c15.5-12.4,33.3-34.5,27.7-42.9c-5.5-8.4-33.9-2.9-52.8,11.9
	C-110.4,654.9-122.5,681.4-115.7,688.8z"/>
<g>
	<path class="st6" d="M-62.4,414.2c-0.3,3.1-11.1-17.6-12.7-19.1c-33-32.3-120.7-44.1-186.1-31.8c-35.5,6.6-39.4,15.6-69.2,15.3
		c-15.5-0.3-53.6-0.8-80.3-26.5c-38.5-37-33.5-107-22.6-146.5c18.7-67.9,70.4-102.4,126.2-138.3C-227.2,15.7-74-4,4.3,2.5"/>
	<path class="st7" d="M-9.5,479.1c-1.6-24-2.6-42.9-3.2-53.3C-24.3,209.6-3.3,70.2-0.2,28.6C0.6,17.1,4.4,6.4,4.7,2.5
		c43.7,1.2,95.1,12.3,141.8,39.8c52.6,30.9,80.3,73.2,95,96.3c31.4,49.1,41.4,94,44.5,109.9c8.9,46.3,19.3,99.4-11.1,149.9
		c-24.9,41.5-77.8,82.1-126.6,74.1c-45.6-7.5-67.6-52.6-102.4-69.7C20.1,389.9,3.1,455.2-9.5,479.1z"/>
	<path class="st7" d="M-12,480.7c-4.3-24.9-8.7-49.8-12.9-74.7"/>
	<path class="st4" d="M278,266.8c-1.4-1.2-82.3-66.1-129.8-62.4c-4.9,0.4-8-5-5-9c29.9-39.8,48.6-80.7,47.2-81.8
		c-1.6-1.3-33.9,58-73.9,89.7l0,0c-2.1,0.8-22.4-81.6-25.5-96.8c0-0.1-0.1,0-0.1,0c2.1,18.1,12.8,105.5,9.6,107.7
		c-30.6,21.5-82.6,59.3-107.7,51.3c-2.1-0.6-3.5-2.5-3.7-4.5C-17.9,211.4,6.1-1.3,4.4-1.3c-3.9,0-31.2,178.5-48.7,240.8
		c-1.4,5.2-8.5,5.6-10.6,0.6c-19.4-45.6-81.6-159.5-82.9-159.1c-1.2,0.3,50.9,125.8,68.5,173.3c6.1,16.5,5.2,13.7,2.6,22.4l0,0
		c-3.4-1-105.6-131.7-95.4-110.5c0.5,0.9,70.2,106.9,69.3,106.5c-55.3-26.5-199.5-145.2-198.7-137.3c0.4,3.6,60.8,45.4,117.8,115.8
		c2.8,3.5,0.6,8.8-3.9,9.2c-53.9,5.4-110,12.8-109.5,18c0.4,4.1,133.3-34.5,193.1,23.4c10.5,10.2-101.7,44.3-101.2,44.2
		c117.9-23,119.1,4.9,129.5,31.4c15,37.9-38.8,114.8,22.2,114.7c0.8,0,1.7,0.1,2.5,0.5c16.4,7.2,38.5,8.9,49.3,0
		c1.6-1.3,2.3-3.5,1.8-5.6l0,0c-0.1-0.8-0.1-1.4,0-2.2c0.3-3.2-11.8-17.2-11.6-20.6c0-0.5-8.3-3.1-8.4-3.6
		c-4.4-24,8.1-26.5,8.8-79.8c0.4-37.9,16.9-66.1,21.5-73.6c2.5-4,4.9-7.6,7.5-11c0.1-0.1,0.3-0.4,0.4-0.5
		c18.4-19.5,39.9-26.1,74.1-55.7c3.7-3.2,7.4-6.6,10.9-10.1c0.3-0.3,0.6-0.5,0.9-0.8C168.9,194.6,279.8,268.4,278,266.8z"/>
	<path class="st4" d="M-108.7,260.9"/>
	<path class="st4" d="M-2.3,136.8c3.6,8.8,30.6,6.6,49.1,0.5c17.6-5.8,34.5-15.1,38.3-28.6c-11.1-7.4-28.7-13.6-50.2-6.9
		C13.5,108.8-5.9,128.1-2.3,136.8z"/>
	<path class="st4" d="M6.8,65.3c3.6,8.8,30.6,6.6,49.1,0.5C73.5,60,92.1,46.4,94.1,37.3c-5.9-5.9-28.7-13.6-50.2-6.9
		C22.5,37.3,3.1,56.7,6.8,65.3z"/>
	<path class="st4" d="M-224.8,337.6c8.9,2.7,27-0.1,41.5-8.7c13.7-8.1,30.4-23.8,26.9-31s-26.8-6.1-43.4,3.5
		C-216.7,311.1-225.7,329.8-224.8,337.6z"/>
	<path class="st4" d="M-296.5,337.7c10,1.8,27-0.1,41.5-8.7c13.7-8.1,30.4-23.8,26.9-31s-26.8-6.1-43.4,3.5
		C-288.4,311.3-297.4,329.7-296.5,337.7z"/>
	<path class="st4" d="M-360.4,338.5c10.3,0.6,27-0.1,41.5-8.7c13.7-8.1,30.4-23.8,26.9-31s-26.8-6.1-43.4,3.5
		C-352.2,312-363.1,330.1-360.4,338.5z"/>
	<path class="st4" d="M-366.7,240.7c8.9,15.6,19.1,19,35.4,23.1c15.5,4,38.3,4.7,41-3c2.7-7.6-14.6-23.1-33.2-28.2
		C-342.3,227.7-357.1,232.2-366.7,240.7z"/>
	<path class="st4" d="M-305.4,213.2c7.4,13.2,19.1,19,35.4,23.1c15.5,4,38.3,4.7,41-3c2.7-7.6-14.6-23.1-33.2-28.2
		C-281.1,200.3-304,205.3-305.4,213.2z"/>
	<path class="st4" d="M-383.6,157.7c7,8.3,25.2,9.8,41.8,7.2c15.8-2.5,37-10.9,36.5-19c-0.5-8-22.6-15.5-41.6-12.7
		C-366.4,136.2-382.6,149.5-383.6,157.7z"/>
	<path class="st4" d="M-282.9,131.8c8,1.9,20-18.1,25.2-34c4.8-15.3,4.3-31.8-0.6-41.1c-7.4-3.1-23.9,13.2-30,31.5
		C-294.6,106.7-290.8,130-282.9,131.8z"/>
	<path class="st4" d="M-239.6,154.9c8.7,2.3,21.2-19.4,26.1-36.8c4.8-16.7,3.9-36.3-1.9-45.5c-10.2,2.6-25.5,14-31.5,34
		C-252.9,126.7-248.2,152.6-239.6,154.9z"/>
	<path class="st4" d="M-145.1,173.1c6.5,0.1,13.1-17.3,14.9-30.4c1.7-12.5-1.2-25.6-5.9-31.4c-5.3,1.9-16.8,14.2-19,29.3
		C-157.5,155.8-151.5,173-145.1,173.1z"/>
	<path class="st4" d="M-169.7,173.1c4.9-4.1-1.6-21.6-8.9-32.7c-7-10.5-17.7-18.5-25.2-19.6c-2.6,4.9-3.2,21.7,5,34.5
		C-190.2,168.3-174.5,177.3-169.7,173.1z"/>
	<path class="st4" d="M-129.2,78.8c6.2,1.3,16-14.2,20.3-26.6c4-11.8,3.9-26,0.3-31.5c-4.8,2.5-19,10.6-24,24.7
		C-137.8,59.6-135.3,77.5-129.2,78.8z"/>
	<path class="st4" d="M-60.2,10.8c6.9,15.8,8.7,19.5,19.1,27.4c10,7.4,26.1,14.6,30,9.8c3.9-4.8-4.3-21.3-16.3-30.4
		C-39.4,8.3-49.6,8.1-60.2,10.8z"/>
	<path class="st4" d="M-85.7,66.2c9.4,13.6,14.5,18.4,27.8,23.8c12.7,5.2,31.8,8.3,34.8,2.1c2.8-6.2-10.3-21.5-25.6-27.8
		C-64.1,57.8-80.1,60.3-85.7,66.2z"/>
	<path class="st4" d="M-85.7,112.5c-0.5,9.7,8.9,19.5,19.4,27.1c10.1,7.4,26.2,14.3,30.1,9.4c3.9-4.8-4.5-21.2-16.5-30.2
		C-64.9,109.8-76.1,109.7-85.7,112.5z"/>
	<path class="st4" d="M-144,80.7c-4.1,4.8-21.3-1.4-32.3-8.7c-10.3-6.9-22.6-19.5-19.4-24.8c11.4-4.1,21.5-3.2,34.1,4.9
		C-148.8,60.4-139.8,75.9-144,80.7z"/>
	<path class="st4" d="M77.6,273.7c-3.2,6.5,12,18.7,25.2,24.7c12.5,5.7,29.2,6.9,36.6,4c0.9-10.6-7-21.5-22.1-28.4
		C102.2,266.7,80.8,267.4,77.6,273.7z"/>
	<path class="st4" d="M135.4,237.1c-5.3,4.8,4.5,21.8,14.6,32.2c9.7,9.8,23.7,15.9,32.7,16.9c4.8-11.6,1.2-22.5-10.3-34.5
		C160.8,239.6,140.7,232.5,135.4,237.1z"/>
	<path class="st4" d="M172.6,166.7c-1.2,7.1,17.2,14.1,31.5,15.8c13.7,1.6,25.2-1,36.1-7.4c-4.3-9-13.2-18.2-29.7-20.4
		C193.8,152.7,173.8,159.7,172.6,166.7z"/>
	<path class="st4" d="M217.1,221.9c2.7,5,17.6,0.6,27.4-5c9.4-5.6,15.4-12.7,19.3-21.8c-7-3.7-17.1-5.2-28.4,1.3
		C223.8,202.9,214.5,216.8,217.1,221.9z"/>
	<path class="st4" d="M98.5,105.3c4.5,5.6,22-3.2,33-12.7c10.3-9,22.4-25.3,18.9-31.7c-3.5-6.2-22.4-2.5-35,8.3
		C102.5,80.1,94.1,99.7,98.5,105.3z"/>
	<path class="st4" d="M113.9,149.9c4.5,5.6,22-3.2,33-12.7c10.3-9,22.4-25.3,18.9-31.7c-3.5-6.2-22.4-2.5-35,8.3
		C117.8,124.7,109.5,144.3,113.9,149.9z"/>
	<path class="st4" d="M7.1,229.9c3.9,6.1,22.2-0.8,34.1-9c11.4-7.9,20.9-16.5,22.2-29.3c-7.5-3.9-22-4.9-35.8,4.4
		C13.7,205.2,3.3,223.8,7.1,229.9z"/>
	<path class="st4" d="M223,253.7c-4.3,4.7,2.6,22.2,10,33.2c7,10.3,14.3,15.8,24.2,18.6c3.1-8.5,1.7-22.6-6.6-35.4
		C242.1,257.4,227.2,249.1,223,253.7z"/>
</g>
<g>
	
		<text transform="matrix(1 0 0 1 324.7873 587.7625)" class="st6" style="font-family:'FranklinGothicLTPro-CnMd'; font-size:72px;">Kuri</text>
	<text transform="matrix(1 0 0 1 70.4831 586.9897)" class="st7" style="font-family:'FranklinGothicLTPro-CnMd'; font-size:72px;">Christina</text>
</g>
<text transform="matrix(1 0 0 1 -14.94 621.0684)" style="fill:#20231C; font-family:'MrsEavesXLSerifOT-Reg'; font-size:24px;">Psychotherapeutin in Ausbildung unter Supervision</text>
<text transform="matrix(1 0 0 1 -29.14 649.8684)" style="fill:#20231C; font-family:'MrsEavesXLSerifOT-Reg'; font-size:24px;">tiefenpsychologisch fundierte Hypnosepsychotherapie</text>
<rect x="821.3" y="248.8" class="st5" width="651.4" height="459.6"/>
<text transform="matrix(1 0 0 1 821.3497 257.485)" style="font-family:'MrsEavesXLSerifOT-Reg'; font-size:14px;">Fliesstext Mrs Evans 14px.</text>
<text transform="matrix(1 0 0 1 821.3497 291.085)" style="font-family:'MrsEavesXLSerifOT-Reg'; font-size:14px;">Lorem ipsum dolor sit amet, consectetuer adipiscing elit, sed diam nonummy nibh euismod tincidunt ut </text>
<text transform="matrix(1 0 0 1 821.3497 307.885)" style="font-family:'MrsEavesXLSerifOT-Reg'; font-size:14px;">laoreet dolore magna aliquam erat volutpat. Ut wisi enim ad minim veniam, quis nostrud exerci tation </text>
<text transform="matrix(1 0 0 1 821.3497 324.685)" style="font-family:'MrsEavesXLSerifOT-Reg'; font-size:14px;">ullamcorper suscipit lobortis nisl ut aliquip ex ea commodo consequat. Duis autem vel eum iriure dolor in </text>
<text transform="matrix(1 0 0 1 821.3497 341.485)" style="font-family:'MrsEavesXLSerifOT-Reg'; font-size:14px;">hendrerit in vulputate velit esse molestie consequat, vel illum dolore eu feugiat nulla facilisis at vero eros et </text>
<text transform="matrix(1 0 0 1 821.3497 358.285)" style="font-family:'MrsEavesXLSerifOT-Reg'; font-size:14px;">accumsan et iusto odio </text>
<text transform="matrix(1 0 0 1 960.7497 358.285)" style="fill:#98C73A; font-family:'MrsEavesXLSerifOT-Reg'; font-size:14px;">hier ein Textlink</text>
<text transform="matrix(1 0 0 1 1059.6497 358.285)" style="font-family:'MrsEavesXLSerifOT-Reg'; font-size:14px;"> praesent luptatum zzril delenit augue duis dolore te feugait nulla </text>
<text transform="matrix(1 0 0 1 821.3497 375.085)" style="font-family:'MrsEavesXLSerifOT-Reg'; font-size:14px;">facilisi.</text>
<text transform="matrix(1 0 0 1 821.3497 408.685)" style="font-family:'MrsEavesXLSerifOT-Reg'; font-size:14px;">Lorem ipsum dolor sit amet, cons ectetuer adipiscing elit, sed diam nonummy nibh euismod tincidunt ut </text>
<text transform="matrix(1 0 0 1 821.3497 425.485)" style="font-family:'MrsEavesXLSerifOT-Reg'; font-size:14px;">laoreet dolore magna aliquam erat volutpat. Ut wisi enim ad minim veniam, quis nostrud exerci tation </text>
<text transform="matrix(1 0 0 1 821.3497 442.285)" style="font-family:'MrsEavesXLSerifOT-Reg'; font-size:14px;">ullamcorper suscipit lobortis nisl ut aliquip ex ea commodo consequat.</text>
<text transform="matrix(1 0 0 1 821.3497 459.085)" style="font-family:'MrsEavesXLSerifOT-Reg'; font-size:14px;">Lorem ipsum dolor sit amet, consectetuer adipiscing elit, sed diam nonummy nibh euismod tincidunt ut </text>
<text transform="matrix(1 0 0 1 821.3497 475.885)" style="font-family:'MrsEavesXLSerifOT-Reg'; font-size:14px;">laoreet dolore magna aliquam erat volutpat. Ut wisi enim ad minim veniam, quis nostrud exerci tation </text>
<text transform="matrix(1 0 0 1 821.3497 492.685)" style="font-family:'MrsEavesXLSerifOT-Reg'; font-size:14px;">ullamcorper suscipit lobortis nisl ut aliquip ex ea commodo consequat. Duis autem vel eum iriure dolor in </text>
<text transform="matrix(1 0 0 1 821.3497 509.485)" style="font-family:'MrsEavesXLSerifOT-Reg'; font-size:14px;">hendrerit in vulputate velit esse molestie consequat, vel illum dolore eu feugiat nulla facilisis at vero eros et </text>
<text transform="matrix(1 0 0 1 821.3497 526.285)" style="font-family:'MrsEavesXLSerifOT-Reg'; font-size:14px;">accumsan et iusto odio dignissim qui blandit praesent luptatum zzril delenit augue duis dolore te feugait </text>
<text transform="matrix(1 0 0 1 821.3497 543.085)" style="font-family:'MrsEavesXLSerifOT-Reg'; font-size:14px;">nulla facilisi.</text>
<text transform="matrix(1 0 0 1 821.3497 576.6851)" style="font-family:'MrsEavesXLSerifOT-Reg'; font-size:14px;">Lorem ipsum dolor sit amet, cons ectetuer adipiscing elit, sed diam nonummy nibh euismod tincidunt ut </text>
<text transform="matrix(1 0 0 1 821.3497 593.485)" style="font-family:'MrsEavesXLSerifOT-Reg'; font-size:14px;">laoreet dolore magna aliquam erat volut</text>
<g>
	
		<text transform="matrix(1 0 0 1 817.5104 107.4111)" class="st6" style="font-family:'FranklinGothicLTPro-CnMd'; font-size:36px;">Heading 1: Franklin Gothic 36px </text>
</g>
<g>
	
		<text transform="matrix(1 0 0 1 817.4264 161.1294)" class="st6" style="font-family:'FranklinGothicLTPro-CnMd'; font-size:30px;">Heading 2: Franklin Gothic 30px </text>
</g>
<g>
	<text transform="matrix(1 0 0 1 819.814 205.7927)" class="st6" style="font-family:'FranklinGothicLTPro-CnMd'; font-size:24px;">Heading 3: Franklin Gothic 24px </text>
</g>
<image style="overflow:visible;enable-background:new    ;" width="2480" height="1040" xlink:href="../../../../../../../Downloads/Kuri komplement채r.jpeg"  transform="matrix(9.354889e-02 0 0 9.354889e-02 -655.6201 23.1489)">
</image>
<image style="overflow:visible;enable-background:new    ;" width="2480" height="1040" xlink:href="../../../../../../../Downloads/Kuri komplement채r.jpeg"  transform="matrix(9.354889e-02 0 0 9.354889e-02 -655.6201 -832.9244)">
</image>
<g>
	<path class="st8" d="M-1899.1-598.6c39,5.1,78.9,22,76.5,50.3c-2.3,27.2-50.6,44.7-89.7,42.1c-81.2-5.4-139.3-98.5-134.5-102.8
		c2.1-1.9,15.5,13.9,38.5,15c19,1,32.6,13.4,57.2,6.7C-1949.1-587.8-1923.1-601.7-1899.1-598.6z"/>
	<path class="st9" d="M-1714.1-694.9c-3-0.4-2.8,19.1-20.4,31.8c-14.5,10.5-16.9,27.5-41.2,34.7c-1.8,0.5-32.3,2.7-49.5,17.7
		c-6,5.2-11.7,10.9-16.7,16.9c-5-5.9-10.6-11.7-16.7-16.9c-17.2-14.9-47.6-17.1-49.5-17.7c-24.4-7.2-26.7-24.2-41.2-34.7
		c-17.6-12.7-17.4-32.3-20.4-31.8c-6.9,0.9-25,105.5,36.4,151.5c25.7,19.2,67.3,29.8,91.5,18.9c24.1,10.9,65.8,0.3,91.5-18.9
		C-1688.9-589.4-1707.1-693.9-1714.1-694.9z"/>
	<g>
		<path class="st10" d="M-1858.6-614.2c6,5.2,11.7,10.9,16.7,16.9c5-5.9,10.6-11.7,16.7-16.9c7.1-6.2,16.4-10.1,25.1-12.7
			c-10.3-10-25.3-16.4-42.1-16.4c-16.7,0-31.7,6.3-42,16.2C-1875.4-624.4-1865.8-620.3-1858.6-614.2z"/>
	</g>
	<path class="st8" d="M-1784.8-598.6c-39,5.1-78.9,22-76.5,50.3c2.3,27.2,50.6,44.7,89.7,42.1c81.2-5.4,139.3-98.5,134.5-102.8
		c-2.1-1.9-15.5,13.9-38.5,15c-19,1-32.6,13.4-57.2,6.7C-1734.6-587.8-1760.6-601.7-1784.8-598.6z"/>
</g>
<rect x="-1203.9" y="-1412.7" class="st5" width="651.4" height="459.6"/>
<text transform="matrix(1 0 0 1 -1203.8538 -1401.912)" style="font-family:'NeusaNextStd-Regular'; font-size:14px;">Fliesstext Neusa Next 14px.</text>
<text transform="matrix(1 0 0 1 -1203.8538 -1368.312)" style="font-family:'NeusaNextStd-Regular'; font-size:14px;">Lorem ipsum dolor sit amet, consectetuer adipiscing elit, sed diam nonummy nibh euismod tincidunt ut </text>
<text transform="matrix(1 0 0 1 -1203.8538 -1351.512)" style="font-family:'NeusaNextStd-Regular'; font-size:14px;">laoreet dolore magna aliquam erat volutpat. Ut wisi enim ad minim veniam, quis nostrud exerci tation </text>
<text transform="matrix(1 0 0 1 -1203.8538 -1334.712)" style="font-family:'NeusaNextStd-Regular'; font-size:14px;">ullamcorper suscipit lobortis nisl ut aliquip ex ea commodo consequat. Duis autem vel eum iriure dolor in </text>
<text transform="matrix(1 0 0 1 -1203.8538 -1317.912)" style="font-family:'NeusaNextStd-Regular'; font-size:14px;">hendrerit in vulputate velit esse molestie consequat, vel illum dolore eu feugiat nulla facilisis at vero eros </text>
<text transform="matrix(1 0 0 1 -1203.8538 -1301.1119)" style="font-family:'NeusaNextStd-Regular'; font-size:14px;">et accumsan et iusto odio </text>
<text transform="matrix(1 0 0 1 -1042.0537 -1301.1119)" style="fill:#98C73A; font-family:'NeusaNextStd-Regular'; font-size:14px;">hier ein Textlink</text>
<text transform="matrix(1 0 0 1 -944.6537 -1301.1119)" style="font-family:'NeusaNextStd-Regular'; font-size:14px;"> praesent luptatum zzril delenit augue duis dolore te feugait </text>
<text transform="matrix(1 0 0 1 -1203.8538 -1284.312)" style="font-family:'NeusaNextStd-Regular'; font-size:14px;">nulla facilisi.</text>
<text transform="matrix(1 0 0 1 -1203.8538 -1250.712)" style="font-family:'NeusaNextStd-Regular'; font-size:14px;">Lorem ipsum dolor sit amet, cons ectetuer adipiscing elit, sed diam nonummy nibh euismod tincidunt ut </text>
<text transform="matrix(1 0 0 1 -1203.8538 -1233.912)" style="font-family:'NeusaNextStd-Regular'; font-size:14px;">laoreet dolore magna aliquam erat volutpat. Ut wisi enim ad minim veniam, quis nostrud exerci tation </text>
<text transform="matrix(1 0 0 1 -1203.8538 -1217.1119)" style="font-family:'NeusaNextStd-Regular'; font-size:14px;">ullamcorper suscipit lobortis nisl ut aliquip ex ea commodo consequat.</text>
<text transform="matrix(1 0 0 1 -1203.8538 -1200.312)" style="font-family:'NeusaNextStd-Regular'; font-size:14px;">Lorem ipsum dolor sit amet, consectetuer adipiscing elit, sed diam nonummy nibh euismod tincidunt ut </text>
<text transform="matrix(1 0 0 1 -1203.8538 -1183.512)" style="font-family:'NeusaNextStd-Regular'; font-size:14px;">laoreet dolore magna aliquam erat volutpat. Ut wisi enim ad minim veniam, quis nostrud exerci tation </text>
<text transform="matrix(1 0 0 1 -1203.8538 -1166.712)" style="font-family:'NeusaNextStd-Regular'; font-size:14px;">ullamcorper suscipit lobortis nisl ut aliquip ex ea commodo consequat. Duis autem vel eum iriure dolor in </text>
<text transform="matrix(1 0 0 1 -1203.8538 -1149.912)" style="font-family:'NeusaNextStd-Regular'; font-size:14px;">hendrerit in vulputate velit esse molestie consequat, vel illum dolore eu feugiat nulla facilisis at vero eros </text>
<text transform="matrix(1 0 0 1 -1203.8538 -1133.1119)" style="font-family:'NeusaNextStd-Regular'; font-size:14px;">et accumsan et iusto odio dignissim qui blandit praesent luptatum zzril delenit augue duis dolore te feu</text>
<text transform="matrix(1 0 0 1 -573.0537 -1133.1119)" style="font-family:'NeusaNextStd-Regular'; font-size:14px;">-</text>
<text transform="matrix(1 0 0 1 -1203.8538 -1116.312)" style="font-family:'NeusaNextStd-Regular'; font-size:14px;">gait nulla facilisi.</text>
<text transform="matrix(1 0 0 1 -1203.8538 -1082.712)" style="font-family:'NeusaNextStd-Regular'; font-size:14px;">Lorem ipsum dolor sit amet, cons ectetuer adipiscing elit, sed diam nonummy nibh euismod tincidunt ut </text>
<text transform="matrix(1 0 0 1 -1203.8538 -1065.912)" style="font-family:'NeusaNextStd-Regular'; font-size:14px;">laoreet dolore magna aliquam erat volut</text>
<g>
	
		<text transform="matrix(1 0 0 1 -1207.6936 -1554.0297)" class="st6" style="font-family:'DomusTitlingSemibold'; font-size:36px;">Heading 1: Domus Titling 36px </text>
</g>
<g>
	
		<text transform="matrix(1 0 0 1 -1207.7776 -1500.3113)" class="st6" style="font-family:'DomusTitlingSemibold'; font-size:30px;">Heading 2: Domus Titling 30px </text>
</g>
<g>
	
		<text transform="matrix(1 0 0 1 -1205.3899 -1455.6479)" class="st6" style="font-family:'DomusTitlingSemibold'; font-size:24px;">Heading 3: Domus Titling  24px </text>
</g>
<image style="overflow:visible;enable-background:new    ;" width="2480" height="1040" xlink:href="../../../../../../../Downloads/Kuri komplement채r.jpeg"  transform="matrix(9.354889e-02 0 0 9.354889e-02 1373.5908 -832.9244)">
</image>
<g>
	<rect x="821.3" y="-1363" class="st5" width="651.4" height="317.6"/>
	<text transform="matrix(1 0 0 1 821.3505 -1354.514)" style="font-family:'MrEavesXLModOT-Book'; font-size:14px;">Fliesstext Mr Evans 14px.</text>
	<text transform="matrix(1 0 0 1 821.3505 -1320.9141)" style="font-family:'MrEavesXLModOT-Book'; font-size:14px;">Lorem ipsum dolor sit amet, consectetuer adipiscing elit, sed diam nonummy nibh euismod tincidunt ut laoreet dolore </text>
	<text transform="matrix(1 0 0 1 821.3505 -1304.114)" style="font-family:'MrEavesXLModOT-Book'; font-size:14px;">magna aliquam erat volutpat. Ut wisi enim ad minim veniam, quis nostrud exerci tation ullamcorper suscipit lobortis nisl </text>
	<text transform="matrix(1 0 0 1 821.3505 -1287.3141)" style="font-family:'MrEavesXLModOT-Book'; font-size:14px;">ut aliquip ex ea commodo consequat. Duis autem vel eum iriure dolor in hendrerit in vulputate velit esse molestie conse</text>
	<text transform="matrix(1 0 0 1 1464.1504 -1287.3141)" style="font-family:'MrEavesXLModOT-Book'; font-size:14px;">-</text>
	<text transform="matrix(1 0 0 1 821.3505 -1270.514)" style="font-family:'MrEavesXLModOT-Book'; font-size:14px;">quat, vel illum dolore eu feugiat nulla facilisis at vero eros et accumsan et iusto odio </text>
	<text transform="matrix(1 0 0 1 1274.3506 -1270.514)" style="fill:#98C73A; font-family:'MrEavesXLModOT-Book'; font-size:14px;">hier ein Textlink</text>
	<text transform="matrix(1 0 0 1 1357.2505 -1270.514)" style="font-family:'MrEavesXLModOT-Book'; font-size:14px;"> praesent luptatum </text>
	<text transform="matrix(1 0 0 1 821.3505 -1253.714)" style="font-family:'MrEavesXLModOT-Book'; font-size:14px;">zzril delenit augue duis dolore te feugait nulla facilisi.</text>
	<text transform="matrix(1 0 0 1 821.3505 -1220.114)" style="font-family:'MrEavesXLModOT-Book'; font-size:14px;">Lorem ipsum dolor sit amet, cons ectetuer adipiscing elit, sed diam nonummy nibh euismod tincidunt ut laoreet dolore </text>
	<text transform="matrix(1 0 0 1 821.3505 -1203.3141)" style="font-family:'MrEavesXLModOT-Book'; font-size:14px;">magna aliquam erat volutpat. Ut wisi enim ad minim veniam, quis nostrud exerci tation ullamcorper suscipit lobortis nisl </text>
	<text transform="matrix(1 0 0 1 821.3505 -1186.514)" style="font-family:'MrEavesXLModOT-Book'; font-size:14px;">ut aliquip ex ea commodo consequat.</text>
	<text transform="matrix(1 0 0 1 821.3505 -1169.714)" style="font-family:'MrEavesXLModOT-Book'; font-size:14px;">Lorem ipsum dolor sit amet, consectetuer adipiscing elit, sed diam nonummy nibh euismod tincidunt ut laoreet dolore </text>
	<text transform="matrix(1 0 0 1 821.3505 -1152.9141)" style="font-family:'MrEavesXLModOT-Book'; font-size:14px;">magna aliquam erat volutpat. Ut wisi enim ad minim veniam, quis nostrud exerci tation ullamcorper suscipit lobortis nisl </text>
	<text transform="matrix(1 0 0 1 821.3505 -1136.114)" style="font-family:'MrEavesXLModOT-Book'; font-size:14px;">ut aliquip ex ea commodo consequat. Duis autem vel eum iriure dolor in hendrerit in vulputate velit esse molestie conse</text>
	<text transform="matrix(1 0 0 1 1464.1504 -1136.114)" style="font-family:'MrEavesXLModOT-Book'; font-size:14px;">-</text>
	<text transform="matrix(1 0 0 1 821.3505 -1119.3141)" style="font-family:'MrEavesXLModOT-Book'; font-size:14px;">quat, vel illum dolore eu feugiat nulla facilisis at vero eros et accumsan et iusto odio dignissim qui blandit praesent </text>
	<text transform="matrix(1 0 0 1 821.3505 -1102.514)" style="font-family:'MrEavesXLModOT-Book'; font-size:14px;">luptatum zzril delenit augue duis dolore te feugait nulla facilisi.</text>
	<text transform="matrix(1 0 0 1 821.3505 -1068.9141)" style="font-family:'MrEavesXLModOT-Book'; font-size:14px;">Lorem ipsum dolor sit amet, cons ectetuer adipiscing elit, sed diam nonummy nibh euismod tincidunt ut laoreet dolore </text>
	<text transform="matrix(1 0 0 1 821.3505 -1052.114)" style="font-family:'MrEavesXLModOT-Book'; font-size:14px;">magna aliquam erat volut</text>
	<g>
		<text transform="matrix(1 0 0 1 817.511 -1504.2523)" class="st12" style="font-family:'Parkside-Bold'; font-size:36px;">Heading 1: Franklin Gothic 36px </text>
	</g>
	<g>
		<text transform="matrix(1 0 0 1 817.427 -1450.5339)" class="st6" style="font-family:'Parkside-Bold'; font-size:30px;">Heading 2: Franklin Gothic 30px </text>
	</g>
	<g>
		<text transform="matrix(1 0 0 1 819.8145 -1405.8707)" class="st6" style="font-family:'Parkside-Bold'; font-size:24px;">Heading 3: Franklin Gothic 24px </text>
	</g>
</g>
<g>
	<g>
		<path class="st10" d="M170.9-1474.8c19.7-2.6,40.3-0.2,58.6,7.8c20.7,8.9,38.2,25.1,46.9,46.4c16.8,41.5-2.4,89.5-33.7,118.8
			c-46.1,44.5-138.1,44.8-170-16.5c-9.7-18.9-12.9-40.6-9.9-61.5c6.2-45,42-75.6,87.5-74.5c21.2,0.3,42.2,5.5,60.7,15.9
			c38.4,20.9,51.6,57.9,26.2,95.5c-17,24.4-46.1,41.8-76.2,41.9c-32.2-0.3-63.1-15.8-73.4-48c-10.4-30.9,0.1-68.2,31.5-82
			c25.1-11.5,58.4-6,74.8,17.3c10.6,15.1,14.4,35.7,6.9,52.9c-7.3,16.8-24.6,27.2-42.3,28.5c-11.7,0.9-24.3-2.5-32.7-11.1
			c-22.2-23-13.9-71.7,25.3-58.8c3.3,1.1,6.5,2.4,9.5,4.2l-0.9,1.8c-6.1-2.4-12.8-3.8-19-3.5c-21.9,0.9-22.1,27.5-12.8,41.9
			c6,10.1,17.8,14.3,29.2,12.5c13-1.8,25.7-10.6,29.4-23.3c3.3-11.3-0.1-23.8-6.8-33.2c-4.7-6.6-11.7-11-19.6-13.3
			c-21.2-5.9-46.2,4.4-52.6,26.4c-6.6,20.7,0.7,47.2,20.3,58.5c10.7,6.5,24.1,9.4,36.7,9.4c16.8-0.7,33-8,45.8-18.9
			c9.1-7.7,16.7-17.5,20.8-28.7c12.2-32.1-16.1-56.3-43.5-68.3c-29.2-12.2-66.6-14.2-92,7.4c-25.6,21-32.9,58.5-22.7,89.1
			c12.4,39.5,50.3,56.9,89.7,53.6c18.7-1.5,37.2-7.1,53.2-16.9c36.3-23,62.7-71.8,47.2-114.2c-1.1-2.8-2.4-5.8-3.9-8.4
			c-1.2-1.9-2.3-4.2-3.6-6c-4.2-6.5-9.9-12.3-15.9-17.4c-2.9-2.4-6.6-4.9-9.8-7c-1.5-0.9-3.7-2.1-5.2-3c-3.8-1.9-8.2-4-12.2-5.5
			c-13.1-4.9-27.1-7.2-41.3-7.5C171-1472.8,170.9-1474.8,170.9-1474.8L170.9-1474.8z"/>
	</g>
	<g>
		<path class="st11" d="M170.9-1474.2c14.3-1.1,29,0.3,42.8,4.5c3.8,1.1,8.3,2.9,12,4.5c0.6,0.2,1.8,0.8,2.3,1.1
			c6.1,2.9,12.2,6.5,17.5,10.7c62.5,48.5,22.7,143.9-42.2,168.3c-51.9,20.7-119.2,5.1-135.2-54c-3.7-13.1-4.7-27-2.9-40.5
			c9.8-64.3,68.2-84.7,125-63.9c24.8,9.8,51.8,28.3,53.9,57.3c1,15-4.9,29.6-13.8,41.4c-16.3,21.3-41.9,36.1-69.1,36.1
			c-20.7-0.5-42.7-7.6-56-24.4c-13.1-16.7-16.7-40-10.3-60.1c4.3-13.5,14.5-25.2,27.5-31c22.2-10.4,52.5-5.7,66.7,15.5
			c7.9,11.6,11.5,26.6,7.9,40.3c-2.6,10.3-9.9,19.3-19,24.5c-12.1,7-27.5,9.1-40.4,3.2c-13-5.9-20-20.4-20.5-34.2
			c-0.5-21.2,13.5-32.3,33.9-26.4c3.3,0.9,6.5,2.1,9.5,3.6l-0.2,0.4c-6.1-2.8-12.7-4.5-19.4-4.5c-10.7-0.1-18.7,6.5-20.9,17
			c-3.3,15.6,3.7,34.7,18.8,41.4c18.6,8,43.1-1.2,51.9-19.3c5.4-10.9,4.4-24.1-0.4-35c-10.7-25.6-41.7-32.9-65.6-21.8
			c-37.7,17-35.1,76.4-0.7,95.7c12.6,7.4,27.7,10.6,42.3,10c18-1.2,35.3-9.3,48.8-21.1c19.5-16.7,33.2-45,19.9-69.5
			c-12.3-22.6-40.3-37-64.8-42.2c-33.8-7.4-68.8,0.2-89.2,30c-15.3,22.1-18.4,51.4-10.7,76.9c16.7,57.2,81.4,70.5,131.6,50.4
			c61-22.9,100.9-112.8,44.2-160.6c-5.6-4.8-12.1-9-18.7-12.4c-1.4-0.8-5.3-2.4-6.8-3.1c-3.1-1.2-6.3-2.4-9.5-3.3
			c-12.8-4-26.4-5.4-39.8-4.9L170.9-1474.2L170.9-1474.2z"/>
	</g>
	<text transform="matrix(1 0 0 1 -93.3421 -1169.3474)" style="font-family:'MrEavesXLModOT-Book'; font-size:24px;">Psychotherapeutin in Ausbildung unter Supervision</text>
	<text transform="matrix(1 0 0 1 -110.0421 -1140.5474)" style="font-family:'MrEavesXLModOT-Book'; font-size:24px;">tiefenpsychologisch fundierte Hypnosepsychotherapie</text>
	<text transform="matrix(1 0 0 1 -66.234 -1210.5645)" class="st12" style="font-family:'Parkside-Bold'; font-size:72px;">Christina Kuri</text>
</g>
<image style="overflow:visible;enable-background:new    ;" width="2480" height="1040" xlink:href="../../../../../../../Downloads/Kuri komplement채r.jpeg"  transform="matrix(9.354889e-02 0 0 9.354889e-02 1373.5908 -1665.8011)">
</image>
<rect x="825.3" y="-579.8" class="st5" width="651.4" height="459.6"/>
<text transform="matrix(1 0 0 1 825.3577 -571.4147)" style="font-family:'MrEavesXLModOT-Book'; font-size:14px;">Fliesstext Mr Evans 14px.</text>
<text transform="matrix(1 0 0 1 825.3577 -537.8147)" style="font-family:'MrEavesXLModOT-Book'; font-size:14px;">Lorem ipsum dolor sit amet, consectetuer adipiscing elit, sed diam nonummy nibh euismod tincidunt ut laoreet dolore </text>
<text transform="matrix(1 0 0 1 825.3577 -521.0146)" style="font-family:'MrEavesXLModOT-Book'; font-size:14px;">magna aliquam erat volutpat. Ut wisi enim ad minim veniam, quis nostrud exerci tation ullamcorper suscipit lobortis nisl </text>
<text transform="matrix(1 0 0 1 825.3577 -504.2147)" style="font-family:'MrEavesXLModOT-Book'; font-size:14px;">ut aliquip ex ea commodo consequat. Duis autem vel eum iriure dolor in hendrerit in vulputate velit esse molestie conse</text>
<text transform="matrix(1 0 0 1 1468.1577 -504.2147)" style="font-family:'MrEavesXLModOT-Book'; font-size:14px;">-</text>
<text transform="matrix(1 0 0 1 825.3577 -487.4147)" style="font-family:'MrEavesXLModOT-Book'; font-size:14px;">quat, vel illum dolore eu feugiat nulla facilisis at vero eros et accumsan et iusto odio </text>
<text transform="matrix(1 0 0 1 1278.3577 -487.4147)" style="fill:#98C73A; font-family:'MrEavesXLModOT-Book'; font-size:14px;">hier ein Textlink</text>
<text transform="matrix(1 0 0 1 1361.2578 -487.4147)" style="font-family:'MrEavesXLModOT-Book'; font-size:14px;"> praesent luptatum </text>
<text transform="matrix(1 0 0 1 825.3577 -470.6147)" style="font-family:'MrEavesXLModOT-Book'; font-size:14px;">zzril delenit augue duis dolore te feugait nulla facilisi.</text>
<text transform="matrix(1 0 0 1 825.3577 -437.0147)" style="font-family:'MrEavesXLModOT-Book'; font-size:14px;">Lorem ipsum dolor sit amet, cons ectetuer adipiscing elit, sed diam nonummy nibh euismod tincidunt ut laoreet dolore </text>
<text transform="matrix(1 0 0 1 825.3577 -420.2147)" style="font-family:'MrEavesXLModOT-Book'; font-size:14px;">magna aliquam erat volutpat. Ut wisi enim ad minim veniam, quis nostrud exerci tation ullamcorper suscipit lobortis nisl </text>
<text transform="matrix(1 0 0 1 825.3577 -403.4147)" style="font-family:'MrEavesXLModOT-Book'; font-size:14px;">ut aliquip ex ea commodo consequat.</text>
<text transform="matrix(1 0 0 1 825.3577 -386.6147)" style="font-family:'MrEavesXLModOT-Book'; font-size:14px;">Lorem ipsum dolor sit amet, consectetuer adipiscing elit, sed diam nonummy nibh euismod tincidunt ut laoreet dolore </text>
<text transform="matrix(1 0 0 1 825.3577 -369.8147)" style="font-family:'MrEavesXLModOT-Book'; font-size:14px;">magna aliquam erat volutpat. Ut wisi enim ad minim veniam, quis nostrud exerci tation ullamcorper suscipit lobortis nisl </text>
<text transform="matrix(1 0 0 1 825.3577 -353.0147)" style="font-family:'MrEavesXLModOT-Book'; font-size:14px;">ut aliquip ex ea commodo consequat. Duis autem vel eum iriure dolor in hendrerit in vulputate velit esse molestie conse</text>
<text transform="matrix(1 0 0 1 1468.1577 -353.0147)" style="font-family:'MrEavesXLModOT-Book'; font-size:14px;">-</text>
<text transform="matrix(1 0 0 1 825.3577 -336.2147)" style="font-family:'MrEavesXLModOT-Book'; font-size:14px;">quat, vel illum dolore eu feugiat nulla facilisis at vero eros et accumsan et iusto odio dignissim qui blandit praesent </text>
<text transform="matrix(1 0 0 1 825.3577 -319.4147)" style="font-family:'MrEavesXLModOT-Book'; font-size:14px;">luptatum zzril delenit augue duis dolore te feugait nulla facilisi.</text>
<text transform="matrix(1 0 0 1 825.3577 -285.8147)" style="font-family:'MrEavesXLModOT-Book'; font-size:14px;">Lorem ipsum dolor sit amet, cons ectetuer adipiscing elit, sed diam nonummy nibh euismod tincidunt ut laoreet dolore </text>
<text transform="matrix(1 0 0 1 825.3577 -269.0147)" style="font-family:'MrEavesXLModOT-Book'; font-size:14px;">magna aliquam erat volut</text>
<g>
	<text transform="matrix(1 0 0 1 821.518 -721.1526)" class="st6" style="font-family:'MrsEavesXLSerifOT-Reg'; font-size:36px;">Heading 1: Mrs Evans LT Pro 36px </text>
</g>
<g>
	<text transform="matrix(1 0 0 1 821.434 -667.4342)" class="st6" style="font-family:'MrsEavesXLSerifOT-Reg'; font-size:30px;">Heading 2: Mrs Evans LT Pro 30px </text>
</g>
<g>
	<text transform="matrix(1 0 0 1 823.8217 -622.7709)" class="st6" style="font-family:'MrsEavesXLSerifOT-Reg'; font-size:24px;">Heading 3: Mrs Evans LT Pro  24px </text>
</g>
<g>
	<path class="st12" d="M-1713.6-1438.8c-0.4-67.7-55.6-122.7-123.4-122.7c-68.1,0-123.4,55.4-123.4,123.4
		c0,68.1,55.4,123.4,123.4,123.4h73.3v-22h-73.3c-55.9,0-101.4-45.5-101.4-101.4s45.5-101.4,101.4-101.4
		c55.9,0,101.4,45.5,101.4,101.4v72.9h22V-1438.8L-1713.6-1438.8z"/>
	<path class="st12" d="M-1738.4-1438.6c-0.3-54.2-44.5-98.2-98.7-98.2c-54.4,0-98.7,44.3-98.7,98.7c0,54.4,44.3,98.7,98.7,98.7h73.4
		v-17.6h-73.4c-44.7,0-81.1-36.4-81.1-81.1s36.4-81.1,81.1-81.1s81.1,36.4,81.1,81.1v72.8h17.6V-1438.6L-1738.4-1438.6z"/>
	
		<radialGradient id="SVGID_1_" cx="-1815.1592" cy="2322.6128" r="77.931" fx="-1760.0536" fy="2377.7183" gradientTransform="matrix(1 0 0 -1 0 906.7)" gradientUnits="userSpaceOnUse">
		<stop  offset="0" style="stop-color:#B0D959"/>
		<stop  offset="7.002669e-02" style="stop-color:#89AB42"/>
		<stop  offset="0.155" style="stop-color:#5F7929"/>
		<stop  offset="0.197" style="stop-color:#4E651F"/>
		<stop  offset="0.2275" style="stop-color:#465B1A"/>
		<stop  offset="0.2947" style="stop-color:#394C13"/>
		<stop  offset="0.3726" style="stop-color:#31430E"/>
		<stop  offset="0.4852" style="stop-color:#2F400D"/>
	</radialGradient>
	<path class="st13" d="M-1837.1-1516c-43,0-77.9,34.9-77.9,77.9s34.9,77.9,77.9,77.9h77.9v-77.9
		C-1759.1-1481.1-1794.1-1516-1837.1-1516z"/>
	<rect x="-1758.9" y="-1336.6" class="st12" width="21.7" height="21.7"/>
	<rect x="-1735.6" y="-1359.8" class="st12" width="21.7" height="21.7"/>
</g>
<text transform="matrix(1 0 0 1 -2115.1719 -1233.2036)" class="st12" style="font-family:'DomusTitlingSemibold'; font-size:72px;">Christina Kuri</text>
<text transform="matrix(1 0 0 1 -2108.1741 -1184.0594)" style="fill:#20231C; font-family:'NeusaNextStd-Regular'; font-size:24px;">Psychotherapeutin in Ausbildung unter Supervision</text>
<text transform="matrix(1 0 0 1 -2127.074 -1155.2594)" style="fill:#20231C; font-family:'NeusaNextStd-Regular'; font-size:24px;">tiefenpsychologisch fundierte Hypnosepsychotherapie</text>
<path class="st12" d="M-2514.1,51.7"/>
<g>
	<g>
		<path class="st12" d="M-1720.4,288.2c-1-1-2.4-1.4-3.8-1.1c-3.7,0.7-7.3,1.4-11.2,2.1c-7.7,1.4-18.3,4.2-26.6,6.3l-2.2,7.3
			c8-2,22.5-5.3,30-6.7c2.4-0.4,4.8-0.9,7.2-1.3c-0.5,2.7-1,5.4-1.5,8c-5.6,30.6-10.9,59.6-51,99.7l-0.4,0.4
			c-40.1,40.1-69,45.4-99.7,51c-0.7,0.1-5.6,0.9-6.3,1l-1.7,7.7c2-0.4,7.2-1.4,9.2-1.8c30.4-5.6,61.7-11.3,103.4-53l0.4-0.4
			c41.6-41.6,47.4-73,53-103.4c0.7-3.9,1.5-8,2.3-12C-1719.1,290.6-1719.4,289.2-1720.4,288.2z"/>
		<path class="st12" d="M-1895.2,376.4c-0.1,0.2-0.3,0.4-0.4,0.6c-1.4-21.7-7.5-46.8-26.4-78.7l-0.3-0.5
			c-30.1-50.7-60.7-64.8-87.7-77.3c-3.6-1.6-6.9-3.2-10.3-4.8c-1.3-0.6-2.7-0.5-4,0.2c-1.2,0.7-2,2-2,3.4c-0.2,4.1-0.5,8.2-0.8,12.2
			c-2.1,30.8-4.3,62.6,25.7,113.3l0.3,0.5c30,50.6,59,64,87,76.9l8.3,3.4l-1.9-7.9l-3.4-1.8c-28.3-13.1-55-25.4-83.9-74.2l-0.3-0.5
			c-7.9-13.3-13.4-25.1-17.3-35.9c19.9,8,42.9,23.1,61.9,42.1l0.4,0.4c40.2,40.2,45.8,70.8,51.2,100.5c0.4,2.4,0.9,4.8,1.3,7.2
			c-2.7-0.5-5.4-1-8-1.5c-30.6-5.6-59.6-10.9-99.7-51l-0.4-0.4c-40.1-40.1-45.4-69-51-99.7c-0.5-2.6-1-5.3-1.5-8
			c2.4,0.5,4.8,0.9,7.2,1.3c7.3,1.3,14.7,2.7,22.4,4.6l0,0c0.8,0.2,5.6,1.5,6.4,1.7l-2.2-7.9c-0.8-0.2-1.7-0.4-2.5-0.6l0,0
			c-7.9-2-15.5-3.4-22.9-4.7c-3.9-0.7-7.5-1.4-11.2-2.1c-1.4-0.3-2.8,0.1-3.8,1.1s-1.4,2.4-1.1,3.8c0.8,4,1.6,8.1,2.3,12
			c5.6,30.4,11.3,61.7,53,103.4l0.4,0.4c41.6,41.6,73,47.4,103.4,53c3.9,0.7,8,1.5,12,2.3c0.3,0.1,0.6,0.1,0.8,0.1
			c0.2,0,0.5,0,0.8,0c0.8,0.1,1.8,0,2.5,0c0.3,0,0.6,0,0.8-0.1c0.4-0.1,0.6-0.1,0.7-0.1c0.1,0,0.2,0,0.3-0.1l1.7-7.5l1.3-7.2
			c1.3-7.1,2.6-14.3,4.4-21.7c3.1-1.5,6.2-2.9,9.3-4.3c28-12.9,57-26.3,87-76.9l0.3-0.5c30-50.6,27.8-82.5,25.7-113.3
			c-0.3-4-0.6-8.1-0.8-12.2c-0.1-1.4-0.8-2.7-2-3.4s-2.7-0.8-4-0.2c-3.4,1.6-6.7,3.2-10.3,4.8c-24.7,11.4-52.3,24.1-79.8,64.7
			c0.2-5.4,0.3-11.1,0.1-17.2v-0.6c-1.6-58.9-21.5-86.2-39-110.2c-2.3-3.2-4.5-6.2-6.7-9.2c-0.8-1.2-2.1-1.8-3.5-1.8
			c-1.4,0-2.7,0.8-3.4,2c-2.2,3.5-4.4,6.9-6.6,10.3c-15.3,23.5-31.2,52.5-32.7,101l7.3,8.3c1.5-46.6,15.7-81.7,31.2-105.5
			c1.5-2.2,2.9-4.5,4.4-6.8c1.4,2,2.9,4,4.3,5.9c17.8,24.3,36.2,49.5,37.7,106.3v0.6c0.3,10.9-0.1,20.6-1,29.5c0,0,0,0,0,0.1
			l-0.3,0.5 M-1791.2,341.1l-0.3,0.5c-28.9,48.8-55.6,61.1-83.9,74.2c-1.3,0.6-2.6,1.2-4,1.8c6.3-20.8,17.7-43.3,44.4-69.9l0.4-0.4
			c18.1-18.1,41.7-33.8,60.7-42C-1777.9,316.1-1783.4,327.9-1791.2,341.1z M-1857.6,300.1c28.7-47.8,56.7-60.7,83.9-73.2
			c2.2-1,4.4-2,6.6-3.1c0.2,2.7,0.4,5.5,0.5,8.1c1.4,20.3,2.7,39.9-4.5,64.6c-20.1,8.6-49.8,27-68.5,45.8l-0.4,0.4
			c-24.4,24.4-36.6,45.9-43.6,65.4 M-1928.1,301.9c18.4,31.1,24.3,55.1,25.5,76.1c-0.5-0.7-1-1.4-1.5-2
			c-16.9-23.1-32.8-45.8-36.5-93.2c4.1,5.6,8.1,11.7,12.2,18.6L-1928.1,301.9z M-1947.1,274.1l-1.5-1.9
			C-1948.1,273-1947.6,273.6-1947.1,274.1z M-1945.9,342.4c-19.6-19.6-48.9-37.6-69.7-46c-7.2-24.6-5.9-44.1-4.5-64.4
			c0.2-2.7,0.4-5.4,0.5-8.1c2.2,1,4.5,2.1,6.6,3.1c20.9,9.6,42.4,19.5,64.2,45.4c3.7,49.9,22.3,84.8,39.1,107.8
			c2.4,3.2,4.8,6.6,7.1,9.9c0.1,0.1,0.2,0.2,0.3,0.3c-0.1,5.2-0.3,10.2-0.7,15.2c-7.1-18.8-19.3-39.4-42.6-62.7L-1945.9,342.4z"/>
	</g>
	<text transform="matrix(1 0 0 1 -2078.1858 531.5955)" class="st12" style="font-family:'LookScript-Reg'; font-size:72px;">Christina Kuri</text>
	<text transform="matrix(1 0 0 1 -2139.1355 587.8679)" style="fill:#20231C; font-family:'NimbusSan-Lig'; font-size:24px;">Psychotherapeutin in Ausbildung unter Supervision</text>
	<text transform="matrix(1 0 0 1 -2154.3354 616.6678)" style="fill:#20231C; font-family:'NimbusSan-Lig'; font-size:24px;">tiefenpsychologisch fundierte Hypnosepsychotherapie</text>
</g>
<g id="Ebene_3">
	<g>
		<path class="st12" d="M-19.2-460.8c-1.6,2.9-0.2,0.8-4.9,5.3l-1,1.7c-8.8,7.7-4.6,4.6-12.4,9.4c-7.1,4.3-4.2,2.6-8.9,4.7
			c-7.1,3-4.2,1.7-7.1,2.8c-1.4,0.5-2.6,0.7-4,1.3c-2,0.2-1.2-0.1-2.8,0.8c-2.8,0.4-5.8,1-8.5,1c-1.7,0-2.6,0.4-5.4,0.8
			c-3.4,2.6-5.2,6.1-7.2,9.7l-1.9,4.7c-1.8,2.4-1,3.8-2.3,6.4c-0.1,1.8-0.6,4.1-0.6,6.1c0,3.5,2.6,7.1,4,7.3
			c0.6,1.1,4.6,1.7,7.4,1.7c1.6,0,3.7,0,5.6-1c2.5-0.6,5.2-1.4,7.7-2.4c0.6-0.2,1.6-0.7,3.4-1.3c1.6-0.8,5.8-4.1,7-4.1
			c0.5,0,0.7,0.1,0.7,0.4c0,0.1-0.5,0.5-1.3,1.1l-2.3,1.6l-4.8,2.6l-3.7,1.9l-2.4,1.2c-1.7,0.8-5.3,1.8-7.4,2.6
			c-2.5,0.7-5,1.2-6.6,1.2c-4.1,0-7.6-1.9-9.6-3.4c-3.1-3-4.4-4-4.4-8.8c0-0.5,0.4-4.3,1.4-5.4c0-2.2,0.8-5.2,2-7.9
			c1.3-2.8,1.4-1.4,6.7-10.6c0.8-2.4,0.1-0.8,2.6-4l-0.1-0.6c-6.7-2.9-8.8-3-8.8-9.2c0-0.8,0-1.8,0.1-2.9
			c4.4-7.4,10.2-10.8,18.6-11.6c1.7,0.2,2.2,0.7,2.2,1.2c-0.1,1-2.6,1.8-4.7,1.3c-3.5,1.3-2.6,1.1-4.3,1.1c-3.8,3.4-5.4,4.3-6.7,9.4
			c0.6,3.8,0.2,4,3.4,7.4l2.3,0.2h1.1l2.5-2.9l3.7-4.2l5.3-5.2c11.8-9.5,13.7-11.4,25.2-17c2.9-1.4,13.6-5.4,16.3-5.4
			c5.6,0,6.2,1.2,7.7,3.2C-17.1-464.1-16-466.6-19.2-460.8z M-22.5-470.1c-3.2,0.1-3.8,0.5-7.1,1.2c-3.6,1.9-1.3,0.8-7,2.6
			c-5.8,4.3-2.5,2-9.7,6.6c-1.4,0.8-4.9,2.9-6.1,4c-1.3,1.2-2,2.6-3.7,3.4c-1.9,1.9-0.8,1-3.1,2.9l-10.1,10.8
			c-0.4,0.7-0.6,1.2-0.6,1.6c0,0.5,0.4,0.6,1.1,0.6c0.7,0,1.7-0.1,3-0.2l4-0.5c12.1-1.4,25.1-7.6,32.8-14.8c3.7-3.5,4.4-4.9,7.8-9.7
			c2-4.2,2.4-3.2,2.8-5.8C-19.2-470.1-19.5-469.8-22.5-470.1z"/>
		<path class="st12" d="M-22.5-425.4c0.8-1,2.5-2.5,3.2-2.6c0.2,0,0.4,0.1,0.4,0.4v0.1c-2.8,3-5.2,5.4-8.5,7.8c-3,2.3-4.2,4.4-7,7
			c-0.7,1.1-4,5.5-4,7l0.2,0.2c2.4-0.7,2.6-1.1,5.3-2.8c2.3-1.4,4.3-2.4,7.1-2.8c0.4,0.1,1.6,0.6,0.7,2c-1.8,2.2-3.6,4.7-4.1,7.4
			c0.2,0.2,0.4,0.4,0.6,0.4c0.5,0,1.2-0.7,3.8-2.2l3.2-1.8l1.4-1c0.4-0.1,0.7-0.1,1-0.1c0.1,0,0.2,0,0.2,0.1c0,0.5-1.9,1.7-2.8,2.3
			c-3,2.3-6,4.3-9.4,6c-0.6,0.1-1.1,0.2-1.4,0.2c-0.6,0-1-0.2-1.3-1.2c0.4-3.2,0.7-3.2,2.5-6.8v-0.6l-0.4-0.4
			c-4.6,1.7-8.3,4.2-11.8,7.8c-0.6,0.2-1.2,0.5-1.7,0.5c-0.6,0-1.1-0.5-1.1-1.8c0.6-1.8,1.7-4.1,2.3-5l1.4-2.3
			c0.8-1.4,0.8-1.9,0.4-2c-0.6,0-1.9,0.7-3.1,1.4l-3.4,1.9l-2.2,1.4c-0.6,0.1-1,0.1-1.2,0.1c-0.2,0-0.4,0-0.4-0.1
			c0-0.4,1.1-1.1,2.3-2.2l10.7-7.1l1.7-2.2c5.6-7.2,10.3-17.9,15.8-26.8c4.9-6,13.1-16.6,20.8-18.5l1.6,0.2l1.1,2.2v1.3l-1.7,4.6
			l-0.4,2.2l-1.3,2.3l-1.6,2.9c-3.7,7-5.3,8.2-10.7,13.6c-1.2,1.3-2.2,1.9-2.5,1.9l-0.2-0.1c-0.1-0.2,0.2-0.8,0.8-1.7l1.1-1.3
			l5.3-6.4c4.2-5,7.1-11.2,7.7-17.5l-0.4-0.6h-2.6l-1.1,0.6l-4.4,4.3l-3.4,4.8l-6.7,10.8l-1.9,3l-1.1,1.9l-2.2,3.1l-2.3,5l-1.1,1.7
			c-0.2,0.5-0.7,1.3-0.7,1.9c0,0.2,0.1,0.5,0.5,0.5c0.1,0,0.4,0,0.5-0.1L-22.5-425.4z"/>
		<path class="st12" d="M-11.7-408.6l-0.4-0.4l-1.2,0.2l-2.4,0.7l-2.8,1.9c-1.4,1.1-2.3,1.6-2.6,1.6h-0.2l0.1-0.8
			c4.6-3.6,2.3-2.2,6.6-4.7l1.2-1.1l1-1.3l1.8-1.7c1.3,0,2.5,0,2.5,1.4c0,0.1,0,0.4-0.1,0.6c-0.6,0.5-0.7,0.5-0.7,0.7
			c0,0.1,0,0.2,0.1,0.6c1,0.4,1.8,0.5,2.3,1.6c-1.1,1.9-0.2,0.7-2.9,3.1c-1.3,3.1-1.1,1.8-1.3,4.1l1.1,0.1c0.5,0,0.8-0.1,1.7-0.5
			l2.9-1.7c2.8-1.7,4-2.4,4.3-2.4l0.2,0.1c0,0.4-0.2,0.7-0.5,1.1l-2.4,1.7l-1.4,1.1c-2.8,2.2-5.4,4.3-9,5c-1.2-0.7-1.6-1.4-1.6-2.4
			c0-1.1,0.6-2.3,1.1-3.7l1.7-2.8l0.8-1.2l0.1-0.5C-11.7-408.2-11.7-408.6-11.7-408.6z"/>
		<path class="st12" d="M13.9-415.4c0.5,0,0.7,0.1,0.7,0.8c-1.9,3.1-4.1,5.9-5,9.4l-0.7,1.4v0.8l1.1,0.4h0.7l0.7-0.5l1.7-1l2.4-1.3
			l1.4-1.1c0.4-0.1,0.6-0.1,0.8-0.1c0.4,0,0.5,0.1,0.5,0.2c0,0.6-2.2,1.9-3,2.5l-1.3,0.8l-2.9,2c-2.2,1.6-4.1,2.8-6.7,2.8H3.2
			l-0.4-0.4c0.7-3.6,2-5.6,3.8-9v-0.7L5-408.9l-1.4,0.5l-2,1l-1.8,1.2l-2.3,1.3h-0.8l0.2-0.8l3.6-2.5l4-2.4l1.7-1
			c2.3-1.3,4.6-3.2,7.1-4.1h0.6L13.9-415.4L13.9-415.4z M20.6-423.9c-0.6,0.4-1.2,0.6-1.8,0.6c-2.4,0-4.8-2.5-4.8-4.9v-0.1
			c0-1-0.1-0.2,1.7-1.6l0.5-0.1l1.3,0.1l3.2,4.9L20.6-423.9z"/>
		<path class="st12" d="M32.6-414.2c0.5,0,1,0.1,1.1,0.7l-0.4,0.6c-2,0.7-2.5,0.8-4.3,2.4l-0.4,0.7c1,1.6,1.9,2.6,1.9,4.3
			c0,0.4-0.1,0.8-0.2,1.2l0.4,0.4c1.6-0.8,1.9-0.8,2.2-1c0.2-0.1,0.5-0.4,1.8-1.3c0.7-0.2,1-0.4,1.2-0.4c0.1,0,0.5,0.2,0.5,0.4
			s-0.2,0.2-0.6,0.7c-3.8,2.2-2,1-5.5,3.6l-1.2,1.8l-0.6,1.1l-1,1l-1.3,1.6c-3.5,2.6-2.8,2.5-7.7,3c-1-0.4-1.6-0.4-1.6-1.4
			c0-1.3,1.8-2.4,2.8-3.2l5.6-3.1c0.2-0.7,0.4-1.1,0.4-1.4c0-0.5-0.1-1-0.4-2c-1.1-2.2-0.8-1.6-1.2-3.2c-2.8,0.8-4.8,1.7-7.8,3.2
			c-0.2,0-0.4,0.1-0.5,0.1s-0.2-0.1-0.2-0.2c0-0.5,2.6-2.3,3.8-3c3.7-1.9,1.8-1.2,5.5-2.5c1.7-2.4,3.8-2.8,6.7-3.8h1
			C32.6-413.9,32.6-414.2,32.6-414.2z M25-399.4c-0.6,0-1.3,0.2-1.7,0.4c-1,0.2-0.7,0.4-1.4,1.2c-0.6,0.4-1.2,0.6-1.2,1.4
			s0.5,1.1,1,1.1c1.1,0,2.9-1.1,3.2-1.7c0.6-1.2,0.8-1.3,0.8-1.6C25.8-399,25.4-399.4,25-399.4z"/>
		<path class="st12" d="M36.2-405.9l-1.9,1.3h-0.8l0.2-0.7c1.3-1.1,3.5-2.8,4.4-3.6c-0.4-0.6-0.6-1.3-0.6-1.7c0-1.3,0.5-2.2,1.3-2.2
			c0.5,0,1.6,0.7,2.3,1.3c3.4-3.2,7.3-7.2,10.2-11.2l4.2-5.6c6.8-9.1,3.6-6.1,7.2-10.4l4.2-4.9c0.7-0.5,1-0.7,1.3-0.7
			c0.4,0,0.7,0.4,1.4,0.7c0.2,0.6,0.5,0.7,0.5,0.8c0,0.1-0.2,0.4-0.4,1.1L68-438l-2.4,4.1l-5.2,7.7c-3.8,5.8-8,12.6-11.9,19
			c-0.2,1.1,1.6,1.6,3.1,1.8c1.6,0.1,3.2-0.2,4.6-1.1h0.5c0.6,0,0.7,0.1,0.7,0.2c0,0.6-2.3,1.6-3.4,2.2c-2,0.8-3.6,1.1-4.7,1.1
			c-0.6,0-1.8-0.1-2.6-0.4c-0.7,1.9-1.7,4.7-2.8,5.9c-0.8,0.2-1,0.4-1.2,0.4s-0.5-0.1-1.3-0.2c-0.4-0.7-0.5-1.2-0.5-1.7
			c0-0.7,0.4-1.3,0.6-2.4s0.4-2,0.5-3.2c-0.1-0.5-2.2-2.2-3.2-3.4L36.2-405.9z M44.8-408.4c1.7-0.8,4.8-7.1,6.5-9.6
			c-0.2-0.1-0.5-0.2-0.6-0.2c-1,0-2,1.4-2.8,2.2c-1.7,1.7-4,4-5.8,5.5C42.9-409.6,43.9-408.9,44.8-408.4z"/>
		<path class="st12" d="M72-415.4c0.5,0,0.7,0.1,0.7,0.8c-1.9,3.1-4.1,5.9-5,9.4l-0.7,1.4v0.8l1.1,0.4h0.7l0.7-0.5l1.7-1l2.4-1.3
			l1.4-1.1c0.4-0.1,0.6-0.1,0.8-0.1c0.4,0,0.5,0.1,0.5,0.2c0,0.6-2.2,1.9-3,2.5l-1.3,0.8l-2.9,2c-2.2,1.6-4.1,2.8-6.7,2.8h-1.1
			l-0.4-0.4c0.7-3.6,2-5.6,3.8-9v-0.7l-1.6-0.4l-1.4,0.5l-2,1l-1.8,1.2l-2.3,1.3h-0.8l0.2-0.8l3.6-2.5l4-2.4l1.7-1
			c2.3-1.3,4.6-3.2,7.1-4.1H72V-415.4z M78.7-423.9c-0.6,0.4-1.2,0.6-1.8,0.6c-2.4,0-4.8-2.5-4.8-4.9v-0.1c0-1-0.1-0.2,1.7-1.6
			l0.5-0.1l1.3,0.1l3.2,4.9L78.7-423.9z"/>
		<path class="st12" d="M96.4-408.2c-0.1-0.6-0.4-0.8-0.7-0.8c-0.6,0-1.3,0.7-1.9,1.1l-6.2,4.9c-1.7,1.3-5.4,5.2-7.7,5.2l-0.2-0.2
			l0.1-1l3.8-7.3c0.5-0.8,0.6-1.4,0.6-1.8c0-0.7-0.4-1-1-1c-0.8,0-2.2,0.5-3.5,1.3l-3.5,2.2c-1.1,0.7-1.9,1-2.4,1
			c-0.1,0-0.2,0-0.2-0.2c0-0.1,0.1-0.2,0.2-0.5l3.5-2.5c3.2-2.4,6.5-4.1,10.3-5.3c1.3,0,1.7,0.6,1.7,1.6c0,1.7-1.2,4-1.4,4.8
			l-0.6,1.4l0.2,0.2l4.1-3.4c2.5-2,5.9-4.3,9.1-4.3c0.5,0.6,0.6,1.1,0.6,1.8c0,1.6-1.1,3.4-1.6,4.6c-0.7,1-1.9,2.4-1.9,3.5
			c0,0.4,0.1,0.7,0.4,1c0.7-0.1,1.1-0.1,1.4-0.1c0.7-0.2,1.4-0.8,5.4-3.1c1.4-0.8,2.3-1.2,2.5-1.2l0.2,0.1c0,0.5-1.3,1.8-2.5,2.6
			c-4,2.9-7.1,5.2-11.3,5.3c-0.8-0.6-1.1-1.1-1.1-1.7s0.4-1.3,0.6-2.3L96.4-408.2z"/>
		<path class="st12" d="M123.9-404.1l-0.1-0.2l-0.6,0.4c-2.6,1.9-3.4,2.5-7.4,4.9l-2.4,1.1c-1.8-0.1-2.5,0.1-2.5-2.4
			c0-2.2,2-4.6,2-6.7c0-0.5-0.6-0.4-1-0.5l-1.3,0.6l-2.3,1.1l-2.6,1.3c-0.5,0-0.7-0.1-0.7-0.2c0-0.6,2.6-2,4.1-3
			c3.4-2,7-4.1,10.4-4.1c0.7,0,1.6,0.4,1.6,1.3c0,1.2-4.3,2.4-5.4,6.7c0.1,1.7-0.1,1.3,1.1,2.2c1.3,0,2.6-0.4,4.4-1.9
			c0.6-0.6,3.8-3.2,3.8-4.4c0-1.2-3.5-0.5-3.5-3.2c0-1.2,1.8-1.7,2.8-1.7c1.7,0,2.3,1.3,2.6,2.2c0.2,0,0.8,0.2,2.2,0.2
			c0.6,0.5,1,0.5,1,1.3c0,0.4-0.1,1.3-0.5,1.9c-0.4,0.8-1.9,3-1.9,4.4c0,0.1,0.1,0.8,0.5,0.8c0.5,0,1-0.5,2-1c2.3-1.2,1-0.8,3.5-2.3
			c0.6-0.4,2.4-4,3-4c0.2,0-0.3,2.5-0.3,2.6s-0.4,0.6-0.7,1.2l-1.5,1.8l-1.3,0.8c-3.6,2.3-1.8,1.3-4.8,3.4c-1.1,0.6-1.3,0.8-1.7,1
			c-0.2,0.1-0.6,0.1-1.8,0.5l-1.2-0.5c-0.5-0.8-0.7-1.4-0.7-2c0-1.2,0.4-0.8,1.2-3L123.9-404.1z"/>
		<path class="st12" d="M176.8-449.4l-0.2,1.4c1,4.7,3.2,5.2,7.1,7.2l1.7,0.2l2.9,0.6l0.8-0.1l1.9-2.8c9.7-14,22.1-27.1,34-33.6
			c6.5-3.5,6.8-3.2,14.4-4.6l4.8,0.4c3.4,1.2,7.2,1.9,7.2,5.9l-1.7,3.1l-0.4,1.3l-2.4,3.8c-5,6-2.5,4.4-6.1,6.4
			c-4.8,4.4-2.8,3.4-5.5,4.6c-2.6,2.9-1.3,1.2-5,3.8c-2.9,2.2-1.3,1.2-4.2,2.8c-3.7,2-2.2,1.3-5,2.6l-2.4,1.1
			c-1.9,1.3-0.7,0.7-3.7,1.4l-1.4,0.1c-4.4,2.3-1.4,0.4-10.1,3.8l-2.4,1c-2.6,1.1-1,0.6-4.9,1.3l-1.3,0.1l-1.6,1.8
			c-1.3,2.3-0.6,1.2-2.2,3.5l-2.9,5.8c-2.8,4.3-1.4,1.6-4.3,7.8c-0.8,1.8-0.8,0.8-1.1,2.4c-1.2,1.7-0.6,0.6-1.2,3.7l-2.6,5.2
			c0.1,1.8,0.4,2.2,1.1,2.2c0.4,0,1-0.1,1.7-0.2l4-6.1l1.1-2.3l3.8-5.2l0.4-0.8c10.2-10.1,6-6.1,12.7-11.6c7.2-5.9,9.5-8,18.6-10.2
			l4.1-1c1.3-0.1,2.2-0.2,2.8-0.2c1,0,1.6,0.4,2.6,1.9c-0.8,2.6-0.4,1.2-2,4l-1.7,2.6c-0.2,1.1,0,0.4-1.3,1.6
			c-1.7,3.2-0.7,1-5.9,5.6c-3.6,2.3-1.6,1.1-6.2,3.5l-1.7,0.6l-2.2,1.6l-0.5,0.6c0.1,1.3,0.1,1.8,0.1,2.2c0,0.5,0,0.8-0.2,2.6
			c0.5,7.9,0.2,4.4,0.8,10.4c0.7,3.1,2.3,4.1,4.4,4.1c1.3,0,2.9-0.4,4.4-1l2.8-1.4l1.9-0.7l1.4-1c0.2-0.1,0.5-0.1,0.7-0.1
			s0.4,0.1,0.4,0.2c0,0.4-2,1.7-2.6,2l-1.2,1l-4.6,3.2c-3.4,1.6-4.3,2-5.8,2c-0.7,0-1.6-0.1-2.9-0.2c-3.4-0.5-5.6-5.6-6.4-10.3v-2
			c0-4-0.1-4.7-0.1-5.6c0-0.8,0-2,0.5-5.3c0.4-3.2,0.8-4.8,3.7-4.8c0.5,0,0.8,0.1,1.3,0.1c1.1,1.3,1.3,1.9,1.7,1.9s0.8-0.7,2.5-1.7
			c5.8-3.2,6.5-4.1,10.8-8.9l2.8-5v-1.2L226-441l-2.3,0.1l-1.4,0.7l-1.9,0.1l-3,1.3c-1.3,0.4-1.7,0.5-2,0.6
			c-0.4,0.2-0.7,0.5-2.2,1.3c-1.3,0.8-1.7,1.1-2.2,1.3c-0.6,0.4-1.1,0.8-4.6,3.5l-3.6,2.8l-5.2,5.2c-2.2,2.2-0.8,1-3.7,3.1
			c-1.3,3.6-0.2,1.3-4,6.4c-0.2,1.7,0,0.7-1.8,2.6c-0.1,1.6,0.1,0.6-3.6,6.1l-0.8,2.8l-0.4,4.8l-0.4,1.2l-0.5,0.8l-3.4,1.7l-1-0.2
			l-0.2-1.4l0.6-3.5c0.2-0.4,0.4-0.7,0.4-1.1c0-0.6-0.4-1.2-1-1.8c-1.6,1.1-2,1.3-2.4,1.6c-0.2,0.2-0.5,0.6-1.6,1.7
			c-1.2,3.4-2.4,5.3-4.4,8.2c-0.8,1.1-2,2.3-2.9,2.3c-0.6,0-1-0.5-1-1.9c0-4.1,1.6-6.1,3.5-10.6l1.8-2.4c5.6-10.9,3.1-5.5,7.7-15.8
			c1.3-3.1,0.5-1.3,2.8-5.9l4.1-8.4l1.1-1.8l-0.1-0.5l-1-0.7H182l-1.3-0.7l-1.9-0.1c-3.6-1-8.6-3.9-7.4-7.1c2.1-5.7,3.9-9.5,8-11.3
			l1.3,0.1 M230.1-454l1.4-0.7l6.8-5.6c5.5-4.6,4.9-2.2,5.3-5.8c3-3.2,3.5-4.3,4.9-8.2c0.2-1.1,0.6-1.7,0.6-2c0-0.6-0.8-0.6-3.8-1.6
			l-3.5-0.4c-1.4-0.5-1.8-0.8-2.2-0.8s-0.7,0.4-2.2,0.8c-0.5,0-1,0.1-1.3,0.1H236l-0.8-0.1c-0.5,0-0.6,0.1-1.7,0.7
			c-0.8,0.2-1.2,0.2-1.4,0.2c-0.2,0.1-0.5,0.4-1.7,1c-1.9,0.7-2.4,0.8-2.9,1.1c-0.6,0.4-1,0.7-3.1,2.3c-1,0.2-1.3,0.4-1.6,0.5
			c-0.5,0.4-0.7,1-3.5,3.4c-5.6,4.9-3.4,3-6.4,6.4c-0.7,0.5-1,0.6-1.2,0.7c-0.2,0.2-0.2,0.6-1.1,1.8c-1.6,1.3-1.9,1.7-2.3,2
			c-0.4,0.5-0.6,1-2,3c-2.3,1.8-1.6,0.7-2.5,3c-3.6,4.2-3,2.2-3.5,5.5c-2.6,3.2-2.2,1.6-2.6,4.2c-0.5,0.7-0.6,1.1-0.6,1.3
			s0.1,0.4,0.5,0.4s0.8-0.1,1.3-0.1c6.8-1.7,3.6-0.8,10.1-2.6l3.5-1.6c2.2-0.5,0.6-0.4,4.2-1.6c2.9-1.1,3.7-1.3,4.4-1.7
			c1-0.5,1.9-1.1,6.5-3.6L230.1-454z"/>
		<path class="st12" d="M234.1-407.6c-1.7,0-2.2,0-5.5,1.7l-2.4,1.2c-0.5,0-0.7-0.1-0.7-0.4c0-0.4,0.7-1,2.5-2l4.3-2.8l5.2-2.5
			c0.4-0.1,1.7-0.8,2.9-0.8c0.6,0,1,0.1,1,0.6c0,0.2,0,0.4-0.1,0.6l-0.7,1.9l-1.4,2.2l-2.2,4.6v0.5c0,0.7,0,1,0.5,1
			c0.4,0,0.8-0.1,1.8-0.4c6.8-5.2,3.8-2.4,9.1-7.9c2.2-1.8,2.3-1.9,4.2-2.2l0.2,0.4c0,2.6,0,0.7-2.4,4.9c-0.6,1.1-2.4,3.5-2.4,5.2
			c0,0.2,0,0.4,0.1,0.6l1.2-0.1l2.6-1.3l3.7-2.5c0.4-0.2,2.2-1.3,2.6-1.3c0.1,0,0.2,0,0.2,0.1s-0.2,0.5-0.7,1.1l-2.3,1.7
			c-2.3,1.7-4.7,3.2-7.2,4.8c-1.4,0.7-2.3,1.2-3.5,1.2c-0.5,0-1,0-1.7-0.2c-0.4-0.5-0.5-0.8-0.5-1.2c0-0.6,0.5-1.1,1-2l0.5-1.6
			l0.8-1c0-0.7-0.2-0.7-0.7-0.7c-3.5,2.6-6,5-10.2,6.6h-2.8l-0.5-0.6l0.1-1l1-1.9l2.6-5.4l0.1-0.4L234.1-407.6z"/>
		<path class="st12" d="M265.3-408.6l-0.4-0.4l-1.2,0.2l-2.4,0.7l-2.8,1.9c-1.4,1.1-2.3,1.6-2.6,1.6h-0.2l0.1-0.8
			c4.6-3.6,2.3-2.2,6.6-4.7l1.2-1.1l1-1.3l1.8-1.7c1.3,0,2.5,0,2.5,1.4c0,0.1,0,0.4-0.1,0.6c-0.6,0.5-0.7,0.5-0.7,0.7
			c0,0.1,0,0.2,0.1,0.6c1,0.4,1.8,0.5,2.3,1.6c-1.1,1.9-0.2,0.7-2.9,3.1c-1.3,3.1-1.1,1.8-1.3,4.1l1.1,0.1c0.5,0,0.8-0.1,1.7-0.5
			l2.9-1.7c2.8-1.7,4-2.4,4.3-2.4l0.2,0.1c0,0.4-0.2,0.7-0.5,1.1l-2.4,1.7l-1.4,1.1c-2.8,2.2-5.4,4.3-9,5c-1.2-0.7-1.6-1.4-1.6-2.4
			c0-1.1,0.6-2.3,1.1-3.7l1.7-2.8l0.8-1.2l0.1-0.5L265.3-408.6L265.3-408.6z"/>
		<path class="st12" d="M290.8-415.4c0.5,0,0.7,0.1,0.7,0.8c-1.9,3.1-4.1,5.9-5,9.4l-0.7,1.4v0.8l1.1,0.4h0.7l0.7-0.5l1.7-1l2.4-1.3
			l1.4-1.1c0.4-0.1,0.6-0.1,0.8-0.1c0.4,0,0.5,0.1,0.5,0.2c0,0.6-2.2,1.9-3,2.5l-1.3,0.8l-2.9,2c-2.2,1.6-4.1,2.8-6.7,2.8h-1.1
			l-0.4-0.4c0.7-3.6,2-5.6,3.8-9v-0.7l-1.6-0.4l-1.4,0.5l-2,1l-1.8,1.2l-2.3,1.3h-0.8l0.2-0.8l3.6-2.5l4-2.4l1.7-1
			c2.3-1.3,4.6-3.2,7.1-4.1h0.6L290.8-415.4L290.8-415.4z M297.5-423.9c-0.6,0.4-1.2,0.6-1.8,0.6c-2.4,0-4.8-2.5-4.8-4.9v-0.1
			c0-1-0.1-0.2,1.7-1.6l0.5-0.1l1.3,0.1l3.2,4.9L297.5-423.9z"/>
	</g>
	
		<text transform="matrix(1 0 0 1 -162.9282 -361.2365)" style="fill:#20231C; font-family:'MrsEavesXLSerifOT-Reg'; font-size:24px;">Psychotherapeutin in Ausbildung unter Supervision</text>
	
		<text transform="matrix(1 0 0 1 -177.1282 -332.4365)" style="fill:#20231C; font-family:'MrsEavesXLSerifOT-Reg'; font-size:24px;">tiefenpsychologisch fundierte Hypnosepsychotherapie</text>
	<g>
		<path class="st11" d="M200.4-513.7c-3,2.4-3.5,6.7-1,9.6s6.9,3.4,10,1c3-2.4,3.5-6.7,1-9.6C207.9-515.6,203.5-516.1,200.4-513.7z"
			/>
		<g>
			<g>
				<path class="st12" d="M43.3-329c34.1-14.6,66.9-37.8,87-69.4c19.7-32.1,27.3-70.9,23-108.2c-1.2-10.7-3.3-21.3-6.4-31.6l0.3-0.1
					c19.1,49.1,10.6,105-20.6,147.1c-7.9,11-16.7,21.4-26.8,30.5c-8.1,7.2-17.1,13.5-26.5,18.9c-9.5,5.3-19.4,9.9-29.8,13.1
					L43.3-329L43.3-329z"/>
			</g>
			<path class="st11" d="M109.7-536.4c2.6,5.7,9.6,8.3,15.5,5.8s8.6-9.2,6-15c-2.6-5.7-9.6-8.3-15.5-5.8
				C109.7-548.8,107-542.2,109.7-536.4z"/>
			<path class="st11" d="M111.7-586.8c4.4,1.6,6.7,6.4,5,10.7c-1.7,4.3-6.7,6.4-11.1,4.8c-4.4-1.6-6.7-6.4-5-10.7
				C102.3-586.2,107.3-588.3,111.7-586.8z"/>
			<path class="st11" d="M152.7-541.2c1.3,3.1-0.2,6.6-3.4,7.9s-6.9-0.2-8.2-3.3s0.2-6.6,3.4-7.9
				C147.7-545.7,151.4-544.2,152.7-541.2z"/>
			<path class="st11" d="M134.3-595.2c-3,2.4-3.5,6.7-1,9.6c2.5,2.9,6.9,3.4,10,1c3-2.4,3.5-6.7,1-9.6
				C141.8-597.2,137.3-597.7,134.3-595.2z"/>
			<path class="st11" d="M193.1-557.6c-1.7,2.7-0.9,6.3,2,8c2.8,1.7,6.5,0.8,8.3-1.9c1.8-2.7,0.9-6.3-1.9-8
				C198.5-561.2,194.8-560.2,193.1-557.6z"/>
			<path class="st11" d="M172.4-555.4c-1.8,2.7-0.9,6.3,1.9,8c2.8,1.7,6.5,0.9,8.3-1.9c1.7-2.7,0.9-6.3-1.9-8
				C177.8-559.1,174.1-558.2,172.4-555.4z"/>
			<path class="st11" d="M152.4-525.2c1.7-0.7,41-16.4,46.5-26.1l-1.9-1c-3.4,5.9-21.7,14.9-34,20.3c1.6-1.2,3.3-2.4,4.9-3.7
				c7.1-5.8,11-10.9,11.6-15l-2.2-0.3c-0.5,3.6-4.3,8.3-10.8,13.7c-7,5.7-14.8,10.2-14.9,10.3L152.4-525.2z"/>
			<g>
				<path class="st12" d="M209.8-563.1c-7.9,22.7-23,32.6-34.4,36.9c-12.3,4.6-22.6,3.9-23,3.8l0.2-2.8c1.6,0.1,40,2.6,54.4-38.8
					L209.8-563.1z"/>
				<path class="st12" d="M94.2-547.2c17.3,17.2,33.1,21.5,45.2,20.6c13.1-0.9,12.8,1.5,13.2,1.3l-3.1-5.8
					c-1.4,0.8-21.7,13.3-53.2-18.1L94.2-547.2z"/>
				<path class="st12" d="M223.6-540.6c-17.6,19.5-36.9,23.3-50,23c-14.2-0.3-24.1-5.1-24.5-5.3l1.4-2.7c1.6,0.8,38.7,18.5,70.7-17
					L223.6-540.6z"/>
				<path class="st12" d="M152.4-513.3c2,0.5,49.3,12.6,61.3,7.5l-1-2.3c-7.3,3.2-30.6-1.1-45.8-4.4c2.3,0,4.7,0,7.2-0.1
					c10.7-0.5,17.9-2.5,21.5-5.9l-1.8-1.8c-3,2.9-9.9,4.7-19.8,5.2c-10.5,0.5-21-0.7-21.1-0.7L152.4-513.3z"/>
				<path class="st12" d="M152.1-531.2c1.3-0.8,31.6-19,34.7-27.7l-1.8-0.6c-1.9,5.3-15.9,15.2-25.3,21.3c1.2-1.2,2.4-2.4,3.5-3.7
					c5.1-5.7,7.6-10.4,7.5-14h-1.9c0.1,3-2.3,7.4-7,12.7c-5,5.6-10.8,10.4-10.9,10.5L152.1-531.2z"/>
				<path class="st12" d="M156.9-505.4c-1.7-0.1-42.1-2.5-50.1-9.6l1.4-1.5c4.9,4.3,24.3,6.9,37.1,8.1c-1.8-0.6-3.7-1.2-5.6-1.9
					c-8.3-3.1-13.4-6.5-15.2-10l1.9-0.9c1.6,3,6.5,6.2,14.1,9c8.1,3,16.6,4.7,16.7,4.8L156.9-505.4z"/>
				<path class="st12" d="M120.1-597.8c1.9,0.6,2.1-1.3,4-0.7c-2.1,11.1,16.8,43.2,25.5,67.6c-0.5-3.6-1-8.2-1.4-11.9
					c-1.9-16.5,0.2-26.8,6.2-31.6c1.5,1.1,0.9,1,2.4,2.1c-5.2,4-7.3,13.8-5.7,29.1c1.7,16.3,5.8,33.2,5.8,33.3
					c4,32.4-7.3,61.9-14.2,91c-1.4-1.4,1.5-0.7,0-2c11.3-26.5,14.2-58.2,10.3-89.3c0,0-9.3-28.5-18-47.4
					C126.1-578.2,118.2-589.2,120.1-597.8z"/>
			</g>
			<path class="st11" d="M109-600.8c3.9,8.4,13.8,6.6,15.6,5.8c6-2.6,8.7-9.3,6-15.1c-2.7-5.8-9.7-8.4-15.6-5.8
				C109-613.3,106.3-606.6,109-600.8z"/>
			<path class="st11" d="M190.5-527.7c-3,2.4-3.5,6.7-1,9.6c2.5,2.9,6.9,3.4,10,1c3-2.4,3.5-6.7,1-9.6S193.5-530.1,190.5-527.7z"/>
			<path class="st11" d="M182.8-564.7c-1.7,2.7-0.9,6.3,1.9,8c2.8,1.7,6.5,0.8,8.3-1.9c1.7-2.7,0.9-6.3-1.9-8
				C188.1-568.2,184.4-567.4,182.8-564.7z"/>
			<path class="st11" d="M231.2-537.9c-4.9,4.1-12.4,3.5-16.6-1.3c-4.2-4.8-3.6-11.9,1.3-16s12.3-3.5,16.6,1.2
				C236.8-549.2,236.1-542.1,231.2-537.9z"/>
			<path class="st11" d="M146.2-574.7c2.8,6.2,10.3,8.9,16.6,6.2c6.4-2.7,9.3-9.9,6.4-16.1c-2.8-6.1-10.3-8.9-16.7-6.2
				C146.2-588.1,143.3-580.8,146.2-574.7z"/>
			<path class="st11" d="M174.7-562.6c1.3,3.1-0.2,6.6-3.4,7.9s-6.9-0.2-8.2-3.3s0.2-6.6,3.4-7.9S173.4-565.7,174.7-562.6z"/>
			<path class="st11" d="M215.5-569.2c1.3,3.1-0.2,6.6-3.4,7.9c-3.2,1.3-6.9-0.2-8.2-3.3c-1.3-3.1,0.2-6.6,3.4-7.9
				C210.5-573.8,214.2-572.2,215.5-569.2z"/>
			<path class="st11" d="M129.3-527.9c4.4,1.6,6.7,6.4,5,10.7c-1.7,4.3-6.6,6.4-11.1,4.8c-4.4-1.6-6.7-6.4-5-10.7
				C119.9-527.4,124.9-529.7,129.3-527.9z"/>
			<path class="st11" d="M106.8-522.9c4.4,1.6,6.7,6.4,5,10.7c-1.7,4.3-6.6,6.4-11.1,4.8c-4.4-1.6-6.7-6.4-5-10.7
				C97.4-522.3,102.3-524.6,106.8-522.9z"/>
			<path class="st11" d="M81.2-547.8c2.6,5.7,9.6,8.3,15.5,5.8c5.9-2.6,8.6-9.3,6-15c-2.6-5.7-9.6-8.3-15.5-5.8
				C81.2-560.2,78.6-553.6,81.2-547.8z"/>
		</g>
	</g>
	<g>
		<g>
			<path class="st12" d="M-88.2-739.2c0,0.1,0,0.2,0,0.3c2.4,0.1,12.6-0.3,19-9.9c-0.4,0.1-0.7,0.1-1.1,0
				C-73.9-745.1-85.6-740.2-88.2-739.2z"/>
			<path class="st12" d="M-88.4-740.2c1.1-0.7,3.4-2.1,5.5-3.8c1.8-1.4,3.1-2.8,3.8-3.9l0,0c-3.7,2.9-8.3,5.7-9.4,6.4
				C-88.5-741.1-88.4-740.6-88.4-740.2z"/>
			<path class="st12" d="M-85.6-744.2c1.8-1.1,3.9-2.6,5.8-4.1c-0.9-0.7-1.2-2-0.6-3c-0.1,0.1-0.3,0.1-0.4,0.2
				c-0.1,0-0.2,0.1-0.2,0.1c-0.2,1.4-1.2,3.1-3.1,5.2C-84.6-745.2-85.1-744.8-85.6-744.2z"/>
			<path class="st12" d="M-96.7-734.8c0.8,0.5,1.9,0.9,3,1.3c1.9,0.7,3.9,1.3,5.2,1.6c-0.1-0.5-0.1-1-0.2-1.4
				c-0.4-1.1-1.1-3.3-2.1-6.1c-0.8-0.1-1.9-0.1-3.4,0.1c-1,0.1-2.1,0.1-3.2-0.1c1.1,0.9,1.6,2.5,1.1,3.9
				C-96.3-735.3-96.5-735.1-96.7-734.8z"/>
			<path class="st12" d="M-90-742.2C-90-742.2-90.1-742.2-90-742.2c0,0.2,0,0.4,0.1,0.5C-90-741.8-90-742.1-90-742.2z"/>
			<path class="st12" d="M-79.9-735.7c-3.3-0.1-6.1-0.7-7.9-1.3c0.2,0.8,0.3,1.5,0.4,2.2c1.6,0.1,4.6,0.3,7.6,0.2
				c2.8-0.1,5-0.5,6.5-1.1c0,0,0,0-0.1-0.1s-0.2-0.3-0.3-0.5C-75.9-735.8-78-735.7-79.9-735.7z"/>
			<path class="st12" d="M-52.9-750.2c0-20.1-16.3-36.4-36.4-36.4s-36.4,16.3-36.4,36.4c0,20.1,16.3,36.4,36.4,36.4
				c0.3,0,0.6,0,0.9,0c0.7-5.6,0.7-11.3,0.1-16.9c-3.6-0.3-12.8-1.1-17.3-2.8l0,0c-0.7,1.8-2.8,2.7-4.6,2c-1.8-0.7-2.8-2.7-2.1-4.4
				c0.7-1.8,2.8-2.7,4.6-2c1.6,0.6,2.4,2.1,2.3,3.6c3.2,1.3,9.4,2,13.8,2.5c-0.8-0.2-1.5-0.5-2.3-0.8c-1.3-0.5-2.4-1-3.3-1.5
				c-1,0.8-2.3,1-3.5,0.6c-1.8-0.7-2.8-2.7-2.1-4.4c0.4-1.1,1.3-1.8,2.3-2.1c-0.6-0.2-1.2-0.4-1.8-0.6c-1.2-0.1-2.4-0.7-3.3-1.6
				c-1.7-1-3.6-2.3-5.4-4c-0.2,0.2-0.5,0.3-0.8,0.4c-2.5,1.1-5.4,0-6.4-2.4c-1.1-2.4,0-5.2,2.5-6.2c2.5-1.1,5.4,0,6.5,2.4
				c0.8,1.7,0.4,3.7-0.8,5c1.2,1.1,2.3,2,3.5,2.8c-0.6-2.2,0.5-4.6,2.7-5.5c2.5-1.1,5.4,0,6.5,2.4c1.1,2.4,0,5.2-2.5,6.2
				c-0.2,0.1-0.4,0.1-0.5,0.2c4.5,1.6,7.7,0.9,9.4,0.3c-0.2-0.5-0.4-1-0.5-1.5c-0.7-0.2-1.4-0.7-1.7-1.5c-0.3-0.8-0.2-1.7,0.2-2.3
				c-0.9-2.2-1.8-4.5-2.7-6.5c-3.2-7.4-6.1-11.8-6.3-15.2c-1.5,0-3.5-0.5-4.5-2.7c-1.1-2.4,0-5.2,2.5-6.3s5.4,0,6.5,2.4
				s0,5.2-2.5,6.3c-0.1,0-0.2,0.1-0.3,0.1c0.5,4.5,5,13.1,8.4,21c0,0,0.1,0,0.1-0.1c0.5-0.2,1-0.2,1.4-0.2
				c-0.5-4.7-0.1-8.1,1.1-10.3c-0.8-0.5-1.4-1.2-1.8-2.1c-1.2-2.6,0-5.6,2.7-6.7c2.6-1.1,5.7,0,6.9,2.6c1.2,2.6,0,5.6-2.7,6.7
				c-1.3,0.6-2.7,0.6-3.9,0.1c-1.1,2.1-1.5,5.6-1,10.3c0.3,0.2,0.5,0.6,0.7,0.9c0.3,0.8,0.2,1.7-0.3,2.4c0,0.2,0.1,0.5,0.1,0.7
				c0.8-0.7,2.5-2.2,4-3.9c1.6-1.9,2.6-3.4,2.9-4.6c-1,0-1.9-0.6-2.3-1.6c-0.5-1.3,0.1-2.8,1.4-3.3s2.8,0.1,3.4,1.4
				c0.3,0.7,0.2,1.5-0.1,2.2c0.8-0.5,1.8-0.5,2.6,0c0.3,0.2,0.6,0.4,0.7,0.7c0.2-0.2,0.4-0.5,0.6-0.7c-0.9-0.8-1.1-2.1-0.5-3.1
				c0.7-1.1,2.3-1.5,3.4-0.8c1.2,0.7,1.5,2.2,0.8,3.3c-0.7,1-2,1.4-3.1,0.9c-0.2,0.3-0.5,0.6-0.8,1c0.2,0.6,0.1,1.3-0.3,1.9
				c-0.4,0.7-1.2,1.1-2,1.1c-0.8,1.3-2.2,2.8-4.2,4.5c-0.7,0.6-1.4,1.1-2,1.6c4.4-2,10.7-5,13.2-7.4c-1.1-0.7-1.4-2.1-0.7-3.2
				s2.3-1.5,3.4-0.8c0.5,0.3,0.9,0.7,1,1.2c0.3-0.7,0.7-1.5,1-2.3c-0.4-0.3-0.7-0.6-0.9-1.1c-0.5-1.3,0.1-2.8,1.4-3.3
				c1.3-0.5,2.8,0.1,3.4,1.4c0.5,1.3-0.1,2.8-1.4,3.3c-0.4,0.2-0.9,0.2-1.3,0.2c-3.4,8.8-9.4,12.7-14,14.4c-2.6,1-5,1.4-6.8,1.5
				c2.9,0.8,7.2,1.4,12,0.2c-0.1-0.9,0.3-1.8,1.1-2.4c1.3-1,3.1-0.8,4.1,0.4c0,0,0,0,0,0.1c2.2-1.1,4.4-2.6,6.6-4.6
				c-0.3-0.2-0.5-0.4-0.7-0.7c-1.8-2-1.5-5,0.5-6.7c2-1.7,5.1-1.5,6.9,0.5c1.8,2,1.5,5-0.5,6.7c-1.4,1.2-3.4,1.4-5,0.8
				c-2.4,2.3-4.8,3.9-7.2,5.1c0.2,1-0.1,2.1-1,2.8c-0.9,0.7-2.1,0.8-3.1,0.4c-1.7,0.8-4.2,1.3-7.5,1.5c-1,0-2,0.1-3,0
				c3.8,0.8,8.9,1.8,12.9,2.2c-0.1-1,0.2-2,1-2.6c1.3-1,3.1-0.8,4.1,0.4c0.5,0.6,0.7,1.3,0.7,2c0.1,0,0.2-0.1,0.3-0.1l0.4,0.9
				c-0.3,0.1-0.7,0.2-1,0.3c-0.2,0.3-0.4,0.6-0.7,0.9c-1.3,1-3.1,0.8-4.1-0.4c-0.1-0.1-0.2-0.2-0.2-0.3c-6.1-0.4-14.2-2.3-17.7-3.1
				c0.1,0.6,0.2,1,0.2,1c0,0.4,0.1,0.7,0.1,1.1l0,0l0,0c0.3,3.2,0.3,6.3,0,9.4c0,2.7-0.2,5.4-0.5,8.1
				C-68.1-714.9-52.9-730.8-52.9-750.2z M-105.6-764.4c1.8,0.7,2.8,2.7,2.1,4.4c-0.7,1.8-2.8,2.7-4.6,2c-1.8-0.7-2.8-2.7-2.1-4.4
				C-109.5-764.2-107.4-765.2-105.6-764.4z M-92.5-763.7c-1.3,1-3.1,0.8-4.1-0.4c-1-1.2-0.8-3,0.4-4c1.3-1,3.1-0.8,4.1,0.4
				C-91-766.4-91.2-764.7-92.5-763.7z"/>
		</g>
		
			<text transform="matrix(1 0 0 1 -41.4778 -722.3229)" class="st12" style="font-family:'VolutaScriptPro-Regular'; font-size:100px;">Christina Kuri</text>
		<g>
			<text transform="matrix(1 0 0 1 -23.7166 -689.4288)" style="font-family:'MrEavesXLModOT-Book'; font-size:27px;">Icon Verwendung f체r Webseite</text>
		</g>
	</g>
</g>
</svg>
