<?xml version="1.0" encoding="utf-8"?>
<!-- Generator: Adobe Illustrator 26.0.2, SVG Export Plug-In . SVG Version: 6.00 Build 0)  -->
<svg version="1.1" id="Ebene_1" xmlns="http://www.w3.org/2000/svg" xmlns:xlink="http://www.w3.org/1999/xlink" x="0px" y="0px"
	 viewBox="0 0 647.9 495.3" style="enable-background:new 0 0 647.9 495.3;" xml:space="preserve">
<style type="text/css">
	.st0{display:none;}
	.st1{display:inline;}
	.st2{display:inline;fill:#2F400D;}
	.st3{opacity:0.1091;fill:#31401B;enable-background:new    ;}
	.st4{fill:#435C1D;}
	.st5{fill:#D2E7B5;}
	.st6{fill:#FFFFFF;}
	.st7{fill:#2F400D;}
</style>
<g id="Ebene_1_00000108297882875454534200000007816474239820096664_">
	<g class="st0">
		<g class="st1">
			
				<image style="overflow:visible;enable-background:new    ;" width="1000" height="667" xlink:href="E261AE8F.jpg"  transform="matrix(1 0 0 1 -1401.2249 -1655.9501)">
			</image>
		</g>
	</g>
</g>
<g class="st0">
	
		<ellipse transform="matrix(0.7071 -0.7071 0.7071 0.7071 1119.3295 -215.748)" class="st2" cx="299.2" cy="-1459" rx="78.7" ry="78.7"/>
	<g class="st1">
		<g>
			<path class="st3" d="M387.7-1466.8c-0.2-5.5-0.6-10.6-1.9-15.9c-1.3-5.4-3.1-10.5-5.5-15.5c-4.6-10-11.8-19.1-19.9-26.4
				c-17.2-15.5-40.3-23.7-63.4-22.7s-46,11.4-61.4,28.8c-7.5,8.5-13.9,18.3-17.7,29c-3.9,11-6,23-5.3,34.7s3.3,23.5,8.6,34
				c5,10.2,11.8,19.7,20.3,27.2s18.3,13.8,29,17.6c10,3.5,20.4,5.4,31,5.4c23.5-0.1,46-9.7,62.5-26.4c8-8.2,14.3-17.6,18.7-28.2
				c2.2-5.3,3.9-10.8,5.1-16.5c1.4-7.1,1.6-14.1,1.6-21.3c-0.5,0-0.9,0.2-1.3,0.6c-1.4,1-2.8,2-4.2,3.1c-1.4,1-2.8,2.1-4.1,3.2
				c-0.4,0.3-0.8,0.6-0.9,1.1c-0.6,5.3-1.2,10.3-2.6,15.4c-1.3,4.9-3.1,9.5-5.3,14.1c-4.2,8.7-10.4,16.7-17.5,23.2
				c-14.7,13.3-34.1,20.6-53.9,20.5c-20-0.2-40.2-8.3-54.4-22.6c-14.5-14.7-23.4-34.7-23.1-55.5c0.1-10.7,2-21.5,6.4-31.2
				c4.2-9.4,10.1-18.3,17.7-25.4c7.6-7.1,16.4-13.1,26.2-16.7c9.1-3.4,18.7-5.1,28.4-5.1c21.5,0,42,8.7,56.9,24.1
				c7.1,7.4,12.7,15.9,16.5,25.4c1.9,4.7,3.5,9.6,4.5,14.6c1.2,6,1,11.8,0.8,17.9c0.5-0.2,0.8-0.5,1.1-0.9c1.1-1.3,2.3-2.6,3.4-4
				c1.1-1.3,2.2-2.7,3.2-4.1C387.4-1465.9,387.6-1466.3,387.7-1466.8z"/>
			<path class="st3" d="M386-1469.1c-0.2-5.5-0.6-10.6-1.9-15.9c-1.3-5.4-3.1-10.5-5.5-15.5c-4.6-10-11.8-19.1-20-26.4
				c-17.2-15.4-40.3-23.6-63.4-22.5c-23,1.1-45.7,11.5-61.1,28.7c-7.5,8.4-13.8,18.2-17.6,28.8c-3.9,11-6.1,22.9-5.4,34.6
				c0.7,11.7,3.2,23.5,8.4,34c5,10.2,11.7,19.7,20.2,27.3c8.5,7.5,18.2,13.9,29,17.7c10,3.6,20.4,5.4,31,5.4
				c23.5-0.1,46-9.6,62.4-26.4c8-8.1,14.3-17.6,18.7-28.2c2.2-5.3,4-10.8,5.1-16.5c1.4-7,1.6-14.1,1.6-21.3c0-0.2-6.5,2.7-6.4,2.6
				c-1.6,0.8-3.3,1.6-4.9,2.4c-0.5,0.2-0.9,0.5-1.2,0.9c-0.2,5.1-0.6,10.1-1.7,15.1c-1,4.9-2.5,9.6-4.4,14.2
				c-3.7,9-9.4,17.4-16.2,24.3c-14.4,14.6-34.4,22.9-54.9,22.9c-20.9,0-42-8.7-56.3-24.1c-14.4-15.5-22.7-36.5-21.3-57.9
				c0.7-10.7,3.1-21.4,8.1-31c4.7-9.1,11-17.5,18.9-24.1c7.8-6.4,16.7-11.7,26.3-14.6c8.8-2.7,17.9-3.9,27.2-3.5
				c20,0.8,38.8,9.3,52.7,23.7c6.7,6.9,12,14.8,15.7,23.7c1.9,4.5,3.5,9.1,4.5,13.9c0.3,1.9,0.6,3.9,0.9,5.8
				c0.2,3.7,0.1,7.5-0.2,11.2c0.5-0.1,1-0.3,1.4-0.7c1.5-1.2,3.1-2.4,4.6-3.6s3-2.5,4.5-3.7C385.5-1468.2,385.8-1468.6,386-1469.1z"
				/>
			<path class="st3" d="M384.8-1465.5c-0.2-5.4-0.6-10.5-1.8-15.8c-1.3-5.4-3.1-10.5-5.5-15.5c-4.6-10-11.8-19.1-19.9-26.5
				c-17.2-15.5-40.3-23.7-63.5-22.6c-23,1.1-45.8,11.5-61.2,28.8c-7.5,8.4-13.8,18.2-17.6,28.9c-3.9,11-6,22.9-5.4,34.6
				c0.7,11.7,3.3,23.5,8.5,34c5,10.2,11.8,19.7,20.3,27.2s18.2,13.8,28.9,17.6c10,3.5,20.4,5.4,31,5.4c23.5-0.1,46-9.6,62.5-26.2
				c8-8.1,14.4-17.6,18.8-28.2c2.2-5.3,4-10.8,5.1-16.5c1.4-7.1,1.7-14.1,1.6-21.3c-0.4,0-0.8,0.1-1.1,0.4c-1.2,0.8-2.4,1.6-3.6,2.5
				c-1.2,0.8-2.4,1.7-3.5,2.6c-0.4,0.2-0.6,0.5-0.8,0.9c-0.4,5.6-0.9,10.8-2.2,16.2c-1.2,5.2-3,10.2-5.2,15
				c-4.3,9.4-10.9,18-18.5,24.8c-15.6,14-36.6,21-57.5,19.7c-20.2-1.3-40-10.8-53.2-26.3c-12.8-15-20.1-34.6-19.2-54.4
				c0.9-19.8,8.8-39.3,23.3-53.1c13.9-13.4,31.9-21.4,51.3-22.2c21-0.9,41.5,6.6,56.8,20.9c7.5,7,13.5,15.3,17.8,24.6
				c2.1,4.7,3.9,9.6,5,14.6c0.4,2,0.7,4.1,1.1,6.1c0.3,3.9,0.4,7.8,0.1,11.7c0.4-0.1,0.8-0.3,1-0.6c1.1-1,2.1-2,3.1-3.1
				c1-1,2-2.1,3-3.2C384.5-1464.8,384.7-1465.1,384.8-1465.5z"/>
			<path class="st3" d="M387.3-1461.9c-0.5-6.4-1-12.7-2.8-18.8c-1-3.3-2.1-6.4-3.5-9.5c-3.1-7.3-7.3-14-12.2-20.2
				c-7.8-9.8-18.1-17.7-29.3-23.2c-11.6-5.8-24.5-9-37.5-9.2c-25.8-0.6-51.9,10.5-68.8,30.1c-8.3,9.6-14.6,20.4-18.4,32.5
				c-3.9,12.3-5.3,25.8-3.4,38.6c1.7,11.7,5.4,22.7,11.2,33c3.4,6,7.7,11.4,12.4,16.4c4.5,4.9,10.1,9.5,15.7,13.1
				c9.8,6.3,20.4,10.6,31.8,13c6.8,1.4,14.4,2,21.4,1.5c7.1-0.4,14.3-1.4,21.1-3.6c11.1-3.5,21.1-8.8,30.3-15.9
				c9.8-7.7,17.8-17.8,23.5-28.8c3.7-7.1,6.4-14.7,8.1-22.5c1.5-7.1,1.8-14.2,1.8-21.5c0-1-1.7,1.3-1.6,1.2
				c-0.8,0.9-1.6,1.9-2.4,2.9c-0.4,0.5-0.8,1-1.1,1.6c-0.2,2.4-0.4,4.8-0.6,7.2c-0.4,3.5-1.1,7-2,10.4c-1.4,5.6-3.3,11.1-5.9,16.2
				c-2.1,4-4.4,7.9-7,11.6c-4,5.6-8.8,10.2-13.9,14.8c0.1-0.1,0.2-0.2,0.3-0.2c-1.8,1.4-3.7,2.8-5.5,4.2c0.1-0.1,0.2-0.1,0.3-0.2
				c-1.9,1.2-3.9,2.5-5.8,3.7c0.1-0.1,0.2-0.1,0.3-0.2c-2,1.1-4.1,2.1-6.1,3.2c0.1-0.1,0.2-0.1,0.3-0.2c-2.1,0.9-4.2,1.8-6.3,2.7
				c0.1,0,0.2-0.1,0.3-0.1c-2.2,0.7-4.3,1.4-6.5,2.1c0.1,0,0.2-0.1,0.4-0.1c-4.2,1.2-8.6,2-13,2.4c-4.2,0.4-8.5,0.5-12.7,0.2
				c-8.2-0.5-16.3-2.3-23.9-5.3c-11.9-4.7-22.4-12.2-31.2-21.4c-10.2-10.6-17.7-24-21.2-38.2c-3.7-15.2-2.8-31.1,2.5-45.8
				c5.3-14.8,15-27.8,27.6-37.1c13.6-10,30-15.3,46.8-15.5c17.1-0.2,33.8,4.9,47.8,14.7c14.3,10,25.6,24.9,31.1,41.5
				c1.4,4.2,2.4,8.4,3.1,12.7c0.5,4,0.7,8.1,0.7,12.1c0,1,1.5-1.5,1.4-1.2c0.6-1,1.2-1.9,1.7-2.9
				C386.9-1460.8,387.1-1461.3,387.3-1461.9z"/>
			<path class="st3" d="M387.8-1469.3c-0.2-5.5-0.6-10.7-1.9-16c-1.3-5.4-3.2-10.5-5.5-15.5c-4.7-10-11.9-19.1-20-26.4
				c-17.2-15.4-40.3-23.6-63.4-22.6c-23,1-45.9,11.4-61.3,28.7c-7.6,8.5-13.9,18.3-17.8,29c-4,11.1-6.1,23-5.4,34.8
				c0.7,11.8,3.3,23.6,8.6,34.2c5.1,10.2,11.9,19.8,20.4,27.3s18.4,13.8,29.1,17.6c10,3.5,20.5,5.4,31.1,5.3
				c23.5-0.2,46-9.8,62.5-26.6c8-8.2,14.3-17.7,18.7-28.2c2.2-5.3,3.9-10.9,5.1-16.5c1.4-7.1,1.6-14.1,1.6-21.3
				c-0.5,0-1,0.1-1.4,0.4c-1.6,0.8-3.2,1.6-4.8,2.4c-1.6,0.8-3.2,1.7-4.7,2.6c-0.5,0.2-0.9,0.5-1.1,0.9c-0.3,5.1-0.8,9.9-1.9,14.9
				c-1.1,4.8-2.5,9.4-4.4,13.9c-3.7,8.8-9.3,17.1-15.9,24c-14.2,14.6-33.8,23.3-54.1,23.9c-21,0.6-42.4-7.4-57.3-22.4
				c-7.4-7.4-13.7-16.2-17.7-26c-4.1-10.1-6.4-21.2-6.1-32.2c0.3-11,2.5-22.2,7.3-32.2c4.6-9.6,10.9-18.6,18.9-25.6
				c7.9-7,17.2-12.7,27.3-16c9.3-3,18.9-4.4,28.6-4.1c20.9,0.8,40.7,9.8,54.9,25.3c6.7,7.2,11.9,15.5,15.5,24.6
				c1.8,4.6,3.4,9.3,4.3,14.2c1.1,5.8,0.9,11.5,0.6,17.3c0.5-0.1,0.9-0.4,1.3-0.8c1.4-1.3,2.8-2.5,4.1-3.9c1.4-1.3,2.7-2.6,4-4
				C387.3-1468.4,387.6-1468.8,387.8-1469.3z"/>
			<path class="st3" d="M385.6-1471.2c-0.2-5.5-0.6-10.6-1.9-16s-3.2-10.5-5.5-15.5c-4.7-10-11.9-19.1-20.1-26.5
				c-17.3-15.5-40.5-23.6-63.7-22.5c-23,1.1-45.7,11.6-61.1,28.9c-7.5,8.4-13.9,18.2-17.7,28.8c-4,11-6.2,22.9-5.5,34.6
				c0.6,11.8,3.2,23.6,8.4,34.2c5,10.3,11.8,19.9,20.4,27.5c8.5,7.6,18.4,14,29.2,17.8c10.1,3.6,20.6,5.4,31.3,5.3
				c23.6-0.2,46.2-9.9,62.6-26.8c8-8.2,14.2-17.7,18.6-28.3c2.2-5.3,3.9-10.8,5-16.5c1.4-7.1,1.6-14.1,1.6-21.3
				c0-0.4-6.3,1.5-6.1,1.5c-0.2,0.1-5.9,1.4-5.9,2.2c0,5.2-0.1,10.2-0.9,15.3c-0.8,5-2,9.9-3.7,14.7c-3.3,9.4-8.8,18.4-15.5,25.8
				c-14.3,15.9-34.8,25.2-56.2,25.8c-21.8,0.6-44.1-8.2-59.2-24.1c-7.4-7.9-13.7-17.2-17.5-27.4c-3.8-10.5-5.8-21.9-5.1-33.2
				c0.8-11.2,3.4-22.4,8.8-32.2c5-9.4,11.7-18,20.1-24.6c8.1-6.4,17.4-11.5,27.4-14.2c8.9-2.4,18.1-3.3,27.3-2.6
				c19.3,1.4,37.3,9.9,50.9,23.7c6.6,6.6,11.9,14.2,15.8,22.7c2,4.4,3.7,8.9,4.8,13.6c0.3,1.9,0.7,3.8,1,5.7c0.3,3.6,0.3,7.3,0,10.9
				c0.5,0,1-0.2,1.4-0.5c1.6-0.9,3.3-1.8,4.9-2.8c1.6-0.9,3.2-1.9,4.8-2.9C385-1470.4,385.4-1470.8,385.6-1471.2z"/>
			<path class="st3" d="M385.4-1472.9c-0.3-6.5-0.8-12.8-2.7-19.1c-1.6-5.3-3.7-10.4-6.3-15.3c-5.3-9.9-12.5-18.5-21.2-25.7
				c-19-15.7-44.1-22.8-68.5-19.6c-24.2,3.2-46.2,16.5-60.5,36.2c-13.2,18.1-19.2,40.9-16.5,63.1c2,16.5,8.7,31.9,18.9,45
				c7.8,10,18.2,18.1,29.5,23.7c10.6,5.3,22.1,8.4,33.9,9.2c13.1,0.9,26.8-1,39-6.1c10.8-4.5,20.4-10.7,28.9-18.8
				c8.3-7.8,14.7-17.6,19.5-27.9c2.8-6.1,5-13.1,6.2-19.8c0.3-2.3,0.7-4.6,1-7c0.5-4.8,0.7-9.6,0.4-14.3c0-0.5-5.5,0.6-5.4,0.6
				c-0.1,0-5.3,0.7-5.3,1.3c0.2,4.3,0.4,8.5,0.1,12.7c-0.3,5.2-1.3,10.4-2.7,15.4c-2.5,9.1-6.6,17.6-12.1,25.3
				c-5.6,7.8-12.6,14.5-20.6,19.7c-8.2,5.4-17.5,9.7-27.2,11.6c-19.3,3.9-39.3,1.3-56.6-8.2c-4.9-2.7-9.6-5.8-13.9-9.4
				c-9.5-24.7-19-49.4-28.5-74.1c0.4-2.3,0.8-4.6,1.2-7c1.2-5.6,3.1-11.1,5.5-16.3c3.4-7.4,7.6-13.4,12.9-19.9
				c-0.1,0.1-0.1,0.2-0.2,0.3c1.6-1.7,3.2-3.3,4.8-5c-0.1,0.1-0.2,0.2-0.2,0.2c1.7-1.5,3.4-3,5.2-4.6c-0.1,0.1-0.2,0.2-0.3,0.2
				c1.8-1.4,3.7-2.7,5.5-4.1c-0.1,0.1-0.2,0.1-0.3,0.2c1.9-1.2,3.9-2.4,5.8-3.6c-0.1,0.1-0.2,0.1-0.3,0.2c2-1,4-2.1,6-3.1
				c-0.1,0-0.2,0.1-0.3,0.1c4-1.8,8.1-3.3,12.3-4.4c4-1.1,8.1-1.8,12.3-2.2c6.2-0.5,12.4-0.4,18.5,0.4c12.3,1.7,24,6.3,34.4,13
				c9.8,6.4,18.5,14.8,24.9,24.6c3.1,4.8,5.6,9.9,7.6,15.2c1.3,3.6,2.3,7.4,2.9,11.2c0.4,3.6,0.5,7.2,0.3,10.7
				c0,0.3,6.2-2.2,6.1-2.2C379.9-1470.1,385.4-1472,385.4-1472.9z"/>
			<path class="st3" d="M386.3-1465.6c-0.2-5.5-0.6-10.6-1.8-15.9c-1.3-5.4-3.1-10.5-5.4-15.5c-4.6-10-11.7-19.1-19.8-26.4
				c-17.1-15.5-40.2-23.7-63.3-22.7c-23,1-45.8,11.4-61.2,28.7c-7.5,8.4-13.8,18.2-17.6,28.9c-3.9,11-6.1,22.9-5.4,34.6
				c0.7,11.7,3.3,23.4,8.5,34c5,10.2,11.7,19.7,20.2,27.2c8.4,7.5,18.2,13.8,28.9,17.6c10,3.5,20.4,5.4,31,5.4
				c23.4-0.1,45.9-9.6,62.4-26.3c8-8.1,14.3-17.6,18.7-28.1c2.2-5.3,4-10.8,5.1-16.5c1.4-7,1.6-14.1,1.6-21.2
				c-0.5,0-0.9,0.2-1.3,0.6c-1.4,1-2.8,2.1-4.2,3.1c-1.4,1.1-2.8,2.1-4.1,3.2c-0.4,0.3-0.7,0.6-0.9,1.1c-0.5,5.4-1.2,10.5-2.6,15.7
				c-1.4,5-3.2,9.7-5.5,14.3c-4.3,8.8-10.9,16.9-18.3,23.3c-15.1,13-35,19.6-54.9,18.5c-19.6-1.1-38.9-9.8-52.1-24.4
				c-13.2-14.6-21.2-33.9-20.6-53.8c0.5-20.2,8.5-40.2,23.4-54.1c7.3-6.8,15.7-12.6,25.1-16.2c8.8-3.4,18-5.2,27.4-5.4
				c21.1-0.4,41.4,7.8,56.2,22.7c7.2,7.2,12.9,15.6,16.8,25c2,4.7,3.6,9.6,4.6,14.6c1.2,5.9,1.1,11.8,0.9,17.8
				c0.5-0.1,0.8-0.4,1.1-0.9c1.2-1.3,2.3-2.6,3.4-3.9s2.2-2.7,3.3-4C386-1464.7,386.2-1465.1,386.3-1465.6z"/>
			<path class="st3" d="M384.5-1469.9c-0.2-5.4-0.6-10.6-1.9-15.9c-1.3-5.4-3.1-10.5-5.5-15.5c-4.6-10-11.8-19.1-20-26.5
				c-17.2-15.5-40.4-23.7-63.6-22.6c-23,1.1-45.8,11.6-61.2,28.9c-7.5,8.4-13.8,18.2-17.6,28.9c-3.9,11-6.1,22.9-5.4,34.6
				c0.7,11.7,3.2,23.5,8.4,34.1c5,10.2,11.7,19.8,20.3,27.4c8.5,7.6,18.3,13.9,29.1,17.8c10.1,3.6,20.5,5.5,31.2,5.4
				c23.6-0.1,46.2-9.8,62.7-26.7c8-8.2,14.3-17.7,18.6-28.3c2.2-5.3,3.9-10.9,5-16.5c1.4-7.1,1.6-14.1,1.5-21.3
				c0-0.4-5.6,1.8-5.5,1.7c-0.3,0.1-5.2,1.6-5.2,2.4c0,5.4-0.2,10.5-1.1,15.7c-0.9,5.1-2.2,10-4,14.9c-3.5,9.5-9.3,18.5-16.3,25.8
				c-14.8,15.6-35.6,24.5-57.1,24.5c-21.7,0.1-43.6-9.1-58.3-25.2c-7.2-7.9-13.2-17.1-16.7-27.2c-3.6-10.3-5.4-21.5-4.5-32.5
				c0.9-10.8,3.5-21.7,8.8-31.2c4.9-9,11.3-17.3,19.4-23.8c7.7-6.2,16.6-11.3,26.1-14.1c8.6-2.6,17.5-3.8,26.5-3.5
				c19.6,0.6,38.3,8.3,52.5,21.7c7,6.6,12.7,14.3,16.8,23c2.1,4.4,3.9,9.1,5,13.9c0.4,1.9,0.7,3.9,1.1,5.8c0.3,3.7,0.4,7.4,0.1,11.1
				c0.5,0,0.9-0.2,1.3-0.5c1.4-0.9,2.8-1.7,4.2-2.7c1.4-0.9,2.8-1.8,4.2-2.8C384-1469.2,384.3-1469.5,384.5-1469.9z"/>
			<path class="st3" d="M386.8-1473.4c0-4.3-0.4-8.6-1.2-12.8c-0.5-2.1-1-4.3-1.5-6.4c-2.1-7.5-5.6-14.5-9.8-21
				c-7.4-11.4-17.3-20.8-29-27.7c-25.2-15-57.8-17-84.2-4c-16.4,8.1-30.2,20.6-39.3,36.4c-7.7,13.4-11.7,28.7-11.8,44.1
				c0,15.6,3.9,31,11.8,44.6c10.5,18.3,27.6,32.5,47.5,39.6c13.6,4.8,28.4,6.3,42.7,4.2c14-2,27.3-7.5,38.9-15.6
				c11.2-7.8,20.3-18.6,26.9-30.5c3.9-7,6.6-14.7,8.4-22.5c0.9-3.4,1.5-6.9,1.8-10.4c0.5-4.8,0.7-9.6,0.4-14.3
				c0-0.5-5.8,0.4-5.7,0.4c0,0-5.7,0.5-5.6,1.2c0.3,6.3,0.4,12.4-0.4,18.7c-0.9,7.2-3.1,14.1-6,20.7c-5.1,11.6-12.8,21.7-22.5,29.7
				c-22.1,18.2-52.9,23-79.7,13.1c-6.3-2.3-12.4-5.5-17.9-9.3c-7.6-4.9-13.5-11.7-17.5-20.2c-7.1-6.3-11.9-13.9-14.5-22.7
				c-4.4-13.7-5.1-28.4-2.4-42.5c2.6-13.7,9.1-26.5,17.9-37.1c5-6.1,11.1-11.2,17.6-15.5c2.7-1.9,5.6-3.6,8.7-5
				c4.1-2,8.3-3.6,12.7-4.9c-0.1,0-0.2,0.1-0.3,0.1c2.3-0.5,4.5-1.1,6.8-1.6c-0.1,0-0.2,0.1-0.4,0.1c2.3-0.3,4.6-0.7,6.9-1
				c-0.1,0-0.3,0-0.4,0c2.3-0.1,4.6-0.3,6.9-0.4c-0.1,0-0.3,0-0.4,0c6.7,0.1,13.3,0.4,19.8,2c4.9,1.2,9.7,2.9,14.4,5
				c9.2,4.2,17.7,10.2,24.8,17.4c6.3,6.4,11.7,13.6,16,21.5c2.6,4.8,4.8,10.5,6.1,15.8c0.4,1.9,0.7,3.7,1.1,5.6
				c0.3,3.5,0.4,7.1,0.1,10.7c0,0.3,6.5-2.4,6.4-2.3c1.6-0.7,3.3-1.4,4.9-2.2C386.1-1472.7,386.5-1473,386.8-1473.4z"/>
			<path class="st3" d="M385.8-1462.9c-0.1-6.4,0.2-4.9-0.5-9.7c-0.7-5.4-2.1-10.7-4-15.8c-3.8-10.4-10.3-19.9-17.8-28
				c-7.7-8.3-17.3-14.7-27.5-19.5c-10.6-5-22.3-7.3-33.9-7.9c-11.9-0.5-23.9,1.8-35,6c-10.7,4-20.4,10.6-28.8,18.3
				c-17.8,16.5-27.7,40.7-27.6,64.9c0.1,23.5,9.7,46.1,26.5,62.6c16.7,16.3,39.3,25.5,62.6,25.3c23.4-0.2,45.9-9.7,62.3-26.4
				c8-8.1,14.3-17.6,18.8-28.1c2.2-5.3,4-10.8,5.2-16.5c1.4-7.1,1.7-14.1,1.7-21.3c-0.4,0-0.7,0.2-1,0.5c-1,0.9-2,1.8-3,2.8
				c-1,0.9-1.9,1.9-2.9,2.9c-0.3,0.3-0.5,0.6-0.6,1c-0.5,5.8-1.2,11.2-2.7,16.8c-1.4,5.3-3.3,10.5-5.9,15.4
				c-4.8,9.4-11.7,18.1-19.9,24.7c-7.3,5.9-15.5,10.5-24.4,13.5c-9.9,3.3-20.1,4.5-30.5,3.7c-18.7-1.4-35.8-9.4-49.3-22.3
				c-13.3-12.7-22.3-30.9-24-49.2c-0.9-9.1-0.3-18.2,1.8-27.1c2.4-9.7,6.6-18.8,12.4-26.9c11.6-16.1,28.7-26.9,48-31
				c10.7-2.3,22.3-1.9,32.9,0.5c10.3,2.3,20.6,6.9,29.1,13.2c7.7,5.8,14.4,12.6,19.7,20.6c2.9,4.4,5.5,9.1,7.5,14
				c4,9.8,5.6,19.5,5.1,30.4c0,0.4,0,0.3,0.3,0.2c0.2-0.2,0.4-0.4,0.5-0.5c0.6-0.7,1.1-1.4,1.7-2.2c0.8-1.1,1.7-2.3,2.4-3.4
				C385.3-1461.7,385.8-1462.3,385.8-1462.9z"/>
			<path class="st3" d="M385.5-1467.5c-0.2-5.4-0.6-10.6-1.9-15.9c-1.3-5.4-3.1-10.5-5.4-15.5c-4.6-10-11.8-19.1-19.9-26.4
				c-17.2-15.5-40.2-23.7-63.3-22.6c-23,1.1-45.8,11.4-61.1,28.7c-7.5,8.4-13.8,18.2-17.6,28.9c-3.9,11-6.1,22.8-5.4,34.5
				c0.7,11.7,3.2,23.4,8.4,33.9c5,10.2,11.7,19.7,20.2,27.2c8.4,7.5,18.2,13.8,28.9,17.6c10,3.6,20.3,5.4,30.9,5.4
				c23.4-0.1,45.9-9.6,62.4-26.2c8-8.1,14.3-17.6,18.7-28.1c2.2-5.3,4-10.8,5.1-16.5c1.4-7,1.6-14.1,1.6-21.2c-0.5,0-1,0.1-1.4,0.5
				c-1.6,0.8-3.1,1.7-4.7,2.6c-1.5,0.9-3.1,1.8-4.6,2.8c-0.5,0.2-0.8,0.5-1.1,1c-0.4,5.3-0.9,10.2-2.1,15.4
				c-1.2,4.9-2.8,9.7-4.8,14.3c-4,9-10.1,17.2-17.2,23.9c-14.8,13.9-34.9,21.4-55.3,20.8s-40.6-9.6-54.2-24.9
				c-13.6-15.2-21.3-35.5-20-56c1.3-20.3,10.1-40.1,25.6-53.5c7.4-6.4,16-11.8,25.3-14.9c8.7-2.9,17.6-4.4,26.8-4.3
				c20.2,0.2,39.6,8.3,53.9,22.7c6.9,7,12.4,15.1,16.3,24.1c2,4.6,3.6,9.3,4.6,14.2c0.3,2,0.6,3.9,0.9,5.9c0.2,3.8,0.2,7.6-0.1,11.4
				c0.5-0.1,0.9-0.4,1.3-0.8c1.4-1.2,2.8-2.4,4.1-3.7c1.4-1.2,2.7-2.5,4-3.8C385.1-1466.6,385.4-1467,385.5-1467.5z"/>
		</g>
	</g>
</g>
<g>
	<path class="st4" d="M332.1,375.7c-0.2,2.4-8.6-13.6-9.8-14.8c-25.5-25-93.4-34.1-144-24.6c-27.5,5.1-30.5,12.1-53.5,11.8
		c-12-0.2-41.5-0.6-62.1-20.5C32.9,299,36.8,244.8,45.2,214.3c14.5-52.5,54.5-79.2,97.6-107c61.8-39.9,180.3-55.1,240.9-50.1"/>
	<path class="st5" d="M373,425.9c-1.2-18.6-2-33.2-2.5-41.2c-8.9-167.3,7.3-275.1,9.7-307.3c0.6-8.9,3.6-17.2,3.8-20.2
		c33.8,0.9,73.6,9.5,109.7,30.8c40.7,23.9,62.1,56.6,73.5,74.5c24.3,38,32,72.7,34.4,85c6.9,35.8,14.9,76.9-8.6,116
		c-19.3,32.1-60.2,63.5-97.9,57.3c-35.3-5.8-52.3-40.7-79.2-53.9C395.9,356.9,382.8,407.4,373,425.9z"/>
	<path class="st5" d="M371.1,427.1c-3.3-19.3-6.7-38.5-10-57.8"/>
	<path class="st6" d="M595.4,261.7c-1.1-0.9-63.7-51.1-100.4-48.3c-3.8,0.3-6.2-3.9-3.9-7c23.1-30.8,37.6-62.4,36.5-63.3
		c-1.2-1-26.2,44.9-57.2,69.4l0,0c-1.6,0.6-17.3-63.1-19.7-74.9c0-0.1-0.1,0-0.1,0c1.6,14,9.9,81.6,7.4,83.3
		c-23.7,16.6-63.9,45.9-83.3,39.7c-1.6-0.5-2.7-1.9-2.9-3.5c-5.3-38.3,13.3-202.8,12-202.8c-3,0-24.1,138.1-37.7,186.3
		c-1.1,4-6.6,4.3-8.2,0.5c-15-35.3-63.1-123.4-64.1-123.1c-0.9,0.2,39.4,97.3,53,134.1c4.7,12.8,4,10.6,2,17.3l0,0
		c-2.6-0.8-81.7-101.9-73.8-85.5c0.4,0.7,54.3,82.7,53.6,82.4C265.8,245.8,154.3,154,154.9,160.1c0.3,2.8,47,35.1,91.1,89.6
		c2.2,2.7,0.5,6.8-3,7.1c-41.7,4.2-85.1,9.9-84.7,13.9c0.3,3.2,103.1-26.7,149.4,18.1c8.1,7.9-78.7,34.3-78.3,34.2
		c91.2-17.8,92.1,3.8,100.2,24.3c11.6,29.3-30,88.8,17.2,88.7c0.6,0,1.3,0.1,1.9,0.4c12.7,5.6,29.8,6.9,38.1,0
		c1.2-1,1.8-2.7,1.4-4.3l0,0c-0.1-0.6-0.1-1.1,0-1.7c0.2-2.5-9.1-13.3-9-15.9c0-0.4-6.4-2.4-6.5-2.8c-3.4-18.6,6.3-20.5,6.8-61.7
		c0.3-29.3,13.1-51.1,16.6-56.9c1.9-3.1,3.8-5.9,5.8-8.5c0.1-0.1,0.2-0.3,0.3-0.4c14.2-15.1,30.9-20.2,57.3-43.1
		c2.9-2.5,5.7-5.1,8.4-7.8c0.2-0.2,0.5-0.4,0.7-0.6C511,205.8,596.8,262.9,595.4,261.7z"/>
	<path class="st6" d="M296.3,257.1"/>
	<path class="st6" d="M378.6,161.1c2.8,6.8,23.7,5.1,38,0.4c13.6-4.5,26.7-11.7,29.6-22.1c-8.6-5.7-22.2-10.5-38.8-5.3
		C390.8,139.4,375.8,154.4,378.6,161.1z"/>
	<path class="st6" d="M385.6,105.8c2.8,6.8,23.7,5.1,38,0.4c13.6-4.5,28-15,29.6-22.1c-4.6-4.6-22.2-10.5-38.8-5.3
		C397.8,84.1,382.8,99.1,385.6,105.8z"/>
	<path class="st6" d="M206.5,316.4c6.9,2.1,20.9-0.1,32.1-6.7c10.6-6.3,23.5-18.4,20.8-24s-20.7-4.7-33.6,2.7
		C212.7,295.9,205.8,310.4,206.5,316.4z"/>
	<path class="st6" d="M151,316.5c7.7,1.4,20.9-0.1,32.1-6.7c10.6-6.3,23.5-18.4,20.8-24s-20.7-4.7-33.6,2.7
		C157.3,296.1,150.3,310.3,151,316.5z"/>
	<path class="st6" d="M101.6,317.1c8,0.5,20.9-0.1,32.1-6.7c10.6-6.3,23.5-18.4,20.8-24s-20.7-4.7-33.6,2.7
		C107.9,296.6,99.5,310.6,101.6,317.1z"/>
	<path class="st6" d="M96.7,241.5c6.9,12.1,14.8,14.7,27.4,17.9c12,3.1,29.6,3.6,31.7-2.3s-11.3-17.9-25.7-21.8
		C115.6,231.4,104.1,234.9,96.7,241.5z"/>
	<path class="st6" d="M144.1,220.2c5.7,10.2,14.8,14.7,27.4,17.9c12,3.1,29.6,3.6,31.7-2.3c2.1-5.9-11.3-17.9-25.7-21.8
		C162.9,210.2,145.2,214.1,144.1,220.2z"/>
	<path class="st6" d="M83.6,177.3c5.4,6.4,19.5,7.6,32.3,5.6c12.2-1.9,28.6-8.4,28.2-14.7c-0.4-6.2-17.5-12-32.2-9.8
		C96.9,160.6,84.4,170.9,83.6,177.3z"/>
	<path class="st6" d="M161.5,157.2c6.2,1.5,15.5-14,19.5-26.3c3.7-11.8,3.3-24.6-0.5-31.8c-5.7-2.4-18.5,10.2-23.2,24.4
		C152.5,137.8,155.4,155.8,161.5,157.2z"/>
	<path class="st6" d="M195,175.1c6.7,1.8,16.4-15,20.2-28.5c3.7-12.9,3-28.1-1.5-35.2c-7.9,2-19.7,10.8-24.4,26.3
		C184.7,153.3,188.4,173.3,195,175.1z"/>
	<path class="st6" d="M268.1,189.2c5,0.1,10.1-13.4,11.5-23.5c1.3-9.7-0.9-19.8-4.6-24.3c-4.1,1.5-13,11-14.7,22.7
		C258.5,175.8,263.2,189.1,268.1,189.2z"/>
	<path class="st6" d="M249.1,189.2c3.8-3.2-1.2-16.7-6.9-25.3c-5.4-8.1-13.7-14.3-19.5-15.2c-2,3.8-2.5,16.8,3.9,26.7
		C233.2,185.5,245.4,192.4,249.1,189.2z"/>
	<path class="st6" d="M280.4,116.2c4.8,1,12.4-11,15.7-20.6c3.1-9.1,3-20.1,0.2-24.4c-3.7,1.9-14.7,8.2-18.6,19.1
		C273.8,101.4,275.7,115.2,280.4,116.2z"/>
	<path class="st6" d="M333.8,63.6c5.3,12.2,6.7,15.1,14.8,21.2c7.7,5.7,20.2,11.3,23.2,7.6c3-3.7-3.3-16.5-12.6-23.5
		C349.9,61.7,342,61.5,333.8,63.6z"/>
	<path class="st6" d="M314.1,106.5c7.3,10.5,11.2,14.2,21.5,18.4c9.8,4,24.6,6.4,26.9,1.6c2.2-4.8-8-16.6-19.8-21.5
		C330.8,100,318.4,101.9,314.1,106.5z"/>
	<path class="st6" d="M314.1,142.3c-0.4,7.5,6.9,15.1,15,21c7.8,5.7,20.3,11.1,23.3,7.3c3-3.7-3.5-16.4-12.8-23.4
		C330.2,140.2,321.5,140.1,314.1,142.3z"/>
	<path class="st6" d="M269,117.7c-3.2,3.7-16.5-1.1-25-6.7c-8-5.3-17.5-15.1-15-19.2c8.8-3.2,16.6-2.5,26.4,3.8
		C265.3,102,272.2,114,269,117.7z"/>
	<path class="st6" d="M440.4,267c-2.5,5,9.3,14.5,19.5,19.1c9.7,4.4,22.6,5.3,28.3,3.1c0.7-8.2-5.4-16.6-17.1-22
		C459.4,261.6,442.9,262.1,440.4,267z"/>
	<path class="st6" d="M485.1,238.7c-4.1,3.7,3.5,16.9,11.3,24.9c7.5,7.6,18.3,12.3,25.3,13.1c3.7-9,0.9-17.4-8-26.7
		C504.8,240.6,489.2,235.1,485.1,238.7z"/>
	<path class="st6" d="M513.9,184.2c-0.9,5.5,13.3,10.9,24.4,12.2c10.6,1.2,19.5-0.8,27.9-5.7c-3.3-7-10.2-14.1-23-15.8
		C530.3,173.4,514.8,178.8,513.9,184.2z"/>
	<path class="st6" d="M548.3,226.9c2.1,3.9,13.6,0.5,21.2-3.9c7.3-4.3,11.9-9.8,14.9-16.9c-5.4-2.9-13.2-4-22,1
		C553.5,212.2,546.3,223,548.3,226.9z"/>
	<path class="st6" d="M456.6,136.7c3.5,4.3,17-2.5,25.5-9.8c8-7,17.3-19.6,14.6-24.5c-2.7-4.8-17.3-1.9-27.1,6.4
		C459.7,117.2,453.2,132.4,456.6,136.7z"/>
	<path class="st6" d="M468.5,171.2c3.5,4.3,17-2.5,25.5-9.8c8-7,17.3-19.6,14.6-24.5c-2.7-4.8-17.3-1.9-27.1,6.4
		C471.5,151.7,465.1,166.9,468.5,171.2z"/>
	<path class="st6" d="M385.9,233.1c3,4.7,17.2-0.6,26.4-7c8.8-6.1,16.2-12.8,17.2-22.7c-5.8-3-17-3.8-27.7,3.4
		C391,214,382.9,228.4,385.9,233.1z"/>
	<path class="st6" d="M552.9,251.5c-3.3,3.6,2,17.2,7.7,25.7c5.4,8,11.1,12.2,18.7,14.4c2.4-6.6,1.3-17.5-5.1-27.4
		C567.7,254.4,556.1,248,552.9,251.5z"/>
</g>
<path class="st7" d="M-2440.1,49.3"/>
</svg>
