<?xml version="1.0" encoding="utf-8"?>
<!-- Generator: Adobe Illustrator 26.0.2, SVG Export Plug-In . SVG Version: 6.00 Build 0)  -->
<svg version="1.1" id="Ebene_1" xmlns="http://www.w3.org/2000/svg" xmlns:xlink="http://www.w3.org/1999/xlink" x="0px" y="0px"
	 viewBox="0 0 647.9 495.3" style="enable-background:new 0 0 647.9 495.3;" xml:space="preserve">
<style type="text/css">
	.st0{display:none;}
	.st1{display:inline;}
	.st2{display:inline;fill:#2F400D;}
	.st3{opacity:0.1091;fill:#31401B;enable-background:new    ;}
	.st4{fill:#FFFFFF;}
	.st5{fill:none;}
	.st6{fill:#435C1D;}
	.st7{fill:#D2E7B5;}
	.st8{opacity:0.65;fill:#2E193F;enable-background:new    ;}
	.st9{opacity:0.55;fill:#2E193F;enable-background:new    ;}
	.st10{fill:#B0D959;}
	.st11{fill:#31073F;}
	.st12{fill:#2F400D;}
	.st13{fill:url(#SVGID_1_);}
</style>
<g id="Ebene_1_00000108297882875454534200000007816474239820096664_">
	<g class="st0">
		<g class="st1">
			
				<image style="overflow:visible;enable-background:new    ;" width="1000" height="667" xlink:href="E261AE8F.jpg"  transform="matrix(1 0 0 1 -1401.2249 -1655.9501)">
			</image>
		</g>
	</g>
</g>
<g id="Ebene_2_00000119806425501988784510000001593396877791928974_">
	<g class="st0">
		
			<ellipse transform="matrix(6.652052e-02 -0.9978 0.9978 6.652052e-02 1735.1145 -1063.3292)" class="st2" cx="299.3" cy="-1459" rx="78.7" ry="78.7"/>
		<g class="st1">
			<g>
				<path class="st3" d="M387.7-1466.8c-0.2-5.5-0.6-10.6-1.9-15.9c-1.3-5.4-3.1-10.5-5.5-15.5c-4.6-10-11.8-19.1-19.9-26.4
					c-17.2-15.5-40.3-23.7-63.4-22.7s-46,11.4-61.4,28.8c-7.5,8.5-13.9,18.3-17.7,29c-3.9,11-6,23-5.3,34.7s3.3,23.5,8.6,34
					c5,10.2,11.8,19.7,20.3,27.2s18.3,13.8,29,17.6c10,3.5,20.4,5.4,31,5.4c23.5-0.1,46-9.7,62.5-26.4c8-8.2,14.3-17.6,18.7-28.2
					c2.2-5.3,3.9-10.8,5.1-16.5c1.4-7.1,1.6-14.1,1.6-21.3c-0.5,0-0.9,0.2-1.3,0.6c-1.4,1-2.8,2-4.2,3.1c-1.4,1-2.8,2.1-4.1,3.2
					c-0.4,0.3-0.8,0.6-0.9,1.1c-0.6,5.3-1.2,10.3-2.6,15.4c-1.3,4.9-3.1,9.5-5.3,14.1c-4.2,8.7-10.4,16.7-17.5,23.2
					c-14.7,13.3-34.1,20.6-53.9,20.5c-20-0.2-40.2-8.3-54.4-22.6c-14.5-14.7-23.4-34.7-23.1-55.5c0.1-10.7,2-21.5,6.4-31.2
					c4.2-9.4,10.1-18.3,17.7-25.4c7.6-7.1,16.4-13.1,26.2-16.7c9.1-3.4,18.7-5.1,28.4-5.1c21.5,0,42,8.7,56.9,24.1
					c7.1,7.4,12.7,15.9,16.5,25.4c1.9,4.7,3.5,9.6,4.5,14.6c1.2,6,1,11.8,0.8,17.9c0.5-0.2,0.8-0.5,1.1-0.9c1.1-1.3,2.3-2.6,3.4-4
					c1.1-1.3,2.2-2.7,3.2-4.1C387.4-1465.9,387.6-1466.3,387.7-1466.8z"/>
				<path class="st3" d="M386-1469.1c-0.2-5.5-0.6-10.6-1.9-15.9c-1.3-5.4-3.1-10.5-5.5-15.5c-4.6-10-11.8-19.1-20-26.4
					c-17.2-15.4-40.3-23.6-63.4-22.5c-23,1.1-45.7,11.5-61.1,28.7c-7.5,8.4-13.8,18.2-17.6,28.8c-3.9,11-6.1,22.9-5.4,34.6
					c0.7,11.7,3.2,23.5,8.4,34c5,10.2,11.7,19.7,20.2,27.3c8.5,7.5,18.2,13.9,29,17.7c10,3.6,20.4,5.4,31,5.4
					c23.5-0.1,46-9.6,62.4-26.4c8-8.1,14.3-17.6,18.7-28.2c2.2-5.3,4-10.8,5.1-16.5c1.4-7,1.6-14.1,1.6-21.3c0-0.2-6.5,2.7-6.4,2.6
					c-1.6,0.8-3.3,1.6-4.9,2.4c-0.5,0.2-0.9,0.5-1.2,0.9c-0.2,5.1-0.6,10.1-1.7,15.1c-1,4.9-2.5,9.6-4.4,14.2
					c-3.7,9-9.4,17.4-16.2,24.3c-14.4,14.6-34.4,22.9-54.9,22.9c-20.9,0-42-8.7-56.3-24.1c-14.4-15.5-22.7-36.5-21.3-57.9
					c0.7-10.7,3.1-21.4,8.1-31c4.7-9.1,11-17.5,18.9-24.1c7.8-6.4,16.7-11.7,26.3-14.6c8.8-2.7,17.9-3.9,27.2-3.5
					c20,0.8,38.8,9.3,52.7,23.7c6.7,6.9,12,14.8,15.7,23.7c1.9,4.5,3.5,9.1,4.5,13.9c0.3,1.9,0.6,3.9,0.9,5.8
					c0.2,3.7,0.1,7.5-0.2,11.2c0.5-0.1,1-0.3,1.4-0.7c1.5-1.2,3.1-2.4,4.6-3.6s3-2.5,4.5-3.7C385.5-1468.2,385.8-1468.6,386-1469.1z
					"/>
				<path class="st3" d="M384.8-1465.5c-0.2-5.4-0.6-10.5-1.8-15.8c-1.3-5.4-3.1-10.5-5.5-15.5c-4.6-10-11.8-19.1-19.9-26.5
					c-17.2-15.5-40.3-23.7-63.5-22.6c-23,1.1-45.8,11.5-61.2,28.8c-7.5,8.4-13.8,18.2-17.6,28.9c-3.9,11-6,22.9-5.4,34.6
					c0.7,11.7,3.3,23.5,8.5,34c5,10.2,11.8,19.7,20.3,27.2s18.2,13.8,28.9,17.6c10,3.5,20.4,5.4,31,5.4c23.5-0.1,46-9.6,62.5-26.2
					c8-8.1,14.4-17.6,18.8-28.2c2.2-5.3,4-10.8,5.1-16.5c1.4-7.1,1.7-14.1,1.6-21.3c-0.4,0-0.8,0.1-1.1,0.4
					c-1.2,0.8-2.4,1.6-3.6,2.5c-1.2,0.8-2.4,1.7-3.5,2.6c-0.4,0.2-0.6,0.5-0.8,0.9c-0.4,5.6-0.9,10.8-2.2,16.2
					c-1.2,5.2-3,10.2-5.2,15c-4.3,9.4-10.9,18-18.5,24.8c-15.6,14-36.6,21-57.5,19.7c-20.2-1.3-40-10.8-53.2-26.3
					c-12.8-15-20.1-34.6-19.2-54.4c0.9-19.8,8.8-39.3,23.3-53.1c13.9-13.4,31.9-21.4,51.3-22.2c21-0.9,41.5,6.6,56.8,20.9
					c7.5,7,13.5,15.3,17.8,24.6c2.1,4.7,3.9,9.6,5,14.6c0.4,2,0.7,4.1,1.1,6.1c0.3,3.9,0.4,7.8,0.1,11.7c0.4-0.1,0.8-0.3,1-0.6
					c1.1-1,2.1-2,3.1-3.1c1-1,2-2.1,3-3.2C384.5-1464.8,384.7-1465.1,384.8-1465.5z"/>
				<path class="st3" d="M387.3-1461.9c-0.5-6.4-1-12.7-2.8-18.8c-1-3.3-2.1-6.4-3.5-9.5c-3.1-7.3-7.3-14-12.2-20.2
					c-7.8-9.8-18.1-17.7-29.3-23.2c-11.6-5.8-24.5-9-37.5-9.2c-25.8-0.6-51.9,10.5-68.8,30.1c-8.3,9.6-14.6,20.4-18.4,32.5
					c-3.9,12.3-5.3,25.8-3.4,38.6c1.7,11.7,5.4,22.7,11.2,33c3.4,6,7.7,11.4,12.4,16.4c4.5,4.9,10.1,9.5,15.7,13.1
					c9.8,6.3,20.4,10.6,31.8,13c6.8,1.4,14.4,2,21.4,1.5c7.1-0.4,14.3-1.4,21.1-3.6c11.1-3.5,21.1-8.8,30.3-15.9
					c9.8-7.7,17.8-17.8,23.5-28.8c3.7-7.1,6.4-14.7,8.1-22.5c1.5-7.1,1.8-14.2,1.8-21.5c0-1-1.7,1.3-1.6,1.2
					c-0.8,0.9-1.6,1.9-2.4,2.9c-0.4,0.5-0.8,1-1.1,1.6c-0.2,2.4-0.4,4.8-0.6,7.2c-0.4,3.5-1.1,7-2,10.4c-1.4,5.6-3.3,11.1-5.9,16.2
					c-2.1,4-4.4,7.9-7,11.6c-4,5.6-8.8,10.2-13.9,14.8c0.1-0.1,0.2-0.2,0.3-0.2c-1.8,1.4-3.7,2.8-5.5,4.2c0.1-0.1,0.2-0.1,0.3-0.2
					c-1.9,1.2-3.9,2.5-5.8,3.7c0.1-0.1,0.2-0.1,0.3-0.2c-2,1.1-4.1,2.1-6.1,3.2c0.1-0.1,0.2-0.1,0.3-0.2c-2.1,0.9-4.2,1.8-6.3,2.7
					c0.1,0,0.2-0.1,0.3-0.1c-2.2,0.7-4.3,1.4-6.5,2.1c0.1,0,0.2-0.1,0.4-0.1c-4.2,1.2-8.6,2-13,2.4c-4.2,0.4-8.5,0.5-12.7,0.2
					c-8.2-0.5-16.3-2.3-23.9-5.3c-11.9-4.7-22.4-12.2-31.2-21.4c-10.2-10.6-17.7-24-21.2-38.2c-3.7-15.2-2.8-31.1,2.5-45.8
					c5.3-14.8,15-27.8,27.6-37.1c13.6-10,30-15.3,46.8-15.5c17.1-0.2,33.8,4.9,47.8,14.7c14.3,10,25.6,24.9,31.1,41.5
					c1.4,4.2,2.4,8.4,3.1,12.7c0.5,4,0.7,8.1,0.7,12.1c0,1,1.5-1.5,1.4-1.2c0.6-1,1.2-1.9,1.7-2.9
					C386.9-1460.8,387.1-1461.3,387.3-1461.9z"/>
				<path class="st3" d="M387.8-1469.3c-0.2-5.5-0.6-10.7-1.9-16c-1.3-5.4-3.2-10.5-5.5-15.5c-4.7-10-11.9-19.1-20-26.4
					c-17.2-15.4-40.3-23.6-63.4-22.6c-23,1-45.9,11.4-61.3,28.7c-7.6,8.5-13.9,18.3-17.8,29c-4,11.1-6.1,23-5.4,34.8
					c0.7,11.8,3.3,23.6,8.6,34.2c5.1,10.2,11.9,19.8,20.4,27.3s18.4,13.8,29.1,17.6c10,3.5,20.5,5.4,31.1,5.3
					c23.5-0.2,46-9.8,62.5-26.6c8-8.2,14.3-17.7,18.7-28.2c2.2-5.3,3.9-10.9,5.1-16.5c1.4-7.1,1.6-14.1,1.6-21.3
					c-0.5,0-1,0.1-1.4,0.4c-1.6,0.8-3.2,1.6-4.8,2.4c-1.6,0.8-3.2,1.7-4.7,2.6c-0.5,0.2-0.9,0.5-1.1,0.9c-0.3,5.1-0.8,9.9-1.9,14.9
					c-1.1,4.8-2.5,9.4-4.4,13.9c-3.7,8.8-9.3,17.1-15.9,24c-14.2,14.6-33.8,23.3-54.1,23.9c-21,0.6-42.4-7.4-57.3-22.4
					c-7.4-7.4-13.7-16.2-17.7-26c-4.1-10.1-6.4-21.2-6.1-32.2c0.3-11,2.5-22.2,7.3-32.2c4.6-9.6,10.9-18.6,18.9-25.6
					c7.9-7,17.2-12.7,27.3-16c9.3-3,18.9-4.4,28.6-4.1c20.9,0.8,40.7,9.8,54.9,25.3c6.7,7.2,11.9,15.5,15.5,24.6
					c1.8,4.6,3.4,9.3,4.3,14.2c1.1,5.8,0.9,11.5,0.6,17.3c0.5-0.1,0.9-0.4,1.3-0.8c1.4-1.3,2.8-2.5,4.1-3.9c1.4-1.3,2.7-2.6,4-4
					C387.3-1468.4,387.6-1468.8,387.8-1469.3z"/>
				<path class="st3" d="M385.6-1471.2c-0.2-5.5-0.6-10.6-1.9-16s-3.2-10.5-5.5-15.5c-4.7-10-11.9-19.1-20.1-26.5
					c-17.3-15.5-40.5-23.6-63.7-22.5c-23,1.1-45.7,11.6-61.1,28.9c-7.5,8.4-13.9,18.2-17.7,28.8c-4,11-6.2,22.9-5.5,34.6
					c0.6,11.8,3.2,23.6,8.4,34.2c5,10.3,11.8,19.9,20.4,27.5c8.5,7.6,18.4,14,29.2,17.8c10.1,3.6,20.6,5.4,31.3,5.3
					c23.6-0.2,46.2-9.9,62.6-26.8c8-8.2,14.2-17.7,18.6-28.3c2.2-5.3,3.9-10.8,5-16.5c1.4-7.1,1.6-14.1,1.6-21.3
					c0-0.4-6.3,1.5-6.1,1.5c-0.2,0.1-5.9,1.4-5.9,2.2c0,5.2-0.1,10.2-0.9,15.3c-0.8,5-2,9.9-3.7,14.7c-3.3,9.4-8.8,18.4-15.5,25.8
					c-14.3,15.9-34.8,25.2-56.2,25.8c-21.8,0.6-44.1-8.2-59.2-24.1c-7.4-7.9-13.7-17.2-17.5-27.4c-3.8-10.5-5.8-21.9-5.1-33.2
					c0.8-11.2,3.4-22.4,8.8-32.2c5-9.4,11.7-18,20.1-24.6c8.1-6.4,17.4-11.5,27.4-14.2c8.9-2.4,18.1-3.3,27.3-2.6
					c19.3,1.4,37.3,9.9,50.9,23.7c6.6,6.6,11.9,14.2,15.8,22.7c2,4.4,3.7,8.9,4.8,13.6c0.3,1.9,0.7,3.8,1,5.7
					c0.3,3.6,0.3,7.3,0,10.9c0.5,0,1-0.2,1.4-0.5c1.6-0.9,3.3-1.8,4.9-2.8c1.6-0.9,3.2-1.9,4.8-2.9
					C385-1470.4,385.4-1470.8,385.6-1471.2z"/>
				<path class="st3" d="M385.4-1472.9c-0.3-6.5-0.8-12.8-2.7-19.1c-1.6-5.3-3.7-10.4-6.3-15.3c-5.3-9.9-12.5-18.5-21.2-25.7
					c-19-15.7-44.1-22.8-68.5-19.6c-24.2,3.2-46.2,16.5-60.5,36.2c-13.2,18.1-19.2,40.9-16.5,63.1c2,16.5,8.7,31.9,18.9,45
					c7.8,10,18.2,18.1,29.5,23.7c10.6,5.3,22.1,8.4,33.9,9.2c13.1,0.9,26.8-1,39-6.1c10.8-4.5,20.4-10.7,28.9-18.8
					c8.3-7.8,14.7-17.6,19.5-27.9c2.8-6.1,5-13.1,6.2-19.8c0.3-2.3,0.7-4.6,1-7c0.5-4.8,0.7-9.6,0.4-14.3c0-0.5-5.5,0.6-5.4,0.6
					c-0.1,0-5.3,0.7-5.3,1.3c0.2,4.3,0.4,8.5,0.1,12.7c-0.3,5.2-1.3,10.4-2.7,15.4c-2.5,9.1-6.6,17.6-12.1,25.3
					c-5.6,7.8-12.6,14.5-20.6,19.7c-8.2,5.4-17.5,9.7-27.2,11.6c-19.3,3.9-39.3,1.3-56.6-8.2c-4.9-2.7-9.6-5.8-13.9-9.4
					c-9.5-24.7-19-49.4-28.5-74.1c0.4-2.3,0.8-4.6,1.2-7c1.2-5.6,3.1-11.1,5.5-16.3c3.4-7.4,7.6-13.4,12.9-19.9
					c-0.1,0.1-0.1,0.2-0.2,0.3c1.6-1.7,3.2-3.3,4.8-5c-0.1,0.1-0.2,0.2-0.2,0.2c1.7-1.5,3.4-3,5.2-4.6c-0.1,0.1-0.2,0.2-0.3,0.2
					c1.8-1.4,3.7-2.7,5.5-4.1c-0.1,0.1-0.2,0.1-0.3,0.2c1.9-1.2,3.9-2.4,5.8-3.6c-0.1,0.1-0.2,0.1-0.3,0.2c2-1,4-2.1,6-3.1
					c-0.1,0-0.2,0.1-0.3,0.1c4-1.8,8.1-3.3,12.3-4.4c4-1.1,8.1-1.8,12.3-2.2c6.2-0.5,12.4-0.4,18.5,0.4c12.3,1.7,24,6.3,34.4,13
					c9.8,6.4,18.5,14.8,24.9,24.6c3.1,4.8,5.6,9.9,7.6,15.2c1.3,3.6,2.3,7.4,2.9,11.2c0.4,3.6,0.5,7.2,0.3,10.7
					c0,0.3,6.2-2.2,6.1-2.2C379.9-1470.1,385.4-1472,385.4-1472.9z"/>
				<path class="st3" d="M386.3-1465.6c-0.2-5.5-0.6-10.6-1.8-15.9c-1.3-5.4-3.1-10.5-5.4-15.5c-4.6-10-11.7-19.1-19.8-26.4
					c-17.1-15.5-40.2-23.7-63.3-22.7c-23,1-45.8,11.4-61.2,28.7c-7.5,8.4-13.8,18.2-17.6,28.9c-3.9,11-6.1,22.9-5.4,34.6
					c0.7,11.7,3.3,23.4,8.5,34c5,10.2,11.7,19.7,20.2,27.2c8.4,7.5,18.2,13.8,28.9,17.6c10,3.5,20.4,5.4,31,5.4
					c23.4-0.1,45.9-9.6,62.4-26.3c8-8.1,14.3-17.6,18.7-28.1c2.2-5.3,4-10.8,5.1-16.5c1.4-7,1.6-14.1,1.6-21.2
					c-0.5,0-0.9,0.2-1.3,0.6c-1.4,1-2.8,2.1-4.2,3.1c-1.4,1.1-2.8,2.1-4.1,3.2c-0.4,0.3-0.7,0.6-0.9,1.1c-0.5,5.4-1.2,10.5-2.6,15.7
					c-1.4,5-3.2,9.7-5.5,14.3c-4.3,8.8-10.9,16.9-18.3,23.3c-15.1,13-35,19.6-54.9,18.5c-19.6-1.1-38.9-9.8-52.1-24.4
					c-13.2-14.6-21.2-33.9-20.6-53.8c0.5-20.2,8.5-40.2,23.4-54.1c7.3-6.8,15.7-12.6,25.1-16.2c8.8-3.4,18-5.2,27.4-5.4
					c21.1-0.4,41.4,7.8,56.2,22.7c7.2,7.2,12.9,15.6,16.8,25c2,4.7,3.6,9.6,4.6,14.6c1.2,5.9,1.1,11.8,0.9,17.8
					c0.5-0.1,0.8-0.4,1.1-0.9c1.2-1.3,2.3-2.6,3.4-3.9s2.2-2.7,3.3-4C386-1464.7,386.2-1465.1,386.3-1465.6z"/>
				<path class="st3" d="M384.5-1469.9c-0.2-5.4-0.6-10.6-1.9-15.9c-1.3-5.4-3.1-10.5-5.5-15.5c-4.6-10-11.8-19.1-20-26.5
					c-17.2-15.5-40.4-23.7-63.6-22.6c-23,1.1-45.8,11.6-61.2,28.9c-7.5,8.4-13.8,18.2-17.6,28.9c-3.9,11-6.1,22.9-5.4,34.6
					c0.7,11.7,3.2,23.5,8.4,34.1c5,10.2,11.7,19.8,20.3,27.4c8.5,7.6,18.3,13.9,29.1,17.8c10.1,3.6,20.5,5.5,31.2,5.4
					c23.6-0.1,46.2-9.8,62.7-26.7c8-8.2,14.3-17.7,18.6-28.3c2.2-5.3,3.9-10.9,5-16.5c1.4-7.1,1.6-14.1,1.5-21.3
					c0-0.4-5.6,1.8-5.5,1.7c-0.3,0.1-5.2,1.6-5.2,2.4c0,5.4-0.2,10.5-1.1,15.7c-0.9,5.1-2.2,10-4,14.9c-3.5,9.5-9.3,18.5-16.3,25.8
					c-14.8,15.6-35.6,24.5-57.1,24.5c-21.7,0.1-43.6-9.1-58.3-25.2c-7.2-7.9-13.2-17.1-16.7-27.2c-3.6-10.3-5.4-21.5-4.5-32.5
					c0.9-10.8,3.5-21.7,8.8-31.2c4.9-9,11.3-17.3,19.4-23.8c7.7-6.2,16.6-11.3,26.1-14.1c8.6-2.6,17.5-3.8,26.5-3.5
					c19.6,0.6,38.3,8.3,52.5,21.7c7,6.6,12.7,14.3,16.8,23c2.1,4.4,3.9,9.1,5,13.9c0.4,1.9,0.7,3.9,1.1,5.8
					c0.3,3.7,0.4,7.4,0.1,11.1c0.5,0,0.9-0.2,1.3-0.5c1.4-0.9,2.8-1.7,4.2-2.7c1.4-0.9,2.8-1.8,4.2-2.8
					C384-1469.2,384.3-1469.5,384.5-1469.9z"/>
				<path class="st3" d="M386.8-1473.4c0-4.3-0.4-8.6-1.2-12.8c-0.5-2.1-1-4.3-1.5-6.4c-2.1-7.5-5.6-14.5-9.8-21
					c-7.4-11.4-17.3-20.8-29-27.7c-25.2-15-57.8-17-84.2-4c-16.4,8.1-30.2,20.6-39.3,36.4c-7.7,13.4-11.7,28.7-11.8,44.1
					c0,15.6,3.9,31,11.8,44.6c10.5,18.3,27.6,32.5,47.5,39.6c13.6,4.8,28.4,6.3,42.7,4.2c14-2,27.3-7.5,38.9-15.6
					c11.2-7.8,20.3-18.6,26.9-30.5c3.9-7,6.6-14.7,8.4-22.5c0.9-3.4,1.5-6.9,1.8-10.4c0.5-4.8,0.7-9.6,0.4-14.3
					c0-0.5-5.8,0.4-5.7,0.4c0,0-5.7,0.5-5.6,1.2c0.3,6.3,0.4,12.4-0.4,18.7c-0.9,7.2-3.1,14.1-6,20.7c-5.1,11.6-12.8,21.7-22.5,29.7
					c-22.1,18.2-52.9,23-79.7,13.1c-6.3-2.3-12.4-5.5-17.9-9.3c-7.6-4.9-13.5-11.7-17.5-20.2c-7.1-6.3-11.9-13.9-14.5-22.7
					c-4.4-13.7-5.1-28.4-2.4-42.5c2.6-13.7,9.1-26.5,17.9-37.1c5-6.1,11.1-11.2,17.6-15.5c2.7-1.9,5.6-3.6,8.7-5
					c4.1-2,8.3-3.6,12.7-4.9c-0.1,0-0.2,0.1-0.3,0.1c2.3-0.5,4.5-1.1,6.8-1.6c-0.1,0-0.2,0.1-0.4,0.1c2.3-0.3,4.6-0.7,6.9-1
					c-0.1,0-0.3,0-0.4,0c2.3-0.1,4.6-0.3,6.9-0.4c-0.1,0-0.3,0-0.4,0c6.7,0.1,13.3,0.4,19.8,2c4.9,1.2,9.7,2.9,14.4,5
					c9.2,4.2,17.7,10.2,24.8,17.4c6.3,6.4,11.7,13.6,16,21.5c2.6,4.8,4.8,10.5,6.1,15.8c0.4,1.9,0.7,3.7,1.1,5.6
					c0.3,3.5,0.4,7.1,0.1,10.7c0,0.3,6.5-2.4,6.4-2.3c1.6-0.7,3.3-1.4,4.9-2.2C386.1-1472.7,386.5-1473,386.8-1473.4z"/>
				<path class="st3" d="M385.8-1462.9c-0.1-6.4,0.2-4.9-0.5-9.7c-0.7-5.4-2.1-10.7-4-15.8c-3.8-10.4-10.3-19.9-17.8-28
					c-7.7-8.3-17.3-14.7-27.5-19.5c-10.6-5-22.3-7.3-33.9-7.9c-11.9-0.5-23.9,1.8-35,6c-10.7,4-20.4,10.6-28.8,18.3
					c-17.8,16.5-27.7,40.7-27.6,64.9c0.1,23.5,9.7,46.1,26.5,62.6c16.7,16.3,39.3,25.5,62.6,25.3c23.4-0.2,45.9-9.7,62.3-26.4
					c8-8.1,14.3-17.6,18.8-28.1c2.2-5.3,4-10.8,5.2-16.5c1.4-7.1,1.7-14.1,1.7-21.3c-0.4,0-0.7,0.2-1,0.5c-1,0.9-2,1.8-3,2.8
					c-1,0.9-1.9,1.9-2.9,2.9c-0.3,0.3-0.5,0.6-0.6,1c-0.5,5.8-1.2,11.2-2.7,16.8c-1.4,5.3-3.3,10.5-5.9,15.4
					c-4.8,9.4-11.7,18.1-19.9,24.7c-7.3,5.9-15.5,10.5-24.4,13.5c-9.9,3.3-20.1,4.5-30.5,3.7c-18.7-1.4-35.8-9.4-49.3-22.3
					c-13.3-12.7-22.3-30.9-24-49.2c-0.9-9.1-0.3-18.2,1.8-27.1c2.4-9.7,6.6-18.8,12.4-26.9c11.6-16.1,28.7-26.9,48-31
					c10.7-2.3,22.3-1.9,32.9,0.5c10.3,2.3,20.6,6.9,29.1,13.2c7.7,5.8,14.4,12.6,19.7,20.6c2.9,4.4,5.5,9.1,7.5,14
					c4,9.8,5.6,19.5,5.1,30.4c0,0.4,0,0.3,0.3,0.2c0.2-0.2,0.4-0.4,0.5-0.5c0.6-0.7,1.1-1.4,1.7-2.2c0.8-1.1,1.7-2.3,2.4-3.4
					C385.3-1461.7,385.8-1462.3,385.8-1462.9z"/>
				<path class="st3" d="M385.5-1467.5c-0.2-5.4-0.6-10.6-1.9-15.9c-1.3-5.4-3.1-10.5-5.4-15.5c-4.6-10-11.8-19.1-19.9-26.4
					c-17.2-15.5-40.2-23.7-63.3-22.6c-23,1.1-45.8,11.4-61.1,28.7c-7.5,8.4-13.8,18.2-17.6,28.9c-3.9,11-6.1,22.8-5.4,34.5
					c0.7,11.7,3.2,23.4,8.4,33.9c5,10.2,11.7,19.7,20.2,27.2c8.4,7.5,18.2,13.8,28.9,17.6c10,3.6,20.3,5.4,30.9,5.4
					c23.4-0.1,45.9-9.6,62.4-26.2c8-8.1,14.3-17.6,18.7-28.1c2.2-5.3,4-10.8,5.1-16.5c1.4-7,1.6-14.1,1.6-21.2c-0.5,0-1,0.1-1.4,0.5
					c-1.6,0.8-3.1,1.7-4.7,2.6c-1.5,0.9-3.1,1.8-4.6,2.8c-0.5,0.2-0.8,0.5-1.1,1c-0.4,5.3-0.9,10.2-2.1,15.4
					c-1.2,4.9-2.8,9.7-4.8,14.3c-4,9-10.1,17.2-17.2,23.9c-14.8,13.9-34.9,21.4-55.3,20.8s-40.6-9.6-54.2-24.9
					c-13.6-15.2-21.3-35.5-20-56c1.3-20.3,10.1-40.1,25.6-53.5c7.4-6.4,16-11.8,25.3-14.9c8.7-2.9,17.6-4.4,26.8-4.3
					c20.2,0.2,39.6,8.3,53.9,22.7c6.9,7,12.4,15.1,16.3,24.1c2,4.6,3.6,9.3,4.6,14.2c0.3,2,0.6,3.9,0.9,5.9
					c0.2,3.8,0.2,7.6-0.1,11.4c0.5-0.1,0.9-0.4,1.3-0.8c1.4-1.2,2.8-2.4,4.1-3.7c1.4-1.2,2.7-2.5,4-3.8
					C385.1-1466.6,385.4-1467,385.5-1467.5z"/>
			</g>
		</g>
	</g>
	<path class="st4" d="M-2070.9-169.6c6.9,7.5,33.2-4.8,49.5-17.8c15.5-12.4,33.3-34.5,27.7-42.9c-5.5-8.4-33.9-2.9-52.8,11.9
		C-2065.6-203.5-2077.8-176.9-2070.9-169.6z"/>
	<g>
		
			<text transform="matrix(1 0 0 1 -1693.5316 -421.7999)" style="fill:#2E193F; font-family:'FranklinGothicLTPro-CnMd'; font-size:72px;">Kuri</text>
		
			<text transform="matrix(1 0 0 1 -1947.8358 -422.5728)" class="st7" style="font-family:'FranklinGothicLTPro-CnMd'; font-size:72px;">Christina</text>
	</g>
	
		<text transform="matrix(1 0 0 1 -2033.2594 -388.494)" style="fill:#20231C; font-family:'MrsEavesXLSerifOT-Reg'; font-size:24px;">Psychotherapeutin in Ausbildung unter Supervision</text>
	
		<text transform="matrix(1 0 0 1 -2047.4594 -359.694)" style="fill:#20231C; font-family:'MrsEavesXLSerifOT-Reg'; font-size:24px;">tiefenpsychologisch fundierte Hypnosepsychotherapie</text>
	<rect x="-1133.9" y="-609.7" class="st5" width="651.4" height="459.6"/>
	<text transform="matrix(1 0 0 1 -1133.911 -600.9379)" style="font-family:'MrsEavesXLSerifOT-Reg'; font-size:14px;">Fliesstext Mrs Evans 14px.</text>
	<text transform="matrix(1 0 0 1 -1133.911 -567.338)" style="font-family:'MrsEavesXLSerifOT-Reg'; font-size:14px;">Lorem ipsum dolor sit amet, consectetuer adipiscing elit, sed diam nonummy nibh euismod tincidunt ut </text>
	<text transform="matrix(1 0 0 1 -1133.911 -550.5379)" style="font-family:'MrsEavesXLSerifOT-Reg'; font-size:14px;">laoreet dolore magna aliquam erat volutpat. Ut wisi enim ad minim veniam, quis nostrud exerci tation </text>
	<text transform="matrix(1 0 0 1 -1133.911 -533.7379)" style="font-family:'MrsEavesXLSerifOT-Reg'; font-size:14px;">ullamcorper suscipit lobortis nisl ut aliquip ex ea commodo consequat. Duis autem vel eum iriure dolor in </text>
	<text transform="matrix(1 0 0 1 -1133.911 -516.9379)" style="font-family:'MrsEavesXLSerifOT-Reg'; font-size:14px;">hendrerit in vulputate velit esse molestie consequat, vel illum dolore eu feugiat nulla facilisis at vero eros et </text>
	<text transform="matrix(1 0 0 1 -1133.911 -500.1379)" style="font-family:'MrsEavesXLSerifOT-Reg'; font-size:14px;">accumsan et iusto odio </text>
	
		<text transform="matrix(1 0 0 1 -994.511 -500.1379)" style="fill:#98C73A; font-family:'MrsEavesXLSerifOT-Reg'; font-size:14px;">hier ein Textlink</text>
	<text transform="matrix(1 0 0 1 -895.611 -500.1379)" style="font-family:'MrsEavesXLSerifOT-Reg'; font-size:14px;"> praesent luptatum zzril delenit augue duis dolore te feugait nulla </text>
	<text transform="matrix(1 0 0 1 -1133.911 -483.338)" style="font-family:'MrsEavesXLSerifOT-Reg'; font-size:14px;">facilisi.</text>
	<text transform="matrix(1 0 0 1 -1133.911 -449.7379)" style="font-family:'MrsEavesXLSerifOT-Reg'; font-size:14px;">Lorem ipsum dolor sit amet, cons ectetuer adipiscing elit, sed diam nonummy nibh euismod tincidunt ut </text>
	<text transform="matrix(1 0 0 1 -1133.911 -432.9379)" style="font-family:'MrsEavesXLSerifOT-Reg'; font-size:14px;">laoreet dolore magna aliquam erat volutpat. Ut wisi enim ad minim veniam, quis nostrud exerci tation </text>
	<text transform="matrix(1 0 0 1 -1133.911 -416.1379)" style="font-family:'MrsEavesXLSerifOT-Reg'; font-size:14px;">ullamcorper suscipit lobortis nisl ut aliquip ex ea commodo consequat.</text>
	<text transform="matrix(1 0 0 1 -1133.911 -399.3379)" style="font-family:'MrsEavesXLSerifOT-Reg'; font-size:14px;">Lorem ipsum dolor sit amet, consectetuer adipiscing elit, sed diam nonummy nibh euismod tincidunt ut </text>
	<text transform="matrix(1 0 0 1 -1133.911 -382.538)" style="font-family:'MrsEavesXLSerifOT-Reg'; font-size:14px;">laoreet dolore magna aliquam erat volutpat. Ut wisi enim ad minim veniam, quis nostrud exerci tation </text>
	<text transform="matrix(1 0 0 1 -1133.911 -365.7379)" style="font-family:'MrsEavesXLSerifOT-Reg'; font-size:14px;">ullamcorper suscipit lobortis nisl ut aliquip ex ea commodo consequat. Duis autem vel eum iriure dolor in </text>
	<text transform="matrix(1 0 0 1 -1133.911 -348.9379)" style="font-family:'MrsEavesXLSerifOT-Reg'; font-size:14px;">hendrerit in vulputate velit esse molestie consequat, vel illum dolore eu feugiat nulla facilisis at vero eros et </text>
	<text transform="matrix(1 0 0 1 -1133.911 -332.1379)" style="font-family:'MrsEavesXLSerifOT-Reg'; font-size:14px;">accumsan et iusto odio dignissim qui blandit praesent luptatum zzril delenit augue duis dolore te feugait </text>
	<text transform="matrix(1 0 0 1 -1133.911 -315.3379)" style="font-family:'MrsEavesXLSerifOT-Reg'; font-size:14px;">nulla facilisi.</text>
	<text transform="matrix(1 0 0 1 -1133.911 -281.7379)" style="font-family:'MrsEavesXLSerifOT-Reg'; font-size:14px;">Lorem ipsum dolor sit amet, cons ectetuer adipiscing elit, sed diam nonummy nibh euismod tincidunt ut </text>
	<text transform="matrix(1 0 0 1 -1133.911 -264.9379)" style="font-family:'MrsEavesXLSerifOT-Reg'; font-size:14px;">laoreet dolore magna aliquam erat volut</text>
	<g>
		
			<text transform="matrix(1 0 0 1 -1137.7505 -751.0117)" class="st6" style="font-family:'FranklinGothicLTPro-CnMd'; font-size:36px;">Heading 1: Franklin Gothic 36px </text>
	</g>
	<g>
		
			<text transform="matrix(1 0 0 1 -1137.8345 -697.2933)" class="st6" style="font-family:'FranklinGothicLTPro-CnMd'; font-size:30px;">Heading 2: Franklin Gothic 30px </text>
	</g>
	<g>
		
			<text transform="matrix(1 0 0 1 -1135.4468 -652.6301)" class="st6" style="font-family:'FranklinGothicLTPro-CnMd'; font-size:24px;">Heading 3: Franklin Gothic 24px </text>
	</g>
	
		<image style="overflow:visible;enable-background:new    ;" width="2480" height="1040" xlink:href="../../../../../../../Downloads/Kuri komplement채r.jpeg"  transform="matrix(9.354889e-02 0 0 9.354889e-02 -581.6701 -1668.1511)">
	</image>
	<g>
		<rect x="-1133.9" y="323.7" class="st5" width="651.4" height="317.6"/>
		<text transform="matrix(1 0 0 1 -1133.9108 333.0243)" style="font-family:'NimbusSan-Lig'; font-size:14px;">Fliesstext Nimbus Sans Linght 14px.</text>
		<text transform="matrix(1 0 0 1 -1133.9108 366.6243)" style="font-family:'NimbusSan-Lig'; font-size:14px;">Lorem ipsum dolor sit amet, consectetuer adipiscing elit, sed diam nonummy nibh euismod tincidunt ut laoreet </text>
		<text transform="matrix(1 0 0 1 -1133.9108 383.4243)" style="font-family:'NimbusSan-Lig'; font-size:14px;">dolore magna aliquam erat volutpat. Ut wisi enim ad minim veniam, quis nostrud exerci tation ullamcorper </text>
		<text transform="matrix(1 0 0 1 -1133.9108 400.2243)" style="font-family:'NimbusSan-Lig'; font-size:14px;">suscipit lobortis nisl ut aliquip ex ea commodo consequat. Duis autem vel eum iriure dolor in hendrerit in </text>
		<text transform="matrix(1 0 0 1 -1133.9108 417.0243)" style="font-family:'NimbusSan-Lig'; font-size:14px;">vulputate velit esse molestie consequat, vel illum dolore eu feugiat nulla facilisis at vero eros et accumsan et </text>
		<text transform="matrix(1 0 0 1 -1133.9108 433.8243)" style="font-family:'NimbusSan-Lig'; font-size:14px;">iusto odio </text>
		<text transform="matrix(1 0 0 1 -1072.1107 433.8243)" style="fill:#98C73A; font-family:'NimbusSan-Lig'; font-size:14px;">hier ein Textlink</text>
		<text transform="matrix(1 0 0 1 -980.8108 433.8243)" style="font-family:'NimbusSan-Lig'; font-size:14px;"> praesent luptatum zzril delenit augue duis dolore te feugait nulla facilisi.</text>
		<text transform="matrix(1 0 0 1 -1133.9108 467.4243)" style="font-family:'NimbusSan-Lig'; font-size:14px;">Lorem ipsum dolor sit amet, cons ectetuer adipiscing elit, sed diam nonummy nibh euismod tincidunt ut </text>
		<text transform="matrix(1 0 0 1 -1133.9108 484.2243)" style="font-family:'NimbusSan-Lig'; font-size:14px;">laoreet dolore magna aliquam erat volutpat. Ut wisi enim ad minim veniam, quis nostrud exerci tation ullamcor</text>
		<text transform="matrix(1 0 0 1 -487.9108 484.2243)" style="font-family:'NimbusSan-Lig'; font-size:14px;">-</text>
		<text transform="matrix(1 0 0 1 -1133.9108 501.0243)" style="font-family:'NimbusSan-Lig'; font-size:14px;">per suscipit lobortis nisl ut aliquip ex ea commodo consequat.</text>
		<text transform="matrix(1 0 0 1 -1133.9108 517.8243)" style="font-family:'NimbusSan-Lig'; font-size:14px;">Lorem ipsum dolor sit amet, consectetuer adipiscing elit, sed diam nonummy nibh euismod tincidunt ut laoreet </text>
		<text transform="matrix(1 0 0 1 -1133.9108 534.6243)" style="font-family:'NimbusSan-Lig'; font-size:14px;">dolore magna aliquam erat volutpat. Ut wisi enim ad minim veniam, quis nostrud exerci tation ullamcorper </text>
		<text transform="matrix(1 0 0 1 -1133.9108 551.4243)" style="font-family:'NimbusSan-Lig'; font-size:14px;">suscipit lobortis nisl ut aliquip ex ea commodo consequat. Duis autem vel eum iriure dolor in hendrerit in </text>
		<text transform="matrix(1 0 0 1 -1133.9108 568.2243)" style="font-family:'NimbusSan-Lig'; font-size:14px;">vulputate velit esse molestie consequat, vel illum dolore eu feugiat nulla facilisis at vero eros et accumsan et </text>
		<text transform="matrix(1 0 0 1 -1133.9108 585.0243)" style="font-family:'NimbusSan-Lig'; font-size:14px;">iusto odio dignissim qui blandit praesent luptatum zzril delenit augue duis dolore te feugait nulla facilisi.</text>
		<text transform="matrix(1 0 0 1 -1133.9108 618.6243)" style="font-family:'NimbusSan-Lig'; font-size:14px;">Lorem ipsum dolor sit amet, cons ectetuer adipiscing elit, sed diam nonummy nibh euismod tincidunt ut </text>
		<text transform="matrix(1 0 0 1 -1133.9108 635.4243)" style="font-family:'NimbusSan-Lig'; font-size:14px;">laoreet dolore magna aliquam erat volut</text>
		<g>
			<text transform="matrix(1 0 0 1 -1137.7502 182.3479)" class="st12" style="font-family:'LookScript-Reg'; font-size:36px;">Heading 1: Look Script 36px </text>
		</g>
		<g>
			<text transform="matrix(1 0 0 1 -1137.8342 236.0663)" class="st6" style="font-family:'LookScript-Reg'; font-size:30px;">Heading 2: Look Script 30px </text>
		</g>
		<g>
			<text transform="matrix(1 0 0 1 -1135.4465 280.7296)" class="st6" style="font-family:'LookScript-Reg'; font-size:24px;">Heading 3: Look Script 24px </text>
		</g>
	</g>
	<g>
		<g>
			
				<image style="overflow:visible;enable-background:new    ;" width="196" height="194" xlink:href="E261AE8B.png"  transform="matrix(0.6478 0 0 0.6478 1519.4441 17.988)">
			</image>
		</g>
	</g>
	<path class="st4" d="M-41.7,686.5c6.9,7.5,33.2-4.8,49.5-17.8c15.5-12.4,33.3-34.5,27.7-42.9c-5.5-8.4-33.9-2.9-52.8,11.9
		C-36.4,652.6-48.5,679.1-41.7,686.5z"/>
	<g>
		<path class="st6" d="M332.1,375.7c-0.2,2.4-8.6-13.6-9.8-14.8c-25.5-25-93.4-34.1-144-24.6c-27.5,5.1-30.5,12.1-53.5,11.8
			c-12-0.2-41.5-0.6-62.1-20.5C32.9,299,36.8,244.8,45.2,214.3c14.5-52.5,54.5-79.2,97.6-107c61.8-39.9,180.3-55.1,240.9-50.1"/>
		<path class="st7" d="M373,425.9c-1.2-18.6-2-33.2-2.5-41.2c-8.9-167.3,7.3-275.1,9.7-307.3c0.6-8.9,3.6-17.2,3.8-20.2
			c33.8,0.9,73.6,9.5,109.7,30.8c40.7,23.9,62.1,56.6,73.5,74.5c24.3,38,32,72.7,34.4,85c6.9,35.8,14.9,76.9-8.6,116
			c-19.3,32.1-60.2,63.5-97.9,57.3c-35.3-5.8-52.3-40.7-79.2-53.9C395.9,356.9,382.8,407.4,373,425.9z"/>
		<path class="st7" d="M371.1,427.1c-3.3-19.3-6.7-38.5-10-57.8"/>
		<path class="st4" d="M595.4,261.7c-1.1-0.9-63.7-51.1-100.4-48.3c-3.8,0.3-6.2-3.9-3.9-7c23.1-30.8,37.6-62.4,36.5-63.3
			c-1.2-1-26.2,44.9-57.2,69.4l0,0c-1.6,0.6-17.3-63.1-19.7-74.9c0-0.1-0.1,0-0.1,0c1.6,14,9.9,81.6,7.4,83.3
			c-23.7,16.6-63.9,45.9-83.3,39.7c-1.6-0.5-2.7-1.9-2.9-3.5c-5.3-38.3,13.3-202.8,12-202.8c-3,0-24.1,138.1-37.7,186.3
			c-1.1,4-6.6,4.3-8.2,0.5c-15-35.3-63.1-123.4-64.1-123.1c-0.9,0.2,39.4,97.3,53,134.1c4.7,12.8,4,10.6,2,17.3l0,0
			c-2.6-0.8-81.7-101.9-73.8-85.5c0.4,0.7,54.3,82.7,53.6,82.4C265.8,245.8,154.3,154,154.9,160.1c0.3,2.8,47,35.1,91.1,89.6
			c2.2,2.7,0.5,6.8-3,7.1c-41.7,4.2-85.1,9.9-84.7,13.9c0.3,3.2,103.1-26.7,149.4,18.1c8.1,7.9-78.7,34.3-78.3,34.2
			c91.2-17.8,92.1,3.8,100.2,24.3c11.6,29.3-30,88.8,17.2,88.7c0.6,0,1.3,0.1,1.9,0.4c12.7,5.6,29.8,6.9,38.1,0
			c1.2-1,1.8-2.7,1.4-4.3l0,0c-0.1-0.6-0.1-1.1,0-1.7c0.2-2.5-9.1-13.3-9-15.9c0-0.4-6.4-2.4-6.5-2.8c-3.4-18.6,6.3-20.5,6.8-61.7
			c0.3-29.3,13.1-51.1,16.6-56.9c1.9-3.1,3.8-5.9,5.8-8.5c0.1-0.1,0.2-0.3,0.3-0.4c14.2-15.1,30.9-20.2,57.3-43.1
			c2.9-2.5,5.7-5.1,8.4-7.8c0.2-0.2,0.5-0.4,0.7-0.6C511,205.8,596.8,262.9,595.4,261.7z"/>
		<path class="st4" d="M296.3,257.1"/>
		<path class="st4" d="M378.6,161.1c2.8,6.8,23.7,5.1,38,0.4c13.6-4.5,26.7-11.7,29.6-22.1c-8.6-5.7-22.2-10.5-38.8-5.3
			C390.8,139.4,375.8,154.4,378.6,161.1z"/>
		<path class="st4" d="M385.6,105.8c2.8,6.8,23.7,5.1,38,0.4c13.6-4.5,28-15,29.6-22.1c-4.6-4.6-22.2-10.5-38.8-5.3
			C397.8,84.1,382.8,99.1,385.6,105.8z"/>
		<path class="st4" d="M206.5,316.4c6.9,2.1,20.9-0.1,32.1-6.7c10.6-6.3,23.5-18.4,20.8-24s-20.7-4.7-33.6,2.7
			C212.7,295.9,205.8,310.4,206.5,316.4z"/>
		<path class="st4" d="M151,316.5c7.7,1.4,20.9-0.1,32.1-6.7c10.6-6.3,23.5-18.4,20.8-24s-20.7-4.7-33.6,2.7
			C157.3,296.1,150.3,310.3,151,316.5z"/>
		<path class="st4" d="M101.6,317.1c8,0.5,20.9-0.1,32.1-6.7c10.6-6.3,23.5-18.4,20.8-24s-20.7-4.7-33.6,2.7
			C107.9,296.6,99.5,310.6,101.6,317.1z"/>
		<path class="st4" d="M96.7,241.5c6.9,12.1,14.8,14.7,27.4,17.9c12,3.1,29.6,3.6,31.7-2.3s-11.3-17.9-25.7-21.8
			C115.6,231.4,104.1,234.9,96.7,241.5z"/>
		<path class="st4" d="M144.1,220.2c5.7,10.2,14.8,14.7,27.4,17.9c12,3.1,29.6,3.6,31.7-2.3c2.1-5.9-11.3-17.9-25.7-21.8
			C162.9,210.2,145.2,214.1,144.1,220.2z"/>
		<path class="st4" d="M83.6,177.3c5.4,6.4,19.5,7.6,32.3,5.6c12.2-1.9,28.6-8.4,28.2-14.7c-0.4-6.2-17.5-12-32.2-9.8
			C96.9,160.6,84.4,170.9,83.6,177.3z"/>
		<path class="st4" d="M161.5,157.2c6.2,1.5,15.5-14,19.5-26.3c3.7-11.8,3.3-24.6-0.5-31.8c-5.7-2.4-18.5,10.2-23.2,24.4
			C152.5,137.8,155.4,155.8,161.5,157.2z"/>
		<path class="st4" d="M195,175.1c6.7,1.8,16.4-15,20.2-28.5c3.7-12.9,3-28.1-1.5-35.2c-7.9,2-19.7,10.8-24.4,26.3
			C184.7,153.3,188.4,173.3,195,175.1z"/>
		<path class="st4" d="M268.1,189.2c5,0.1,10.1-13.4,11.5-23.5c1.3-9.7-0.9-19.8-4.6-24.3c-4.1,1.5-13,11-14.7,22.7
			C258.5,175.8,263.2,189.1,268.1,189.2z"/>
		<path class="st4" d="M249.1,189.2c3.8-3.2-1.2-16.7-6.9-25.3c-5.4-8.1-13.7-14.3-19.5-15.2c-2,3.8-2.5,16.8,3.9,26.7
			C233.2,185.5,245.4,192.4,249.1,189.2z"/>
		<path class="st4" d="M280.4,116.2c4.8,1,12.4-11,15.7-20.6c3.1-9.1,3-20.1,0.2-24.4c-3.7,1.9-14.7,8.2-18.6,19.1
			C273.8,101.4,275.7,115.2,280.4,116.2z"/>
		<path class="st4" d="M333.8,63.6c5.3,12.2,6.7,15.1,14.8,21.2c7.7,5.7,20.2,11.3,23.2,7.6c3-3.7-3.3-16.5-12.6-23.5
			C349.9,61.7,342,61.5,333.8,63.6z"/>
		<path class="st4" d="M314.1,106.5c7.3,10.5,11.2,14.2,21.5,18.4c9.8,4,24.6,6.4,26.9,1.6c2.2-4.8-8-16.6-19.8-21.5
			C330.8,100,318.4,101.9,314.1,106.5z"/>
		<path class="st4" d="M314.1,142.3c-0.4,7.5,6.9,15.1,15,21c7.8,5.7,20.3,11.1,23.3,7.3c3-3.7-3.5-16.4-12.8-23.4
			C330.2,140.2,321.5,140.1,314.1,142.3z"/>
		<path class="st4" d="M269,117.7c-3.2,3.7-16.5-1.1-25-6.7c-8-5.3-17.5-15.1-15-19.2c8.8-3.2,16.6-2.5,26.4,3.8
			C265.3,102,272.2,114,269,117.7z"/>
		<path class="st4" d="M440.4,267c-2.5,5,9.3,14.5,19.5,19.1c9.7,4.4,22.6,5.3,28.3,3.1c0.7-8.2-5.4-16.6-17.1-22
			C459.4,261.6,442.9,262.1,440.4,267z"/>
		<path class="st4" d="M485.1,238.7c-4.1,3.7,3.5,16.9,11.3,24.9c7.5,7.6,18.3,12.3,25.3,13.1c3.7-9,0.9-17.4-8-26.7
			C504.8,240.6,489.2,235.1,485.1,238.7z"/>
		<path class="st4" d="M513.9,184.2c-0.9,5.5,13.3,10.9,24.4,12.2c10.6,1.2,19.5-0.8,27.9-5.7c-3.3-7-10.2-14.1-23-15.8
			C530.3,173.4,514.8,178.8,513.9,184.2z"/>
		<path class="st4" d="M548.3,226.9c2.1,3.9,13.6,0.5,21.2-3.9c7.3-4.3,11.9-9.8,14.9-16.9c-5.4-2.9-13.2-4-22,1
			C553.5,212.2,546.3,223,548.3,226.9z"/>
		<path class="st4" d="M456.6,136.7c3.5,4.3,17-2.5,25.5-9.8c8-7,17.3-19.6,14.6-24.5c-2.7-4.8-17.3-1.9-27.1,6.4
			C459.7,117.2,453.2,132.4,456.6,136.7z"/>
		<path class="st4" d="M468.5,171.2c3.5,4.3,17-2.5,25.5-9.8c8-7,17.3-19.6,14.6-24.5c-2.7-4.8-17.3-1.9-27.1,6.4
			C471.5,151.7,465.1,166.9,468.5,171.2z"/>
		<path class="st4" d="M385.9,233.1c3,4.7,17.2-0.6,26.4-7c8.8-6.1,16.2-12.8,17.2-22.7c-5.8-3-17-3.8-27.7,3.4
			C391,214,382.9,228.4,385.9,233.1z"/>
		<path class="st4" d="M552.9,251.5c-3.3,3.6,2,17.2,7.7,25.7c5.4,8,11.1,12.2,18.7,14.4c2.4-6.6,1.3-17.5-5.1-27.4
			C567.7,254.4,556.1,248,552.9,251.5z"/>
	</g>
	<g>
		
			<text transform="matrix(1 0 0 1 398.7373 585.4125)" class="st6" style="font-family:'FranklinGothicLTPro-CnMd'; font-size:72px;">Kuri</text>
		
			<text transform="matrix(1 0 0 1 144.4331 584.6397)" class="st7" style="font-family:'FranklinGothicLTPro-CnMd'; font-size:72px;">Christina</text>
	</g>
	<text transform="matrix(1 0 0 1 59.01 618.7184)" style="fill:#20231C; font-family:'MrsEavesXLSerifOT-Reg'; font-size:24px;">Psychotherapeutin in Ausbildung unter Supervision</text>
	<text transform="matrix(1 0 0 1 44.81 647.5184)" style="fill:#20231C; font-family:'MrsEavesXLSerifOT-Reg'; font-size:24px;">tiefenpsychologisch fundierte Hypnosepsychotherapie</text>
	<rect x="895.3" y="246.4" class="st5" width="651.4" height="459.6"/>
	<text transform="matrix(1 0 0 1 895.2997 255.135)" style="font-family:'MrsEavesXLSerifOT-Reg'; font-size:14px;">Fliesstext Mrs Evans 14px.</text>
	<text transform="matrix(1 0 0 1 895.2997 288.735)" style="font-family:'MrsEavesXLSerifOT-Reg'; font-size:14px;">Lorem ipsum dolor sit amet, consectetuer adipiscing elit, sed diam nonummy nibh euismod tincidunt ut </text>
	<text transform="matrix(1 0 0 1 895.2997 305.535)" style="font-family:'MrsEavesXLSerifOT-Reg'; font-size:14px;">laoreet dolore magna aliquam erat volutpat. Ut wisi enim ad minim veniam, quis nostrud exerci tation </text>
	<text transform="matrix(1 0 0 1 895.2997 322.335)" style="font-family:'MrsEavesXLSerifOT-Reg'; font-size:14px;">ullamcorper suscipit lobortis nisl ut aliquip ex ea commodo consequat. Duis autem vel eum iriure dolor in </text>
	<text transform="matrix(1 0 0 1 895.2997 339.135)" style="font-family:'MrsEavesXLSerifOT-Reg'; font-size:14px;">hendrerit in vulputate velit esse molestie consequat, vel illum dolore eu feugiat nulla facilisis at vero eros et </text>
	<text transform="matrix(1 0 0 1 895.2997 355.935)" style="font-family:'MrsEavesXLSerifOT-Reg'; font-size:14px;">accumsan et iusto odio </text>
	<text transform="matrix(1 0 0 1 1034.6997 355.935)" style="fill:#98C73A; font-family:'MrsEavesXLSerifOT-Reg'; font-size:14px;">hier ein Textlink</text>
	<text transform="matrix(1 0 0 1 1133.5997 355.935)" style="font-family:'MrsEavesXLSerifOT-Reg'; font-size:14px;"> praesent luptatum zzril delenit augue duis dolore te feugait nulla </text>
	<text transform="matrix(1 0 0 1 895.2997 372.735)" style="font-family:'MrsEavesXLSerifOT-Reg'; font-size:14px;">facilisi.</text>
	<text transform="matrix(1 0 0 1 895.2997 406.335)" style="font-family:'MrsEavesXLSerifOT-Reg'; font-size:14px;">Lorem ipsum dolor sit amet, cons ectetuer adipiscing elit, sed diam nonummy nibh euismod tincidunt ut </text>
	<text transform="matrix(1 0 0 1 895.2997 423.135)" style="font-family:'MrsEavesXLSerifOT-Reg'; font-size:14px;">laoreet dolore magna aliquam erat volutpat. Ut wisi enim ad minim veniam, quis nostrud exerci tation </text>
	<text transform="matrix(1 0 0 1 895.2997 439.935)" style="font-family:'MrsEavesXLSerifOT-Reg'; font-size:14px;">ullamcorper suscipit lobortis nisl ut aliquip ex ea commodo consequat.</text>
	<text transform="matrix(1 0 0 1 895.2997 456.735)" style="font-family:'MrsEavesXLSerifOT-Reg'; font-size:14px;">Lorem ipsum dolor sit amet, consectetuer adipiscing elit, sed diam nonummy nibh euismod tincidunt ut </text>
	<text transform="matrix(1 0 0 1 895.2997 473.535)" style="font-family:'MrsEavesXLSerifOT-Reg'; font-size:14px;">laoreet dolore magna aliquam erat volutpat. Ut wisi enim ad minim veniam, quis nostrud exerci tation </text>
	<text transform="matrix(1 0 0 1 895.2997 490.335)" style="font-family:'MrsEavesXLSerifOT-Reg'; font-size:14px;">ullamcorper suscipit lobortis nisl ut aliquip ex ea commodo consequat. Duis autem vel eum iriure dolor in </text>
	<text transform="matrix(1 0 0 1 895.2997 507.135)" style="font-family:'MrsEavesXLSerifOT-Reg'; font-size:14px;">hendrerit in vulputate velit esse molestie consequat, vel illum dolore eu feugiat nulla facilisis at vero eros et </text>
	<text transform="matrix(1 0 0 1 895.2997 523.935)" style="font-family:'MrsEavesXLSerifOT-Reg'; font-size:14px;">accumsan et iusto odio dignissim qui blandit praesent luptatum zzril delenit augue duis dolore te feugait </text>
	<text transform="matrix(1 0 0 1 895.2997 540.735)" style="font-family:'MrsEavesXLSerifOT-Reg'; font-size:14px;">nulla facilisi.</text>
	<text transform="matrix(1 0 0 1 895.2997 574.335)" style="font-family:'MrsEavesXLSerifOT-Reg'; font-size:14px;">Lorem ipsum dolor sit amet, cons ectetuer adipiscing elit, sed diam nonummy nibh euismod tincidunt ut </text>
	<text transform="matrix(1 0 0 1 895.2997 591.135)" style="font-family:'MrsEavesXLSerifOT-Reg'; font-size:14px;">laoreet dolore magna aliquam erat volut</text>
	<g>
		
			<text transform="matrix(1 0 0 1 891.4604 105.0611)" class="st6" style="font-family:'FranklinGothicLTPro-CnMd'; font-size:36px;">Heading 1: Franklin Gothic 36px </text>
	</g>
	<g>
		
			<text transform="matrix(1 0 0 1 891.3764 158.7794)" class="st6" style="font-family:'FranklinGothicLTPro-CnMd'; font-size:30px;">Heading 2: Franklin Gothic 30px </text>
	</g>
	<g>
		
			<text transform="matrix(1 0 0 1 893.764 203.4427)" class="st6" style="font-family:'FranklinGothicLTPro-CnMd'; font-size:24px;">Heading 3: Franklin Gothic 24px </text>
	</g>
	
		<image style="overflow:visible;enable-background:new    ;" width="2480" height="1040" xlink:href="../../../../../../../Downloads/Kuri komplement채r.jpeg"  transform="matrix(9.354889e-02 0 0 9.354889e-02 -581.6701 20.7989)">
	</image>
	
		<image style="overflow:visible;enable-background:new    ;" width="2480" height="1040" xlink:href="../../../../../../../Downloads/Kuri komplement채r.jpeg"  transform="matrix(9.354889e-02 0 0 9.354889e-02 -581.6701 -835.2745)">
	</image>
	<g>
		<path class="st8" d="M-1825.1-600.9c39,5.1,78.9,22,76.5,50.3c-2.3,27.2-50.6,44.7-89.7,42.1c-81.2-5.4-139.3-98.5-134.5-102.8
			c2.1-1.9,15.5,13.9,38.5,15c19,1,32.6,13.4,57.2,6.7C-1875.2-590.1-1849.2-604-1825.1-600.9z"/>
		<path class="st9" d="M-1640.1-697.3c-3-0.4-2.8,19.1-20.4,31.8c-14.5,10.5-16.9,27.5-41.2,34.7c-1.8,0.5-32.3,2.7-49.5,17.7
			c-6,5.2-11.7,10.9-16.7,16.9c-5-5.9-10.6-11.7-16.7-16.9c-17.2-14.9-47.6-17.1-49.5-17.7c-24.4-7.2-26.7-24.2-41.2-34.7
			c-17.6-12.7-17.4-32.3-20.4-31.8c-6.9,0.9-25,105.5,36.4,151.5c25.7,19.2,67.3,29.8,91.5,18.9c24.1,10.9,65.8,0.3,91.5-18.9
			C-1615-591.8-1633.2-696.3-1640.1-697.3z"/>
		<g>
			<path class="st10" d="M-1784.6-616.5c6,5.2,11.7,10.9,16.7,16.9c5-5.9,10.6-11.7,16.7-16.9c7.1-6.2,16.4-10.1,25.1-12.7
				c-10.3-10-25.3-16.4-42.1-16.4c-16.7,0-31.7,6.3-42,16.2C-1801.4-626.8-1791.8-622.7-1784.6-616.5z"/>
		</g>
		<path class="st8" d="M-1710.8-600.9c-39,5.1-78.9,22-76.5,50.3c2.3,27.2,50.6,44.7,89.7,42.1c81.2-5.4,139.3-98.5,134.5-102.8
			c-2.1-1.9-15.5,13.9-38.5,15c-19,1-32.6,13.4-57.2,6.7C-1660.7-590.1-1686.6-604-1710.8-600.9z"/>
	</g>
	<rect x="-1129.9" y="-1415" class="st5" width="651.4" height="459.6"/>
	<text transform="matrix(1 0 0 1 -1129.9037 -1404.262)" style="font-family:'NeusaNextStd-Regular'; font-size:14px;">Fliesstext Neusa Next 14px.</text>
	<text transform="matrix(1 0 0 1 -1129.9037 -1370.662)" style="font-family:'NeusaNextStd-Regular'; font-size:14px;">Lorem ipsum dolor sit amet, consectetuer adipiscing elit, sed diam nonummy nibh euismod tincidunt ut </text>
	<text transform="matrix(1 0 0 1 -1129.9037 -1353.8619)" style="font-family:'NeusaNextStd-Regular'; font-size:14px;">laoreet dolore magna aliquam erat volutpat. Ut wisi enim ad minim veniam, quis nostrud exerci tation </text>
	<text transform="matrix(1 0 0 1 -1129.9037 -1337.062)" style="font-family:'NeusaNextStd-Regular'; font-size:14px;">ullamcorper suscipit lobortis nisl ut aliquip ex ea commodo consequat. Duis autem vel eum iriure dolor in </text>
	<text transform="matrix(1 0 0 1 -1129.9037 -1320.262)" style="font-family:'NeusaNextStd-Regular'; font-size:14px;">hendrerit in vulputate velit esse molestie consequat, vel illum dolore eu feugiat nulla facilisis at vero eros </text>
	<text transform="matrix(1 0 0 1 -1129.9037 -1303.4619)" style="font-family:'NeusaNextStd-Regular'; font-size:14px;">et accumsan et iusto odio </text>
	
		<text transform="matrix(1 0 0 1 -968.1037 -1303.4619)" style="fill:#98C73A; font-family:'NeusaNextStd-Regular'; font-size:14px;">hier ein Textlink</text>
	<text transform="matrix(1 0 0 1 -870.7037 -1303.4619)" style="font-family:'NeusaNextStd-Regular'; font-size:14px;"> praesent luptatum zzril delenit augue duis dolore te feugait </text>
	<text transform="matrix(1 0 0 1 -1129.9037 -1286.662)" style="font-family:'NeusaNextStd-Regular'; font-size:14px;">nulla facilisi.</text>
	<text transform="matrix(1 0 0 1 -1129.9037 -1253.062)" style="font-family:'NeusaNextStd-Regular'; font-size:14px;">Lorem ipsum dolor sit amet, cons ectetuer adipiscing elit, sed diam nonummy nibh euismod tincidunt ut </text>
	<text transform="matrix(1 0 0 1 -1129.9037 -1236.262)" style="font-family:'NeusaNextStd-Regular'; font-size:14px;">laoreet dolore magna aliquam erat volutpat. Ut wisi enim ad minim veniam, quis nostrud exerci tation </text>
	<text transform="matrix(1 0 0 1 -1129.9037 -1219.4619)" style="font-family:'NeusaNextStd-Regular'; font-size:14px;">ullamcorper suscipit lobortis nisl ut aliquip ex ea commodo consequat.</text>
	<text transform="matrix(1 0 0 1 -1129.9037 -1202.662)" style="font-family:'NeusaNextStd-Regular'; font-size:14px;">Lorem ipsum dolor sit amet, consectetuer adipiscing elit, sed diam nonummy nibh euismod tincidunt ut </text>
	<text transform="matrix(1 0 0 1 -1129.9037 -1185.8619)" style="font-family:'NeusaNextStd-Regular'; font-size:14px;">laoreet dolore magna aliquam erat volutpat. Ut wisi enim ad minim veniam, quis nostrud exerci tation </text>
	<text transform="matrix(1 0 0 1 -1129.9037 -1169.062)" style="font-family:'NeusaNextStd-Regular'; font-size:14px;">ullamcorper suscipit lobortis nisl ut aliquip ex ea commodo consequat. Duis autem vel eum iriure dolor in </text>
	<text transform="matrix(1 0 0 1 -1129.9037 -1152.262)" style="font-family:'NeusaNextStd-Regular'; font-size:14px;">hendrerit in vulputate velit esse molestie consequat, vel illum dolore eu feugiat nulla facilisis at vero eros </text>
	<text transform="matrix(1 0 0 1 -1129.9037 -1135.4619)" style="font-family:'NeusaNextStd-Regular'; font-size:14px;">et accumsan et iusto odio dignissim qui blandit praesent luptatum zzril delenit augue duis dolore te feu</text>
	<text transform="matrix(1 0 0 1 -499.1037 -1135.4619)" style="font-family:'NeusaNextStd-Regular'; font-size:14px;">-</text>
	<text transform="matrix(1 0 0 1 -1129.9037 -1118.662)" style="font-family:'NeusaNextStd-Regular'; font-size:14px;">gait nulla facilisi.</text>
	<text transform="matrix(1 0 0 1 -1129.9037 -1085.062)" style="font-family:'NeusaNextStd-Regular'; font-size:14px;">Lorem ipsum dolor sit amet, cons ectetuer adipiscing elit, sed diam nonummy nibh euismod tincidunt ut </text>
	<text transform="matrix(1 0 0 1 -1129.9037 -1068.262)" style="font-family:'NeusaNextStd-Regular'; font-size:14px;">laoreet dolore magna aliquam erat volut</text>
	<g>
		
			<text transform="matrix(1 0 0 1 -1133.7435 -1556.3796)" class="st6" style="font-family:'DomusTitlingSemibold'; font-size:36px;">Heading 1: Domus Titling 36px </text>
	</g>
	<g>
		
			<text transform="matrix(1 0 0 1 -1133.8275 -1502.6613)" class="st6" style="font-family:'DomusTitlingSemibold'; font-size:30px;">Heading 2: Domus Titling 30px </text>
	</g>
	<g>
		
			<text transform="matrix(1 0 0 1 -1131.4398 -1457.9979)" class="st6" style="font-family:'DomusTitlingSemibold'; font-size:24px;">Heading 3: Domus Titling  24px </text>
	</g>
	
		<image style="overflow:visible;enable-background:new    ;" width="2480" height="1040" xlink:href="../../../../../../../Downloads/Kuri komplement채r.jpeg"  transform="matrix(9.354889e-02 0 0 9.354889e-02 1447.5409 -835.2745)">
	</image>
	<g>
		<rect x="895.3" y="-1365.3" class="st5" width="651.4" height="317.6"/>
		<text transform="matrix(1 0 0 1 895.3005 -1356.864)" style="font-family:'MrEavesXLModOT-Book'; font-size:14px;">Fliesstext Mr Evans 14px.</text>
		<text transform="matrix(1 0 0 1 895.3005 -1323.264)" style="font-family:'MrEavesXLModOT-Book'; font-size:14px;">Lorem ipsum dolor sit amet, consectetuer adipiscing elit, sed diam nonummy nibh euismod tincidunt ut laoreet dolore </text>
		<text transform="matrix(1 0 0 1 895.3005 -1306.464)" style="font-family:'MrEavesXLModOT-Book'; font-size:14px;">magna aliquam erat volutpat. Ut wisi enim ad minim veniam, quis nostrud exerci tation ullamcorper suscipit lobortis nisl </text>
		<text transform="matrix(1 0 0 1 895.3005 -1289.6641)" style="font-family:'MrEavesXLModOT-Book'; font-size:14px;">ut aliquip ex ea commodo consequat. Duis autem vel eum iriure dolor in hendrerit in vulputate velit esse molestie conse</text>
		<text transform="matrix(1 0 0 1 1538.1005 -1289.6641)" style="font-family:'MrEavesXLModOT-Book'; font-size:14px;">-</text>
		<text transform="matrix(1 0 0 1 895.3005 -1272.864)" style="font-family:'MrEavesXLModOT-Book'; font-size:14px;">quat, vel illum dolore eu feugiat nulla facilisis at vero eros et accumsan et iusto odio </text>
		
			<text transform="matrix(1 0 0 1 1348.3005 -1272.864)" style="fill:#98C73A; font-family:'MrEavesXLModOT-Book'; font-size:14px;">hier ein Textlink</text>
		<text transform="matrix(1 0 0 1 1431.2004 -1272.864)" style="font-family:'MrEavesXLModOT-Book'; font-size:14px;"> praesent luptatum </text>
		<text transform="matrix(1 0 0 1 895.3005 -1256.064)" style="font-family:'MrEavesXLModOT-Book'; font-size:14px;">zzril delenit augue duis dolore te feugait nulla facilisi.</text>
		<text transform="matrix(1 0 0 1 895.3005 -1222.464)" style="font-family:'MrEavesXLModOT-Book'; font-size:14px;">Lorem ipsum dolor sit amet, cons ectetuer adipiscing elit, sed diam nonummy nibh euismod tincidunt ut laoreet dolore </text>
		<text transform="matrix(1 0 0 1 895.3005 -1205.6641)" style="font-family:'MrEavesXLModOT-Book'; font-size:14px;">magna aliquam erat volutpat. Ut wisi enim ad minim veniam, quis nostrud exerci tation ullamcorper suscipit lobortis nisl </text>
		<text transform="matrix(1 0 0 1 895.3005 -1188.864)" style="font-family:'MrEavesXLModOT-Book'; font-size:14px;">ut aliquip ex ea commodo consequat.</text>
		<text transform="matrix(1 0 0 1 895.3005 -1172.064)" style="font-family:'MrEavesXLModOT-Book'; font-size:14px;">Lorem ipsum dolor sit amet, consectetuer adipiscing elit, sed diam nonummy nibh euismod tincidunt ut laoreet dolore </text>
		<text transform="matrix(1 0 0 1 895.3005 -1155.264)" style="font-family:'MrEavesXLModOT-Book'; font-size:14px;">magna aliquam erat volutpat. Ut wisi enim ad minim veniam, quis nostrud exerci tation ullamcorper suscipit lobortis nisl </text>
		<text transform="matrix(1 0 0 1 895.3005 -1138.464)" style="font-family:'MrEavesXLModOT-Book'; font-size:14px;">ut aliquip ex ea commodo consequat. Duis autem vel eum iriure dolor in hendrerit in vulputate velit esse molestie conse</text>
		<text transform="matrix(1 0 0 1 1538.1005 -1138.464)" style="font-family:'MrEavesXLModOT-Book'; font-size:14px;">-</text>
		<text transform="matrix(1 0 0 1 895.3005 -1121.6641)" style="font-family:'MrEavesXLModOT-Book'; font-size:14px;">quat, vel illum dolore eu feugiat nulla facilisis at vero eros et accumsan et iusto odio dignissim qui blandit praesent </text>
		<text transform="matrix(1 0 0 1 895.3005 -1104.864)" style="font-family:'MrEavesXLModOT-Book'; font-size:14px;">luptatum zzril delenit augue duis dolore te feugait nulla facilisi.</text>
		<text transform="matrix(1 0 0 1 895.3005 -1071.264)" style="font-family:'MrEavesXLModOT-Book'; font-size:14px;">Lorem ipsum dolor sit amet, cons ectetuer adipiscing elit, sed diam nonummy nibh euismod tincidunt ut laoreet dolore </text>
		<text transform="matrix(1 0 0 1 895.3005 -1054.464)" style="font-family:'MrEavesXLModOT-Book'; font-size:14px;">magna aliquam erat volut</text>
		<g>
			<text transform="matrix(1 0 0 1 891.461 -1506.6023)" class="st12" style="font-family:'Parkside-Bold'; font-size:36px;">Heading 1: Franklin Gothic 36px </text>
		</g>
		<g>
			<text transform="matrix(1 0 0 1 891.377 -1452.8839)" class="st6" style="font-family:'Parkside-Bold'; font-size:30px;">Heading 2: Franklin Gothic 30px </text>
		</g>
		<g>
			<text transform="matrix(1 0 0 1 893.7645 -1408.2207)" class="st6" style="font-family:'Parkside-Bold'; font-size:24px;">Heading 3: Franklin Gothic 24px </text>
		</g>
	</g>
	<g>
		<g>
			<path class="st10" d="M244.9-1477.2c19.7-2.6,40.3-0.2,58.6,7.8c20.7,8.9,38.2,25.1,46.9,46.4c16.8,41.5-2.4,89.5-33.7,118.8
				c-46.1,44.5-138.1,44.8-170-16.5c-9.7-18.9-12.9-40.6-9.9-61.5c6.2-45,42-75.6,87.5-74.5c21.2,0.3,42.2,5.5,60.7,15.9
				c38.4,20.9,51.6,57.9,26.2,95.5c-17,24.4-46.1,41.8-76.2,41.9c-32.2-0.3-63.1-15.8-73.4-48c-10.4-30.9,0.1-68.2,31.5-82
				c25.1-11.5,58.4-6,74.8,17.3c10.6,15.1,14.4,35.7,6.9,52.9c-7.3,16.8-24.6,27.2-42.3,28.5c-11.7,0.9-24.3-2.5-32.7-11.1
				c-22.2-23-13.9-71.7,25.3-58.8c3.3,1.1,6.5,2.4,9.5,4.2l-0.9,1.8c-6.1-2.4-12.8-3.8-19-3.5c-21.9,0.9-22.1,27.5-12.8,41.9
				c6,10.1,17.8,14.3,29.2,12.5c13-1.8,25.7-10.6,29.4-23.3c3.3-11.3-0.1-23.8-6.8-33.2c-4.7-6.6-11.7-11-19.6-13.3
				c-21.2-5.9-46.2,4.4-52.6,26.4c-6.6,20.7,0.7,47.2,20.3,58.5c10.7,6.5,24.1,9.4,36.7,9.4c16.8-0.7,33-8,45.8-18.9
				c9.1-7.7,16.7-17.5,20.8-28.7c12.2-32.1-16.1-56.3-43.5-68.3c-29.2-12.2-66.6-14.2-92,7.4c-25.6,21-32.9,58.5-22.7,89.1
				c12.4,39.5,50.3,56.9,89.7,53.6c18.7-1.5,37.2-7.1,53.2-16.9c36.3-23,62.7-71.8,47.2-114.2c-1.1-2.8-2.4-5.8-3.9-8.4
				c-1.2-1.9-2.3-4.2-3.6-6c-4.2-6.5-9.9-12.3-15.9-17.4c-2.9-2.4-6.6-4.9-9.8-7c-1.5-0.9-3.7-2.1-5.2-3c-3.8-1.9-8.2-4-12.2-5.5
				c-13.1-4.9-27.1-7.2-41.3-7.5C245-1475.2,244.9-1477.2,244.9-1477.2L244.9-1477.2z"/>
		</g>
		<g>
			<path class="st11" d="M244.9-1476.5c14.3-1.1,29,0.3,42.8,4.5c3.8,1.1,8.3,2.9,12,4.5c0.6,0.2,1.8,0.8,2.3,1.1
				c6.1,2.9,12.2,6.5,17.5,10.7c62.5,48.5,22.7,143.9-42.2,168.3c-51.9,20.7-119.2,5.1-135.2-54c-3.7-13.1-4.7-27-2.9-40.5
				c9.8-64.3,68.2-84.7,125-63.9c24.8,9.8,51.8,28.3,53.9,57.3c1,15-4.9,29.6-13.8,41.4c-16.3,21.3-41.9,36.1-69.1,36.1
				c-20.7-0.5-42.7-7.6-56-24.4c-13.1-16.7-16.7-40-10.3-60.1c4.3-13.5,14.5-25.2,27.5-31c22.2-10.4,52.5-5.7,66.7,15.5
				c7.9,11.6,11.5,26.6,7.9,40.3c-2.6,10.3-9.9,19.3-19,24.5c-12.1,7-27.5,9.1-40.4,3.2c-13-5.9-20-20.4-20.5-34.2
				c-0.5-21.2,13.5-32.3,33.9-26.4c3.3,0.9,6.5,2.1,9.5,3.6l-0.2,0.4c-6.1-2.8-12.7-4.5-19.4-4.5c-10.7-0.1-18.7,6.5-20.9,17
				c-3.3,15.6,3.7,34.7,18.8,41.4c18.6,8,43.1-1.2,51.9-19.3c5.4-10.9,4.4-24.1-0.4-35c-10.7-25.6-41.7-32.9-65.6-21.8
				c-37.7,17-35.1,76.4-0.7,95.7c12.6,7.4,27.7,10.6,42.3,10c18-1.2,35.3-9.3,48.8-21.1c19.5-16.7,33.2-45,19.9-69.5
				c-12.3-22.6-40.3-37-64.8-42.2c-33.8-7.4-68.8,0.2-89.2,30c-15.3,22.1-18.4,51.4-10.7,76.9c16.7,57.2,81.4,70.5,131.6,50.4
				c61-22.9,100.9-112.8,44.2-160.6c-5.6-4.8-12.1-9-18.7-12.4c-1.4-0.8-5.3-2.4-6.8-3.1c-3.1-1.2-6.3-2.4-9.5-3.3
				c-12.8-4-26.4-5.4-39.8-4.9L244.9-1476.5L244.9-1476.5z"/>
		</g>
		<text transform="matrix(1 0 0 1 -19.3921 -1171.6974)" style="font-family:'MrEavesXLModOT-Book'; font-size:24px;">Psychotherapeutin in Ausbildung unter Supervision</text>
		<text transform="matrix(1 0 0 1 -36.0921 -1142.8973)" style="font-family:'MrEavesXLModOT-Book'; font-size:24px;">tiefenpsychologisch fundierte Hypnosepsychotherapie</text>
		<text transform="matrix(1 0 0 1 7.716 -1212.9144)" class="st12" style="font-family:'Parkside-Bold'; font-size:72px;">Christina Kuri</text>
	</g>
	
		<image style="overflow:visible;enable-background:new    ;" width="2480" height="1040" xlink:href="../../../../../../../Downloads/Kuri komplement채r.jpeg"  transform="matrix(9.354889e-02 0 0 9.354889e-02 1447.5409 -1668.1511)">
	</image>
	<rect x="899.3" y="-582.2" class="st5" width="651.4" height="459.6"/>
	<text transform="matrix(1 0 0 1 899.3077 -573.7647)" style="font-family:'MrEavesXLModOT-Book'; font-size:14px;">Fliesstext Mr Evans 14px.</text>
	<text transform="matrix(1 0 0 1 899.3077 -540.1647)" style="font-family:'MrEavesXLModOT-Book'; font-size:14px;">Lorem ipsum dolor sit amet, consectetuer adipiscing elit, sed diam nonummy nibh euismod tincidunt ut laoreet dolore </text>
	<text transform="matrix(1 0 0 1 899.3077 -523.3647)" style="font-family:'MrEavesXLModOT-Book'; font-size:14px;">magna aliquam erat volutpat. Ut wisi enim ad minim veniam, quis nostrud exerci tation ullamcorper suscipit lobortis nisl </text>
	<text transform="matrix(1 0 0 1 899.3077 -506.5647)" style="font-family:'MrEavesXLModOT-Book'; font-size:14px;">ut aliquip ex ea commodo consequat. Duis autem vel eum iriure dolor in hendrerit in vulputate velit esse molestie conse</text>
	<text transform="matrix(1 0 0 1 1542.1077 -506.5647)" style="font-family:'MrEavesXLModOT-Book'; font-size:14px;">-</text>
	<text transform="matrix(1 0 0 1 899.3077 -489.7647)" style="font-family:'MrEavesXLModOT-Book'; font-size:14px;">quat, vel illum dolore eu feugiat nulla facilisis at vero eros et accumsan et iusto odio </text>
	<text transform="matrix(1 0 0 1 1352.3076 -489.7647)" style="fill:#98C73A; font-family:'MrEavesXLModOT-Book'; font-size:14px;">hier ein Textlink</text>
	<text transform="matrix(1 0 0 1 1435.2078 -489.7647)" style="font-family:'MrEavesXLModOT-Book'; font-size:14px;"> praesent luptatum </text>
	<text transform="matrix(1 0 0 1 899.3077 -472.9647)" style="font-family:'MrEavesXLModOT-Book'; font-size:14px;">zzril delenit augue duis dolore te feugait nulla facilisi.</text>
	<text transform="matrix(1 0 0 1 899.3077 -439.3647)" style="font-family:'MrEavesXLModOT-Book'; font-size:14px;">Lorem ipsum dolor sit amet, cons ectetuer adipiscing elit, sed diam nonummy nibh euismod tincidunt ut laoreet dolore </text>
	<text transform="matrix(1 0 0 1 899.3077 -422.5647)" style="font-family:'MrEavesXLModOT-Book'; font-size:14px;">magna aliquam erat volutpat. Ut wisi enim ad minim veniam, quis nostrud exerci tation ullamcorper suscipit lobortis nisl </text>
	<text transform="matrix(1 0 0 1 899.3077 -405.7647)" style="font-family:'MrEavesXLModOT-Book'; font-size:14px;">ut aliquip ex ea commodo consequat.</text>
	<text transform="matrix(1 0 0 1 899.3077 -388.9647)" style="font-family:'MrEavesXLModOT-Book'; font-size:14px;">Lorem ipsum dolor sit amet, consectetuer adipiscing elit, sed diam nonummy nibh euismod tincidunt ut laoreet dolore </text>
	<text transform="matrix(1 0 0 1 899.3077 -372.1647)" style="font-family:'MrEavesXLModOT-Book'; font-size:14px;">magna aliquam erat volutpat. Ut wisi enim ad minim veniam, quis nostrud exerci tation ullamcorper suscipit lobortis nisl </text>
	<text transform="matrix(1 0 0 1 899.3077 -355.3647)" style="font-family:'MrEavesXLModOT-Book'; font-size:14px;">ut aliquip ex ea commodo consequat. Duis autem vel eum iriure dolor in hendrerit in vulputate velit esse molestie conse</text>
	<text transform="matrix(1 0 0 1 1542.1077 -355.3647)" style="font-family:'MrEavesXLModOT-Book'; font-size:14px;">-</text>
	<text transform="matrix(1 0 0 1 899.3077 -338.5647)" style="font-family:'MrEavesXLModOT-Book'; font-size:14px;">quat, vel illum dolore eu feugiat nulla facilisis at vero eros et accumsan et iusto odio dignissim qui blandit praesent </text>
	<text transform="matrix(1 0 0 1 899.3077 -321.7647)" style="font-family:'MrEavesXLModOT-Book'; font-size:14px;">luptatum zzril delenit augue duis dolore te feugait nulla facilisi.</text>
	<text transform="matrix(1 0 0 1 899.3077 -288.1647)" style="font-family:'MrEavesXLModOT-Book'; font-size:14px;">Lorem ipsum dolor sit amet, cons ectetuer adipiscing elit, sed diam nonummy nibh euismod tincidunt ut laoreet dolore </text>
	<text transform="matrix(1 0 0 1 899.3077 -271.3647)" style="font-family:'MrEavesXLModOT-Book'; font-size:14px;">magna aliquam erat volut</text>
	<g>
		<text transform="matrix(1 0 0 1 895.468 -723.5026)" class="st6" style="font-family:'MrsEavesXLSerifOT-Reg'; font-size:36px;">Heading 1: Mrs Evans LT Pro 36px </text>
	</g>
	<g>
		<text transform="matrix(1 0 0 1 895.384 -669.7842)" class="st6" style="font-family:'MrsEavesXLSerifOT-Reg'; font-size:30px;">Heading 2: Mrs Evans LT Pro 30px </text>
	</g>
	<g>
		<text transform="matrix(1 0 0 1 897.7717 -625.1209)" class="st6" style="font-family:'MrsEavesXLSerifOT-Reg'; font-size:24px;">Heading 3: Mrs Evans LT Pro  24px </text>
	</g>
	<g>
		<path class="st12" d="M-1639.7-1441.1c-0.4-67.7-55.6-122.7-123.4-122.7c-68.1,0-123.4,55.4-123.4,123.4
			c0,68.1,55.4,123.4,123.4,123.4h73.3v-22h-73.3c-55.9,0-101.4-45.5-101.4-101.4s45.5-101.4,101.4-101.4s101.4,45.5,101.4,101.4
			v72.9h22V-1441.1L-1639.7-1441.1z"/>
		<path class="st12" d="M-1664.4-1440.9c-0.3-54.2-44.5-98.2-98.7-98.2c-54.4,0-98.7,44.3-98.7,98.7c0,54.4,44.3,98.7,98.7,98.7
			h73.4v-17.6h-73.4c-44.7,0-81.1-36.4-81.1-81.1s36.4-81.1,81.1-81.1s81.1,36.4,81.1,81.1v72.8h17.6V-1440.9L-1664.4-1440.9z"/>
		
			<radialGradient id="SVGID_1_" cx="-1741.2091" cy="-1824.2628" r="77.931" fx="-1686.1035" fy="-1769.1572" gradientTransform="matrix(1 0 0 1 0 406)" gradientUnits="userSpaceOnUse">
			<stop  offset="0" style="stop-color:#B0D959"/>
			<stop  offset="7.002669e-02" style="stop-color:#89AB42"/>
			<stop  offset="0.155" style="stop-color:#5F7929"/>
			<stop  offset="0.197" style="stop-color:#4E651F"/>
			<stop  offset="0.2275" style="stop-color:#465B1A"/>
			<stop  offset="0.2947" style="stop-color:#394C13"/>
			<stop  offset="0.3726" style="stop-color:#31430E"/>
			<stop  offset="0.4852" style="stop-color:#2F400D"/>
		</radialGradient>
		<path class="st13" d="M-1763.1-1518.3c-43,0-77.9,34.9-77.9,77.9s34.9,77.9,77.9,77.9h77.9v-77.9
			C-1685.2-1483.4-1720.1-1518.3-1763.1-1518.3z"/>
		<rect x="-1684.9" y="-1338.9" class="st12" width="21.7" height="21.7"/>
		<rect x="-1661.7" y="-1362.2" class="st12" width="21.7" height="21.7"/>
	</g>
	
		<text transform="matrix(1 0 0 1 -2041.2218 -1235.5536)" class="st12" style="font-family:'DomusTitlingSemibold'; font-size:72px;">Christina Kuri</text>
	
		<text transform="matrix(1 0 0 1 -2034.224 -1186.4094)" style="fill:#20231C; font-family:'NeusaNextStd-Regular'; font-size:24px;">Psychotherapeutin in Ausbildung unter Supervision</text>
	
		<text transform="matrix(1 0 0 1 -2053.124 -1157.6094)" style="fill:#20231C; font-family:'NeusaNextStd-Regular'; font-size:24px;">tiefenpsychologisch fundierte Hypnosepsychotherapie</text>
	<path class="st12" d="M-2440.1,49.3"/>
	<g>
		<g>
			<path class="st12" d="M-1646.5,285.9c-1-1-2.4-1.4-3.8-1.1c-3.7,0.7-7.3,1.4-11.2,2.1c-7.7,1.4-18.3,4.2-26.6,6.3l-2.2,7.3
				c8-2,22.5-5.3,30-6.7c2.4-0.4,4.8-0.9,7.2-1.3c-0.5,2.7-1,5.4-1.5,8c-5.6,30.6-10.9,59.6-51,99.7l-0.4,0.4
				c-40.1,40.1-69,45.4-99.7,51c-0.7,0.1-5.6,0.9-6.3,1l-1.7,7.7c2-0.4,7.2-1.4,9.2-1.8c30.4-5.6,61.7-11.3,103.4-53l0.4-0.4
				c41.6-41.6,47.4-73,53-103.4c0.7-3.9,1.5-8,2.3-12C-1645.1,288.3-1645.5,286.9-1646.5,285.9z"/>
			<path class="st12" d="M-1821.3,374c-0.1,0.2-0.3,0.4-0.4,0.6c-1.4-21.7-7.5-46.8-26.4-78.7l-0.3-0.5
				c-30.1-50.7-60.7-64.8-87.7-77.3c-3.6-1.6-6.9-3.2-10.3-4.8c-1.3-0.6-2.7-0.5-4,0.2c-1.2,0.7-2,2-2,3.4
				c-0.2,4.1-0.5,8.2-0.8,12.2c-2.1,30.8-4.3,62.6,25.7,113.3l0.3,0.5c30,50.6,59,64,87,76.9l8.3,3.4l-1.9-7.9l-3.4-1.8
				c-28.3-13.1-55-25.4-83.9-74.2l-0.3-0.5c-7.9-13.3-13.4-25.1-17.3-35.9c19.9,8,42.9,23.1,61.9,42.1l0.4,0.4
				c40.2,40.2,45.8,70.8,51.2,100.5c0.4,2.4,0.9,4.8,1.3,7.2c-2.7-0.5-5.4-1-8-1.5c-30.6-5.6-59.6-10.9-99.7-51l-0.4-0.4
				c-40.1-40.1-45.4-69-51-99.7c-0.5-2.6-1-5.3-1.5-8c2.4,0.5,4.8,0.9,7.2,1.3c7.3,1.3,14.7,2.7,22.4,4.6l0,0
				c0.8,0.2,5.6,1.5,6.4,1.7l-2.2-7.9c-0.8-0.2-1.7-0.4-2.5-0.6l0,0c-7.9-2-15.5-3.4-22.9-4.7c-3.9-0.7-7.5-1.4-11.2-2.1
				c-1.4-0.3-2.8,0.1-3.8,1.1s-1.4,2.4-1.1,3.8c0.8,4,1.6,8.1,2.3,12c5.6,30.4,11.3,61.7,53,103.4l0.4,0.4
				c41.6,41.6,73,47.4,103.4,53c3.9,0.7,8,1.5,12,2.3c0.3,0.1,0.6,0.1,0.8,0.1c0.2,0,0.5,0,0.8,0c0.8,0.1,1.8,0,2.5,0
				c0.3,0,0.6,0,0.8-0.1c0.4-0.1,0.6-0.1,0.7-0.1s0.2,0,0.3-0.1l1.7-7.5l1.3-7.2c1.3-7.1,2.6-14.3,4.4-21.7c3.1-1.5,6.2-2.9,9.3-4.3
				c28-12.9,57-26.3,87-76.9l0.3-0.5c30-50.6,27.8-82.5,25.7-113.3c-0.3-4-0.6-8.1-0.8-12.2c-0.1-1.4-0.8-2.7-2-3.4s-2.7-0.8-4-0.2
				c-3.4,1.6-6.7,3.2-10.3,4.8c-24.7,11.4-52.3,24.1-79.8,64.7c0.2-5.4,0.3-11.1,0.1-17.2v-0.6c-1.6-58.9-21.5-86.2-39-110.2
				c-2.3-3.2-4.5-6.2-6.7-9.2c-0.8-1.2-2.1-1.8-3.5-1.8s-2.7,0.8-3.4,2c-2.2,3.5-4.4,6.9-6.6,10.3c-15.3,23.5-31.2,52.5-32.7,101
				l7.3,8.3c1.5-46.6,15.7-81.7,31.2-105.5c1.5-2.2,2.9-4.5,4.4-6.8c1.4,2,2.9,4,4.3,5.9c17.8,24.3,36.2,49.5,37.7,106.3v0.6
				c0.3,10.9-0.1,20.6-1,29.5c0,0,0,0,0,0.1l-0.3,0.5 M-1717.3,338.8l-0.3,0.5c-28.9,48.8-55.6,61.1-83.9,74.2
				c-1.3,0.6-2.6,1.2-4,1.8c6.3-20.8,17.7-43.3,44.4-69.9l0.4-0.4c18.1-18.1,41.7-33.8,60.7-42
				C-1703.9,313.7-1709.4,325.5-1717.3,338.8z M-1783.6,297.7c28.7-47.8,56.7-60.7,83.9-73.2c2.2-1,4.4-2,6.6-3.1
				c0.2,2.7,0.4,5.5,0.5,8.1c1.4,20.3,2.7,39.9-4.5,64.6c-20.1,8.6-49.8,27-68.5,45.8l-0.4,0.4c-24.4,24.4-36.6,45.9-43.6,65.4
				 M-1854.1,299.5c18.4,31.1,24.3,55.1,25.5,76.1c-0.5-0.7-1-1.4-1.5-2c-16.9-23.1-32.8-45.8-36.5-93.2c4.1,5.6,8.1,11.7,12.2,18.6
				L-1854.1,299.5z M-1873.2,271.8l-1.5-1.9C-1874.2,270.6-1873.7,271.2-1873.2,271.8z M-1872,340c-19.6-19.6-48.9-37.6-69.7-46
				c-7.2-24.6-5.9-44.1-4.5-64.4c0.2-2.7,0.4-5.4,0.5-8.1c2.2,1,4.5,2.1,6.6,3.1c20.9,9.6,42.4,19.5,64.2,45.4
				c3.7,49.9,22.3,84.8,39.1,107.8c2.4,3.2,4.8,6.6,7.1,9.9c0.1,0.1,0.2,0.2,0.3,0.3c-0.1,5.2-0.3,10.2-0.7,15.2
				c-7.1-18.8-19.3-39.4-42.6-62.7L-1872,340z"/>
		</g>
		<text transform="matrix(1 0 0 1 -2004.2357 529.2455)" class="st12" style="font-family:'LookScript-Reg'; font-size:72px;">Christina Kuri</text>
		<text transform="matrix(1 0 0 1 -2065.1855 585.5179)" style="fill:#20231C; font-family:'NimbusSan-Lig'; font-size:24px;">Psychotherapeutin in Ausbildung unter Supervision</text>
		<text transform="matrix(1 0 0 1 -2080.3855 614.3179)" style="fill:#20231C; font-family:'NimbusSan-Lig'; font-size:24px;">tiefenpsychologisch fundierte Hypnosepsychotherapie</text>
	</g>
</g>
<g id="Ebene_3">
	<g>
		<path class="st12" d="M54.8-463.1c-1.6,2.9-0.2,0.8-4.9,5.3l-1,1.7c-8.8,7.7-4.6,4.6-12.4,9.4c-7.1,4.3-4.2,2.6-8.9,4.7
			c-7.1,3-4.2,1.7-7.1,2.8c-1.4,0.5-2.6,0.7-4,1.3c-2,0.2-1.2-0.1-2.8,0.8c-2.8,0.4-5.8,1-8.5,1c-1.7,0-2.6,0.4-5.4,0.8
			c-3.4,2.6-5.2,6.1-7.2,9.7l-1.9,4.7c-1.8,2.4-1,3.8-2.3,6.4c-0.1,1.8-0.6,4.1-0.6,6.1c0,3.5,2.6,7.1,4,7.3
			c0.6,1.1,4.6,1.7,7.4,1.7c1.6,0,3.7,0,5.6-1c2.5-0.6,5.2-1.4,7.7-2.4c0.6-0.2,1.6-0.7,3.4-1.3c1.6-0.8,5.8-4.1,7-4.1
			c0.5,0,0.7,0.1,0.7,0.4c0,0.1-0.5,0.5-1.3,1.1l-2.3,1.6l-4.8,2.6l-3.7,1.9l-2.4,1.2c-1.7,0.8-5.3,1.8-7.4,2.6
			c-2.5,0.7-5,1.2-6.6,1.2c-4.1,0-7.6-1.9-9.6-3.4c-3.1-3-4.4-4-4.4-8.8c0-0.5,0.4-4.3,1.4-5.4c0-2.2,0.8-5.2,2-7.9
			c1.3-2.8,1.4-1.4,6.7-10.6c0.8-2.4,0.1-0.8,2.6-4l-0.1-0.6c-6.7-2.9-8.8-3-8.8-9.2c0-0.8,0-1.8,0.1-2.9
			c4.4-7.4,10.2-10.8,18.6-11.6c1.7,0.2,2.2,0.7,2.2,1.2c-0.1,1-2.6,1.8-4.7,1.3c-3.5,1.3-2.6,1.1-4.3,1.1c-3.8,3.4-5.4,4.3-6.7,9.4
			c0.6,3.8,0.2,4,3.4,7.4l2.3,0.2h1.1l2.5-2.9l3.7-4.2l5.3-5.2c11.8-9.5,13.7-11.4,25.2-17c2.9-1.4,13.6-5.4,16.3-5.4
			c5.6,0,6.2,1.2,7.7,3.2C56.9-466.5,58-469,54.8-463.1z M51.5-472.5c-3.2,0.1-3.8,0.5-7.1,1.2c-3.6,1.9-1.3,0.8-7,2.6
			c-5.8,4.3-2.5,2-9.7,6.6c-1.4,0.8-4.9,2.9-6.1,4c-1.3,1.2-2,2.6-3.7,3.4c-1.9,1.9-0.8,1-3.1,2.9L4.7-441c-0.4,0.7-0.6,1.2-0.6,1.6
			c0,0.5,0.4,0.6,1.1,0.6s1.7-0.1,3-0.2l4-0.5c12.1-1.4,25.1-7.6,32.8-14.8c3.7-3.5,4.4-4.9,7.8-9.7c2-4.2,2.4-3.2,2.8-5.8
			C54.8-472.5,54.5-472.1,51.5-472.5z"/>
		<path class="st12" d="M51.5-427.8c0.8-1,2.5-2.5,3.2-2.6c0.2,0,0.4,0.1,0.4,0.4v0.1c-2.8,3-5.2,5.4-8.5,7.8c-3,2.3-4.2,4.4-7,7
			c-0.7,1.1-4,5.5-4,7l0.2,0.2c2.4-0.7,2.6-1.1,5.3-2.8c2.3-1.4,4.3-2.4,7.1-2.8c0.4,0.1,1.6,0.6,0.7,2c-1.8,2.2-3.6,4.7-4.1,7.4
			c0.2,0.2,0.4,0.4,0.6,0.4c0.5,0,1.2-0.7,3.8-2.2l3.2-1.8l1.4-1c0.4-0.1,0.7-0.1,1-0.1c0.1,0,0.2,0,0.2,0.1c0,0.5-1.9,1.7-2.8,2.3
			c-3,2.3-6,4.3-9.4,6c-0.6,0.1-1.1,0.2-1.4,0.2c-0.6,0-1-0.2-1.3-1.2c0.4-3.2,0.7-3.2,2.5-6.8v-0.6l-0.4-0.4
			c-4.6,1.7-8.3,4.2-11.8,7.8c-0.6,0.2-1.2,0.5-1.7,0.5c-0.6,0-1.1-0.5-1.1-1.8c0.6-1.8,1.7-4.1,2.3-5l1.4-2.3
			c0.8-1.4,0.8-1.9,0.4-2c-0.6,0-1.9,0.7-3.1,1.4l-3.4,1.9l-2.2,1.4c-0.6,0.1-1,0.1-1.2,0.1s-0.4,0-0.4-0.1c0-0.4,1.1-1.1,2.3-2.2
			l10.7-7.1l1.7-2.2c5.6-7.2,10.3-17.9,15.8-26.8c4.9-6,13.1-16.6,20.8-18.5l1.6,0.2l1.1,2.2v1.3l-1.7,4.6l-0.4,2.2l-1.3,2.3
			l-1.6,2.9c-3.7,7-5.3,8.2-10.7,13.6c-1.2,1.3-2.2,1.9-2.5,1.9L57-433c-0.1-0.2,0.2-0.8,0.8-1.7l1.1-1.3l5.3-6.4
			c4.2-5,7.1-11.2,7.7-17.5l-0.4-0.6h-2.6l-1.1,0.6l-4.4,4.3l-3.4,4.8L53.3-440l-1.9,3l-1.1,1.9l-2.2,3.1l-2.3,5l-1.1,1.7
			c-0.2,0.5-0.7,1.3-0.7,1.9c0,0.2,0.1,0.5,0.5,0.5c0.1,0,0.4,0,0.5-0.1L51.5-427.8z"/>
		<path class="st12" d="M62.3-411l-0.4-0.4l-1.2,0.2l-2.4,0.7l-2.8,1.9c-1.4,1.1-2.3,1.6-2.6,1.6h-0.2l0.1-0.8
			c4.6-3.6,2.3-2.2,6.6-4.7l1.2-1.1l1-1.3l1.8-1.7c1.3,0,2.5,0,2.5,1.4c0,0.1,0,0.4-0.1,0.6c-0.6,0.5-0.7,0.5-0.7,0.7
			c0,0.1,0,0.2,0.1,0.6c1,0.4,1.8,0.5,2.3,1.6c-1.1,1.9-0.2,0.7-2.9,3.1c-1.3,3.1-1.1,1.8-1.3,4.1l1.1,0.1c0.5,0,0.8-0.1,1.7-0.5
			l2.9-1.7c2.8-1.7,4-2.4,4.3-2.4l0.2,0.1c0,0.4-0.2,0.7-0.5,1.1l-2.4,1.7l-1.4,1.1c-2.8,2.2-5.4,4.3-9,5c-1.2-0.7-1.6-1.4-1.6-2.4
			c0-1.1,0.6-2.3,1.1-3.7l1.7-2.8l0.8-1.2l0.1-0.5C62.3-410.6,62.3-411,62.3-411z"/>
		<path class="st12" d="M87.9-417.8c0.5,0,0.7,0.1,0.7,0.8c-1.9,3.1-4.1,5.9-5,9.4l-0.7,1.4v0.8L84-405h0.7l0.7-0.5l1.7-1l2.4-1.3
			l1.4-1.1c0.4-0.1,0.6-0.1,0.8-0.1c0.4,0,0.5,0.1,0.5,0.2c0,0.6-2.2,1.9-3,2.5l-1.3,0.8l-2.9,2c-2.2,1.6-4.1,2.8-6.7,2.8h-1.1
			l-0.4-0.4c0.7-3.6,2-5.6,3.8-9v-0.7l-1.6-0.4l-1.4,0.5l-2,1l-1.8,1.2l-2.3,1.3h-0.8l0.2-0.8l3.6-2.5l4-2.4l1.7-1
			c2.3-1.3,4.6-3.2,7.1-4.1h0.6L87.9-417.8L87.9-417.8z M94.6-426.2c-0.6,0.4-1.2,0.6-1.8,0.6c-2.4,0-4.8-2.5-4.8-4.9v-0.1
			c0-1-0.1-0.2,1.7-1.6l0.5-0.1l1.3,0.1l3.2,4.9L94.6-426.2z"/>
		<path class="st12" d="M106.6-416.6c0.5,0,1,0.1,1.1,0.7l-0.4,0.6c-2,0.7-2.5,0.8-4.3,2.4l-0.4,0.7c1,1.6,1.9,2.6,1.9,4.3
			c0,0.4-0.1,0.8-0.2,1.2l0.4,0.4c1.6-0.8,1.9-0.8,2.2-1c0.2-0.1,0.5-0.4,1.8-1.3c0.7-0.2,1-0.4,1.2-0.4c0.1,0,0.5,0.2,0.5,0.4
			s-0.2,0.2-0.6,0.7c-3.8,2.2-2,1-5.5,3.6l-1.2,1.8l-0.6,1.1l-1,1l-1.3,1.6c-3.5,2.6-2.8,2.5-7.7,3c-1-0.4-1.6-0.4-1.6-1.4
			c0-1.3,1.8-2.4,2.8-3.2l5.6-3.1c0.2-0.7,0.4-1.1,0.4-1.4c0-0.5-0.1-1-0.4-2c-1.1-2.2-0.8-1.6-1.2-3.2c-2.8,0.8-4.8,1.7-7.8,3.2
			c-0.2,0-0.4,0.1-0.5,0.1s-0.2-0.1-0.2-0.2c0-0.5,2.6-2.3,3.8-3c3.7-1.9,1.8-1.2,5.5-2.5c1.7-2.4,3.8-2.8,6.7-3.8h1
			C106.6-416.3,106.6-416.6,106.6-416.6z M99-401.7c-0.6,0-1.3,0.2-1.7,0.4c-1,0.2-0.7,0.4-1.4,1.2c-0.6,0.4-1.2,0.6-1.2,1.4
			s0.5,1.1,1,1.1c1.1,0,2.9-1.1,3.2-1.7c0.6-1.2,0.8-1.3,0.8-1.6C99.8-401.4,99.4-401.7,99-401.7z"/>
		<path class="st12" d="M110.2-408.3l-1.9,1.3h-0.8l0.2-0.7c1.3-1.1,3.5-2.8,4.4-3.6c-0.4-0.6-0.6-1.3-0.6-1.7
			c0-1.3,0.5-2.2,1.3-2.2c0.5,0,1.6,0.7,2.3,1.3c3.4-3.2,7.3-7.2,10.2-11.2l4.2-5.6c6.8-9.1,3.6-6.1,7.2-10.4l4.2-4.9
			c0.7-0.5,1-0.7,1.3-0.7c0.4,0,0.7,0.4,1.4,0.7c0.2,0.6,0.5,0.7,0.5,0.8c0,0.1-0.2,0.4-0.4,1.1l-1.7,3.8l-2.4,4.1l-5.2,7.7
			c-3.8,5.8-8,12.6-11.9,19c-0.2,1.1,1.6,1.6,3.1,1.8c1.6,0.1,3.2-0.2,4.6-1.1h0.5c0.6,0,0.7,0.1,0.7,0.2c0,0.6-2.3,1.6-3.4,2.2
			c-2,0.8-3.6,1.1-4.7,1.1c-0.6,0-1.8-0.1-2.6-0.4c-0.7,1.9-1.7,4.7-2.8,5.9c-0.8,0.2-1,0.4-1.2,0.4s-0.5-0.1-1.3-0.2
			c-0.4-0.7-0.5-1.2-0.5-1.7c0-0.7,0.4-1.3,0.6-2.4s0.4-2,0.5-3.2c-0.1-0.5-2.2-2.2-3.2-3.4L110.2-408.3z M118.8-410.7
			c1.7-0.8,4.8-7.1,6.5-9.6c-0.2-0.1-0.5-0.2-0.6-0.2c-1,0-2,1.4-2.8,2.2c-1.7,1.7-4,4-5.8,5.5C116.9-412,117.9-411.3,118.8-410.7z"
			/>
		<path class="st12" d="M146-417.8c0.5,0,0.7,0.1,0.7,0.8c-1.9,3.1-4.1,5.9-5,9.4l-0.7,1.4v0.8l1.1,0.4h0.7l0.7-0.5l1.7-1l2.4-1.3
			l1.4-1.1c0.4-0.1,0.6-0.1,0.8-0.1c0.4,0,0.5,0.1,0.5,0.2c0,0.6-2.2,1.9-3,2.5l-1.3,0.8l-2.9,2c-2.2,1.6-4.1,2.8-6.7,2.8h-1.1
			l-0.4-0.4c0.7-3.6,2-5.6,3.8-9v-0.7l-1.6-0.4l-1.4,0.5l-2,1l-1.8,1.2l-2.3,1.3h-0.8l0.2-0.8l3.6-2.5l4-2.4l1.7-1
			c2.3-1.3,4.6-3.2,7.1-4.1h0.6V-417.8z M152.7-426.2c-0.6,0.4-1.2,0.6-1.8,0.6c-2.4,0-4.8-2.5-4.8-4.9v-0.1c0-1-0.1-0.2,1.7-1.6
			l0.5-0.1l1.3,0.1l3.2,4.9L152.7-426.2z"/>
		<path class="st12" d="M170.4-410.6c-0.1-0.6-0.4-0.8-0.7-0.8c-0.6,0-1.3,0.7-1.9,1.1l-6.2,4.9c-1.7,1.3-5.4,5.2-7.7,5.2l-0.2-0.2
			l0.1-1l3.8-7.3c0.5-0.8,0.6-1.4,0.6-1.8c0-0.7-0.4-1-1-1c-0.8,0-2.2,0.5-3.5,1.3l-3.5,2.2c-1.1,0.7-1.9,1-2.4,1
			c-0.1,0-0.2,0-0.2-0.2c0-0.1,0.1-0.2,0.2-0.5l3.5-2.5c3.2-2.4,6.5-4.1,10.3-5.3c1.3,0,1.7,0.6,1.7,1.6c0,1.7-1.2,4-1.4,4.8
			l-0.6,1.4l0.2,0.2l4.1-3.4c2.5-2,5.9-4.3,9.1-4.3c0.5,0.6,0.6,1.1,0.6,1.8c0,1.6-1.1,3.4-1.6,4.6c-0.7,1-1.9,2.4-1.9,3.5
			c0,0.4,0.1,0.7,0.4,1c0.7-0.1,1.1-0.1,1.4-0.1c0.7-0.2,1.4-0.8,5.4-3.1c1.4-0.8,2.3-1.2,2.5-1.2l0.2,0.1c0,0.5-1.3,1.8-2.5,2.6
			c-4,2.9-7.1,5.2-11.3,5.3c-0.8-0.6-1.1-1.1-1.1-1.7s0.4-1.3,0.6-2.3L170.4-410.6z"/>
		<path class="st12" d="M197.9-406.5l-0.1-0.2l-0.6,0.4c-2.6,1.9-3.4,2.5-7.4,4.9l-2.4,1.1c-1.8-0.1-2.5,0.1-2.5-2.4
			c0-2.2,2-4.6,2-6.7c0-0.5-0.6-0.4-1-0.5l-1.3,0.6l-2.3,1.1l-2.6,1.3c-0.5,0-0.7-0.1-0.7-0.2c0-0.6,2.6-2,4.1-3
			c3.4-2,7-4.1,10.4-4.1c0.7,0,1.6,0.4,1.6,1.3c0,1.2-4.3,2.4-5.4,6.7c0.1,1.7-0.1,1.3,1.1,2.2c1.3,0,2.6-0.4,4.4-1.9
			c0.6-0.6,3.8-3.2,3.8-4.4c0-1.2-3.5-0.5-3.5-3.2c0-1.2,1.8-1.7,2.8-1.7c1.7,0,2.3,1.3,2.6,2.2c0.2,0,0.8,0.2,2.2,0.2
			c0.6,0.5,1,0.5,1,1.3c0,0.4-0.1,1.3-0.5,1.9c-0.4,0.8-1.9,3-1.9,4.4c0,0.1,0.1,0.8,0.5,0.8c0.5,0,1-0.5,2-1c2.3-1.2,1-0.8,3.5-2.3
			c0.6-0.4,2.4-4,3-4c0.2,0-0.3,2.5-0.3,2.6s-0.4,0.6-0.7,1.2l-1.5,1.8l-1.3,0.8c-3.6,2.3-1.8,1.3-4.8,3.4c-1.1,0.6-1.3,0.8-1.7,1
			c-0.2,0.1-0.6,0.1-1.8,0.5l-1.2-0.5c-0.5-0.8-0.7-1.4-0.7-2c0-1.2,0.4-0.8,1.2-3L197.9-406.5z"/>
		<path class="st12" d="M250.8-451.8l-0.2,1.4c1,4.7,3.2,5.2,7.1,7.2l1.7,0.2l2.9,0.6l0.8-0.1l1.9-2.8c9.7-14,22.1-27.1,34-33.6
			c6.5-3.5,6.8-3.2,14.4-4.6l4.8,0.4c3.4,1.2,7.2,1.9,7.2,5.9l-1.7,3.1l-0.4,1.3l-2.4,3.8c-5,6-2.5,4.4-6.1,6.4
			c-4.8,4.4-2.8,3.4-5.5,4.6c-2.6,2.9-1.3,1.2-5,3.8c-2.9,2.2-1.3,1.2-4.2,2.8c-3.7,2-2.2,1.3-5,2.6l-2.4,1.1
			c-1.9,1.3-0.7,0.7-3.7,1.4l-1.4,0.1c-4.4,2.3-1.4,0.4-10.1,3.8l-2.4,1c-2.6,1.1-1,0.6-4.9,1.3l-1.3,0.1l-1.6,1.8
			c-1.3,2.3-0.6,1.2-2.2,3.5l-2.9,5.8c-2.8,4.3-1.4,1.6-4.3,7.8c-0.8,1.8-0.8,0.8-1.1,2.4c-1.2,1.7-0.6,0.6-1.2,3.7l-2.6,5.2
			c0.1,1.8,0.4,2.2,1.1,2.2c0.4,0,1-0.1,1.7-0.2l4-6.1l1.1-2.3l3.8-5.2l0.4-0.8c10.2-10.1,6-6.1,12.7-11.6c7.2-5.9,9.5-8,18.6-10.2
			l4.1-1c1.3-0.1,2.2-0.2,2.8-0.2c1,0,1.6,0.4,2.6,1.9c-0.8,2.6-0.4,1.2-2,4l-1.7,2.6c-0.2,1.1,0,0.4-1.3,1.6
			c-1.7,3.2-0.7,1-5.9,5.6c-3.6,2.3-1.6,1.1-6.2,3.5l-1.7,0.6l-2.2,1.6l-0.5,0.6c0.1,1.3,0.1,1.8,0.1,2.2c0,0.5,0,0.8-0.2,2.6
			c0.5,7.9,0.2,4.4,0.8,10.4c0.7,3.1,2.3,4.1,4.4,4.1c1.3,0,2.9-0.4,4.4-1l2.8-1.4l1.9-0.7l1.4-1c0.2-0.1,0.5-0.1,0.7-0.1
			s0.4,0.1,0.4,0.2c0,0.4-2,1.7-2.6,2l-1.2,1l-4.6,3.2c-3.4,1.6-4.3,2-5.8,2c-0.7,0-1.6-0.1-2.9-0.2c-3.4-0.5-5.6-5.6-6.4-10.3v-2
			c0-4-0.1-4.7-0.1-5.6c0-0.8,0-2,0.5-5.3c0.4-3.2,0.8-4.8,3.7-4.8c0.5,0,0.8,0.1,1.3,0.1c1.1,1.3,1.3,1.9,1.7,1.9s0.8-0.7,2.5-1.7
			c5.8-3.2,6.5-4.1,10.8-8.9l2.8-5v-1.2l-0.8-0.6l-2.3,0.1l-1.4,0.7l-1.9,0.1l-3,1.3c-1.3,0.4-1.7,0.5-2,0.6
			c-0.4,0.2-0.7,0.5-2.2,1.3c-1.3,0.8-1.7,1.1-2.2,1.3c-0.6,0.4-1.1,0.8-4.6,3.5l-3.6,2.8l-5.2,5.2c-2.2,2.2-0.8,1-3.7,3.1
			c-1.3,3.6-0.2,1.3-4,6.4c-0.2,1.7,0,0.7-1.8,2.6c-0.1,1.6,0.1,0.6-3.6,6.1l-0.8,2.8l-0.4,4.8l-0.4,1.2l-0.5,0.8l-3.4,1.7l-1-0.2
			l-0.2-1.4l0.6-3.5c0.2-0.4,0.4-0.7,0.4-1.1c0-0.6-0.4-1.2-1-1.8c-1.6,1.1-2,1.3-2.4,1.6c-0.2,0.2-0.5,0.6-1.6,1.7
			c-1.2,3.4-2.4,5.3-4.4,8.2c-0.8,1.1-2,2.3-2.9,2.3c-0.6,0-1-0.5-1-1.9c0-4.1,1.6-6.1,3.5-10.6l1.8-2.4c5.6-10.9,3.1-5.5,7.7-15.8
			c1.3-3.1,0.5-1.3,2.8-5.9l4.1-8.4l1.1-1.8l-0.1-0.5l-1-0.7H256l-1.3-0.7l-1.9-0.1c-3.6-1-8.6-3.9-7.4-7.1c2.1-5.7,3.9-9.5,8-11.3
			l1.3,0.1 M304.1-456.4l1.4-0.7l6.8-5.6c5.5-4.6,4.9-2.2,5.3-5.8c3-3.2,3.5-4.3,4.9-8.2c0.2-1.1,0.6-1.7,0.6-2
			c0-0.6-0.8-0.6-3.8-1.6l-3.5-0.4c-1.4-0.5-1.8-0.8-2.2-0.8s-0.7,0.4-2.2,0.8c-0.5,0-1,0.1-1.3,0.1H310l-0.8-0.1
			c-0.5,0-0.6,0.1-1.7,0.7c-0.8,0.2-1.2,0.2-1.4,0.2c-0.2,0.1-0.5,0.4-1.7,1c-1.9,0.7-2.4,0.8-2.9,1.1c-0.6,0.4-1,0.7-3.1,2.3
			c-1,0.2-1.3,0.4-1.6,0.5c-0.5,0.4-0.7,1-3.5,3.4c-5.6,4.9-3.4,3-6.4,6.4c-0.7,0.5-1,0.6-1.2,0.7c-0.2,0.2-0.2,0.6-1.1,1.8
			c-1.6,1.3-1.9,1.7-2.3,2c-0.4,0.5-0.6,1-2,3c-2.3,1.8-1.6,0.7-2.5,3c-3.6,4.2-3,2.2-3.5,5.5c-2.6,3.2-2.2,1.6-2.6,4.2
			c-0.5,0.7-0.6,1.1-0.6,1.3s0.1,0.4,0.5,0.4s0.8-0.1,1.3-0.1c6.8-1.7,3.6-0.8,10.1-2.6l3.5-1.6c2.2-0.5,0.6-0.4,4.2-1.6
			c2.9-1.1,3.7-1.3,4.4-1.7c1-0.5,1.9-1.1,6.5-3.6L304.1-456.4z"/>
		<path class="st12" d="M308.1-410c-1.7,0-2.2,0-5.5,1.7l-2.4,1.2c-0.5,0-0.7-0.1-0.7-0.4c0-0.4,0.7-1,2.5-2l4.3-2.8l5.2-2.5
			c0.4-0.1,1.7-0.8,2.9-0.8c0.6,0,1,0.1,1,0.6c0,0.2,0,0.4-0.1,0.6l-0.7,1.9l-1.4,2.2l-2.2,4.6v0.5c0,0.7,0,1,0.5,1
			c0.4,0,0.8-0.1,1.8-0.4c6.8-5.2,3.8-2.4,9.1-7.9c2.2-1.8,2.3-1.9,4.2-2.2l0.2,0.4c0,2.6,0,0.7-2.4,4.9c-0.6,1.1-2.4,3.5-2.4,5.2
			c0,0.2,0,0.4,0.1,0.6l1.2-0.1l2.6-1.3l3.7-2.5c0.4-0.2,2.2-1.3,2.6-1.3c0.1,0,0.2,0,0.2,0.1s-0.2,0.5-0.7,1.1l-2.3,1.7
			c-2.3,1.7-4.7,3.2-7.2,4.8c-1.4,0.7-2.3,1.2-3.5,1.2c-0.5,0-1,0-1.7-0.2c-0.4-0.5-0.5-0.8-0.5-1.2c0-0.6,0.5-1.1,1-2l0.5-1.6
			l0.8-1c0-0.7-0.2-0.7-0.7-0.7c-3.5,2.6-6,5-10.2,6.6h-2.8l-0.5-0.6l0.1-1l1-1.9l2.6-5.4l0.1-0.4L308.1-410z"/>
		<path class="st12" d="M339.3-411l-0.4-0.4l-1.2,0.2l-2.4,0.7l-2.8,1.9c-1.4,1.1-2.3,1.6-2.6,1.6h-0.2l0.1-0.8
			c4.6-3.6,2.3-2.2,6.6-4.7l1.2-1.1l1-1.3l1.8-1.7c1.3,0,2.5,0,2.5,1.4c0,0.1,0,0.4-0.1,0.6c-0.6,0.5-0.7,0.5-0.7,0.7
			c0,0.1,0,0.2,0.1,0.6c1,0.4,1.8,0.5,2.3,1.6c-1.1,1.9-0.2,0.7-2.9,3.1c-1.3,3.1-1.1,1.8-1.3,4.1l1.1,0.1c0.5,0,0.8-0.1,1.7-0.5
			l2.9-1.7c2.8-1.7,4-2.4,4.3-2.4l0.2,0.1c0,0.4-0.2,0.7-0.5,1.1l-2.4,1.7l-1.4,1.1c-2.8,2.2-5.4,4.3-9,5c-1.2-0.7-1.6-1.4-1.6-2.4
			c0-1.1,0.6-2.3,1.1-3.7l1.7-2.8l0.8-1.2l0.1-0.5L339.3-411L339.3-411z"/>
		<path class="st12" d="M364.8-417.8c0.5,0,0.7,0.1,0.7,0.8c-1.9,3.1-4.1,5.9-5,9.4l-0.7,1.4v0.8l1.1,0.4h0.7l0.7-0.5l1.7-1l2.4-1.3
			l1.4-1.1c0.4-0.1,0.6-0.1,0.8-0.1c0.4,0,0.5,0.1,0.5,0.2c0,0.6-2.2,1.9-3,2.5l-1.3,0.8l-2.9,2c-2.2,1.6-4.1,2.8-6.7,2.8h-1.1
			l-0.4-0.4c0.7-3.6,2-5.6,3.8-9v-0.7l-1.6-0.4l-1.4,0.5l-2,1l-1.8,1.2l-2.3,1.3h-0.8l0.2-0.8l3.6-2.5l4-2.4l1.7-1
			c2.3-1.3,4.6-3.2,7.1-4.1h0.6L364.8-417.8L364.8-417.8z M371.5-426.2c-0.6,0.4-1.2,0.6-1.8,0.6c-2.4,0-4.8-2.5-4.8-4.9v-0.1
			c0-1-0.1-0.2,1.7-1.6l0.5-0.1l1.3,0.1l3.2,4.9L371.5-426.2z"/>
	</g>
	
		<text transform="matrix(1 0 0 1 -88.9782 -363.5865)" style="fill:#20231C; font-family:'MrsEavesXLSerifOT-Reg'; font-size:24px;">Psychotherapeutin in Ausbildung unter Supervision</text>
	
		<text transform="matrix(1 0 0 1 -103.1782 -334.7865)" style="fill:#20231C; font-family:'MrsEavesXLSerifOT-Reg'; font-size:24px;">tiefenpsychologisch fundierte Hypnosepsychotherapie</text>
	<g>
		<path class="st11" d="M274.4-516c-3,2.4-3.5,6.7-1,9.6s6.9,3.4,10,1c3-2.4,3.5-6.7,1-9.6S277.5-518.4,274.4-516z"/>
		<g>
			<g>
				<path class="st12" d="M117.3-331.4c34.1-14.6,66.9-37.8,87-69.4c19.7-32.1,27.3-70.9,23-108.2c-1.2-10.7-3.3-21.3-6.4-31.6
					l0.3-0.1c19.1,49.1,10.6,105-20.6,147.1c-7.9,11-16.7,21.4-26.8,30.5c-8.1,7.2-17.1,13.5-26.5,18.9c-9.5,5.3-19.4,9.9-29.8,13.1
					L117.3-331.4L117.3-331.4z"/>
			</g>
			<path class="st11" d="M183.7-538.8c2.6,5.7,9.6,8.3,15.5,5.8s8.6-9.2,6-15c-2.6-5.7-9.6-8.3-15.5-5.8
				C183.7-551.2,181-544.5,183.7-538.8z"/>
			<path class="st11" d="M185.7-589.1c4.4,1.6,6.7,6.4,5,10.7s-6.7,6.4-11.1,4.8c-4.4-1.6-6.7-6.4-5-10.7
				C176.3-588.6,181.3-590.7,185.7-589.1z"/>
			<path class="st11" d="M226.7-543.5c1.3,3.1-0.2,6.6-3.4,7.9c-3.2,1.3-6.9-0.2-8.2-3.3s0.2-6.6,3.4-7.9
				C221.7-548,225.4-546.6,226.7-543.5z"/>
			<path class="st11" d="M208.3-597.6c-3,2.4-3.5,6.7-1,9.6c2.5,2.9,6.9,3.4,10,1c3-2.4,3.5-6.7,1-9.6
				C215.8-599.6,211.3-600,208.3-597.6z"/>
			<path class="st11" d="M267.1-559.9c-1.7,2.7-0.9,6.3,2,8c2.8,1.7,6.5,0.8,8.3-1.9s0.9-6.3-1.9-8
				C272.5-563.5,268.8-562.6,267.1-559.9z"/>
			<path class="st11" d="M246.4-557.8c-1.8,2.7-0.9,6.3,1.9,8c2.8,1.7,6.5,0.9,8.3-1.9c1.7-2.7,0.9-6.3-1.9-8
				C251.8-561.4,248.1-560.5,246.4-557.8z"/>
			<path class="st11" d="M226.4-527.6c1.7-0.7,41-16.4,46.5-26.1l-1.9-1c-3.4,5.9-21.7,14.9-34,20.3c1.6-1.2,3.3-2.4,4.9-3.7
				c7.1-5.8,11-10.9,11.6-15l-2.2-0.3c-0.5,3.6-4.3,8.3-10.8,13.7c-7,5.7-14.8,10.2-14.9,10.3L226.4-527.6z"/>
			<g>
				<path class="st12" d="M283.7-565.4c-7.9,22.7-23,32.6-34.4,36.9c-12.3,4.6-22.6,3.9-23,3.8l0.2-2.8c1.6,0.1,40,2.6,54.4-38.8
					L283.7-565.4z"/>
				<path class="st12" d="M168.2-549.5c17.3,17.2,33.1,21.5,45.2,20.6c13.1-0.9,12.8,1.5,13.2,1.3l-3.1-5.8
					c-1.4,0.8-21.7,13.3-53.2-18.1L168.2-549.5z"/>
				<path class="st12" d="M297.6-542.9c-17.6,19.5-36.9,23.3-50,23c-14.2-0.3-24.1-5.1-24.5-5.3l1.4-2.7c1.6,0.8,38.7,18.5,70.7-17
					L297.6-542.9z"/>
				<path class="st12" d="M226.4-515.7c2,0.5,49.3,12.6,61.3,7.5l-1-2.3c-7.3,3.2-30.6-1.1-45.8-4.4c2.3,0,4.7,0,7.2-0.1
					c10.7-0.5,17.9-2.5,21.5-5.9l-1.8-1.8c-3,2.9-9.9,4.7-19.8,5.2c-10.5,0.5-21-0.7-21.1-0.7L226.4-515.7z"/>
				<path class="st12" d="M226.1-533.5c1.3-0.8,31.6-19,34.7-27.7l-1.8-0.6c-1.9,5.3-15.9,15.2-25.3,21.3c1.2-1.2,2.4-2.4,3.5-3.7
					c5.1-5.7,7.6-10.4,7.5-14h-1.9c0.1,3-2.3,7.4-7,12.7c-5,5.6-10.8,10.4-10.9,10.5L226.1-533.5z"/>
				<path class="st12" d="M230.9-507.7c-1.7-0.1-42.1-2.5-50.1-9.6l1.4-1.5c4.9,4.3,24.3,6.9,37.1,8.1c-1.8-0.6-3.7-1.2-5.6-1.9
					c-8.3-3.1-13.4-6.5-15.2-10l1.9-0.9c1.6,3,6.5,6.2,14.1,9c8.1,3,16.6,4.7,16.7,4.8L230.9-507.7z"/>
				<path class="st12" d="M194.1-600.2c1.9,0.6,2.1-1.3,4-0.7c-2.1,11.1,16.8,43.2,25.5,67.6c-0.5-3.6-1-8.2-1.4-11.9
					c-1.9-16.5,0.2-26.8,6.2-31.6c1.5,1.1,0.9,1,2.4,2.1c-5.2,4-7.3,13.8-5.7,29.1c1.7,16.3,5.8,33.2,5.8,33.3
					c4,32.4-7.3,61.9-14.2,91c-1.4-1.4,1.5-0.7,0-2c11.3-26.5,14.2-58.2,10.3-89.3c0,0-9.3-28.5-18-47.4
					C200.1-580.5,192.2-591.5,194.1-600.2z"/>
			</g>
			<path class="st11" d="M183-603.2c3.9,8.4,13.8,6.6,15.6,5.8c6-2.6,8.7-9.3,6-15.1s-9.7-8.4-15.6-5.8
				C183-615.7,180.3-608.9,183-603.2z"/>
			<path class="st11" d="M264.5-530c-3,2.4-3.5,6.7-1,9.6c2.5,2.9,6.9,3.4,10,1c3-2.4,3.5-6.7,1-9.6
				C272-531.9,267.5-532.4,264.5-530z"/>
			<path class="st11" d="M256.7-567c-1.7,2.7-0.9,6.3,1.9,8s6.5,0.8,8.3-1.9c1.7-2.7,0.9-6.3-1.9-8
				C262.1-570.6,258.4-569.8,256.7-567z"/>
			<path class="st11" d="M305.2-540.3c-4.9,4.1-12.4,3.5-16.6-1.3s-3.6-11.9,1.3-16s12.3-3.5,16.6,1.2
				C310.7-551.5,310.1-544.4,305.2-540.3z"/>
			<path class="st11" d="M220.2-577c2.8,6.2,10.3,8.9,16.6,6.2c6.4-2.7,9.3-9.9,6.4-16.1c-2.8-6.1-10.3-8.9-16.7-6.2
				C220.2-590.4,217.3-583.2,220.2-577z"/>
			<path class="st11" d="M248.7-564.9c1.3,3.1-0.2,6.6-3.4,7.9c-3.2,1.3-6.9-0.2-8.2-3.3s0.2-6.6,3.4-7.9
				C243.7-569.5,247.4-568,248.7-564.9z"/>
			<path class="st11" d="M289.5-571.5c1.3,3.1-0.2,6.6-3.4,7.9c-3.2,1.3-6.9-0.2-8.2-3.3c-1.3-3.1,0.2-6.6,3.4-7.9
				C284.5-576.1,288.2-574.6,289.5-571.5z"/>
			<path class="st11" d="M203.3-530.3c4.4,1.6,6.7,6.4,5,10.7s-6.6,6.4-11.1,4.8c-4.4-1.6-6.7-6.4-5-10.7S198.9-532,203.3-530.3z"/>
			<path class="st11" d="M180.8-525.3c4.4,1.6,6.7,6.4,5,10.7s-6.6,6.4-11.1,4.8c-4.4-1.6-6.7-6.4-5-10.7
				C171.4-524.7,176.3-526.9,180.8-525.3z"/>
			<path class="st11" d="M155.2-550.1c2.6,5.7,9.6,8.3,15.5,5.8c5.9-2.6,8.6-9.3,6-15s-9.6-8.3-15.5-5.8
				C155.2-562.6,152.6-555.9,155.2-550.1z"/>
		</g>
	</g>
	<g>
		<g>
			<path class="st12" d="M-14.2-741.5c0,0.1,0,0.2,0,0.3c2.4,0.1,12.6-0.3,19-9.9c-0.4,0.1-0.7,0.1-1.1,0
				C0.1-747.4-11.6-742.5-14.2-741.5z"/>
			<path class="st12" d="M-14.4-742.5c1.1-0.7,3.4-2.1,5.5-3.8c1.8-1.4,3.1-2.8,3.8-3.9l0,0c-3.7,2.9-8.3,5.7-9.4,6.4
				C-14.5-743.4-14.4-742.9-14.4-742.5z"/>
			<path class="st12" d="M-11.6-746.6c1.8-1.1,3.9-2.6,5.8-4.1c-0.9-0.7-1.2-2-0.6-3c-0.1,0.1-0.3,0.1-0.4,0.2
				c-0.1,0-0.2,0.1-0.2,0.1c-0.2,1.4-1.2,3.1-3.1,5.2C-10.6-747.6-11.1-747.1-11.6-746.6z"/>
			<path class="st12" d="M-22.7-737.2c0.8,0.5,1.9,0.9,3,1.3c1.9,0.7,3.9,1.3,5.2,1.6c-0.1-0.5-0.1-1-0.2-1.4
				c-0.4-1.1-1.1-3.3-2.1-6.1c-0.8-0.1-1.9-0.1-3.4,0.1c-1,0.1-2.1,0.1-3.2-0.1c1.1,0.9,1.6,2.5,1.1,3.9
				C-22.3-737.7-22.5-737.4-22.7-737.2z"/>
			<path class="st12" d="M-16-744.6C-16-744.5-16.1-744.5-16-744.6c0,0.2,0,0.4,0.1,0.5C-16-744.2-16-744.4-16-744.6z"/>
			<path class="st12" d="M-5.9-738c-3.3-0.1-6.1-0.7-7.9-1.3c0.2,0.8,0.3,1.5,0.4,2.2c1.6,0.1,4.6,0.3,7.6,0.2
				c2.8-0.1,5-0.5,6.5-1.1c0,0,0,0-0.1-0.1s-0.2-0.3-0.3-0.5C-1.9-738.2-4-738-5.9-738z"/>
			<path class="st12" d="M21.1-752.5c0-20.1-16.3-36.4-36.4-36.4s-36.4,16.3-36.4,36.4s16.3,36.4,36.4,36.4c0.3,0,0.6,0,0.9,0
				c0.7-5.6,0.7-11.3,0.1-16.9c-3.6-0.3-12.8-1.1-17.3-2.8l0,0c-0.7,1.8-2.8,2.7-4.6,2s-2.8-2.7-2.1-4.4c0.7-1.8,2.8-2.7,4.6-2
				c1.6,0.6,2.4,2.1,2.3,3.6c3.2,1.3,9.4,2,13.8,2.5c-0.8-0.2-1.5-0.5-2.3-0.8c-1.3-0.5-2.4-1-3.3-1.5c-1,0.8-2.3,1-3.5,0.6
				c-1.8-0.7-2.8-2.7-2.1-4.4c0.4-1.1,1.3-1.8,2.3-2.1c-0.6-0.2-1.2-0.4-1.8-0.6c-1.2-0.1-2.4-0.7-3.3-1.6c-1.7-1-3.6-2.3-5.4-4
				c-0.2,0.2-0.5,0.3-0.8,0.4c-2.5,1.1-5.4,0-6.4-2.4c-1.1-2.4,0-5.2,2.5-6.2c2.5-1.1,5.4,0,6.5,2.4c0.8,1.7,0.4,3.7-0.8,5
				c1.2,1.1,2.3,2,3.5,2.8c-0.6-2.2,0.5-4.6,2.7-5.5c2.5-1.1,5.4,0,6.5,2.4s0,5.2-2.5,6.2c-0.2,0.1-0.4,0.1-0.5,0.2
				c4.5,1.6,7.7,0.9,9.4,0.3c-0.2-0.5-0.4-1-0.5-1.5c-0.7-0.2-1.4-0.7-1.7-1.5c-0.3-0.8-0.2-1.7,0.2-2.3c-0.9-2.2-1.8-4.5-2.7-6.5
				c-3.2-7.4-6.1-11.8-6.3-15.2c-1.5,0-3.5-0.5-4.5-2.7c-1.1-2.4,0-5.2,2.5-6.3s5.4,0,6.5,2.4s0,5.2-2.5,6.3c-0.1,0-0.2,0.1-0.3,0.1
				c0.5,4.5,5,13.1,8.4,21c0,0,0.1,0,0.1-0.1c0.5-0.2,1-0.2,1.4-0.2c-0.5-4.7-0.1-8.1,1.1-10.3c-0.8-0.5-1.4-1.2-1.8-2.1
				c-1.2-2.6,0-5.6,2.7-6.7c2.6-1.1,5.7,0,6.9,2.6s0,5.6-2.7,6.7c-1.3,0.6-2.7,0.6-3.9,0.1c-1.1,2.1-1.5,5.6-1,10.3
				c0.3,0.2,0.5,0.6,0.7,0.9c0.3,0.8,0.2,1.7-0.3,2.4c0,0.2,0.1,0.5,0.1,0.7c0.8-0.7,2.5-2.2,4-3.9c1.6-1.9,2.6-3.4,2.9-4.6
				c-1,0-1.9-0.6-2.3-1.6c-0.5-1.3,0.1-2.8,1.4-3.3s2.8,0.1,3.4,1.4c0.3,0.7,0.2,1.5-0.1,2.2c0.8-0.5,1.8-0.5,2.6,0
				c0.3,0.2,0.6,0.4,0.7,0.7c0.2-0.2,0.4-0.5,0.6-0.7c-0.9-0.8-1.1-2.1-0.5-3.1c0.7-1.1,2.3-1.5,3.4-0.8c1.2,0.7,1.5,2.2,0.8,3.3
				c-0.7,1-2,1.4-3.1,0.9c-0.2,0.3-0.5,0.6-0.8,1c0.2,0.6,0.1,1.3-0.3,1.9c-0.4,0.7-1.2,1.1-2,1.1c-0.8,1.3-2.2,2.8-4.2,4.5
				c-0.7,0.6-1.4,1.1-2,1.6c4.4-2,10.7-5,13.2-7.4c-1.1-0.7-1.4-2.1-0.7-3.2c0.7-1.1,2.3-1.5,3.4-0.8c0.5,0.3,0.9,0.7,1,1.2
				c0.3-0.7,0.7-1.5,1-2.3c-0.4-0.3-0.7-0.6-0.9-1.1c-0.5-1.3,0.1-2.8,1.4-3.3s2.8,0.1,3.4,1.4c0.5,1.3-0.1,2.8-1.4,3.3
				c-0.4,0.2-0.9,0.2-1.3,0.2c-3.4,8.8-9.4,12.7-14,14.4c-2.6,1-5,1.4-6.8,1.5c2.9,0.8,7.2,1.4,12,0.2c-0.1-0.9,0.3-1.8,1.1-2.4
				c1.3-1,3.1-0.8,4.1,0.4c0,0,0,0,0,0.1c2.2-1.1,4.4-2.6,6.6-4.6c-0.3-0.2-0.5-0.4-0.7-0.7c-1.8-2-1.5-5,0.5-6.7s5.1-1.5,6.9,0.5
				c1.8,2,1.5,5-0.5,6.7c-1.4,1.2-3.4,1.4-5,0.8c-2.4,2.3-4.8,3.9-7.2,5.1c0.2,1-0.1,2.1-1,2.8S3-737.3,2-737.7
				c-1.7,0.8-4.2,1.3-7.5,1.5c-1,0-2,0.1-3,0c3.8,0.8,8.9,1.8,12.9,2.2c-0.1-1,0.2-2,1-2.6c1.3-1,3.1-0.8,4.1,0.4
				c0.5,0.6,0.7,1.3,0.7,2c0.1,0,0.2-0.1,0.3-0.1l0.4,0.9c-0.3,0.1-0.7,0.2-1,0.3c-0.2,0.3-0.4,0.6-0.7,0.9c-1.3,1-3.1,0.8-4.1-0.4
				c-0.1-0.1-0.2-0.2-0.2-0.3c-6.1-0.4-14.2-2.3-17.7-3.1c0.1,0.6,0.2,1,0.2,1c0,0.4,0.1,0.7,0.1,1.1l0,0l0,0c0.3,3.2,0.3,6.3,0,9.4
				c0,2.7-0.2,5.4-0.5,8.1C5.9-717.3,21.1-733.2,21.1-752.5z M-31.6-766.8c1.8,0.7,2.8,2.7,2.1,4.4c-0.7,1.8-2.8,2.7-4.6,2
				s-2.8-2.7-2.1-4.4C-35.5-766.6-33.4-767.5-31.6-766.8z M-18.5-766c-1.3,1-3.1,0.8-4.1-0.4s-0.8-3,0.4-4c1.3-1,3.1-0.8,4.1,0.4
				C-17-768.8-17.2-767-18.5-766z"/>
		</g>
		
			<text transform="matrix(1 0 0 1 32.4722 -724.6729)" class="st12" style="font-family:'VolutaScriptPro-Regular'; font-size:100px;">Christina Kuri</text>
		<g>
			<text transform="matrix(1 0 0 1 50.2334 -691.7789)" style="font-family:'MrEavesXLModOT-Book'; font-size:27px;">Icon Verwendung f체r Webseite</text>
		</g>
	</g>
</g>
</svg>
